<mxfile host="app.diagrams.net" agent="Mozilla/5.0 (X11; Ubuntu; Linux x86_64; rv:130.0) Gecko/20100101 Firefox/130.0" version="24.7.17">
  <diagram name="Page-1" id="Yg9bShoAAAqFZYxHAgR9">
    <mxGraphModel dx="3282" dy="1902" grid="1" gridSize="10" guides="1" tooltips="1" connect="1" arrows="1" fold="1" page="1" pageScale="1" pageWidth="850" pageHeight="1100" math="0" shadow="0">
      <root>
        <mxCell id="0" />
        <mxCell id="1" parent="0" />
        <mxCell id="tNu6OdwplgybJQBT_GPH-1" value="" style="shape=image;verticalLabelPosition=bottom;labelBackgroundColor=default;verticalAlign=top;aspect=fixed;imageAspect=0;image=data:image/svg+xml,PHN2ZyB4bWxucz0iaHR0cDovL3d3dy53My5vcmcvMjAwMC9zdmciIGhlaWdodD0iNDEzIiB3aWR0aD0iNTcwIiBzdHlsZT0iZmlsbC1vcGFjaXR5OjE7IGNvbG9yLXJlbmRlcmluZzphdXRvOyBjb2xvci1pbnRlcnBvbGF0aW9uOmF1dG87IHRleHQtcmVuZGVyaW5nOmF1dG87IHN0cm9rZTpibGFjazsgc3Ryb2tlLWxpbmVjYXA6c3F1YXJlOyBzdHJva2UtbWl0ZXJsaW1pdDoxMDsgc2hhcGUtcmVuZGVyaW5nOmF1dG87IHN0cm9rZS1vcGFjaXR5OjE7IGZpbGw6YmxhY2s7IHN0cm9rZS1kYXNoYXJyYXk6bm9uZTsgZm9udC13ZWlnaHQ6bm9ybWFsOyBzdHJva2Utd2lkdGg6MTsgZm9udC1mYW1pbHk6J0RpYWxvZyc7IGZvbnQtc3R5bGU6bm9ybWFsOyBzdHJva2UtbGluZWpvaW46bWl0ZXI7IGZvbnQtc2l6ZToxMnB4OyBzdHJva2UtZGFzaG9mZnNldDowOyBpbWFnZS1yZW5kZXJpbmc6YXV0bzsiIHhtbG5zOnhsaW5rPSJodHRwOi8vd3d3LnczLm9yZy8xOTk5L3hsaW5rIiB2aWV3Qm94PSIwIDAgNTcwIDQxMyI+PGRlZnMgaWQ9ImdlbmVyaWNEZWZzIi8+PGc+PGRlZnMgaWQ9ImRlZnMxIj48Y2xpcFBhdGggaWQ9ImNsaXBQYXRoMSIgY2xpcFBhdGhVbml0cz0idXNlclNwYWNlT25Vc2UiPjxwYXRoIGQ9Ik0wIDAgTDU3MCAwIEw1NzAgNDEzIEwwIDQxMyBMMCAwIFoiLz48L2NsaXBQYXRoPjxmb250IGlkPSJmb250MSI+PGdseXBoIGQ9Ik0zMS43ODEyIDY2LjQwNjIgUTI0LjE3MTkgNjYuNDA2MiAyMC4zMzU5IDU4LjkxNDEgUTE2LjUgNTEuNDIxOSAxNi41IDM2LjM3NSBRMTYuNSAyMS4zOTA2IDIwLjMzNTkgMTMuODkwNiBRMjQuMTcxOSA2LjM5MDYgMzEuNzgxMiA2LjM5MDYgUTM5LjQ1MzEgNi4zOTA2IDQzLjI4OTEgMTMuODkwNiBRNDcuMTI1IDIxLjM5MDYgNDcuMTI1IDM2LjM3NSBRNDcuMTI1IDUxLjQyMTkgNDMuMjg5MSA1OC45MTQxIFEzOS40NTMxIDY2LjQwNjIgMzEuNzgxMiA2Ni40MDYyIFpNMzEuNzgxMiA3NC4yMTg4IFE0NC4wNDY5IDc0LjIxODggNTAuNTE1NiA2NC41MjM0IFE1Ni45ODQ0IDU0LjgyODEgNTYuOTg0NCAzNi4zNzUgUTU2Ljk4NDQgMTcuOTY4OCA1MC41MTU2IDguMjczNCBRNDQuMDQ2OSAtMS40MjE5IDMxLjc4MTIgLTEuNDIxOSBRMTkuNTMxMiAtMS40MjE5IDEzLjA2MjUgOC4yNzM0IFE2LjU5MzggMTcuOTY4OCA2LjU5MzggMzYuMzc1IFE2LjU5MzggNTQuODI4MSAxMy4wNjI1IDY0LjUyMzQgUTE5LjUzMTIgNzQuMjE4OCAzMS43ODEyIDc0LjIxODggWiIgdW5pY29kZT0iMCIvPjxnbHlwaCBkPSJNMTkuMTg3NSA4LjI5NjkgTDUzLjYwOTQgOC4yOTY5IEw1My42MDk0IDAgTDcuMzI4MSAwIEw3LjMyODEgOC4yOTY5IFExMi45Mzc1IDE0LjEwOTQgMjIuNjMyOCAyMy44OTg0IFEzMi4zMjgxIDMzLjY4NzUgMzQuODEyNSAzNi41MzEyIFEzOS41NDY5IDQxLjg0MzggNDEuNDI5NyA0NS41MzEyIFE0My4zMTI1IDQ5LjIxODggNDMuMzEyNSA1Mi43ODEyIFE0My4zMTI1IDU4LjU5MzggMzkuMjM0NCA2Mi4yNTc4IFEzNS4xNTYyIDY1LjkyMTkgMjguNjA5NCA2NS45MjE5IFEyMy45Njg4IDY1LjkyMTkgMTguODIwMyA2NC4zMTI1IFExMy42NzE5IDYyLjcwMzEgNy44MTI1IDU5LjQyMTkgTDcuODEyNSA2OS4zOTA2IFExMy43NjU2IDcxLjc4MTIgMTguOTQ1MyA3MyBRMjQuMTI1IDc0LjIxODggMjguNDIxOSA3NC4yMTg4IFEzOS43NSA3NC4yMTg4IDQ2LjQ4NDQgNjguNTU0NyBRNTMuMjE4OCA2Mi44OTA2IDUzLjIxODggNTMuNDIxOSBRNTMuMjE4OCA0OC45MjE5IDUxLjUzOTEgNDQuODk4NCBRNDkuODU5NCA0MC44NzUgNDUuNDA2MiAzNS40MDYyIFE0NC4xODc1IDMzLjk4NDQgMzcuNjQ4NCAyNy4yMTg4IFEzMS4xMDk0IDIwLjQ1MzEgMTkuMTg3NSA4LjI5NjkgWiIgdW5pY29kZT0iMiIvPjxnbHlwaCBkPSJNMTAuNjg3NSAxMi40MDYyIEwyMSAxMi40MDYyIEwyMSAwIEwxMC42ODc1IDAgTDEwLjY4NzUgMTIuNDA2MiBaIiB1bmljb2RlPSIuIi8+PGdseXBoIGQ9Ik0zNy43OTY5IDY0LjMxMjUgTDEyLjg5MDYgMjUuMzkwNiBMMzcuNzk2OSAyNS4zOTA2IEwzNy43OTY5IDY0LjMxMjUgWk0zNS4yMDMxIDcyLjkwNjIgTDQ3LjYwOTQgNzIuOTA2MiBMNDcuNjA5NCAyNS4zOTA2IEw1OC4wMTU2IDI1LjM5MDYgTDU4LjAxNTYgMTcuMTg3NSBMNDcuNjA5NCAxNy4xODc1IEw0Ny42MDk0IDAgTDM3Ljc5NjkgMCBMMzcuNzk2OSAxNy4xODc1IEw0Ljg5MDYgMTcuMTg3NSBMNC44OTA2IDI2LjcwMzEgTDM1LjIwMzEgNzIuOTA2MiBaIiB1bmljb2RlPSI0Ii8+PGdseXBoIGQ9Ik0zMy4wMTU2IDQwLjM3NSBRMjYuMzc1IDQwLjM3NSAyMi40OTIyIDM1LjgzNTkgUTE4LjYwOTQgMzEuMjk2OSAxOC42MDk0IDIzLjM5MDYgUTE4LjYwOTQgMTUuNTMxMiAyMi40OTIyIDEwLjk2MDkgUTI2LjM3NSA2LjM5MDYgMzMuMDE1NiA2LjM5MDYgUTM5LjY1NjIgNi4zOTA2IDQzLjUzMTIgMTAuOTYwOSBRNDcuNDA2MiAxNS41MzEyIDQ3LjQwNjIgMjMuMzkwNiBRNDcuNDA2MiAzMS4yOTY5IDQzLjUzMTIgMzUuODM1OSBRMzkuNjU2MiA0MC4zNzUgMzMuMDE1NiA0MC4zNzUgWk01Mi41OTM4IDcxLjI5NjkgTDUyLjU5MzggNjIuMzEyNSBRNDguODc1IDY0LjA2MjUgNDUuMDkzOCA2NC45OTIyIFE0MS4zMTI1IDY1LjkyMTkgMzcuNTkzOCA2NS45MjE5IFEyNy44MjgxIDY1LjkyMTkgMjIuNjc5NyA1OS4zMjgxIFExNy41MzEyIDUyLjczNDQgMTYuNzk2OSAzOS40MDYyIFExOS42NzE5IDQzLjY1NjIgMjQuMDIzNCA0NS45MjE5IFEyOC4zNzUgNDguMTg3NSAzMy41OTM4IDQ4LjE4NzUgUTQ0LjU3ODEgNDguMTg3NSA1MC45NTMxIDQxLjUyMzQgUTU3LjMyODEgMzQuODU5NCA1Ny4zMjgxIDIzLjM5MDYgUTU3LjMyODEgMTIuMTU2MiA1MC42ODc1IDUuMzY3MiBRNDQuMDQ2OSAtMS40MjE5IDMzLjAxNTYgLTEuNDIxOSBRMjAuMzU5NCAtMS40MjE5IDEzLjY3MTkgOC4yNzM0IFE2Ljk4NDQgMTcuOTY4OCA2Ljk4NDQgMzYuMzc1IFE2Ljk4NDQgNTMuNjU2MiAxNS4xODc1IDYzLjkzNzUgUTIzLjM5MDYgNzQuMjE4OCAzNy4yMDMxIDc0LjIxODggUTQwLjkyMTkgNzQuMjE4OCA0NC43MDMxIDczLjQ4NDQgUTQ4LjQ4NDQgNzIuNzUgNTIuNTkzOCA3MS4yOTY5IFoiIHVuaWNvZGU9IjYiLz48Z2x5cGggZD0iTTMxLjc4MTIgMzQuNjI1IFEyNC43NSAzNC42MjUgMjAuNzI2NiAzMC44NTk0IFExNi43MDMxIDI3LjA5MzggMTYuNzAzMSAyMC41MTU2IFExNi43MDMxIDEzLjkyMTkgMjAuNzI2NiAxMC4xNTYyIFEyNC43NSA2LjM5MDYgMzEuNzgxMiA2LjM5MDYgUTM4LjgxMjUgNi4zOTA2IDQyLjg2NzIgMTAuMTc5NyBRNDYuOTIxOSAxMy45Njg4IDQ2LjkyMTkgMjAuNTE1NiBRNDYuOTIxOSAyNy4wOTM4IDQyLjg5ODQgMzAuODU5NCBRMzguODc1IDM0LjYyNSAzMS43ODEyIDM0LjYyNSBaTTIxLjkyMTkgMzguODEyNSBRMTUuNTc4MSA0MC4zNzUgMTIuMDM5MSA0NC43MjY2IFE4LjUgNDkuMDc4MSA4LjUgNTUuMzI4MSBROC41IDY0LjA2MjUgMTQuNzI2NiA2OS4xNDA2IFEyMC45NTMxIDc0LjIxODggMzEuNzgxMiA3NC4yMTg4IFE0Mi42NzE5IDc0LjIxODggNDguODc1IDY5LjE0MDYgUTU1LjA3ODEgNjQuMDYyNSA1NS4wNzgxIDU1LjMyODEgUTU1LjA3ODEgNDkuMDc4MSA1MS41MzkxIDQ0LjcyNjYgUTQ4IDQwLjM3NSA0MS43MDMxIDM4LjgxMjUgUTQ4LjgyODEgMzcuMTU2MiA1Mi44MDQ3IDMyLjMyMDMgUTU2Ljc4MTIgMjcuNDg0NCA1Ni43ODEyIDIwLjUxNTYgUTU2Ljc4MTIgOS45MDYyIDUwLjMxMjUgNC4yNDIyIFE0My44NDM4IC0xLjQyMTkgMzEuNzgxMiAtMS40MjE5IFExOS43MzQ0IC0xLjQyMTkgMTMuMjU3OCA0LjI0MjIgUTYuNzgxMiA5LjkwNjIgNi43ODEyIDIwLjUxNTYgUTYuNzgxMiAyNy40ODQ0IDEwLjc4OTEgMzIuMzIwMyBRMTQuNzk2OSAzNy4xNTYyIDIxLjkyMTkgMzguODEyNSBaTTE4LjMxMjUgNTQuMzkwNiBRMTguMzEyNSA0OC43MzQ0IDIxLjg1MTYgNDUuNTYyNSBRMjUuMzkwNiA0Mi4zOTA2IDMxLjc4MTIgNDIuMzkwNiBRMzguMTQwNiA0Mi4zOTA2IDQxLjcyNjYgNDUuNTYyNSBRNDUuMzEyNSA0OC43MzQ0IDQ1LjMxMjUgNTQuMzkwNiBRNDUuMzEyNSA2MC4wNjI1IDQxLjcyNjYgNjMuMjM0NCBRMzguMTQwNiA2Ni40MDYyIDMxLjc4MTIgNjYuNDA2MiBRMjUuMzkwNiA2Ni40MDYyIDIxLjg1MTYgNjMuMjM0NCBRMTguMzEyNSA2MC4wNjI1IDE4LjMxMjUgNTQuMzkwNiBaIiB1bmljb2RlPSI4Ii8+PGdseXBoIGQ9Ik0xMi40MDYyIDguMjk2OSBMMjguNTE1NiA4LjI5NjkgTDI4LjUxNTYgNjMuOTIxOSBMMTAuOTg0NCA2MC40MDYyIEwxMC45ODQ0IDY5LjM5MDYgTDI4LjQyMTkgNzIuOTA2MiBMMzguMjgxMiA3Mi45MDYyIEwzOC4yODEyIDguMjk2OSBMNTQuMzkwNiA4LjI5NjkgTDU0LjM5MDYgMCBMMTIuNDA2MiAwIEwxMi40MDYyIDguMjk2OSBaIiB1bmljb2RlPSIxIi8+PGdseXBoIGQ9Ik05LjQyMTkgNTQuNjg3NSBMMTguNDA2MiA1NC42ODc1IEwxOC40MDYyIDAgTDkuNDIxOSAwIEw5LjQyMTkgNTQuNjg3NSBaTTkuNDIxOSA3NS45ODQ0IEwxOC40MDYyIDc1Ljk4NDQgTDE4LjQwNjIgNjQuNTkzOCBMOS40MjE5IDY0LjU5MzggTDkuNDIxOSA3NS45ODQ0IFoiIHVuaWNvZGU9ImkiLz48Z2x5cGggZD0iTTU0Ljg5MDYgNTQuNjg3NSBMMzUuMTA5NCAyOC4wNzgxIEw1NS45MDYyIDAgTDQ1LjMxMjUgMCBMMjkuMzkwNiAyMS40ODQ0IEwxMy40ODQ0IDAgTDIuODc1IDAgTDI0LjEyNSAyOC42MDk0IEw0LjY4NzUgNTQuNjg3NSBMMTUuMjgxMiA1NC42ODc1IEwyOS43ODEyIDM1LjIwMzEgTDQ0LjI4MTIgNTQuNjg3NSBMNTQuODkwNiA1NC42ODc1IFoiIHVuaWNvZGU9IngiLz48Z2x5cGggZD0iIiB1bmljb2RlPSIiLz48Z2x5cGggZD0iTTE4LjMxMjUgNzAuMjE4OCBMMTguMzEyNSA1NC42ODc1IEwzNi44MTI1IDU0LjY4NzUgTDM2LjgxMjUgNDcuNzAzMSBMMTguMzEyNSA0Ny43MDMxIEwxOC4zMTI1IDE4LjAxNTYgUTE4LjMxMjUgMTEuMzI4MSAyMC4xNDA2IDkuNDIxOSBRMjEuOTY4OCA3LjUxNTYgMjcuNTkzOCA3LjUxNTYgTDM2LjgxMjUgNy41MTU2IEwzNi44MTI1IDAgTDI3LjU5MzggMCBRMTcuMTg3NSAwIDEzLjIzNDQgMy44ODI4IFE5LjI4MTIgNy43NjU2IDkuMjgxMiAxOC4wMTU2IEw5LjI4MTIgNDcuNzAzMSBMMi42ODc1IDQ3LjcwMzEgTDIuNjg3NSA1NC42ODc1IEw5LjI4MTIgNTQuNjg3NSBMOS4yODEyIDcwLjIxODggTDE4LjMxMjUgNzAuMjE4OCBaIiB1bmljb2RlPSJ0Ii8+PGdseXBoIGQ9Ik01NC44OTA2IDMzLjAxNTYgTDU0Ljg5MDYgMCBMNDUuOTA2MiAwIEw0NS45MDYyIDMyLjcxODggUTQ1LjkwNjIgNDAuNDg0NCA0Mi44NzUgNDQuMzM1OSBRMzkuODQzOCA0OC4xODc1IDMzLjc5NjkgNDguMTg3NSBRMjYuNTE1NiA0OC4xODc1IDIyLjMxMjUgNDMuNTU0NyBRMTguMTA5NCAzOC45MjE5IDE4LjEwOTQgMzAuOTA2MiBMMTguMTA5NCAwIEw5LjA3ODEgMCBMOS4wNzgxIDU0LjY4NzUgTDE4LjEwOTQgNTQuNjg3NSBMMTguMTA5NCA0Ni4xODc1IFEyMS4zNDM4IDUxLjEyNSAyNS43MTA5IDUzLjU2MjUgUTMwLjA3ODEgNTYgMzUuNzk2OSA1NiBRNDUuMjE4OCA1NiA1MC4wNTQ3IDUwLjE3MTkgUTU0Ljg5MDYgNDQuMzQzOCA1NC44OTA2IDMzLjAxNTYgWiIgdW5pY29kZT0ibiIvPjxnbHlwaCBkPSJNNTYuMjAzMSAyOS41OTM4IEw1Ni4yMDMxIDI1LjIwMzEgTDE0Ljg5MDYgMjUuMjAzMSBRMTUuNDg0NCAxNS45MjE5IDIwLjQ4NDQgMTEuMDYyNSBRMjUuNDg0NCA2LjIwMzEgMzQuNDIxOSA2LjIwMzEgUTM5LjU5MzggNi4yMDMxIDQ0LjQ1MzEgNy40Njg4IFE0OS4zMTI1IDguNzM0NCA1NC4xMDk0IDExLjI4MTIgTDU0LjEwOTQgMi43ODEyIFE0OS4yNjU2IDAuNzM0NCA0NC4xODc1IC0wLjM0MzggUTM5LjEwOTQgLTEuNDIxOSAzMy44OTA2IC0xLjQyMTkgUTIwLjc5NjkgLTEuNDIxOSAxMy4xNTYyIDYuMTk1MyBRNS41MTU2IDEzLjgxMjUgNS41MTU2IDI2LjgxMjUgUTUuNTE1NiA0MC4yMzQ0IDEyLjc2NTYgNDguMTE3MiBRMjAuMDE1NiA1NiAzMi4zMjgxIDU2IFE0My4zNTk0IDU2IDQ5Ljc4MTIgNDguODk4NCBRNTYuMjAzMSA0MS43OTY5IDU2LjIwMzEgMjkuNTkzOCBaTTQ3LjIxODggMzIuMjM0NCBRNDcuMTI1IDM5LjU5MzggNDMuMDkzOCA0My45OTIyIFEzOS4wNjI1IDQ4LjM5MDYgMzIuNDIxOSA0OC4zOTA2IFEyNC45MDYyIDQ4LjM5MDYgMjAuMzkwNiA0NC4xNDA2IFExNS44NzUgMzkuODkwNiAxNS4xODc1IDMyLjE3MTkgTDQ3LjIxODggMzIuMjM0NCBaIiB1bmljb2RlPSJlIi8+PGdseXBoIGQ9Ik0yLjk4NDQgNTQuNjg3NSBMMTIuNSA1NC42ODc1IEwyOS41OTM4IDguNzk2OSBMNDYuNjg3NSA1NC42ODc1IEw1Ni4yMDMxIDU0LjY4NzUgTDM1LjY4NzUgMCBMMjMuNDg0NCAwIEwyLjk4NDQgNTQuNjg3NSBaIiB1bmljb2RlPSJ2Ii8+PGdseXBoIGQ9Ik00Ljg5MDYgMzEuMzkwNiBMMzEuMjAzMSAzMS4zOTA2IEwzMS4yMDMxIDIzLjM5MDYgTDQuODkwNiAyMy4zOTA2IEw0Ljg5MDYgMzEuMzkwNiBaIiB1bmljb2RlPSItIi8+PGdseXBoIGQ9Ik05LjQyMTkgNzUuOTg0NCBMMTguNDA2MiA3NS45ODQ0IEwxOC40MDYyIDAgTDkuNDIxOSAwIEw5LjQyMTkgNzUuOTg0NCBaIiB1bmljb2RlPSJsIi8+PGdseXBoIGQ9Ik0zNC4yODEyIDI3LjQ4NDQgUTIzLjM5MDYgMjcuNDg0NCAxOS4xODc1IDI1IFExNC45ODQ0IDIyLjUxNTYgMTQuOTg0NCAxNi41IFExNC45ODQ0IDExLjcxODggMTguMTQwNiA4LjkxNDEgUTIxLjI5NjkgNi4xMDk0IDI2LjcwMzEgNi4xMDk0IFEzNC4xODc1IDYuMTA5NCAzOC43MDMxIDExLjQwNjIgUTQzLjIxODggMTYuNzAzMSA0My4yMTg4IDI1LjQ4NDQgTDQzLjIxODggMjcuNDg0NCBMMzQuMjgxMiAyNy40ODQ0IFpNNTIuMjAzMSAzMS4yMDMxIEw1Mi4yMDMxIDAgTDQzLjIxODggMCBMNDMuMjE4OCA4LjI5NjkgUTQwLjE0MDYgMy4zMjgxIDM1LjU0NjkgMC45NTMxIFEzMC45NTMxIC0xLjQyMTkgMjQuMzEyNSAtMS40MjE5IFExNS45MjE5IC0xLjQyMTkgMTAuOTYwOSAzLjI5NjkgUTYgOC4wMTU2IDYgMTUuOTIxOSBRNiAyNS4xNDA2IDEyLjE3OTcgMjkuODI4MSBRMTguMzU5NCAzNC41MTU2IDMwLjYwOTQgMzQuNTE1NiBMNDMuMjE4OCAzNC41MTU2IEw0My4yMTg4IDM1LjQwNjIgUTQzLjIxODggNDEuNjA5NCAzOS4xNDA2IDQ1IFEzNS4wNjI1IDQ4LjM5MDYgMjcuNjg3NSA0OC4zOTA2IFEyMyA0OC4zOTA2IDE4LjU1NDcgNDcuMjY1NiBRMTQuMTA5NCA0Ni4xNDA2IDEwLjAxNTYgNDMuODkwNiBMMTAuMDE1NiA1Mi4yMDMxIFExNC45Mzc1IDU0LjEwOTQgMTkuNTc4MSA1NS4wNTQ3IFEyNC4yMTg4IDU2IDI4LjYwOTQgNTYgUTQwLjQ4NDQgNTYgNDYuMzQzOCA0OS44NTE2IFE1Mi4yMDMxIDQzLjcwMzEgNTIuMjAzMSAzMS4yMDMxIFoiIHVuaWNvZGU9ImEiLz48Z2x5cGggZD0iTTQ0LjI4MTIgNTMuMDc4MSBMNDQuMjgxMiA0NC41NzgxIFE0MC40ODQ0IDQ2LjUzMTIgMzYuMzgyOCA0Ny41MDc4IFEzMi4yODEyIDQ4LjQ4NDQgMjcuODc1IDQ4LjQ4NDQgUTIxLjE4NzUgNDguNDg0NCAxNy44NDM4IDQ2LjQzNzUgUTE0LjUgNDQuMzkwNiAxNC41IDQwLjI4MTIgUTE0LjUgMzcuMTU2MiAxNi44OTA2IDM1LjM3NSBRMTkuMjgxMiAzMy41OTM4IDI2LjUxNTYgMzEuOTg0NCBMMjkuNTkzOCAzMS4yOTY5IFEzOS4xNTYyIDI5LjI1IDQzLjE4NzUgMjUuNTE1NiBRNDcuMjE4OCAyMS43ODEyIDQ3LjIxODggMTUuMDkzOCBRNDcuMjE4OCA3LjQ2ODggNDEuMTg3NSAzLjAyMzQgUTM1LjE1NjIgLTEuNDIxOSAyNC42MDk0IC0xLjQyMTkgUTIwLjIxODggLTEuNDIxOSAxNS40NTMxIC0wLjU2MjUgUTEwLjY4NzUgMC4yOTY5IDUuNDIxOSAyIEw1LjQyMTkgMTEuMjgxMiBRMTAuNDA2MiA4LjY4NzUgMTUuMjM0NCA3LjM5ODQgUTIwLjA2MjUgNi4xMDk0IDI0LjgxMjUgNi4xMDk0IFEzMS4xNTYyIDYuMTA5NCAzNC41NzAzIDguMjgxMiBRMzcuOTg0NCAxMC40NTMxIDM3Ljk4NDQgMTQuNDA2MiBRMzcuOTg0NCAxOC4wNjI1IDM1LjUyMzQgMjAuMDE1NiBRMzMuMDYyNSAyMS45Njg4IDI0LjcwMzEgMjMuNzgxMiBMMjEuNTc4MSAyNC41MTU2IFExMy4yMzQ0IDI2LjI2NTYgOS41MjM0IDI5LjkwNjIgUTUuODEyNSAzMy41NDY5IDUuODEyNSAzOS44OTA2IFE1LjgxMjUgNDcuNjA5NCAxMS4yODEyIDUxLjgwNDcgUTE2Ljc1IDU2IDI2LjgxMjUgNTYgUTMxLjc4MTIgNTYgMzYuMTc5NyA1NS4yNzM0IFE0MC41NzgxIDU0LjU0NjkgNDQuMjgxMiA1My4wNzgxIFoiIHVuaWNvZGU9InMiLz48Z2x5cGggZD0iTTQxLjEwOTQgNDYuMjk2OSBRMzkuNTkzOCA0Ny4xNzE5IDM3LjgxMjUgNDcuNTg1OSBRMzYuMDMxMiA0OCAzMy44OTA2IDQ4IFEyNi4yNjU2IDQ4IDIyLjE4NzUgNDMuMDQ2OSBRMTguMTA5NCAzOC4wOTM4IDE4LjEwOTQgMjguODEyNSBMMTguMTA5NCAwIEw5LjA3ODEgMCBMOS4wNzgxIDU0LjY4NzUgTDE4LjEwOTQgNTQuNjg3NSBMMTguMTA5NCA0Ni4xODc1IFEyMC45NTMxIDUxLjE3MTkgMjUuNDkyMiA1My41ODU5IFEzMC4wMzEyIDU2IDM2LjUzMTIgNTYgUTM3LjQ1MzEgNTYgMzguNTc4MSA1NS44ODI4IFEzOS43MDMxIDU1Ljc2NTYgNDEuMDYyNSA1NS41MTU2IEw0MS4xMDk0IDQ2LjI5NjkgWiIgdW5pY29kZT0iciIvPjxnbHlwaCBkPSJNMzAuNjA5NCA0OC4zOTA2IFEyMy4zOTA2IDQ4LjM5MDYgMTkuMTg3NSA0Mi43NSBRMTQuOTg0NCAzNy4xMDk0IDE0Ljk4NDQgMjcuMjk2OSBRMTQuOTg0NCAxNy40ODQ0IDE5LjE2NDEgMTEuODQzOCBRMjMuMzQzOCA2LjIwMzEgMzAuNjA5NCA2LjIwMzEgUTM3Ljc5NjkgNi4yMDMxIDQxLjk5MjIgMTEuODY3MiBRNDYuMTg3NSAxNy41MzEyIDQ2LjE4NzUgMjcuMjk2OSBRNDYuMTg3NSAzNy4wMTU2IDQxLjk5MjIgNDIuNzAzMSBRMzcuNzk2OSA0OC4zOTA2IDMwLjYwOTQgNDguMzkwNiBaTTMwLjYwOTQgNTYgUTQyLjMyODEgNTYgNDkuMDIzNCA0OC4zODI4IFE1NS43MTg4IDQwLjc2NTYgNTUuNzE4OCAyNy4yOTY5IFE1NS43MTg4IDEzLjg3NSA0OS4wMjM0IDYuMjI2NiBRNDIuMzI4MSAtMS40MjE5IDMwLjYwOTQgLTEuNDIxOSBRMTguODQzOCAtMS40MjE5IDEyLjE3OTcgNi4yMjY2IFE1LjUxNTYgMTMuODc1IDUuNTE1NiAyNy4yOTY5IFE1LjUxNTYgNDAuNzY1NiAxMi4xNzk3IDQ4LjM4MjggUTE4Ljg0MzggNTYgMzAuNjA5NCA1NiBaIiB1bmljb2RlPSJvIi8+PGdseXBoIGQ9Ik00NS40MDYyIDQ2LjM5MDYgTDQ1LjQwNjIgNzUuOTg0NCBMNTQuMzkwNiA3NS45ODQ0IEw1NC4zOTA2IDAgTDQ1LjQwNjIgMCBMNDUuNDA2MiA4LjIwMzEgUTQyLjU3ODEgMy4zMjgxIDM4LjI1NzggMC45NTMxIFEzMy45Mzc1IC0xLjQyMTkgMjcuODc1IC0xLjQyMTkgUTE3Ljk2ODggLTEuNDIxOSAxMS43NDIyIDYuNDkyMiBRNS41MTU2IDE0LjQwNjIgNS41MTU2IDI3LjI5NjkgUTUuNTE1NiA0MC4xODc1IDExLjc0MjIgNDguMDkzOCBRMTcuOTY4OCA1NiAyNy44NzUgNTYgUTMzLjkzNzUgNTYgMzguMjU3OCA1My42MzI4IFE0Mi41NzgxIDUxLjI2NTYgNDUuNDA2MiA0Ni4zOTA2IFpNMTQuNzk2OSAyNy4yOTY5IFExNC43OTY5IDE3LjM5MDYgMTguODc1IDExLjc1IFEyMi45NTMxIDYuMTA5NCAzMC4wNzgxIDYuMTA5NCBRMzcuMjAzMSA2LjEwOTQgNDEuMzA0NyAxMS43NSBRNDUuNDA2MiAxNy4zOTA2IDQ1LjQwNjIgMjcuMjk2OSBRNDUuNDA2MiAzNy4yMDMxIDQxLjMwNDcgNDIuODQzOCBRMzcuMjAzMSA0OC40ODQ0IDMwLjA3ODEgNDguNDg0NCBRMjIuOTUzMSA0OC40ODQ0IDE4Ljg3NSA0Mi44NDM4IFExNC43OTY5IDM3LjIwMzEgMTQuNzk2OSAyNy4yOTY5IFoiIHVuaWNvZGU9ImQiLz48Z2x5cGggZD0iTTE4LjEwOTQgOC4yMDMxIEwxOC4xMDk0IC0yMC43OTY5IEw5LjA3ODEgLTIwLjc5NjkgTDkuMDc4MSA1NC42ODc1IEwxOC4xMDk0IDU0LjY4NzUgTDE4LjEwOTQgNDYuMzkwNiBRMjAuOTUzMSA1MS4yNjU2IDI1LjI3MzQgNTMuNjMyOCBRMjkuNTkzOCA1NiAzNS41OTM4IDU2IFE0NS41NjI1IDU2IDUxLjc4OTEgNDguMDkzOCBRNTguMDE1NiA0MC4xODc1IDU4LjAxNTYgMjcuMjk2OSBRNTguMDE1NiAxNC40MDYyIDUxLjc4OTEgNi40OTIyIFE0NS41NjI1IC0xLjQyMTkgMzUuNTkzOCAtMS40MjE5IFEyOS41OTM4IC0xLjQyMTkgMjUuMjczNCAwLjk1MzEgUTIwLjk1MzEgMy4zMjgxIDE4LjEwOTQgOC4yMDMxIFpNNDguNjg3NSAyNy4yOTY5IFE0OC42ODc1IDM3LjIwMzEgNDQuNjA5NCA0Mi44NDM4IFE0MC41MzEyIDQ4LjQ4NDQgMzMuNDA2MiA0OC40ODQ0IFEyNi4yNjU2IDQ4LjQ4NDQgMjIuMTg3NSA0Mi44NDM4IFExOC4xMDk0IDM3LjIwMzEgMTguMTA5NCAyNy4yOTY5IFExOC4xMDk0IDE3LjM5MDYgMjIuMTg3NSAxMS43NSBRMjYuMjY1NiA2LjEwOTQgMzMuNDA2MiA2LjEwOTQgUTQwLjUzMTIgNi4xMDk0IDQ0LjYwOTQgMTEuNzUgUTQ4LjY4NzUgMTcuMzkwNiA0OC42ODc1IDI3LjI5NjkgWiIgdW5pY29kZT0icCIvPjxnbHlwaCBkPSJNNTQuODkwNiAzMy4wMTU2IEw1NC44OTA2IDAgTDQ1LjkwNjIgMCBMNDUuOTA2MiAzMi43MTg4IFE0NS45MDYyIDQwLjQ4NDQgNDIuODc1IDQ0LjMzNTkgUTM5Ljg0MzggNDguMTg3NSAzMy43OTY5IDQ4LjE4NzUgUTI2LjUxNTYgNDguMTg3NSAyMi4zMTI1IDQzLjU1NDcgUTE4LjEwOTQgMzguOTIxOSAxOC4xMDk0IDMwLjkwNjIgTDE4LjEwOTQgMCBMOS4wNzgxIDAgTDkuMDc4MSA3NS45ODQ0IEwxOC4xMDk0IDc1Ljk4NDQgTDE4LjEwOTQgNDYuMTg3NSBRMjEuMzQzOCA1MS4xMjUgMjUuNzEwOSA1My41NjI1IFEzMC4wNzgxIDU2IDM1Ljc5NjkgNTYgUTQ1LjIxODggNTYgNTAuMDU0NyA1MC4xNzE5IFE1NC44OTA2IDQ0LjM0MzggNTQuODkwNiAzMy4wMTU2IFoiIHVuaWNvZGU9ImgiLz48Z2x5cGggZD0iTTQ4LjY4NzUgMjcuMjk2OSBRNDguNjg3NSAzNy4yMDMxIDQ0LjYwOTQgNDIuODQzOCBRNDAuNTMxMiA0OC40ODQ0IDMzLjQwNjIgNDguNDg0NCBRMjYuMjY1NiA0OC40ODQ0IDIyLjE4NzUgNDIuODQzOCBRMTguMTA5NCAzNy4yMDMxIDE4LjEwOTQgMjcuMjk2OSBRMTguMTA5NCAxNy4zOTA2IDIyLjE4NzUgMTEuNzUgUTI2LjI2NTYgNi4xMDk0IDMzLjQwNjIgNi4xMDk0IFE0MC41MzEyIDYuMTA5NCA0NC42MDk0IDExLjc1IFE0OC42ODc1IDE3LjM5MDYgNDguNjg3NSAyNy4yOTY5IFpNMTguMTA5NCA0Ni4zOTA2IFEyMC45NTMxIDUxLjI2NTYgMjUuMjczNCA1My42MzI4IFEyOS41OTM4IDU2IDM1LjU5MzggNTYgUTQ1LjU2MjUgNTYgNTEuNzg5MSA0OC4wOTM4IFE1OC4wMTU2IDQwLjE4NzUgNTguMDE1NiAyNy4yOTY5IFE1OC4wMTU2IDE0LjQwNjIgNTEuNzg5MSA2LjQ5MjIgUTQ1LjU2MjUgLTEuNDIxOSAzNS41OTM4IC0xLjQyMTkgUTI5LjU5MzggLTEuNDIxOSAyNS4yNzM0IDAuOTUzMSBRMjAuOTUzMSAzLjMyODEgMTguMTA5NCA4LjIwMzEgTDE4LjEwOTQgMCBMOS4wNzgxIDAgTDkuMDc4MSA3NS45ODQ0IEwxOC4xMDk0IDc1Ljk4NDQgTDE4LjEwOTQgNDYuMzkwNiBaIiB1bmljb2RlPSJiIi8+PGdseXBoIGQ9Ik01MiA0NC4xODc1IFE1NS4zNzUgNTAuMjUgNjAuMDYyNSA1My4xMjUgUTY0Ljc1IDU2IDcxLjA5MzggNTYgUTc5LjY0MDYgNTYgODQuMjgxMiA1MC4wMjM0IFE4OC45MjE5IDQ0LjA0NjkgODguOTIxOSAzMy4wMTU2IEw4OC45MjE5IDAgTDc5Ljg5MDYgMCBMNzkuODkwNiAzMi43MTg4IFE3OS44OTA2IDQwLjU3ODEgNzcuMTAxNiA0NC4zODI4IFE3NC4zMTI1IDQ4LjE4NzUgNjguNjA5NCA0OC4xODc1IFE2MS42MjUgNDguMTg3NSA1Ny41NzAzIDQzLjU1NDcgUTUzLjUxNTYgMzguOTIxOSA1My41MTU2IDMwLjkwNjIgTDUzLjUxNTYgMCBMNDQuNDg0NCAwIEw0NC40ODQ0IDMyLjcxODggUTQ0LjQ4NDQgNDAuNjI1IDQxLjcwMzEgNDQuNDA2MiBRMzguOTIxOSA0OC4xODc1IDMzLjEwOTQgNDguMTg3NSBRMjYuMjE4OCA0OC4xODc1IDIyLjE2NDEgNDMuNTMxMiBRMTguMTA5NCAzOC44NzUgMTguMTA5NCAzMC45MDYyIEwxOC4xMDk0IDAgTDkuMDc4MSAwIEw5LjA3ODEgNTQuNjg3NSBMMTguMTA5NCA1NC42ODc1IEwxOC4xMDk0IDQ2LjE4NzUgUTIxLjE4NzUgNTEuMjE4OCAyNS40ODQ0IDUzLjYwOTQgUTI5Ljc4MTIgNTYgMzUuNjg3NSA1NiBRNDEuNjU2MiA1NiA0NS44MjgxIDUyLjk3NjYgUTUwIDQ5Ljk1MzEgNTIgNDQuMTg3NSBaIiB1bmljb2RlPSJtIi8+PGdseXBoIGQ9Ik0zNy4xMDk0IDc1Ljk4NDQgTDM3LjEwOTQgNjguNSBMMjguNTE1NiA2OC41IFEyMy42ODc1IDY4LjUgMjEuODA0NyA2Ni41NDY5IFExOS45MjE5IDY0LjU5MzggMTkuOTIxOSA1OS41MTU2IEwxOS45MjE5IDU0LjY4NzUgTDM0LjcxODggNTQuNjg3NSBMMzQuNzE4OCA0Ny43MDMxIEwxOS45MjE5IDQ3LjcwMzEgTDE5LjkyMTkgMCBMMTAuODkwNiAwIEwxMC44OTA2IDQ3LjcwMzEgTDIuMjk2OSA0Ny43MDMxIEwyLjI5NjkgNTQuNjg3NSBMMTAuODkwNiA1NC42ODc1IEwxMC44OTA2IDU4LjUgUTEwLjg5MDYgNjcuNjI1IDE1LjE0MDYgNzEuODA0NyBRMTkuMzkwNiA3NS45ODQ0IDI4LjYwOTQgNzUuOTg0NCBMMzcuMTA5NCA3NS45ODQ0IFoiIHVuaWNvZGU9ImYiLz48Z2x5cGggZD0iTTQ1LjQwNjIgMjcuOTg0NCBRNDUuNDA2MiAzNy43NSA0MS4zODI4IDQzLjExNzIgUTM3LjM1OTQgNDguNDg0NCAzMC4wNzgxIDQ4LjQ4NDQgUTIyLjg1OTQgNDguNDg0NCAxOC44MjgxIDQzLjExNzIgUTE0Ljc5NjkgMzcuNzUgMTQuNzk2OSAyNy45ODQ0IFExNC43OTY5IDE4LjI2NTYgMTguODI4MSAxMi44OTA2IFEyMi44NTk0IDcuNTE1NiAzMC4wNzgxIDcuNTE1NiBRMzcuMzU5NCA3LjUxNTYgNDEuMzgyOCAxMi44OTA2IFE0NS40MDYyIDE4LjI2NTYgNDUuNDA2MiAyNy45ODQ0IFpNNTQuMzkwNiA2Ljc4MTIgUTU0LjM5MDYgLTcuMTcxOSA0OC4xOTUzIC0xMy45ODQ0IFE0MiAtMjAuNzk2OSAyOS4yMDMxIC0yMC43OTY5IFEyNC40Njg4IC0yMC43OTY5IDIwLjI2NTYgLTIwLjA5MzggUTE2LjA2MjUgLTE5LjM5MDYgMTIuMTA5NCAtMTcuOTIxOSBMMTIuMTA5NCAtOS4xODc1IFExNi4wNjI1IC0xMS4zMjgxIDE5LjkyMTkgLTEyLjM1MTYgUTIzLjc4MTIgLTEzLjM3NSAyNy43ODEyIC0xMy4zNzUgUTM2LjYyNSAtMTMuMzc1IDQxLjAxNTYgLTguNzY1NiBRNDUuNDA2MiAtNC4xNTYyIDQ1LjQwNjIgNS4xNzE5IEw0NS40MDYyIDkuNjI1IFE0Mi42MjUgNC43ODEyIDM4LjI4MTIgMi4zOTA2IFEzMy45Mzc1IDAgMjcuODc1IDAgUTE3LjgyODEgMCAxMS42NzE5IDcuNjY0MSBRNS41MTU2IDE1LjMyODEgNS41MTU2IDI3Ljk4NDQgUTUuNTE1NiA0MC42NzE5IDExLjY3MTkgNDguMzM1OSBRMTcuODI4MSA1NiAyNy44NzUgNTYgUTMzLjkzNzUgNTYgMzguMjgxMiA1My42MDk0IFE0Mi42MjUgNTEuMjE4OCA0NS40MDYyIDQ2LjM5MDYgTDQ1LjQwNjIgNTQuNjg3NSBMNTQuMzkwNiA1NC42ODc1IEw1NC4zOTA2IDYuNzgxMiBaIiB1bmljb2RlPSJnIi8+PGdseXBoIGQ9Ik0xOS42NzE5IDY0Ljc5NjkgTDE5LjY3MTkgOC4xMDk0IEwzMS41OTM4IDguMTA5NCBRNDYuNjg3NSA4LjEwOTQgNTMuNjg3NSAxNC45NDUzIFE2MC42ODc1IDIxLjc4MTIgNjAuNjg3NSAzNi41MzEyIFE2MC42ODc1IDUxLjE3MTkgNTMuNjg3NSA1Ny45ODQ0IFE0Ni42ODc1IDY0Ljc5NjkgMzEuNTkzOCA2NC43OTY5IEwxOS42NzE5IDY0Ljc5NjkgWk05LjgxMjUgNzIuOTA2MiBMMzAuMDc4MSA3Mi45MDYyIFE1MS4yNjU2IDcyLjkwNjIgNjEuMTc5NyA2NC4wOTM4IFE3MS4wOTM4IDU1LjI4MTIgNzEuMDkzOCAzNi41MzEyIFE3MS4wOTM4IDE3LjY3MTkgNjEuMTMyOCA4LjgzNTkgUTUxLjE3MTkgMCAzMC4wNzgxIDAgTDkuODEyNSAwIEw5LjgxMjUgNzIuOTA2MiBaIiB1bmljb2RlPSJEIi8+PGdseXBoIGQ9Ik0zMi4xNzE5IC01LjA3ODEgUTI4LjM3NSAtMTQuODQzOCAyNC43NTc4IC0xNy44MjAzIFEyMS4xNDA2IC0yMC43OTY5IDE1LjA5MzggLTIwLjc5NjkgTDcuOTA2MiAtMjAuNzk2OSBMNy45MDYyIC0xMy4yODEyIEwxMy4xODc1IC0xMy4yODEyIFExNi44OTA2IC0xMy4yODEyIDE4Ljk0NTMgLTExLjUyMzQgUTIxIC05Ljc2NTYgMjMuNDg0NCAtMy4yMTg4IEwyNS4wOTM4IDAuODc1IEwyLjk4NDQgNTQuNjg3NSBMMTIuNSA1NC42ODc1IEwyOS41OTM4IDExLjkyMTkgTDQ2LjY4NzUgNTQuNjg3NSBMNTYuMjAzMSA1NC42ODc1IEwzMi4xNzE5IC01LjA3ODEgWiIgdW5pY29kZT0ieSIvPjwvZm9udD48L2RlZnM+PGcgc3R5bGU9ImZpbGw6d2hpdGU7IHN0cm9rZTp3aGl0ZTsiPjxyZWN0IGhlaWdodD0iNDEzIiBzdHlsZT0iY2xpcC1wYXRoOnVybCgjY2xpcFBhdGgxKTsgc3Ryb2tlOm5vbmU7IiB3aWR0aD0iNTcwIiB5PSIwIiB4PSIwIi8+PC9nPjxnIHN0eWxlPSJmaWxsOndoaXRlOyB0ZXh0LXJlbmRlcmluZzpvcHRpbWl6ZVNwZWVkOyBjb2xvci1yZW5kZXJpbmc6b3B0aW1pemVTcGVlZDsgaW1hZ2UtcmVuZGVyaW5nOm9wdGltaXplU3BlZWQ7IHNoYXBlLXJlbmRlcmluZzpjcmlzcEVkZ2VzOyBzdHJva2U6d2hpdGU7IGNvbG9yLWludGVycG9sYXRpb246c1JHQjsiPjxyZWN0IHN0eWxlPSJzdHJva2U6bm9uZTsiIHk9IjAiIGhlaWdodD0iNDEzIiB3aWR0aD0iNTcwIiB4PSIwIi8+PHBhdGggZD0iTTc0IDM2OCBMNTE2IDM2OCBMNTE2IDMxIEw3NCAzMSBaIiBzdHlsZT0ic3Ryb2tlOm5vbmU7Ii8+PC9nPjxnIHN0eWxlPSJmaWxsOnJnYigzOCwzOCwzOCk7IHRleHQtcmVuZGVyaW5nOmdlb21ldHJpY1ByZWNpc2lvbjsgaW1hZ2UtcmVuZGVyaW5nOm9wdGltaXplUXVhbGl0eTsgY29sb3ItcmVuZGVyaW5nOm9wdGltaXplUXVhbGl0eTsgc3Ryb2tlLWxpbmVqb2luOnJvdW5kOyBzdHJva2U6cmdiKDM4LDM4LDM4KTsgY29sb3ItaW50ZXJwb2xhdGlvbjpsaW5lYXJSR0I7IHN0cm9rZS13aWR0aDowLjY2Njc7Ij48bGluZSB5MT0iMzY4IiB4Mj0iNTE2IiB4MT0iNzQiIHN0eWxlPSJmaWxsOm5vbmU7IiB5Mj0iMzY4Ii8+PGxpbmUgeTE9IjMxIiB4Mj0iNTE2IiB4MT0iNzQiIHN0eWxlPSJmaWxsOm5vbmU7IiB5Mj0iMzEiLz48bGluZSB5MT0iMzY4IiB4Mj0iNzQiIHgxPSI3NCIgc3R5bGU9ImZpbGw6bm9uZTsiIHkyPSIzNjMuNTgiLz48bGluZSB5MT0iMzY4IiB4Mj0iMTYyLjQiIHgxPSIxNjIuNCIgc3R5bGU9ImZpbGw6bm9uZTsiIHkyPSIzNjMuNTgiLz48bGluZSB5MT0iMzY4IiB4Mj0iMjUwLjgiIHgxPSIyNTAuOCIgc3R5bGU9ImZpbGw6bm9uZTsiIHkyPSIzNjMuNTgiLz48bGluZSB5MT0iMzY4IiB4Mj0iMzM5LjIiIHgxPSIzMzkuMiIgc3R5bGU9ImZpbGw6bm9uZTsiIHkyPSIzNjMuNTgiLz48bGluZSB5MT0iMzY4IiB4Mj0iNDI3LjYiIHgxPSI0MjcuNiIgc3R5bGU9ImZpbGw6bm9uZTsiIHkyPSIzNjMuNTgiLz48bGluZSB5MT0iMzY4IiB4Mj0iNTE2IiB4MT0iNTE2IiBzdHlsZT0iZmlsbDpub25lOyIgeTI9IjM2My41OCIvPjxsaW5lIHkxPSIzMSIgeDI9Ijc0IiB4MT0iNzQiIHN0eWxlPSJmaWxsOm5vbmU7IiB5Mj0iMzUuNDIiLz48bGluZSB5MT0iMzEiIHgyPSIxNjIuNCIgeDE9IjE2Mi40IiBzdHlsZT0iZmlsbDpub25lOyIgeTI9IjM1LjQyIi8+PGxpbmUgeTE9IjMxIiB4Mj0iMjUwLjgiIHgxPSIyNTAuOCIgc3R5bGU9ImZpbGw6bm9uZTsiIHkyPSIzNS40MiIvPjxsaW5lIHkxPSIzMSIgeDI9IjMzOS4yIiB4MT0iMzM5LjIiIHN0eWxlPSJmaWxsOm5vbmU7IiB5Mj0iMzUuNDIiLz48bGluZSB5MT0iMzEiIHgyPSI0MjcuNiIgeDE9IjQyNy42IiBzdHlsZT0iZmlsbDpub25lOyIgeTI9IjM1LjQyIi8+PGxpbmUgeTE9IjMxIiB4Mj0iNTE2IiB4MT0iNTE2IiBzdHlsZT0iZmlsbDpub25lOyIgeTI9IjM1LjQyIi8+PC9nPjxnIHN0eWxlPSJmb250LXNpemU6MTMuMzMzM3B4OyBmaWxsOnJnYigzOCwzOCwzOCk7IHRleHQtcmVuZGVyaW5nOmdlb21ldHJpY1ByZWNpc2lvbjsgaW1hZ2UtcmVuZGVyaW5nOm9wdGltaXplUXVhbGl0eTsgY29sb3ItcmVuZGVyaW5nOm9wdGltaXplUXVhbGl0eTsgZm9udC1mYW1pbHk6J1NhbnNTZXJpZic7IHN0cm9rZTpyZ2IoMzgsMzgsMzgpOyBjb2xvci1pbnRlcnBvbGF0aW9uOmxpbmVhclJHQjsiIHRyYW5zZm9ybT0idHJhbnNsYXRlKDc0LDM3My4zMzMzKSI+PHRleHQgc3R5bGU9InN0cm9rZTpub25lOyIgeT0iMTMiIHhtbDpzcGFjZT0icHJlc2VydmUiIHg9Ii00LjUiPjA8L3RleHQ+PC9nPjxnIHN0eWxlPSJmb250LXNpemU6MTMuMzMzM3B4OyBmaWxsOnJnYigzOCwzOCwzOCk7IHRleHQtcmVuZGVyaW5nOmdlb21ldHJpY1ByZWNpc2lvbjsgaW1hZ2UtcmVuZGVyaW5nOm9wdGltaXplUXVhbGl0eTsgY29sb3ItcmVuZGVyaW5nOm9wdGltaXplUXVhbGl0eTsgZm9udC1mYW1pbHk6J1NhbnNTZXJpZic7IHN0cm9rZTpyZ2IoMzgsMzgsMzgpOyBjb2xvci1pbnRlcnBvbGF0aW9uOmxpbmVhclJHQjsiIHRyYW5zZm9ybT0idHJhbnNsYXRlKDE2Mi40LDM3My4zMzMzKSI+PHRleHQgc3R5bGU9InN0cm9rZTpub25lOyIgeT0iMTMiIHhtbDpzcGFjZT0icHJlc2VydmUiIHg9Ii0xMSI+MC4yPC90ZXh0PjwvZz48ZyBzdHlsZT0iZm9udC1zaXplOjEzLjMzMzNweDsgZmlsbDpyZ2IoMzgsMzgsMzgpOyB0ZXh0LXJlbmRlcmluZzpnZW9tZXRyaWNQcmVjaXNpb247IGltYWdlLXJlbmRlcmluZzpvcHRpbWl6ZVF1YWxpdHk7IGNvbG9yLXJlbmRlcmluZzpvcHRpbWl6ZVF1YWxpdHk7IGZvbnQtZmFtaWx5OidTYW5zU2VyaWYnOyBzdHJva2U6cmdiKDM4LDM4LDM4KTsgY29sb3ItaW50ZXJwb2xhdGlvbjpsaW5lYXJSR0I7IiB0cmFuc2Zvcm09InRyYW5zbGF0ZSgyNTAuOCwzNzMuMzMzMykiPjx0ZXh0IHN0eWxlPSJzdHJva2U6bm9uZTsiIHk9IjEzIiB4bWw6c3BhY2U9InByZXNlcnZlIiB4PSItMTEiPjAuNDwvdGV4dD48L2c+PGcgc3R5bGU9ImZvbnQtc2l6ZToxMy4zMzMzcHg7IGZpbGw6cmdiKDM4LDM4LDM4KTsgdGV4dC1yZW5kZXJpbmc6Z2VvbWV0cmljUHJlY2lzaW9uOyBpbWFnZS1yZW5kZXJpbmc6b3B0aW1pemVRdWFsaXR5OyBjb2xvci1yZW5kZXJpbmc6b3B0aW1pemVRdWFsaXR5OyBmb250LWZhbWlseTonU2Fuc1NlcmlmJzsgc3Ryb2tlOnJnYigzOCwzOCwzOCk7IGNvbG9yLWludGVycG9sYXRpb246bGluZWFyUkdCOyIgdHJhbnNmb3JtPSJ0cmFuc2xhdGUoMzM5LjIsMzczLjMzMzMpIj48dGV4dCBzdHlsZT0ic3Ryb2tlOm5vbmU7IiB5PSIxMyIgeG1sOnNwYWNlPSJwcmVzZXJ2ZSIgeD0iLTExIj4wLjY8L3RleHQ+PC9nPjxnIHN0eWxlPSJmb250LXNpemU6MTMuMzMzM3B4OyBmaWxsOnJnYigzOCwzOCwzOCk7IHRleHQtcmVuZGVyaW5nOmdlb21ldHJpY1ByZWNpc2lvbjsgaW1hZ2UtcmVuZGVyaW5nOm9wdGltaXplUXVhbGl0eTsgY29sb3ItcmVuZGVyaW5nOm9wdGltaXplUXVhbGl0eTsgZm9udC1mYW1pbHk6J1NhbnNTZXJpZic7IHN0cm9rZTpyZ2IoMzgsMzgsMzgpOyBjb2xvci1pbnRlcnBvbGF0aW9uOmxpbmVhclJHQjsiIHRyYW5zZm9ybT0idHJhbnNsYXRlKDQyNy42LDM3My4zMzMzKSI+PHRleHQgc3R5bGU9InN0cm9rZTpub25lOyIgeT0iMTMiIHhtbDpzcGFjZT0icHJlc2VydmUiIHg9Ii0xMSI+MC44PC90ZXh0PjwvZz48ZyBzdHlsZT0iZm9udC1zaXplOjEzLjMzMzNweDsgZmlsbDpyZ2IoMzgsMzgsMzgpOyB0ZXh0LXJlbmRlcmluZzpnZW9tZXRyaWNQcmVjaXNpb247IGltYWdlLXJlbmRlcmluZzpvcHRpbWl6ZVF1YWxpdHk7IGNvbG9yLXJlbmRlcmluZzpvcHRpbWl6ZVF1YWxpdHk7IGZvbnQtZmFtaWx5OidTYW5zU2VyaWYnOyBzdHJva2U6cmdiKDM4LDM4LDM4KTsgY29sb3ItaW50ZXJwb2xhdGlvbjpsaW5lYXJSR0I7IiB0cmFuc2Zvcm09InRyYW5zbGF0ZSg1MTYsMzczLjMzMzMpIj48dGV4dCBzdHlsZT0ic3Ryb2tlOm5vbmU7IiB5PSIxMyIgeG1sOnNwYWNlPSJwcmVzZXJ2ZSIgeD0iLTQuNSI+MTwvdGV4dD48L2c+PGcgc3R5bGU9ImZvbnQtc2l6ZToxMy4zMzMzcHg7IGZpbGw6cmdiKDM4LDM4LDM4KTsgdGV4dC1yZW5kZXJpbmc6Z2VvbWV0cmljUHJlY2lzaW9uOyBpbWFnZS1yZW5kZXJpbmc6b3B0aW1pemVRdWFsaXR5OyBjb2xvci1yZW5kZXJpbmc6b3B0aW1pemVRdWFsaXR5OyBmb250LWZhbWlseTonU2Fuc1NlcmlmJzsgc3Ryb2tlOnJnYigzOCwzOCwzOCk7IGNvbG9yLWludGVycG9sYXRpb246bGluZWFyUkdCOyIgdHJhbnNmb3JtPSJ0cmFuc2xhdGUoMjk1LjAwMDIsMzkxLjY2NjcpIj48dGV4dCBzdHlsZT0ic3Ryb2tlOm5vbmU7IiB5PSIxMyIgeG1sOnNwYWNlPSJwcmVzZXJ2ZSIgeD0iLTYyIj5kb3JzYWwtdmVudHJhbCBheGlzPC90ZXh0PjwvZz48ZyBzdHlsZT0iZmlsbDpyZ2IoMzgsMzgsMzgpOyB0ZXh0LXJlbmRlcmluZzpnZW9tZXRyaWNQcmVjaXNpb247IGltYWdlLXJlbmRlcmluZzpvcHRpbWl6ZVF1YWxpdHk7IGNvbG9yLXJlbmRlcmluZzpvcHRpbWl6ZVF1YWxpdHk7IHN0cm9rZS1saW5lam9pbjpyb3VuZDsgc3Ryb2tlOnJnYigzOCwzOCwzOCk7IGNvbG9yLWludGVycG9sYXRpb246bGluZWFyUkdCOyBzdHJva2Utd2lkdGg6MC42NjY3OyI+PGxpbmUgeTE9IjM2OCIgeDI9Ijc0IiB4MT0iNzQiIHN0eWxlPSJmaWxsOm5vbmU7IiB5Mj0iMzEiLz48bGluZSB5MT0iMzY4IiB4Mj0iNTE2IiB4MT0iNTE2IiBzdHlsZT0iZmlsbDpub25lOyIgeTI9IjMxIi8+PGxpbmUgeTE9IjMzOS45MTY3IiB4Mj0iNzguNDIiIHgxPSI3NCIgc3R5bGU9ImZpbGw6bm9uZTsiIHkyPSIzMzkuOTE2NyIvPjxsaW5lIHkxPSIyODMuNzUiIHgyPSI3OC40MiIgeDE9Ijc0IiBzdHlsZT0iZmlsbDpub25lOyIgeTI9IjI4My43NSIvPjxsaW5lIHkxPSIyMjcuNTgzMyIgeDI9Ijc4LjQyIiB4MT0iNzQiIHN0eWxlPSJmaWxsOm5vbmU7IiB5Mj0iMjI3LjU4MzMiLz48bGluZSB5MT0iMTcxLjQxNjciIHgyPSI3OC40MiIgeDE9Ijc0IiBzdHlsZT0iZmlsbDpub25lOyIgeTI9IjE3MS40MTY3Ii8+PGxpbmUgeTE9IjExNS4yNSIgeDI9Ijc4LjQyIiB4MT0iNzQiIHN0eWxlPSJmaWxsOm5vbmU7IiB5Mj0iMTE1LjI1Ii8+PGxpbmUgeTE9IjU5LjA4MzMiIHgyPSI3OC40MiIgeDE9Ijc0IiBzdHlsZT0iZmlsbDpub25lOyIgeTI9IjU5LjA4MzMiLz48bGluZSB5MT0iMzM5LjkxNjciIHgyPSI1MTEuNTgiIHgxPSI1MTYiIHN0eWxlPSJmaWxsOm5vbmU7IiB5Mj0iMzM5LjkxNjciLz48bGluZSB5MT0iMjgzLjc1IiB4Mj0iNTExLjU4IiB4MT0iNTE2IiBzdHlsZT0iZmlsbDpub25lOyIgeTI9IjI4My43NSIvPjxsaW5lIHkxPSIyMjcuNTgzMyIgeDI9IjUxMS41OCIgeDE9IjUxNiIgc3R5bGU9ImZpbGw6bm9uZTsiIHkyPSIyMjcuNTgzMyIvPjxsaW5lIHkxPSIxNzEuNDE2NyIgeDI9IjUxMS41OCIgeDE9IjUxNiIgc3R5bGU9ImZpbGw6bm9uZTsiIHkyPSIxNzEuNDE2NyIvPjxsaW5lIHkxPSIxMTUuMjUiIHgyPSI1MTEuNTgiIHgxPSI1MTYiIHN0eWxlPSJmaWxsOm5vbmU7IiB5Mj0iMTE1LjI1Ii8+PGxpbmUgeTE9IjU5LjA4MzMiIHgyPSI1MTEuNTgiIHgxPSI1MTYiIHN0eWxlPSJmaWxsOm5vbmU7IiB5Mj0iNTkuMDgzMyIvPjwvZz48ZyBzdHlsZT0iZm9udC1zaXplOjEzLjMzMzNweDsgZmlsbDpyZ2IoMzgsMzgsMzgpOyB0ZXh0LXJlbmRlcmluZzpnZW9tZXRyaWNQcmVjaXNpb247IGltYWdlLXJlbmRlcmluZzpvcHRpbWl6ZVF1YWxpdHk7IGNvbG9yLXJlbmRlcmluZzpvcHRpbWl6ZVF1YWxpdHk7IGZvbnQtZmFtaWx5OidTYW5zU2VyaWYnOyBzdHJva2U6cmdiKDM4LDM4LDM4KTsgY29sb3ItaW50ZXJwb2xhdGlvbjpsaW5lYXJSR0I7IiB0cmFuc2Zvcm09InRyYW5zbGF0ZSg2OC42NjY3LDMzOS45MTY3KSI+PHRleHQgc3R5bGU9InN0cm9rZTpub25lOyIgeT0iNC41IiB4bWw6c3BhY2U9InByZXNlcnZlIiB4PSItOSI+MDwvdGV4dD48L2c+PGcgc3R5bGU9ImZvbnQtc2l6ZToxMy4zMzMzcHg7IGZpbGw6cmdiKDM4LDM4LDM4KTsgdGV4dC1yZW5kZXJpbmc6Z2VvbWV0cmljUHJlY2lzaW9uOyBpbWFnZS1yZW5kZXJpbmc6b3B0aW1pemVRdWFsaXR5OyBjb2xvci1yZW5kZXJpbmc6b3B0aW1pemVRdWFsaXR5OyBmb250LWZhbWlseTonU2Fuc1NlcmlmJzsgc3Ryb2tlOnJnYigzOCwzOCwzOCk7IGNvbG9yLWludGVycG9sYXRpb246bGluZWFyUkdCOyIgdHJhbnNmb3JtPSJ0cmFuc2xhdGUoNjguNjY2NywyODMuNzUpIj48dGV4dCBzdHlsZT0ic3Ryb2tlOm5vbmU7IiB5PSI0LjUiIHhtbDpzcGFjZT0icHJlc2VydmUiIHg9Ii0yMiI+MC4yPC90ZXh0PjwvZz48ZyBzdHlsZT0iZm9udC1zaXplOjEzLjMzMzNweDsgZmlsbDpyZ2IoMzgsMzgsMzgpOyB0ZXh0LXJlbmRlcmluZzpnZW9tZXRyaWNQcmVjaXNpb247IGltYWdlLXJlbmRlcmluZzpvcHRpbWl6ZVF1YWxpdHk7IGNvbG9yLXJlbmRlcmluZzpvcHRpbWl6ZVF1YWxpdHk7IGZvbnQtZmFtaWx5OidTYW5zU2VyaWYnOyBzdHJva2U6cmdiKDM4LDM4LDM4KTsgY29sb3ItaW50ZXJwb2xhdGlvbjpsaW5lYXJSR0I7IiB0cmFuc2Zvcm09InRyYW5zbGF0ZSg2OC42NjY3LDIyNy41ODMzKSI+PHRleHQgc3R5bGU9InN0cm9rZTpub25lOyIgeT0iNC41IiB4bWw6c3BhY2U9InByZXNlcnZlIiB4PSItMjIiPjAuNDwvdGV4dD48L2c+PGcgc3R5bGU9ImZvbnQtc2l6ZToxMy4zMzMzcHg7IGZpbGw6cmdiKDM4LDM4LDM4KTsgdGV4dC1yZW5kZXJpbmc6Z2VvbWV0cmljUHJlY2lzaW9uOyBpbWFnZS1yZW5kZXJpbmc6b3B0aW1pemVRdWFsaXR5OyBjb2xvci1yZW5kZXJpbmc6b3B0aW1pemVRdWFsaXR5OyBmb250LWZhbWlseTonU2Fuc1NlcmlmJzsgc3Ryb2tlOnJnYigzOCwzOCwzOCk7IGNvbG9yLWludGVycG9sYXRpb246bGluZWFyUkdCOyIgdHJhbnNmb3JtPSJ0cmFuc2xhdGUoNjguNjY2NywxNzEuNDE2NykiPjx0ZXh0IHN0eWxlPSJzdHJva2U6bm9uZTsiIHk9IjQuNSIgeG1sOnNwYWNlPSJwcmVzZXJ2ZSIgeD0iLTIyIj4wLjY8L3RleHQ+PC9nPjxnIHN0eWxlPSJmb250LXNpemU6MTMuMzMzM3B4OyBmaWxsOnJnYigzOCwzOCwzOCk7IHRleHQtcmVuZGVyaW5nOmdlb21ldHJpY1ByZWNpc2lvbjsgaW1hZ2UtcmVuZGVyaW5nOm9wdGltaXplUXVhbGl0eTsgY29sb3ItcmVuZGVyaW5nOm9wdGltaXplUXVhbGl0eTsgZm9udC1mYW1pbHk6J1NhbnNTZXJpZic7IHN0cm9rZTpyZ2IoMzgsMzgsMzgpOyBjb2xvci1pbnRlcnBvbGF0aW9uOmxpbmVhclJHQjsiIHRyYW5zZm9ybT0idHJhbnNsYXRlKDY4LjY2NjcsMTE1LjI1KSI+PHRleHQgc3R5bGU9InN0cm9rZTpub25lOyIgeT0iNC41IiB4bWw6c3BhY2U9InByZXNlcnZlIiB4PSItMjIiPjAuODwvdGV4dD48L2c+PGcgc3R5bGU9ImZvbnQtc2l6ZToxMy4zMzMzcHg7IGZpbGw6cmdiKDM4LDM4LDM4KTsgdGV4dC1yZW5kZXJpbmc6Z2VvbWV0cmljUHJlY2lzaW9uOyBpbWFnZS1yZW5kZXJpbmc6b3B0aW1pemVRdWFsaXR5OyBjb2xvci1yZW5kZXJpbmc6b3B0aW1pemVRdWFsaXR5OyBmb250LWZhbWlseTonU2Fuc1NlcmlmJzsgc3Ryb2tlOnJnYigzOCwzOCwzOCk7IGNvbG9yLWludGVycG9sYXRpb246bGluZWFyUkdCOyIgdHJhbnNmb3JtPSJ0cmFuc2xhdGUoNjguNjY2Nyw1OS4wODMzKSI+PHRleHQgc3R5bGU9InN0cm9rZTpub25lOyIgeT0iNC41IiB4bWw6c3BhY2U9InByZXNlcnZlIiB4PSItOSI+MTwvdGV4dD48L2c+PGcgc3R5bGU9ImZvbnQtc2l6ZToxMy4zMzMzcHg7IGZpbGw6cmdiKDM4LDM4LDM4KTsgdGV4dC1yZW5kZXJpbmc6Z2VvbWV0cmljUHJlY2lzaW9uOyBpbWFnZS1yZW5kZXJpbmc6b3B0aW1pemVRdWFsaXR5OyBjb2xvci1yZW5kZXJpbmc6b3B0aW1pemVRdWFsaXR5OyBmb250LWZhbWlseTonU2Fuc1NlcmlmJzsgc3Ryb2tlOnJnYigzOCwzOCwzOCk7IGNvbG9yLWludGVycG9sYXRpb246bGluZWFyUkdCOyIgdHJhbnNmb3JtPSJ0cmFuc2xhdGUoNDIuNjY2NywxOTkuNDk5OCkgcm90YXRlKC05MCkiPjx0ZXh0IHN0eWxlPSJzdHJva2U6bm9uZTsiIHk9Ii00IiB4bWw6c3BhY2U9InByZXNlcnZlIiB4PSItNzciPkRlZ3JlZSBvZiBtZW1iZXJzaGlwPC90ZXh0PjwvZz48ZyBzdHlsZT0ic3Ryb2tlLWxpbmVjYXA6YnV0dDsgZmlsbDpyZ2IoMCwxMTQsMTg5KTsgdGV4dC1yZW5kZXJpbmc6Z2VvbWV0cmljUHJlY2lzaW9uOyBpbWFnZS1yZW5kZXJpbmc6b3B0aW1pemVRdWFsaXR5OyBjb2xvci1yZW5kZXJpbmc6b3B0aW1pemVRdWFsaXR5OyBzdHJva2UtbGluZWpvaW46cm91bmQ7IHN0cm9rZTpyZ2IoMCwxMTQsMTg5KTsgY29sb3ItaW50ZXJwb2xhdGlvbjpsaW5lYXJSR0I7IHN0cm9rZS13aWR0aDowLjY2Njc7Ij48cGF0aCBzdHlsZT0iZmlsbDpub25lOyBmaWxsLXJ1bGU6ZXZlbm9kZDsiIGQ9Ik03NCA1OS4wODMzIEw3NC4yMTg5IDU5LjA4MzMgTDc0LjQzNzggNTkuMDgzMyBMNzQuNjU2OCA1OS4wODMzIEw3NC44NzU3IDU5LjA4MzMgTDc1LjA5NDYgNTkuMDgzMyBMNzUuMzEzNSA1OS4wODMzIEw3NS41MzI0IDU5LjA4MzMgTDc1Ljc1MTQgNTkuMDgzMyBMNzUuOTcwMyA1OS4wODMzIEw3Ni4xODkyIDU5LjA4MzMgTDc2LjQwODEgNTkuMDgzMyBMNzYuNjI3IDU5LjA4MzMgTDc2Ljg0NiA1OS4wODMzIEw3Ny4wNjQ5IDU5LjA4MzMgTDc3LjI4MzggNTkuMDgzMyBMNzcuNTAyNyA1OS4wODMzIEw3Ny43MjE2IDU5LjA4MzMgTDc3Ljk0MDYgNTkuMDgzMyBMNzguMTU5NSA1OS4wODMzIEw3OC4zNzg0IDU5LjA4MzMgTDc4LjU5NzMgNTkuMDgzMyBMNzguODE2MiA1OS4wODMzIEw3OS4wMzUyIDU5LjA4MzMgTDc5LjI1NDEgNTkuMDgzMyBMNzkuNDczIDU5LjA4MzMgTDc5LjY5MTkgNTkuMDgzMyBMNzkuOTEwOSA1OS4wODMzIEw4MC4xMjk4IDU5LjA4MzMgTDgwLjM0ODcgNTkuMDgzMyBMODAuNTY3NiA1OS4wODMzIEw4MC43ODY1IDU5LjA4MzMgTDgxLjAwNTQgNTkuMDgzMyBMODEuMjI0NCA1OS4wODMzIEw4MS40NDMzIDU5LjA4MzMgTDgxLjY2MjIgNTkuMDgzMyBMODEuODgxMSA1OS4wODMzIEw4Mi4xMDAxIDU5LjA4MzMgTDgyLjMxOSA1OS4wODMzIEw4Mi41Mzc5IDU5LjA4MzMgTDgyLjc1NjggNTkuMDgzMyBMODIuOTc1NyA1OS4wODMzIEw4My4xOTQ2IDU5LjA4MzMgTDgzLjQxMzYgNTkuMDgzMyBMODMuNjMyNSA1OS4wODMzIEw4My44NTE0IDU5LjA4MzMgTDg0LjA3MDMgNTkuMDgzMyBMODQuMjg5MyA1OS4wODMzIEw4NC41MDgyIDU5LjA4MzMgTDg0LjcyNzEgNTkuMDgzMyBMODQuOTQ2IDU5LjA4MzMgTDg1LjE2NDkgNTkuMDgzMyBMODUuMzgzOSA1OS4wODMzIEw4NS42MDI4IDU5LjA4MzMgTDg1LjgyMTcgNTkuMDgzMyBMODYuMDQwNiA1OS4wODMzIEw4Ni4yNTk1IDU5LjA4MzMgTDg2LjQ3ODUgNTkuMDgzMyBMODYuNjk3NCA1OS4wODMzIEw4Ni45MTYzIDU5LjA4MzMgTDg3LjEzNTIgNTkuMDgzMyBMODcuMzU0MSA1OS4wODMzIEw4Ny41NzMxIDU5LjA4MzMgTDg3Ljc5MiA1OS4wODMzIEw4OC4wMTA5IDU5LjA4MzMgTDg4LjIyOTggNTkuMDgzMyBMODguNDQ4NyA1OS4wODMzIEw4OC42Njc3IDU5LjA4MzMgTDg4Ljg4NjYgNTkuMDgzMyBMODkuMTA1NSA1OS4wODMzIEw4OS4zMjQ0IDU5LjA4MzMgTDg5LjU0MzMgNTkuMDgzMyBMODkuNzYyMyA1OS4wODMzIEw4OS45ODEyIDU5LjA4MzMgTDkwLjIwMDEgNTkuMDgzMyBMOTAuNDE5IDU5LjA4MzMgTDkwLjYzNzkgNTkuMDgzMyBMOTAuODU2OSA1OS4wODMzIEw5MS4wNzU4IDU5LjA4MzMgTDkxLjI5NDcgNTkuMDgzMyBMOTEuNTEzNiA1OS4wODMzIEw5MS43MzI1IDU5LjA4MzMgTDkxLjk1MTUgNTkuMDgzMyBMOTIuMTcwNCA1OS4wODMzIEw5Mi4zODkzIDU5LjA4MzMgTDkyLjYwODIgNTkuNDQ1NiBMOTIuODI3MSA1OS44NjI5IEw5My4wNDYxIDYwLjI4MDIgTDkzLjI2NSA2MC42OTc1IEw5My40ODM5IDYxLjExNDggTDkzLjcwMjggNjEuNTMyMSBMOTMuOTIxNyA2MS45NDk0IEw5NC4xNDA3IDYyLjM2NjcgTDk0LjM1OTYgNjIuNzg0IEw5NC41Nzg1IDYzLjIwMTMgTDk0Ljc5NzQgNjMuNjE4NiBMOTUuMDE2MyA2NC4wMzU4IEw5NS4yMzUzIDY0LjQ1MzEgTDk1LjQ1NDIgNjQuODcwNCBMOTUuNjczMSA2NS4yODc3IEw5NS44OTIgNjUuNzA1IEw5Ni4xMTA5IDY2LjEyMjMgTDk2LjMyOTkgNjYuNTM5NiBMOTYuNTQ4OCA2Ni45NTY5IEw5Ni43Njc3IDY3LjM3NDIgTDk2Ljk4NjYgNjcuNzkxNSBMOTcuMjA1NiA2OC4yMDg3IEw5Ny40MjQ1IDY4LjYyNiBMOTcuNjQzNCA2OS4wNDMzIEw5Ny44NjIzIDY5LjQ2MDYgTDk4LjA4MTIgNjkuODc3OSBMOTguMzAwMSA3MC4yOTUyIEw5OC41MTkxIDcwLjcxMjUgTDk4LjczOCA3MS4xMjk4IEw5OC45NTY5IDcxLjU0NzEgTDk5LjE3NTggNzEuOTY0NCBMOTkuMzk0OCA3Mi4zODE2IEw5OS42MTM3IDcyLjc5ODkgTDk5LjgzMjYgNzMuMjE2MiBMMTAwLjA1MTUgNzMuNjMzNSBMMTAwLjI3MDQgNzQuMDUwOCBMMTAwLjQ4OTMgNzQuNDY4MSBMMTAwLjcwODMgNzQuODg1NCBMMTAwLjkyNzIgNzUuMzAyNyBMMTAxLjE0NjEgNzUuNzIgTDEwMS4zNjUgNzYuMTM3MiBMMTAxLjU4NCA3Ni41NTQ1IEwxMDEuODAyOSA3Ni45NzE4IEwxMDIuMDIxOCA3Ny4zODkxIEwxMDIuMjQwNyA3Ny44MDY0IEwxMDIuNDU5NiA3OC4yMjM3IEwxMDIuNjc4NiA3OC42NDEgTDEwMi44OTc1IDc5LjA1ODMgTDEwMy4xMTY0IDc5LjQ3NTYgTDEwMy4zMzUzIDc5Ljg5MjkgTDEwMy41NTQyIDgwLjMxMDIgTDEwMy43NzMyIDgwLjcyNzQgTDEwMy45OTIxIDgxLjE0NDcgTDEwNC4yMTEgODEuNTYyIEwxMDQuNDI5OSA4MS45NzkzIEwxMDQuNjQ4OCA4Mi4zOTY2IEwxMDQuODY3OCA4Mi44MTM5IEwxMDUuMDg2NyA4My4yMzEyIEwxMDUuMzA1NiA4My42NDg1IEwxMDUuNTI0NSA4NC4wNjU4IEwxMDUuNzQzNCA4NC40ODMgTDEwNS45NjI0IDg0LjkwMDMgTDEwNi4xODEzIDg1LjMxNzYgTDEwNi40MDAyIDg1LjczNDkgTDEwNi42MTkxIDg2LjE1MjIgTDEwNi44MzggODYuNTY5NSBMMTA3LjA1NyA4Ni45ODY4IEwxMDcuMjc1OSA4Ny40MDQxIEwxMDcuNDk0OCA4Ny44MjE0IEwxMDcuNzEzNyA4OC4yMzg3IEwxMDcuOTMyNiA4OC42NTYgTDEwOC4xNTE2IDg5LjA3MzIgTDEwOC4zNzA1IDg5LjQ5MDUgTDEwOC41ODk0IDg5LjkwNzggTDEwOC44MDgzIDkwLjMyNTEgTDEwOS4wMjcyIDkwLjc0MjQgTDEwOS4yNDYyIDkxLjE1OTcgTDEwOS40NjUxIDkxLjU3NyBMMTA5LjY4NCA5MS45OTQzIEwxMDkuOTAyOSA5Mi40MTE2IEwxMTAuMTIxOCA5Mi44Mjg4IEwxMTAuMzQwOCA5My4yNDYxIEwxMTAuNTU5NyA5My42NjM0IEwxMTAuNzc4NiA5NC4wODA3IEwxMTAuOTk3NSA5NC40OTggTDExMS4yMTY0IDk0LjkxNTMgTDExMS40MzU0IDk1LjMzMjYgTDExMS42NTQzIDk1Ljc0OTkgTDExMS44NzMyIDk2LjE2NzIgTDExMi4wOTIxIDk2LjU4NDUgTDExMi4zMTEgOTcuMDAxOCBMMTEyLjUzIDk3LjQxOSBMMTEyLjc0ODkgOTcuODM2MyBMMTEyLjk2NzggOTguMjUzNiBMMTEzLjE4NjcgOTguNjcwOSBMMTEzLjQwNTYgOTkuMDg4MiBMMTEzLjYyNDYgOTkuNTA1NSBMMTEzLjg0MzUgOTkuOTIyOCBMMTE0LjA2MjQgMTAwLjM0MDEgTDExNC4yODEzIDEwMC43NTc0IEwxMTQuNTAwMiAxMDEuMTc0NiBMMTE0LjcxOTIgMTAxLjU5MTkgTDExNC45MzgxIDEwMi4wMDkyIEwxMTUuMTU3IDEwMi40MjY1IEwxMTUuMzc1OSAxMDIuODQzOCBMMTE1LjU5NDggMTAzLjI2MTEgTDExNS44MTM4IDEwMy42Nzg0IEwxMTYuMDMyNyAxMDQuMDk1NyBMMTE2LjI1MTYgMTA0LjUxMyBMMTE2LjQ3MDUgMTA0LjkzMDMgTDExNi42ODk1IDEwNS4zNDc2IEwxMTYuOTA4NCAxMDUuNzY0OCBMMTE3LjEyNzMgMTA2LjE4MjEgTDExNy4zNDYyIDEwNi41OTk0IEwxMTcuNTY1MSAxMDcuMDE2NyBMMTE3Ljc4NCAxMDcuNDM0IEwxMTguMDAzIDEwNy44NTEzIEwxMTguMjIxOSAxMDguMjY4NiBMMTE4LjQ0MDggMTA4LjY4NTkgTDExOC42NTk3IDEwOS4xMDMyIEwxMTguODc4NyAxMDkuNTIwNCBMMTE5LjA5NzYgMTA5LjkzNzcgTDExOS4zMTY1IDExMC4zNTUgTDExOS41MzU0IDExMC43NzIzIEwxMTkuNzU0MyAxMTEuMTg5NiBMMTE5Ljk3MzMgMTExLjYwNjkgTDEyMC4xOTIyIDExMi4wMjQyIEwxMjAuNDExMSAxMTIuNDQxNSBMMTIwLjYzIDExMi44NTg4IEwxMjAuODQ4OSAxMTMuMjc2MSBMMTIxLjA2NzkgMTEzLjY5MzQgTDEyMS4yODY4IDExNC4xMTA2IEwxMjEuNTA1NyAxMTQuNTI3OSBMMTIxLjcyNDYgMTE0Ljk0NTIgTDEyMS45NDM1IDExNS4zNjI1IEwxMjIuMTYyNSAxMTUuNzc5OCBMMTIyLjM4MTQgMTE2LjE5NzEgTDEyMi42MDAzIDExNi42MTQ0IEwxMjIuODE5MiAxMTcuMDMxNyBMMTIzLjAzODEgMTE3LjQ0OSBMMTIzLjI1NzEgMTE3Ljg2NjIgTDEyMy40NzYgMTE4LjI4MzUgTDEyMy42OTQ5IDExOC43MDA4IEwxMjMuOTEzOCAxMTkuMTE4MSBMMTI0LjEzMjcgMTE5LjUzNTQgTDEyNC4zNTE3IDExOS45NTI3IEwxMjQuNTcwNiAxMjAuMzcgTDEyNC43ODk1IDEyMC43ODczIEwxMjUuMDA4NCAxMjEuMjA0NiBMMTI1LjIyNzMgMTIxLjYyMTkgTDEyNS40NDYzIDEyMi4wMzkxIEwxMjUuNjY1MiAxMjIuNDU2NCBMMTI1Ljg4NDEgMTIyLjg3MzcgTDEyNi4xMDMgMTIzLjI5MSBMMTI2LjMyMTkgMTIzLjcwODMgTDEyNi41NDA5IDEyNC4xMjU2IEwxMjYuNzU5OCAxMjQuNTQyOSBMMTI2Ljk3ODcgMTI0Ljk2MDIgTDEyNy4xOTc2IDEyNS4zNzc1IEwxMjcuNDE2NSAxMjUuNzk0OCBMMTI3LjYzNTUgMTI2LjIxMiBMMTI3Ljg1NDQgMTI2LjYyOTMgTDEyOC4wNzMzIDEyNy4wNDY2IEwxMjguMjkyMiAxMjcuNDYzOSBMMTI4LjUxMTEgMTI3Ljg4MTIgTDEyOC43MzAxIDEyOC4yOTg1IEwxMjguOTQ5IDEyOC43MTU4IEwxMjkuMTY3OSAxMjkuMTMzMSBMMTI5LjM4NjggMTI5LjU1MDQgTDEyOS42MDU3IDEyOS45Njc3IEwxMjkuODI0NyAxMzAuMzg0OSBMMTMwLjA0MzYgMTMwLjgwMjIgTDEzMC4yNjI1IDEzMS4yMTk1IEwxMzAuNDgxNCAxMzEuNjM2OCBMMTMwLjcwMDMgMTMyLjA1NDEgTDEzMC45MTkzIDEzMi40NzE0IEwxMzEuMTM4MiAxMzIuODg4NyBMMTMxLjM1NzEgMTMzLjMwNiBMMTMxLjU3NiAxMzMuNzIzMyBMMTMxLjc5NSAxMzQuMTQwNiBMMTMyLjAxMzkgMTM0LjU1NzggTDEzMi4yMzI4IDEzNC45NzUxIEwxMzIuNDUxNyAxMzUuMzkyNCBMMTMyLjY3MDYgMTM1LjgwOTcgTDEzMi44ODk2IDEzNi4yMjcgTDEzMy4xMDg1IDEzNi42NDQzIEwxMzMuMzI3NCAxMzcuMDYxNiBMMTMzLjU0NjMgMTM3LjQ3ODkgTDEzMy43NjUyIDEzNy44OTYyIEwxMzMuOTg0MSAxMzguMzEzNCBMMTM0LjIwMzEgMTM4LjczMDcgTDEzNC40MjIgMTM5LjE0OCBMMTM0LjY0MDkgMTM5LjU2NTMgTDEzNC44NTk4IDEzOS45ODI2IEwxMzUuMDc4OCAxNDAuMzk5OSBMMTM1LjI5NzcgMTQwLjgxNzIgTDEzNS41MTY2IDE0MS4yMzQ1IEwxMzUuNzM1NSAxNDEuNjUxOCBMMTM1Ljk1NDQgMTQyLjA2OTEgTDEzNi4xNzM0IDE0Mi40ODY0IEwxMzYuMzkyMyAxNDIuOTAzNiBMMTM2LjYxMTIgMTQzLjMyMDkgTDEzNi44MzAxIDE0My43MzgyIEwxMzcuMDQ5IDE0NC4xNTU1IEwxMzcuMjY4IDE0NC41NzI4IEwxMzcuNDg2OSAxNDQuOTkwMSBMMTM3LjcwNTggMTQ1LjQwNzQgTDEzNy45MjQ3IDE0NS44MjQ3IEwxMzguMTQzNiAxNDYuMjQyIEwxMzguMzYyNSAxNDYuNjU5MyBMMTM4LjU4MTUgMTQ3LjA3NjUgTDEzOC44MDA0IDE0Ny40OTM4IEwxMzkuMDE5MyAxNDcuOTExMSBMMTM5LjIzODIgMTQ4LjMyODQgTDEzOS40NTcyIDE0OC43NDU3IEwxMzkuNjc2MSAxNDkuMTYzIEwxMzkuODk1IDE0OS41ODAzIEwxNDAuMTEzOSAxNDkuOTk3NiBMMTQwLjMzMjggMTUwLjQxNDkgTDE0MC41NTE4IDE1MC44MzIyIEwxNDAuNzcwNyAxNTEuMjQ5NSBMMTQwLjk4OTYgMTUxLjY2NjcgTDE0MS4yMDg1IDE1Mi4wODQgTDE0MS40Mjc0IDE1Mi41MDEzIEwxNDEuNjQ2NCAxNTIuOTE4NiBMMTQxLjg2NTMgMTUzLjMzNTkgTDE0Mi4wODQyIDE1My43NTMyIEwxNDIuMzAzMSAxNTQuMTcwNSBMMTQyLjUyMiAxNTQuNTg3OCBMMTQyLjc0MSAxNTUuMDA1MSBMMTQyLjk1OTkgMTU1LjQyMjMgTDE0My4xNzg4IDE1NS44Mzk2IEwxNDMuMzk3NyAxNTYuMjU2OSBMMTQzLjYxNjYgMTU2LjY3NDIgTDE0My44MzU2IDE1Ny4wOTE1IEwxNDQuMDU0NSAxNTcuNTA4OCBMMTQ0LjI3MzQgMTU3LjkyNjEgTDE0NC40OTIzIDE1OC4zNDM0IEwxNDQuNzExMiAxNTguNzYwNyBMMTQ0LjkzMDIgMTU5LjE3OCBMMTQ1LjE0OTEgMTU5LjU5NTIgTDE0NS4zNjggMTYwLjAxMjUgTDE0NS41ODY5IDE2MC40Mjk4IEwxNDUuODA1OCAxNjAuODQ3MSBMMTQ2LjAyNDggMTYxLjI2NDQgTDE0Ni4yNDM3IDE2MS42ODE3IEwxNDYuNDYyNiAxNjIuMDk5IEwxNDYuNjgxNSAxNjIuNTE2MyBMMTQ2LjkwMDQgMTYyLjkzMzYgTDE0Ny4xMTk0IDE2My4zNTA4IEwxNDcuMzM4MyAxNjMuNzY4MSBMMTQ3LjU1NzIgMTY0LjE4NTQgTDE0Ny43NzYxIDE2NC42MDI3IEwxNDcuOTk1MSAxNjUuMDIgTDE0OC4yMTQgMTY1LjQzNzMgTDE0OC40MzI5IDE2NS44NTQ2IEwxNDguNjUxOCAxNjYuMjcxOSBMMTQ4Ljg3MDcgMTY2LjY4OTIgTDE0OS4wODk2IDE2Ny4xMDY1IEwxNDkuMzA4NiAxNjcuNTIzNyBMMTQ5LjUyNzUgMTY3Ljk0MSBMMTQ5Ljc0NjQgMTY4LjM1ODMgTDE0OS45NjUzIDE2OC43NzU2IEwxNTAuMTg0MiAxNjkuMTkyOSBMMTUwLjQwMzIgMTY5LjYxMDIgTDE1MC42MjIxIDE3MC4wMjc1IEwxNTAuODQxIDE3MC40NDQ4IEwxNTEuMDU5OSAxNzAuODYyMSBMMTUxLjI3ODkgMTcxLjI3OTQgTDE1MS40OTc4IDE3MS42OTY3IEwxNTEuNzE2NyAxNzIuMTEzOSBMMTUxLjkzNTYgMTcyLjUzMTIgTDE1Mi4xNTQ1IDE3Mi45NDg1IEwxNTIuMzczNSAxNzMuMzY1OCBMMTUyLjU5MjQgMTczLjc4MzEgTDE1Mi44MTEzIDE3NC4yMDA0IEwxNTMuMDMwMiAxNzQuNjE3NyBMMTUzLjI0OTEgMTc1LjAzNSBMMTUzLjQ2OCAxNzUuNDUyMyBMMTUzLjY4NyAxNzUuODY5NSBMMTUzLjkwNTkgMTc2LjI4NjggTDE1NC4xMjQ4IDE3Ni43MDQxIEwxNTQuMzQzNyAxNzcuMTIxNCBMMTU0LjU2MjcgMTc3LjUzODcgTDE1NC43ODE2IDE3Ny45NTYgTDE1NS4wMDA1IDE3OC4zNzMzIEwxNTUuMjE5NCAxNzguNzkwNiBMMTU1LjQzODMgMTc5LjIwNzkgTDE1NS42NTczIDE3OS42MjUyIEwxNTUuODc2MiAxODAuMDQyNCBMMTU2LjA5NTEgMTgwLjQ1OTcgTDE1Ni4zMTQgMTgwLjg3NyBMMTU2LjUzMjkgMTgxLjI5NDMgTDE1Ni43NTE5IDE4MS43MTE2IEwxNTYuOTcwOCAxODIuMTI4OSBMMTU3LjE4OTcgMTgyLjU0NjIgTDE1Ny40MDg2IDE4Mi45NjM1IEwxNTcuNjI3NSAxODMuMzgwOCBMMTU3Ljg0NjUgMTgzLjc5ODEgTDE1OC4wNjU0IDE4NC4yMTUzIEwxNTguMjg0MyAxODQuNjMyNiBMMTU4LjUwMzIgMTg1LjA0OTkgTDE1OC43MjIxIDE4NS40NjcyIEwxNTguOTQxMSAxODUuODg0NSBMMTU5LjE2IDE4Ni4zMDE4IEwxNTkuMzc4OSAxODYuNzE5MSBMMTU5LjU5NzggMTg3LjEzNjQgTDE1OS44MTY3IDE4Ny41NTM3IEwxNjAuMDM1NyAxODcuOTcxIEwxNjAuMjU0NiAxODguMzg4MyBMMTYwLjQ3MzUgMTg4LjgwNTUgTDE2MC42OTI0IDE4OS4yMjI4IEwxNjAuOTExMyAxODkuNjQwMSBMMTYxLjEzMDMgMTkwLjA1NzQgTDE2MS4zNDkyIDE5MC40NzQ3IEwxNjEuNTY4MSAxOTAuODkyIEwxNjEuNzg3IDE5MS4zMDkzIEwxNjIuMDA1OSAxOTEuNzI2NiBMMTYyLjIyNDkgMTkyLjE0MzkgTDE2Mi40NDM4IDE5Mi41NjExIEwxNjIuNjYyNyAxOTIuOTc4NCBMMTYyLjg4MTYgMTkzLjM5NTcgTDE2My4xMDA2IDE5My44MTMgTDE2My4zMTk1IDE5NC4yMzAzIEwxNjMuNTM4NCAxOTQuNjQ3NiBMMTYzLjc1NzMgMTk1LjA2NDkgTDE2My45NzYyIDE5NS40ODIyIEwxNjQuMTk1MSAxOTUuODk5NSBMMTY0LjQxNDEgMTk2LjMxNjggTDE2NC42MzMgMTk2LjczNDEgTDE2NC44NTE5IDE5Ny4xNTEzIEwxNjUuMDcwOCAxOTcuNTY4NiBMMTY1LjI4OTcgMTk3Ljk4NTkgTDE2NS41MDg3IDE5OC40MDMyIEwxNjUuNzI3NiAxOTguODIwNSBMMTY1Ljk0NjUgMTk5LjIzNzggTDE2Ni4xNjU0IDE5OS42NTUxIEwxNjYuMzg0MyAyMDAuMDcyNCBMMTY2LjYwMzMgMjAwLjQ4OTcgTDE2Ni44MjIyIDIwMC45MDcgTDE2Ny4wNDExIDIwMS4zMjQyIEwxNjcuMjYgMjAxLjc0MTUgTDE2Ny40NzkgMjAyLjE1ODggTDE2Ny42OTc5IDIwMi41NzYxIEwxNjcuOTE2OCAyMDIuOTkzNCBMMTY4LjEzNTcgMjAzLjQxMDcgTDE2OC4zNTQ2IDIwMy44MjggTDE2OC41NzM1IDIwNC4yNDUzIEwxNjguNzkyNSAyMDQuNjYyNiBMMTY5LjAxMTQgMjA1LjA3OTggTDE2OS4yMzAzIDIwNS40OTcxIEwxNjkuNDQ5MiAyMDUuOTE0NCBMMTY5LjY2ODIgMjA2LjMzMTcgTDE2OS44ODcxIDIwNi43NDkgTDE3MC4xMDYgMjA3LjE2NjMgTDE3MC4zMjQ5IDIwNy41ODM2IEwxNzAuNTQzOCAyMDguMDAwOSBMMTcwLjc2MjggMjA4LjQxODIgTDE3MC45ODE3IDIwOC44MzU1IEwxNzEuMjAwNiAyMDkuMjUyNyBMMTcxLjQxOTUgMjA5LjY3IEwxNzEuNjM4NCAyMTAuMDg3MyBMMTcxLjg1NzQgMjEwLjUwNDYgTDE3Mi4wNzYzIDIxMC45MjE5IEwxNzIuMjk1MiAyMTEuMzM5MiBMMTcyLjUxNDEgMjExLjc1NjUgTDE3Mi43MzMgMjEyLjE3MzggTDE3Mi45NTIgMjEyLjU5MTEgTDE3My4xNzA5IDIxMy4wMDg0IEwxNzMuMzg5OCAyMTMuNDI1NyBMMTczLjYwODcgMjEzLjg0MjkgTDE3My44Mjc2IDIxNC4yNjAyIEwxNzQuMDQ2NiAyMTQuNjc3NSBMMTc0LjI2NTUgMjE1LjA5NDggTDE3NC40ODQ0IDIxNS41MTIxIEwxNzQuNzAzMyAyMTUuOTI5NCBMMTc0LjkyMjIgMjE2LjM0NjcgTDE3NS4xNDEyIDIxNi43NjQgTDE3NS4zNjAxIDIxNy4xODEzIEwxNzUuNTc5IDIxNy41OTg1IEwxNzUuNzk3OSAyMTguMDE1OCBMMTc2LjAxNjggMjE4LjQzMzEgTDE3Ni4yMzU4IDIxOC44NTA0IEwxNzYuNDU0NyAyMTkuMjY3NyBMMTc2LjY3MzYgMjE5LjY4NSBMMTc2Ljg5MjUgMjIwLjEwMjMgTDE3Ny4xMTE0IDIyMC41MTk2IEwxNzcuMzMwNCAyMjAuOTM2OSBMMTc3LjU0OTMgMjIxLjM1NDIgTDE3Ny43NjgyIDIyMS43NzE0IEwxNzcuOTg3MSAyMjIuMTg4NyBMMTc4LjIwNiAyMjIuNjA2IEwxNzguNDI1IDIyMy4wMjMzIEwxNzguNjQzOSAyMjMuNDQwNiBMMTc4Ljg2MjggMjIzLjg1NzkgTDE3OS4wODE3IDIyNC4yNzUyIEwxNzkuMzAwNiAyMjQuNjkyNSBMMTc5LjUxOTYgMjI1LjEwOTggTDE3OS43Mzg1IDIyNS41MjcxIEwxNzkuOTU3NCAyMjUuOTQ0NCBMMTgwLjE3NjMgMjI2LjM2MTYgTDE4MC4zOTUyIDIyNi43Nzg5IEwxODAuNjE0MiAyMjcuMTk2MiBMMTgwLjgzMzEgMjI3LjYxMzUgTDE4MS4wNTIgMjI4LjAzMDggTDE4MS4yNzA5IDIyOC40NDgxIEwxODEuNDg5OCAyMjguODY1NCBMMTgxLjcwODggMjI5LjI4MjcgTDE4MS45Mjc3IDIyOS43IEwxODIuMTQ2NiAyMzAuMTE3MiBMMTgyLjM2NTUgMjMwLjUzNDUgTDE4Mi41ODQ1IDIzMC45NTE4IEwxODIuODAzNCAyMzEuMzY5MSBMMTgzLjAyMjMgMjMxLjc4NjQgTDE4My4yNDEyIDIzMi4yMDM3IEwxODMuNDYwMSAyMzIuNjIxIEwxODMuNjc5IDIzMy4wMzgzIEwxODMuODk4IDIzMy40NTU2IEwxODQuMTE2OSAyMzMuODcyOSBMMTg0LjMzNTggMjM0LjI5MDEgTDE4NC41NTQ3IDIzNC43MDc0IEwxODQuNzczNyAyMzUuMTI0NyBMMTg0Ljk5MjYgMjM1LjU0MiBMMTg1LjIxMTUgMjM1Ljk1OTMgTDE4NS40MzA0IDIzNi4zNzY2IEwxODUuNjQ5MyAyMzYuNzkzOSBMMTg1Ljg2ODMgMjM3LjIxMTIgTDE4Ni4wODcyIDIzNy42Mjg1IEwxODYuMzA2MSAyMzguMDQ1OCBMMTg2LjUyNSAyMzguNDYzIEwxODYuNzQzOSAyMzguODgwMyBMMTg2Ljk2MjggMjM5LjI5NzYgTDE4Ny4xODE4IDIzOS43MTQ5IEwxODcuNDAwNyAyNDAuMTMyMiBMMTg3LjYxOTYgMjQwLjU0OTUgTDE4Ny44Mzg1IDI0MC45NjY4IEwxODguMDU3NCAyNDEuMzg0MSBMMTg4LjI3NjQgMjQxLjgwMTQgTDE4OC40OTUzIDI0Mi4yMTg3IEwxODguNzE0MiAyNDIuNjM1OSBMMTg4LjkzMzEgMjQzLjA1MzIgTDE4OS4xNTIxIDI0My40NzA1IEwxODkuMzcxIDI0My44ODc4IEwxODkuNTg5OSAyNDQuMzA1MSBMMTg5LjgwODggMjQ0LjcyMjQgTDE5MC4wMjc3IDI0NS4xMzk3IEwxOTAuMjQ2NiAyNDUuNTU3IEwxOTAuNDY1NiAyNDUuOTc0MyBMMTkwLjY4NDUgMjQ2LjM5MTYgTDE5MC45MDM0IDI0Ni44MDg4IEwxOTEuMTIyMyAyNDcuMjI2MSBMMTkxLjM0MTMgMjQ3LjY0MzQgTDE5MS41NjAyIDI0OC4wNjA3IEwxOTEuNzc5MSAyNDguNDc4IEwxOTEuOTk4IDI0OC44OTUzIEwxOTIuMjE2OSAyNDkuMzEyNiBMMTkyLjQzNTkgMjQ5LjcyOTkgTDE5Mi42NTQ4IDI1MC4xNDcyIEwxOTIuODczNyAyNTAuNTY0NSBMMTkzLjA5MjYgMjUwLjk4MTggTDE5My4zMTE1IDI1MS4zOTkgTDE5My41MzA1IDI1MS44MTYzIEwxOTMuNzQ5NCAyNTIuMjMzNiBMMTkzLjk2ODMgMjUyLjY1MDkgTDE5NC4xODcyIDI1My4wNjgyIEwxOTQuNDA2MSAyNTMuNDg1NSBMMTk0LjYyNTEgMjUzLjkwMjggTDE5NC44NDQgMjU0LjMyMDEgTDE5NS4wNjI5IDI1NC43Mzc0IEwxOTUuMjgxOCAyNTUuMTU0NiBMMTk1LjUwMDcgMjU1LjU3MTkgTDE5NS43MTk3IDI1NS45ODkyIEwxOTUuOTM4NiAyNTYuNDA2NSBMMTk2LjE1NzUgMjU2LjgyMzggTDE5Ni4zNzY0IDI1Ny4yNDExIEwxOTYuNTk1MyAyNTcuNjU4NCBMMTk2LjgxNDMgMjU4LjA3NTcgTDE5Ny4wMzMyIDI1OC40OTMgTDE5Ny4yNTIxIDI1OC45MTAyIEwxOTcuNDcxIDI1OS4zMjc1IEwxOTcuNjg5OSAyNTkuNzQ0OCBMMTk3LjkwODkgMjYwLjE2MjEgTDE5OC4xMjc4IDI2MC41Nzk0IEwxOTguMzQ2NyAyNjAuOTk2NyBMMTk4LjU2NTYgMjYxLjQxNCBMMTk4Ljc4NDUgMjYxLjgzMTMgTDE5OS4wMDM1IDI2Mi4yNDg2IEwxOTkuMjIyNCAyNjIuNjY1OSBMMTk5LjQ0MTMgMjYzLjA4MzIgTDE5OS42NjAyIDI2My41MDA1IEwxOTkuODc5MiAyNjMuOTE3NyBMMjAwLjA5ODEgMjY0LjMzNSBMMjAwLjMxNyAyNjQuNzUyMyBMMjAwLjUzNTkgMjY1LjE2OTYgTDIwMC43NTQ4IDI2NS41ODY5IEwyMDAuOTczOCAyNjYuMDA0MiBMMjAxLjE5MjcgMjY2LjQyMTUgTDIwMS40MTE2IDI2Ni44Mzg4IEwyMDEuNjMwNSAyNjcuMjU2IEwyMDEuODQ5NCAyNjcuNjczMyBMMjAyLjA2ODMgMjY4LjA5MDYgTDIwMi4yODczIDI2OC41MDc5IEwyMDIuNTA2MiAyNjguOTI1MiBMMjAyLjcyNTEgMjY5LjM0MjUgTDIwMi45NDQgMjY5Ljc1OTggTDIwMy4xNjI5IDI3MC4xNzcxIEwyMDMuMzgxOSAyNzAuNTk0NCBMMjAzLjYwMDggMjcxLjAxMTcgTDIwMy44MTk3IDI3MS40MjkgTDIwNC4wMzg2IDI3MS44NDYzIEwyMDQuMjU3NiAyNzIuMjYzNSBMMjA0LjQ3NjUgMjcyLjY4MDggTDIwNC42OTU0IDI3My4wOTgxIEwyMDQuOTE0MyAyNzMuNTE1NCBMMjA1LjEzMzIgMjczLjkzMjcgTDIwNS4zNTIxIDI3NC4zNSBMMjA1LjU3MTEgMjc0Ljc2NzMgTDIwNS43OSAyNzUuMTg0NiBMMjA2LjAwODkgMjc1LjYwMTkgTDIwNi4yMjc4IDI3Ni4wMTkxIEwyMDYuNDQ2OCAyNzYuNDM2NCBMMjA2LjY2NTcgMjc2Ljg1MzcgTDIwNi44ODQ2IDI3Ny4yNzEgTDIwNy4xMDM1IDI3Ny42ODgzIEwyMDcuMzIyNCAyNzguMTA1NiBMMjA3LjU0MTQgMjc4LjUyMjkgTDIwNy43NjAzIDI3OC45NDAyIEwyMDcuOTc5MiAyNzkuMzU3NSBMMjA4LjE5ODEgMjc5Ljc3NDcgTDIwOC40MTcgMjgwLjE5MiBMMjA4LjYzNiAyODAuNjA5MyBMMjA4Ljg1NDkgMjgxLjAyNjYgTDIwOS4wNzM4IDI4MS40NDM5IEwyMDkuMjkyNyAyODEuODYxMiBMMjA5LjUxMTYgMjgyLjI3ODUgTDIwOS43MzA2IDI4Mi42OTU4IEwyMDkuOTQ5NSAyODMuMTEzMSBMMjEwLjE2ODQgMjgzLjUzMDQgTDIxMC4zODczIDI4My45NDc3IEwyMTAuNjA2MiAyODQuMzY0OSBMMjEwLjgyNTIgMjg0Ljc4MjIgTDIxMS4wNDQxIDI4NS4xOTk1IEwyMTEuMjYzIDI4NS42MTY4IEwyMTEuNDgxOSAyODYuMDM0MSBMMjExLjcwMDggMjg2LjQ1MTQgTDIxMS45MTk4IDI4Ni44Njg3IEwyMTIuMTM4NyAyODcuMjg2IEwyMTIuMzU3NiAyODcuNzAzMiBMMjEyLjU3NjUgMjg4LjEyMDUgTDIxMi43OTU0IDI4OC41Mzc4IEwyMTMuMDE0NCAyODguOTU1MSBMMjEzLjIzMzMgMjg5LjM3MjQgTDIxMy40NTIyIDI4OS43ODk3IEwyMTMuNjcxMSAyOTAuMjA3IEwyMTMuODkgMjkwLjYyNDMgTDIxNC4xMDkgMjkxLjA0MTYgTDIxNC4zMjc5IDI5MS40NTg5IEwyMTQuNTQ2OCAyOTEuODc2MiBMMjE0Ljc2NTcgMjkyLjI5MzUgTDIxNC45ODQ2IDI5Mi43MTA3IEwyMTUuMjAzNiAyOTMuMTI4IEwyMTUuNDIyNSAyOTMuNTQ1MyBMMjE1LjY0MTQgMjkzLjk2MjYgTDIxNS44NjAzIDI5NC4zNzk5IEwyMTYuMDc5MyAyOTQuNzk3MiBMMjE2LjI5ODIgMjk1LjIxNDUgTDIxNi41MTcxIDI5NS42MzE4IEwyMTYuNzM2IDI5Ni4wNDkxIEwyMTYuOTU0OSAyOTYuNDY2MyBMMjE3LjE3MzggMjk2Ljg4MzYgTDIxNy4zOTI4IDI5Ny4zMDA5IEwyMTcuNjExNyAyOTcuNzE4MiBMMjE3LjgzMDYgMjk4LjEzNTUgTDIxOC4wNDk1IDI5OC41NTI4IEwyMTguMjY4NCAyOTguOTcwMSBMMjE4LjQ4NzQgMjk5LjM4NzQgTDIxOC43MDYzIDI5OS44MDQ3IEwyMTguOTI1MiAzMDAuMjIyIEwyMTkuMTQ0MSAzMDAuNjM5MyBMMjE5LjM2MzEgMzAxLjA1NjUgTDIxOS41ODIgMzAxLjQ3MzggTDIxOS44MDA5IDMwMS44OTExIEwyMjAuMDE5OCAzMDIuMzA4NCBMMjIwLjIzODcgMzAyLjcyNTcgTDIyMC40NTc2IDMwMy4xNDMgTDIyMC42NzY2IDMwMy41NjAzIEwyMjAuODk1NSAzMDMuOTc3NiBMMjIxLjExNDQgMzA0LjM5NDkgTDIyMS4zMzMzIDMwNC44MTIxIEwyMjEuNTUyMiAzMDUuMjI5NCBMMjIxLjc3MTIgMzA1LjY0NjcgTDIyMS45OTAxIDMwNi4wNjQgTDIyMi4yMDkgMzA2LjQ4MTMgTDIyMi40Mjc5IDMwNi44OTg2IEwyMjIuNjQ2OSAzMDcuMzE1OSBMMjIyLjg2NTggMzA3LjczMzIgTDIyMy4wODQ3IDMwOC4xNTA1IEwyMjMuMzAzNiAzMDguNTY3NyBMMjIzLjUyMjUgMzA4Ljk4NSBMMjIzLjc0MTUgMzA5LjQwMjMgTDIyMy45NjA0IDMwOS44MTk2IEwyMjQuMTc5MyAzMTAuMjM2OSBMMjI0LjM5ODIgMzEwLjY1NDIgTDIyNC42MTcxIDMxMS4wNzE1IEwyMjQuODM2MSAzMTEuNDg4OCBMMjI1LjA1NSAzMTEuOTA2MSBMMjI1LjI3MzkgMzEyLjMyMzQgTDIyNS40OTI4IDMxMi43NDA3IEwyMjUuNzExNyAzMTMuMTU4IEwyMjUuOTMwNyAzMTMuNTc1MiBMMjI2LjE0OTYgMzEzLjk5MjUgTDIyNi4zNjg1IDMxNC40MDk4IEwyMjYuNTg3NCAzMTQuODI3MSBMMjI2LjgwNjMgMzE1LjI0NDQgTDIyNy4wMjUzIDMxNS42NjE3IEwyMjcuMjQ0MiAzMTYuMDc5IEwyMjcuNDYzMSAzMTYuNDk2MyBMMjI3LjY4MiAzMTYuOTEzNSBMMjI3LjkwMDkgMzE3LjMzMDggTDIyOC4xMTk5IDMxNy43NDgxIEwyMjguMzM4OCAzMTguMTY1NCBMMjI4LjU1NzcgMzE4LjU4MjcgTDIyOC43NzY2IDMxOSBMMjI4Ljk5NTUgMzE5LjQxNzMgTDIyOS4yMTQ1IDMxOS44MzQ2IEwyMjkuNDMzNCAzMjAuMjUxOSBMMjI5LjY1MjMgMzIwLjY2OTIgTDIyOS44NzEyIDMyMS4wODY1IEwyMzAuMDkwMSAzMjEuNTAzOCBMMjMwLjMwOTEgMzIxLjkyMTEgTDIzMC41MjggMzIyLjMzODMgTDIzMC43NDY5IDMyMi43NTU2IEwyMzAuOTY1OCAzMjMuMTcyOSBMMjMxLjE4NDggMzIzLjU5MDIgTDIzMS40MDM3IDMyNC4wMDc1IEwyMzEuNjIyNiAzMjQuNDI0OCBMMjMxLjg0MTUgMzI0Ljg0MjEgTDIzMi4wNjA0IDMyNS4yNTk0IEwyMzIuMjc5MyAzMjUuNjc2NiBMMjMyLjQ5ODMgMzI2LjA5MzkgTDIzMi43MTcyIDMyNi41MTEyIEwyMzIuOTM2MSAzMjYuOTI4NSBMMjMzLjE1NSAzMjcuMzQ1OCBMMjMzLjM3MzkgMzI3Ljc2MzEgTDIzMy41OTI5IDMyOC4xODA0IEwyMzMuODExOCAzMjguNTk3NyBMMjM0LjAzMDcgMzI5LjAxNSBMMjM0LjI0OTYgMzI5LjQzMjMgTDIzNC40Njg2IDMyOS44NDk1IEwyMzQuNjg3NSAzMzAuMjY2OCBMMjM0LjkwNjQgMzMwLjY4NDEgTDIzNS4xMjUzIDMzMS4xMDE0IEwyMzUuMzQ0MiAzMzEuNTE4NyBMMjM1LjU2MzEgMzMxLjkzNiBMMjM1Ljc4MjEgMzMyLjM1MzMgTDIzNi4wMDEgMzMyLjc3MDYgTDIzNi4yMTk5IDMzMy4xODc5IEwyMzYuNDM4OCAzMzMuNjA1MiBMMjM2LjY1NzcgMzM0LjAyMjUgTDIzNi44NzY3IDMzNC40Mzk3IEwyMzcuMDk1NiAzMzQuODU3IEwyMzcuMzE0NSAzMzUuMjc0MyBMMjM3LjUzMzQgMzM1LjY5MTYgTDIzNy43NTI0IDMzNi4xMDg5IEwyMzcuOTcxMyAzMzYuNTI2MiBMMjM4LjE5MDIgMzM2Ljk0MzUgTDIzOC40MDkxIDMzNy4zNjA4IEwyMzguNjI4IDMzNy43NzggTDIzOC44NDcgMzM4LjE5NTMgTDIzOS4wNjU5IDMzOC42MTI2IEwyMzkuMjg0OCAzMzkuMDI5OSBMMjM5LjUwMzcgMzM5LjQ0NzIgTDIzOS43MjI2IDMzOS44NjQ1IEwyMzkuOTQxNiAzMzkuOTE2NyBMMjQwLjE2MDUgMzM5LjkxNjcgTDI0MC4zNzk0IDMzOS45MTY3IEwyNDAuNTk4MyAzMzkuOTE2NyBMMjQwLjgxNzIgMzM5LjkxNjcgTDI0MS4wMzYyIDMzOS45MTY3IEwyNDEuMjU1MSAzMzkuOTE2NyBMMjQxLjQ3NCAzMzkuOTE2NyBMMjQxLjY5MjkgMzM5LjkxNjcgTDI0MS45MTE4IDMzOS45MTY3IEwyNDIuMTMwOCAzMzkuOTE2NyBMMjQyLjM0OTcgMzM5LjkxNjcgTDI0Mi41Njg2IDMzOS45MTY3IEwyNDIuNzg3NSAzMzkuOTE2NyBMMjQzLjAwNjQgMzM5LjkxNjcgTDI0My4yMjU0IDMzOS45MTY3IEwyNDMuNDQ0MyAzMzkuOTE2NyBMMjQzLjY2MzIgMzM5LjkxNjcgTDI0My44ODIxIDMzOS45MTY3IEwyNDQuMTAxIDMzOS45MTY3IEwyNDQuMzIgMzM5LjkxNjcgTDI0NC41Mzg5IDMzOS45MTY3IEwyNDQuNzU3OCAzMzkuOTE2NyBMMjQ0Ljk3NjcgMzM5LjkxNjcgTDI0NS4xOTU2IDMzOS45MTY3IEwyNDUuNDE0NiAzMzkuOTE2NyBMMjQ1LjYzMzUgMzM5LjkxNjcgTDI0NS44NTI0IDMzOS45MTY3IEwyNDYuMDcxMyAzMzkuOTE2NyBMMjQ2LjI5MDMgMzM5LjkxNjcgTDI0Ni41MDkyIDMzOS45MTY3IEwyNDYuNzI4MSAzMzkuOTE2NyBMMjQ2Ljk0NyAzMzkuOTE2NyBMMjQ3LjE2NTkgMzM5LjkxNjcgTDI0Ny4zODQ4IDMzOS45MTY3IEwyNDcuNjAzOCAzMzkuOTE2NyBMMjQ3LjgyMjcgMzM5LjkxNjcgTDI0OC4wNDE2IDMzOS45MTY3IEwyNDguMjYwNSAzMzkuOTE2NyBMMjQ4LjQ3OTQgMzM5LjkxNjcgTDI0OC42OTg0IDMzOS45MTY3IEwyNDguOTE3MyAzMzkuOTE2NyBMMjQ5LjEzNjIgMzM5LjkxNjcgTDI0OS4zNTUxIDMzOS45MTY3IEwyNDkuNTc0MSAzMzkuOTE2NyBMMjQ5Ljc5MyAzMzkuOTE2NyBMMjUwLjAxMTkgMzM5LjkxNjcgTDI1MC4yMzA4IDMzOS45MTY3IEwyNTAuNDQ5NyAzMzkuOTE2NyBMMjUwLjY2ODYgMzM5LjkxNjcgTDI1MC44ODc2IDMzOS45MTY3IEwyNTEuMTA2NSAzMzkuOTE2NyBMMjUxLjMyNTQgMzM5LjkxNjcgTDI1MS41NDQzIDMzOS45MTY3IEwyNTEuNzYzMiAzMzkuOTE2NyBMMjUxLjk4MjIgMzM5LjkxNjcgTDI1Mi4yMDExIDMzOS45MTY3IEwyNTIuNDIgMzM5LjkxNjcgTDI1Mi42Mzg5IDMzOS45MTY3IEwyNTIuODU3OCAzMzkuOTE2NyBMMjUzLjA3NjggMzM5LjkxNjcgTDI1My4yOTU3IDMzOS45MTY3IEwyNTMuNTE0NiAzMzkuOTE2NyBMMjUzLjczMzUgMzM5LjkxNjcgTDI1My45NTI1IDMzOS45MTY3IEwyNTQuMTcxNCAzMzkuOTE2NyBMMjU0LjM5MDMgMzM5LjkxNjcgTDI1NC42MDkyIDMzOS45MTY3IEwyNTQuODI4MSAzMzkuOTE2NyBMMjU1LjA0NzEgMzM5LjkxNjcgTDI1NS4yNjYgMzM5LjkxNjcgTDI1NS40ODQ5IDMzOS45MTY3IEwyNTUuNzAzOCAzMzkuOTE2NyBMMjU1LjkyMjcgMzM5LjkxNjcgTDI1Ni4xNDE3IDMzOS45MTY3IEwyNTYuMzYwNiAzMzkuOTE2NyBMMjU2LjU3OTUgMzM5LjkxNjcgTDI1Ni43OTg0IDMzOS45MTY3IEwyNTcuMDE3MyAzMzkuOTE2NyBMMjU3LjIzNjMgMzM5LjkxNjcgTDI1Ny40NTUyIDMzOS45MTY3IEwyNTcuNjc0MSAzMzkuOTE2NyBMMjU3Ljg5MyAzMzkuOTE2NyBMMjU4LjExMTkgMzM5LjkxNjcgTDI1OC4zMzA5IDMzOS45MTY3IEwyNTguNTQ5OCAzMzkuOTE2NyBMMjU4Ljc2ODcgMzM5LjkxNjcgTDI1OC45ODc2IDMzOS45MTY3IEwyNTkuMjA2NSAzMzkuOTE2NyBMMjU5LjQyNTQgMzM5LjkxNjcgTDI1OS42NDQ0IDMzOS45MTY3IEwyNTkuODYzMyAzMzkuOTE2NyBMMjYwLjA4MjIgMzM5LjkxNjcgTDI2MC4zMDExIDMzOS45MTY3IEwyNjAuNTIwMSAzMzkuOTE2NyBMMjYwLjczOSAzMzkuOTE2NyBMMjYwLjk1NzkgMzM5LjkxNjcgTDI2MS4xNzY4IDMzOS45MTY3IEwyNjEuMzk1NyAzMzkuOTE2NyBMMjYxLjYxNDcgMzM5LjkxNjcgTDI2MS44MzM2IDMzOS45MTY3IEwyNjIuMDUyNSAzMzkuOTE2NyBMMjYyLjI3MTQgMzM5LjkxNjcgTDI2Mi40OTAzIDMzOS45MTY3IEwyNjIuNzA5MyAzMzkuOTE2NyBMMjYyLjkyODIgMzM5LjkxNjcgTDI2My4xNDcxIDMzOS45MTY3IEwyNjMuMzY2IDMzOS45MTY3IEwyNjMuNTg0OSAzMzkuOTE2NyBMMjYzLjgwMzkgMzM5LjkxNjcgTDI2NC4wMjI4IDMzOS45MTY3IEwyNjQuMjQxNyAzMzkuOTE2NyBMMjY0LjQ2MDYgMzM5LjkxNjcgTDI2NC42Nzk1IDMzOS45MTY3IEwyNjQuODk4NSAzMzkuOTE2NyBMMjY1LjExNzQgMzM5LjkxNjcgTDI2NS4zMzYzIDMzOS45MTY3IEwyNjUuNTU1MiAzMzkuOTE2NyBMMjY1Ljc3NDEgMzM5LjkxNjcgTDI2NS45OTMxIDMzOS45MTY3IEwyNjYuMjEyIDMzOS45MTY3IEwyNjYuNDMwOSAzMzkuOTE2NyBMMjY2LjY0OTggMzM5LjkxNjcgTDI2Ni44Njg3IDMzOS45MTY3IEwyNjcuMDg3NyAzMzkuOTE2NyBMMjY3LjMwNjYgMzM5LjkxNjcgTDI2Ny41MjU1IDMzOS45MTY3IEwyNjcuNzQ0NCAzMzkuOTE2NyBMMjY3Ljk2MzMgMzM5LjkxNjcgTDI2OC4xODIzIDMzOS45MTY3IEwyNjguNDAxMiAzMzkuOTE2NyBMMjY4LjYyMDEgMzM5LjkxNjcgTDI2OC44MzkgMzM5LjkxNjcgTDI2OS4wNTggMzM5LjkxNjcgTDI2OS4yNzY5IDMzOS45MTY3IEwyNjkuNDk1OCAzMzkuOTE2NyBMMjY5LjcxNDcgMzM5LjkxNjcgTDI2OS45MzM2IDMzOS45MTY3IEwyNzAuMTUyNiAzMzkuOTE2NyBMMjcwLjM3MTUgMzM5LjkxNjcgTDI3MC41OTA0IDMzOS45MTY3IEwyNzAuODA5MyAzMzkuOTE2NyBMMjcxLjAyODIgMzM5LjkxNjcgTDI3MS4yNDcxIDMzOS45MTY3IEwyNzEuNDY2MSAzMzkuOTE2NyBMMjcxLjY4NSAzMzkuOTE2NyBMMjcxLjkwMzkgMzM5LjkxNjcgTDI3Mi4xMjI4IDMzOS45MTY3IEwyNzIuMzQxOCAzMzkuOTE2NyBMMjcyLjU2MDcgMzM5LjkxNjcgTDI3Mi43Nzk2IDMzOS45MTY3IEwyNzIuOTk4NSAzMzkuOTE2NyBMMjczLjIxNzQgMzM5LjkxNjcgTDI3My40MzY0IDMzOS45MTY3IEwyNzMuNjU1MyAzMzkuOTE2NyBMMjczLjg3NDIgMzM5LjkxNjcgTDI3NC4wOTMxIDMzOS45MTY3IEwyNzQuMzEyIDMzOS45MTY3IEwyNzQuNTMwOSAzMzkuOTE2NyBMMjc0Ljc0OTkgMzM5LjkxNjcgTDI3NC45Njg4IDMzOS45MTY3IEwyNzUuMTg3NyAzMzkuOTE2NyBMMjc1LjQwNjYgMzM5LjkxNjcgTDI3NS42MjU1IDMzOS45MTY3IEwyNzUuODQ0NSAzMzkuOTE2NyBMMjc2LjA2MzQgMzM5LjkxNjcgTDI3Ni4yODIzIDMzOS45MTY3IEwyNzYuNTAxMiAzMzkuOTE2NyBMMjc2LjcyMDIgMzM5LjkxNjcgTDI3Ni45MzkxIDMzOS45MTY3IEwyNzcuMTU4IDMzOS45MTY3IEwyNzcuMzc2OSAzMzkuOTE2NyBMMjc3LjU5NTggMzM5LjkxNjcgTDI3Ny44MTQ4IDMzOS45MTY3IEwyNzguMDMzNyAzMzkuOTE2NyBMMjc4LjI1MjYgMzM5LjkxNjcgTDI3OC40NzE1IDMzOS45MTY3IEwyNzguNjkwNCAzMzkuOTE2NyBMMjc4LjkwOTQgMzM5LjkxNjcgTDI3OS4xMjgzIDMzOS45MTY3IEwyNzkuMzQ3MiAzMzkuOTE2NyBMMjc5LjU2NjEgMzM5LjkxNjcgTDI3OS43ODUgMzM5LjkxNjcgTDI4MC4wMDQgMzM5LjkxNjcgTDI4MC4yMjI5IDMzOS45MTY3IEwyODAuNDQxOCAzMzkuOTE2NyBMMjgwLjY2MDcgMzM5LjkxNjcgTDI4MC44Nzk2IDMzOS45MTY3IEwyODEuMDk4NiAzMzkuOTE2NyBMMjgxLjMxNzUgMzM5LjkxNjcgTDI4MS41MzY0IDMzOS45MTY3IEwyODEuNzU1MyAzMzkuOTE2NyBMMjgxLjk3NDIgMzM5LjkxNjcgTDI4Mi4xOTMyIDMzOS45MTY3IEwyODIuNDEyMSAzMzkuOTE2NyBMMjgyLjYzMSAzMzkuOTE2NyBMMjgyLjg0OTkgMzM5LjkxNjcgTDI4My4wNjg4IDMzOS45MTY3IEwyODMuMjg3OCAzMzkuOTE2NyBMMjgzLjUwNjcgMzM5LjkxNjcgTDI4My43MjU2IDMzOS45MTY3IEwyODMuOTQ0NSAzMzkuOTE2NyBMMjg0LjE2MzUgMzM5LjkxNjcgTDI4NC4zODI0IDMzOS45MTY3IEwyODQuNjAxMyAzMzkuOTE2NyBMMjg0LjgyMDIgMzM5LjkxNjcgTDI4NS4wMzkxIDMzOS45MTY3IEwyODUuMjU4MSAzMzkuOTE2NyBMMjg1LjQ3NyAzMzkuOTE2NyBMMjg1LjY5NTkgMzM5LjkxNjcgTDI4NS45MTQ4IDMzOS45MTY3IEwyODYuMTMzNyAzMzkuOTE2NyBMMjg2LjM1MjYgMzM5LjkxNjcgTDI4Ni41NzE2IDMzOS45MTY3IEwyODYuNzkwNSAzMzkuOTE2NyBMMjg3LjAwOTQgMzM5LjkxNjcgTDI4Ny4yMjgzIDMzOS45MTY3IEwyODcuNDQ3MyAzMzkuOTE2NyBMMjg3LjY2NjIgMzM5LjkxNjcgTDI4Ny44ODUxIDMzOS45MTY3IEwyODguMTA0IDMzOS45MTY3IEwyODguMzIyOSAzMzkuOTE2NyBMMjg4LjU0MTkgMzM5LjkxNjcgTDI4OC43NjA4IDMzOS45MTY3IEwyODguOTc5NyAzMzkuOTE2NyBMMjg5LjE5ODYgMzM5LjkxNjcgTDI4OS40MTc1IDMzOS45MTY3IEwyODkuNjM2NCAzMzkuOTE2NyBMMjg5Ljg1NTQgMzM5LjkxNjcgTDI5MC4wNzQzIDMzOS45MTY3IEwyOTAuMjkzMiAzMzkuOTE2NyBMMjkwLjUxMjEgMzM5LjkxNjcgTDI5MC43MzEgMzM5LjkxNjcgTDI5MC45NSAzMzkuOTE2NyBMMjkxLjE2ODkgMzM5LjkxNjcgTDI5MS4zODc4IDMzOS45MTY3IEwyOTEuNjA2NyAzMzkuOTE2NyBMMjkxLjgyNTcgMzM5LjkxNjcgTDI5Mi4wNDQ2IDMzOS45MTY3IEwyOTIuMjYzNSAzMzkuOTE2NyBMMjkyLjQ4MjQgMzM5LjkxNjcgTDI5Mi43MDEzIDMzOS45MTY3IEwyOTIuOTIwMyAzMzkuOTE2NyBMMjkzLjEzOTIgMzM5LjkxNjcgTDI5My4zNTgxIDMzOS45MTY3IEwyOTMuNTc3IDMzOS45MTY3IEwyOTMuNzk1OSAzMzkuOTE2NyBMMjk0LjAxNDkgMzM5LjkxNjcgTDI5NC4yMzM4IDMzOS45MTY3IEwyOTQuNDUyNyAzMzkuOTE2NyBMMjk0LjY3MTYgMzM5LjkxNjcgTDI5NC44OTA1IDMzOS45MTY3IEwyOTUuMTA5NSAzMzkuOTE2NyBMMjk1LjMyODQgMzM5LjkxNjcgTDI5NS41NDczIDMzOS45MTY3IEwyOTUuNzY2MiAzMzkuOTE2NyBMMjk1Ljk4NTEgMzM5LjkxNjcgTDI5Ni4yMDQxIDMzOS45MTY3IEwyOTYuNDIzIDMzOS45MTY3IEwyOTYuNjQxOSAzMzkuOTE2NyBMMjk2Ljg2MDggMzM5LjkxNjcgTDI5Ny4wNzk3IDMzOS45MTY3IEwyOTcuMjk4NiAzMzkuOTE2NyBMMjk3LjUxNzYgMzM5LjkxNjcgTDI5Ny43MzY1IDMzOS45MTY3IEwyOTcuOTU1NCAzMzkuOTE2NyBMMjk4LjE3NDMgMzM5LjkxNjcgTDI5OC4zOTMzIDMzOS45MTY3IEwyOTguNjEyMiAzMzkuOTE2NyBMMjk4LjgzMTEgMzM5LjkxNjcgTDI5OS4wNSAzMzkuOTE2NyBMMjk5LjI2ODkgMzM5LjkxNjcgTDI5OS40ODc5IDMzOS45MTY3IEwyOTkuNzA2OCAzMzkuOTE2NyBMMjk5LjkyNTcgMzM5LjkxNjcgTDMwMC4xNDQ2IDMzOS45MTY3IEwzMDAuMzYzNiAzMzkuOTE2NyBMMzAwLjU4MjUgMzM5LjkxNjcgTDMwMC44MDE0IDMzOS45MTY3IEwzMDEuMDIwMyAzMzkuOTE2NyBMMzAxLjIzOTIgMzM5LjkxNjcgTDMwMS40NTgxIDMzOS45MTY3IEwzMDEuNjc3MSAzMzkuOTE2NyBMMzAxLjg5NiAzMzkuOTE2NyBMMzAyLjExNDkgMzM5LjkxNjcgTDMwMi4zMzM4IDMzOS45MTY3IEwzMDIuNTUyNyAzMzkuOTE2NyBMMzAyLjc3MTcgMzM5LjkxNjcgTDMwMi45OTA2IDMzOS45MTY3IEwzMDMuMjA5NSAzMzkuOTE2NyBMMzAzLjQyODQgMzM5LjkxNjcgTDMwMy42NDc0IDMzOS45MTY3IEwzMDMuODY2MyAzMzkuOTE2NyBMMzA0LjA4NTIgMzM5LjkxNjcgTDMwNC4zMDQxIDMzOS45MTY3IEwzMDQuNTIzIDMzOS45MTY3IEwzMDQuNzQxOSAzMzkuOTE2NyBMMzA0Ljk2MDkgMzM5LjkxNjcgTDMwNS4xNzk4IDMzOS45MTY3IEwzMDUuMzk4NyAzMzkuOTE2NyBMMzA1LjYxNzYgMzM5LjkxNjcgTDMwNS44MzY1IDMzOS45MTY3IEwzMDYuMDU1NSAzMzkuOTE2NyBMMzA2LjI3NDQgMzM5LjkxNjcgTDMwNi40OTMzIDMzOS45MTY3IEwzMDYuNzEyMiAzMzkuOTE2NyBMMzA2LjkzMTIgMzM5LjkxNjcgTDMwNy4xNTAxIDMzOS45MTY3IEwzMDcuMzY5IDMzOS45MTY3IEwzMDcuNTg3OSAzMzkuOTE2NyBMMzA3LjgwNjggMzM5LjkxNjcgTDMwOC4wMjU4IDMzOS45MTY3IEwzMDguMjQ0NyAzMzkuOTE2NyBMMzA4LjQ2MzYgMzM5LjkxNjcgTDMwOC42ODI1IDMzOS45MTY3IEwzMDguOTAxNCAzMzkuOTE2NyBMMzA5LjEyMDMgMzM5LjkxNjcgTDMwOS4zMzkzIDMzOS45MTY3IEwzMDkuNTU4MiAzMzkuOTE2NyBMMzA5Ljc3NzEgMzM5LjkxNjcgTDMwOS45OTYgMzM5LjkxNjcgTDMxMC4yMTUgMzM5LjkxNjcgTDMxMC40MzM5IDMzOS45MTY3IEwzMTAuNjUyOCAzMzkuOTE2NyBMMzEwLjg3MTcgMzM5LjkxNjcgTDMxMS4wOTA2IDMzOS45MTY3IEwzMTEuMzA5NiAzMzkuOTE2NyBMMzExLjUyODUgMzM5LjkxNjcgTDMxMS43NDc0IDMzOS45MTY3IEwzMTEuOTY2MyAzMzkuOTE2NyBMMzEyLjE4NTIgMzM5LjkxNjcgTDMxMi40MDQxIDMzOS45MTY3IEwzMTIuNjIzMSAzMzkuOTE2NyBMMzEyLjg0MiAzMzkuOTE2NyBMMzEzLjA2MDkgMzM5LjkxNjcgTDMxMy4yNzk4IDMzOS45MTY3IEwzMTMuNDk4OCAzMzkuOTE2NyBMMzEzLjcxNzcgMzM5LjkxNjcgTDMxMy45MzY2IDMzOS45MTY3IEwzMTQuMTU1NSAzMzkuOTE2NyBMMzE0LjM3NDQgMzM5LjkxNjcgTDMxNC41OTM0IDMzOS45MTY3IEwzMTQuODEyMyAzMzkuOTE2NyBMMzE1LjAzMTIgMzM5LjkxNjcgTDMxNS4yNTAxIDMzOS45MTY3IEwzMTUuNDY5MSAzMzkuOTE2NyBMMzE1LjY4OCAzMzkuOTE2NyBMMzE1LjkwNjkgMzM5LjkxNjcgTDMxNi4xMjU4IDMzOS45MTY3IEwzMTYuMzQ0NyAzMzkuOTE2NyBMMzE2LjU2MzYgMzM5LjkxNjcgTDMxNi43ODI2IDMzOS45MTY3IEwzMTcuMDAxNSAzMzkuOTE2NyBMMzE3LjIyMDQgMzM5LjkxNjcgTDMxNy40MzkzIDMzOS45MTY3IEwzMTcuNjU4MiAzMzkuOTE2NyBMMzE3Ljg3NzIgMzM5LjkxNjcgTDMxOC4wOTYxIDMzOS45MTY3IEwzMTguMzE1IDMzOS45MTY3IEwzMTguNTMzOSAzMzkuOTE2NyBMMzE4Ljc1MjkgMzM5LjkxNjcgTDMxOC45NzE4IDMzOS45MTY3IEwzMTkuMTkwNyAzMzkuOTE2NyBMMzE5LjQwOTYgMzM5LjkxNjcgTDMxOS42Mjg1IDMzOS45MTY3IEwzMTkuODQ3NCAzMzkuOTE2NyBMMzIwLjA2NjQgMzM5LjkxNjcgTDMyMC4yODUzIDMzOS45MTY3IEwzMjAuNTA0MiAzMzkuOTE2NyBMMzIwLjcyMzEgMzM5LjkxNjcgTDMyMC45NDIgMzM5LjkxNjcgTDMyMS4xNjEgMzM5LjkxNjcgTDMyMS4zNzk5IDMzOS45MTY3IEwzMjEuNTk4OCAzMzkuOTE2NyBMMzIxLjgxNzcgMzM5LjkxNjcgTDMyMi4wMzY3IDMzOS45MTY3IEwzMjIuMjU1NiAzMzkuOTE2NyBMMzIyLjQ3NDUgMzM5LjkxNjcgTDMyMi42OTM0IDMzOS45MTY3IEwzMjIuOTEyMyAzMzkuOTE2NyBMMzIzLjEzMTMgMzM5LjkxNjcgTDMyMy4zNTAyIDMzOS45MTY3IEwzMjMuNTY5MSAzMzkuOTE2NyBMMzIzLjc4OCAzMzkuOTE2NyBMMzI0LjAwNjkgMzM5LjkxNjcgTDMyNC4yMjU4IDMzOS45MTY3IEwzMjQuNDQ0OCAzMzkuOTE2NyBMMzI0LjY2MzcgMzM5LjkxNjcgTDMyNC44ODI2IDMzOS45MTY3IEwzMjUuMTAxNSAzMzkuOTE2NyBMMzI1LjMyMDUgMzM5LjkxNjcgTDMyNS41Mzk0IDMzOS45MTY3IEwzMjUuNzU4MyAzMzkuOTE2NyBMMzI1Ljk3NzIgMzM5LjkxNjcgTDMyNi4xOTYxIDMzOS45MTY3IEwzMjYuNDE1MSAzMzkuOTE2NyBMMzI2LjYzNCAzMzkuOTE2NyBMMzI2Ljg1MjkgMzM5LjkxNjcgTDMyNy4wNzE4IDMzOS45MTY3IEwzMjcuMjkwNyAzMzkuOTE2NyBMMzI3LjUwOTYgMzM5LjkxNjcgTDMyNy43Mjg2IDMzOS45MTY3IEwzMjcuOTQ3NSAzMzkuOTE2NyBMMzI4LjE2NjQgMzM5LjkxNjcgTDMyOC4zODUzIDMzOS45MTY3IEwzMjguNjA0MyAzMzkuOTE2NyBMMzI4LjgyMzIgMzM5LjkxNjcgTDMyOS4wNDIxIDMzOS45MTY3IEwzMjkuMjYxIDMzOS45MTY3IEwzMjkuNDc5OSAzMzkuOTE2NyBMMzI5LjY5ODkgMzM5LjkxNjcgTDMyOS45MTc4IDMzOS45MTY3IEwzMzAuMTM2NyAzMzkuOTE2NyBMMzMwLjM1NTYgMzM5LjkxNjcgTDMzMC41NzQ2IDMzOS45MTY3IEwzMzAuNzkzNSAzMzkuOTE2NyBMMzMxLjAxMjQgMzM5LjkxNjcgTDMzMS4yMzEzIDMzOS45MTY3IEwzMzEuNDUwMiAzMzkuOTE2NyBMMzMxLjY2OTEgMzM5LjkxNjcgTDMzMS44ODgxIDMzOS45MTY3IEwzMzIuMTA3IDMzOS45MTY3IEwzMzIuMzI1OSAzMzkuOTE2NyBMMzMyLjU0NDggMzM5LjkxNjcgTDMzMi43NjM3IDMzOS45MTY3IEwzMzIuOTgyNyAzMzkuOTE2NyBMMzMzLjIwMTYgMzM5LjkxNjcgTDMzMy40MjA1IDMzOS45MTY3IEwzMzMuNjM5NCAzMzkuOTE2NyBMMzMzLjg1ODMgMzM5LjkxNjcgTDMzNC4wNzcyIDMzOS45MTY3IEwzMzQuMjk2MiAzMzkuOTE2NyBMMzM0LjUxNTEgMzM5LjkxNjcgTDMzNC43MzQgMzM5LjkxNjcgTDMzNC45NTI5IDMzOS45MTY3IEwzMzUuMTcxOSAzMzkuOTE2NyBMMzM1LjM5MDggMzM5LjkxNjcgTDMzNS42MDk3IDMzOS45MTY3IEwzMzUuODI4NiAzMzkuOTE2NyBMMzM2LjA0NzUgMzM5LjkxNjcgTDMzNi4yNjY1IDMzOS45MTY3IEwzMzYuNDg1NCAzMzkuOTE2NyBMMzM2LjcwNDMgMzM5LjkxNjcgTDMzNi45MjMyIDMzOS45MTY3IEwzMzcuMTQyMiAzMzkuOTE2NyBMMzM3LjM2MTEgMzM5LjkxNjcgTDMzNy41OCAzMzkuOTE2NyBMMzM3Ljc5ODkgMzM5LjkxNjcgTDMzOC4wMTc4IDMzOS45MTY3IEwzMzguMjM2OCAzMzkuOTE2NyBMMzM4LjQ1NTcgMzM5LjkxNjcgTDMzOC42NzQ2IDMzOS45MTY3IEwzMzguODkzNSAzMzkuOTE2NyBMMzM5LjExMjQgMzM5LjkxNjcgTDMzOS4zMzEzIDMzOS45MTY3IEwzMzkuNTUwMyAzMzkuOTE2NyBMMzM5Ljc2OTIgMzM5LjkxNjcgTDMzOS45ODgxIDMzOS45MTY3IEwzNDAuMjA3IDMzOS45MTY3IEwzNDAuNDI2IDMzOS45MTY3IEwzNDAuNjQ0OSAzMzkuOTE2NyBMMzQwLjg2MzggMzM5LjkxNjcgTDM0MS4wODI3IDMzOS45MTY3IEwzNDEuMzAxNiAzMzkuOTE2NyBMMzQxLjUyMDUgMzM5LjkxNjcgTDM0MS43Mzk1IDMzOS45MTY3IEwzNDEuOTU4NCAzMzkuOTE2NyBMMzQyLjE3NzMgMzM5LjkxNjcgTDM0Mi4zOTYyIDMzOS45MTY3IEwzNDIuNjE1MSAzMzkuOTE2NyBMMzQyLjgzNDEgMzM5LjkxNjcgTDM0My4wNTMgMzM5LjkxNjcgTDM0My4yNzE5IDMzOS45MTY3IEwzNDMuNDkwOCAzMzkuOTE2NyBMMzQzLjcwOTggMzM5LjkxNjcgTDM0My45Mjg3IDMzOS45MTY3IEwzNDQuMTQ3NiAzMzkuOTE2NyBMMzQ0LjM2NjUgMzM5LjkxNjcgTDM0NC41ODU0IDMzOS45MTY3IEwzNDQuODA0NCAzMzkuOTE2NyBMMzQ1LjAyMzMgMzM5LjkxNjcgTDM0NS4yNDIyIDMzOS45MTY3IEwzNDUuNDYxMSAzMzkuOTE2NyBMMzQ1LjY4MDEgMzM5LjkxNjcgTDM0NS44OTkgMzM5LjkxNjcgTDM0Ni4xMTc5IDMzOS45MTY3IEwzNDYuMzM2OCAzMzkuOTE2NyBMMzQ2LjU1NTcgMzM5LjkxNjcgTDM0Ni43NzQ2IDMzOS45MTY3IEwzNDYuOTkzNiAzMzkuOTE2NyBMMzQ3LjIxMjUgMzM5LjkxNjcgTDM0Ny40MzE0IDMzOS45MTY3IEwzNDcuNjUwMyAzMzkuOTE2NyBMMzQ3Ljg2OTIgMzM5LjkxNjcgTDM0OC4wODgyIDMzOS45MTY3IEwzNDguMzA3MSAzMzkuOTE2NyBMMzQ4LjUyNiAzMzkuOTE2NyBMMzQ4Ljc0NDkgMzM5LjkxNjcgTDM0OC45NjM4IDMzOS45MTY3IEwzNDkuMTgyNyAzMzkuOTE2NyBMMzQ5LjQwMTcgMzM5LjkxNjcgTDM0OS42MjA2IDMzOS45MTY3IEwzNDkuODM5NSAzMzkuOTE2NyBMMzUwLjA1ODQgMzM5LjkxNjcgTDM1MC4yNzc0IDMzOS45MTY3IEwzNTAuNDk2MyAzMzkuOTE2NyBMMzUwLjcxNTIgMzM5LjkxNjcgTDM1MC45MzQxIDMzOS45MTY3IEwzNTEuMTUzIDMzOS45MTY3IEwzNTEuMzcyIDMzOS45MTY3IEwzNTEuNTkwOSAzMzkuOTE2NyBMMzUxLjgwOTggMzM5LjkxNjcgTDM1Mi4wMjg3IDMzOS45MTY3IEwzNTIuMjQ3NyAzMzkuOTE2NyBMMzUyLjQ2NjYgMzM5LjkxNjcgTDM1Mi42ODU1IDMzOS45MTY3IEwzNTIuOTA0NCAzMzkuOTE2NyBMMzUzLjEyMzMgMzM5LjkxNjcgTDM1My4zNDIzIDMzOS45MTY3IEwzNTMuNTYxMiAzMzkuOTE2NyBMMzUzLjc4MDEgMzM5LjkxNjcgTDM1My45OTkgMzM5LjkxNjcgTDM1NC4yMTc5IDMzOS45MTY3IEwzNTQuNDM2OCAzMzkuOTE2NyBMMzU0LjY1NTggMzM5LjkxNjcgTDM1NC44NzQ3IDMzOS45MTY3IEwzNTUuMDkzNiAzMzkuOTE2NyBMMzU1LjMxMjUgMzM5LjkxNjcgTDM1NS41MzE1IDMzOS45MTY3IEwzNTUuNzUwNCAzMzkuOTE2NyBMMzU1Ljk2OTMgMzM5LjkxNjcgTDM1Ni4xODgyIDMzOS45MTY3IEwzNTYuNDA3MSAzMzkuOTE2NyBMMzU2LjYyNiAzMzkuOTE2NyBMMzU2Ljg0NSAzMzkuOTE2NyBMMzU3LjA2MzkgMzM5LjkxNjcgTDM1Ny4yODI4IDMzOS45MTY3IEwzNTcuNTAxNyAzMzkuOTE2NyBMMzU3LjcyMDYgMzM5LjkxNjcgTDM1Ny45Mzk2IDMzOS45MTY3IEwzNTguMTU4NSAzMzkuOTE2NyBMMzU4LjM3NzQgMzM5LjkxNjcgTDM1OC41OTYzIDMzOS45MTY3IEwzNTguODE1MyAzMzkuOTE2NyBMMzU5LjAzNDIgMzM5LjkxNjcgTDM1OS4yNTMxIDMzOS45MTY3IEwzNTkuNDcyIDMzOS45MTY3IEwzNTkuNjkwOSAzMzkuOTE2NyBMMzU5LjkwOTkgMzM5LjkxNjcgTDM2MC4xMjg4IDMzOS45MTY3IEwzNjAuMzQ3NyAzMzkuOTE2NyBMMzYwLjU2NjYgMzM5LjkxNjcgTDM2MC43ODU2IDMzOS45MTY3IEwzNjEuMDA0NSAzMzkuOTE2NyBMMzYxLjIyMzQgMzM5LjkxNjcgTDM2MS40NDIzIDMzOS45MTY3IEwzNjEuNjYxMiAzMzkuOTE2NyBMMzYxLjg4MDEgMzM5LjkxNjcgTDM2Mi4wOTkxIDMzOS45MTY3IEwzNjIuMzE4IDMzOS45MTY3IEwzNjIuNTM2OSAzMzkuOTE2NyBMMzYyLjc1NTggMzM5LjkxNjcgTDM2Mi45NzQ3IDMzOS45MTY3IEwzNjMuMTkzNyAzMzkuOTE2NyBMMzYzLjQxMjYgMzM5LjkxNjcgTDM2My42MzE1IDMzOS45MTY3IEwzNjMuODUwNCAzMzkuOTE2NyBMMzY0LjA2OTMgMzM5LjkxNjcgTDM2NC4yODgyIDMzOS45MTY3IEwzNjQuNTA3MiAzMzkuOTE2NyBMMzY0LjcyNjEgMzM5LjkxNjcgTDM2NC45NDUgMzM5LjkxNjcgTDM2NS4xNjM5IDMzOS45MTY3IEwzNjUuMzgyOSAzMzkuOTE2NyBMMzY1LjYwMTggMzM5LjkxNjcgTDM2NS44MjA3IDMzOS45MTY3IEwzNjYuMDM5NiAzMzkuOTE2NyBMMzY2LjI1ODUgMzM5LjkxNjcgTDM2Ni40Nzc1IDMzOS45MTY3IEwzNjYuNjk2NCAzMzkuOTE2NyBMMzY2LjkxNTMgMzM5LjkxNjcgTDM2Ny4xMzQyIDMzOS45MTY3IEwzNjcuMzUzMSAzMzkuOTE2NyBMMzY3LjU3MjEgMzM5LjkxNjcgTDM2Ny43OTEgMzM5LjkxNjcgTDM2OC4wMDk5IDMzOS45MTY3IEwzNjguMjI4OCAzMzkuOTE2NyBMMzY4LjQ0NzggMzM5LjkxNjcgTDM2OC42NjY3IDMzOS45MTY3IEwzNjguODg1NiAzMzkuOTE2NyBMMzY5LjEwNDUgMzM5LjkxNjcgTDM2OS4zMjM0IDMzOS45MTY3IEwzNjkuNTQyMyAzMzkuOTE2NyBMMzY5Ljc2MTMgMzM5LjkxNjcgTDM2OS45ODAyIDMzOS45MTY3IEwzNzAuMTk5MSAzMzkuOTE2NyBMMzcwLjQxOCAzMzkuOTE2NyBMMzcwLjYzNyAzMzkuOTE2NyBMMzcwLjg1NTkgMzM5LjkxNjcgTDM3MS4wNzQ4IDMzOS45MTY3IEwzNzEuMjkzNyAzMzkuOTE2NyBMMzcxLjUxMjYgMzM5LjkxNjcgTDM3MS43MzE1IDMzOS45MTY3IEwzNzEuOTUwNSAzMzkuOTE2NyBMMzcyLjE2OTQgMzM5LjkxNjcgTDM3Mi4zODgzIDMzOS45MTY3IEwzNzIuNjA3MiAzMzkuOTE2NyBMMzcyLjgyNjEgMzM5LjkxNjcgTDM3My4wNDUxIDMzOS45MTY3IEwzNzMuMjY0IDMzOS45MTY3IEwzNzMuNDgyOSAzMzkuOTE2NyBMMzczLjcwMTggMzM5LjkxNjcgTDM3My45MjA4IDMzOS45MTY3IEwzNzQuMTM5NyAzMzkuOTE2NyBMMzc0LjM1ODYgMzM5LjkxNjcgTDM3NC41Nzc1IDMzOS45MTY3IEwzNzQuNzk2NCAzMzkuOTE2NyBMMzc1LjAxNTQgMzM5LjkxNjcgTDM3NS4yMzQzIDMzOS45MTY3IEwzNzUuNDUzMiAzMzkuOTE2NyBMMzc1LjY3MjEgMzM5LjkxNjcgTDM3NS44OTExIDMzOS45MTY3IEwzNzYuMTEgMzM5LjkxNjcgTDM3Ni4zMjg5IDMzOS45MTY3IEwzNzYuNTQ3OCAzMzkuOTE2NyBMMzc2Ljc2NjcgMzM5LjkxNjcgTDM3Ni45ODU2IDMzOS45MTY3IEwzNzcuMjA0NiAzMzkuOTE2NyBMMzc3LjQyMzUgMzM5LjkxNjcgTDM3Ny42NDI0IDMzOS45MTY3IEwzNzcuODYxMyAzMzkuOTE2NyBMMzc4LjA4MDIgMzM5LjkxNjcgTDM3OC4yOTkyIDMzOS45MTY3IEwzNzguNTE4MSAzMzkuOTE2NyBMMzc4LjczNyAzMzkuOTE2NyBMMzc4Ljk1NTkgMzM5LjkxNjcgTDM3OS4xNzQ4IDMzOS45MTY3IEwzNzkuMzkzNyAzMzkuOTE2NyBMMzc5LjYxMjcgMzM5LjkxNjcgTDM3OS44MzE2IDMzOS45MTY3IEwzODAuMDUwNSAzMzkuOTE2NyBMMzgwLjI2OTQgMzM5LjkxNjcgTDM4MC40ODg0IDMzOS45MTY3IEwzODAuNzA3MyAzMzkuOTE2NyBMMzgwLjkyNjIgMzM5LjkxNjcgTDM4MS4xNDUxIDMzOS45MTY3IEwzODEuMzY0IDMzOS45MTY3IEwzODEuNTgzIDMzOS45MTY3IEwzODEuODAxOSAzMzkuOTE2NyBMMzgyLjAyMDggMzM5LjkxNjcgTDM4Mi4yMzk3IDMzOS45MTY3IEwzODIuNDU4NiAzMzkuOTE2NyBMMzgyLjY3NzYgMzM5LjkxNjcgTDM4Mi44OTY1IDMzOS45MTY3IEwzODMuMTE1NCAzMzkuOTE2NyBMMzgzLjMzNDMgMzM5LjkxNjcgTDM4My41NTMzIDMzOS45MTY3IEwzODMuNzcyMiAzMzkuOTE2NyBMMzgzLjk5MTEgMzM5LjkxNjcgTDM4NC4yMSAzMzkuOTE2NyBMMzg0LjQyODkgMzM5LjkxNjcgTDM4NC42NDc4IDMzOS45MTY3IEwzODQuODY2OCAzMzkuOTE2NyBMMzg1LjA4NTcgMzM5LjkxNjcgTDM4NS4zMDQ2IDMzOS45MTY3IEwzODUuNTIzNSAzMzkuOTE2NyBMMzg1Ljc0MjUgMzM5LjkxNjcgTDM4NS45NjE0IDMzOS45MTY3IEwzODYuMTgwMyAzMzkuOTE2NyBMMzg2LjM5OTIgMzM5LjkxNjcgTDM4Ni42MTgxIDMzOS45MTY3IEwzODYuODM3IDMzOS45MTY3IEwzODcuMDU2IDMzOS45MTY3IEwzODcuMjc0OSAzMzkuOTE2NyBMMzg3LjQ5MzggMzM5LjkxNjcgTDM4Ny43MTI3IDMzOS45MTY3IEwzODcuOTMxNiAzMzkuOTE2NyBMMzg4LjE1MDYgMzM5LjkxNjcgTDM4OC4zNjk1IDMzOS45MTY3IEwzODguNTg4NCAzMzkuOTE2NyBMMzg4LjgwNzMgMzM5LjkxNjcgTDM4OS4wMjYzIDMzOS45MTY3IEwzODkuMjQ1MiAzMzkuOTE2NyBMMzg5LjQ2NDEgMzM5LjkxNjcgTDM4OS42ODMgMzM5LjkxNjcgTDM4OS45MDE5IDMzOS45MTY3IEwzOTAuMTIwOCAzMzkuOTE2NyBMMzkwLjMzOTggMzM5LjkxNjcgTDM5MC41NTg3IDMzOS45MTY3IEwzOTAuNzc3NiAzMzkuOTE2NyBMMzkwLjk5NjYgMzM5LjkxNjcgTDM5MS4yMTU1IDMzOS45MTY3IEwzOTEuNDM0NCAzMzkuOTE2NyBMMzkxLjY1MzMgMzM5LjkxNjcgTDM5MS44NzIyIDMzOS45MTY3IEwzOTIuMDkxMSAzMzkuOTE2NyBMMzkyLjMxMDEgMzM5LjkxNjcgTDM5Mi41MjkgMzM5LjkxNjcgTDM5Mi43NDc5IDMzOS45MTY3IEwzOTIuOTY2OCAzMzkuOTE2NyBMMzkzLjE4NTcgMzM5LjkxNjcgTDM5My40MDQ3IDMzOS45MTY3IEwzOTMuNjIzNiAzMzkuOTE2NyBMMzkzLjg0MjUgMzM5LjkxNjcgTDM5NC4wNjE0IDMzOS45MTY3IEwzOTQuMjgwMyAzMzkuOTE2NyBMMzk0LjQ5OTIgMzM5LjkxNjcgTDM5NC43MTgyIDMzOS45MTY3IEwzOTQuOTM3MSAzMzkuOTE2NyBMMzk1LjE1NiAzMzkuOTE2NyBMMzk1LjM3NDkgMzM5LjkxNjcgTDM5NS41OTM5IDMzOS45MTY3IEwzOTUuODEyOCAzMzkuOTE2NyBMMzk2LjAzMTcgMzM5LjkxNjcgTDM5Ni4yNTA2IDMzOS45MTY3IEwzOTYuNDY5NSAzMzkuOTE2NyBMMzk2LjY4ODUgMzM5LjkxNjcgTDM5Ni45MDc0IDMzOS45MTY3IEwzOTcuMTI2MyAzMzkuOTE2NyBMMzk3LjM0NTIgMzM5LjkxNjcgTDM5Ny41NjQxIDMzOS45MTY3IEwzOTcuNzgzMSAzMzkuOTE2NyBMMzk4LjAwMiAzMzkuOTE2NyBMMzk4LjIyMDkgMzM5LjkxNjcgTDM5OC40Mzk4IDMzOS45MTY3IEwzOTguNjU4OCAzMzkuOTE2NyBMMzk4Ljg3NzcgMzM5LjkxNjcgTDM5OS4wOTY2IDMzOS45MTY3IEwzOTkuMzE1NSAzMzkuOTE2NyBMMzk5LjUzNDQgMzM5LjkxNjcgTDM5OS43NTMzIDMzOS45MTY3IEwzOTkuOTcyMyAzMzkuOTE2NyBMNDAwLjE5MTIgMzM5LjkxNjcgTDQwMC40MTAxIDMzOS45MTY3IEw0MDAuNjI5IDMzOS45MTY3IEw0MDAuODQ4IDMzOS45MTY3IEw0MDEuMDY2OSAzMzkuOTE2NyBMNDAxLjI4NTggMzM5LjkxNjcgTDQwMS41MDQ3IDMzOS45MTY3IEw0MDEuNzIzNiAzMzkuOTE2NyBMNDAxLjk0MjUgMzM5LjkxNjcgTDQwMi4xNjE1IDMzOS45MTY3IEw0MDIuMzgwNCAzMzkuOTE2NyBMNDAyLjU5OTMgMzM5LjkxNjcgTDQwMi44MTgyIDMzOS45MTY3IEw0MDMuMDM3MSAzMzkuOTE2NyBMNDAzLjI1NjEgMzM5LjkxNjcgTDQwMy40NzUgMzM5LjkxNjcgTDQwMy42OTM5IDMzOS45MTY3IEw0MDMuOTEyOCAzMzkuOTE2NyBMNDA0LjEzMTcgMzM5LjkxNjcgTDQwNC4zNTA2IDMzOS45MTY3IEw0MDQuNTY5NiAzMzkuOTE2NyBMNDA0Ljc4ODUgMzM5LjkxNjcgTDQwNS4wMDc0IDMzOS45MTY3IEw0MDUuMjI2MyAzMzkuOTE2NyBMNDA1LjQ0NTMgMzM5LjkxNjcgTDQwNS42NjQyIDMzOS45MTY3IEw0MDUuODgzMSAzMzkuOTE2NyBMNDA2LjEwMjEgMzM5LjkxNjcgTDQwNi4zMjEgMzM5LjkxNjcgTDQwNi41Mzk5IDMzOS45MTY3IEw0MDYuNzU4OCAzMzkuOTE2NyBMNDA2Ljk3NzcgMzM5LjkxNjcgTDQwNy4xOTY2IDMzOS45MTY3IEw0MDcuNDE1NiAzMzkuOTE2NyBMNDA3LjYzNDUgMzM5LjkxNjcgTDQwNy44NTM0IDMzOS45MTY3IEw0MDguMDcyMyAzMzkuOTE2NyBMNDA4LjI5MTIgMzM5LjkxNjcgTDQwOC41MTAyIDMzOS45MTY3IEw0MDguNzI5MSAzMzkuOTE2NyBMNDA4Ljk0OCAzMzkuOTE2NyBMNDA5LjE2NjkgMzM5LjkxNjcgTDQwOS4zODU4IDMzOS45MTY3IEw0MDkuNjA0NyAzMzkuOTE2NyBMNDA5LjgyMzcgMzM5LjkxNjcgTDQxMC4wNDI2IDMzOS45MTY3IEw0MTAuMjYxNSAzMzkuOTE2NyBMNDEwLjQ4MDQgMzM5LjkxNjcgTDQxMC42OTk0IDMzOS45MTY3IEw0MTAuOTE4MyAzMzkuOTE2NyBMNDExLjEzNzIgMzM5LjkxNjcgTDQxMS4zNTYxIDMzOS45MTY3IEw0MTEuNTc1IDMzOS45MTY3IEw0MTEuNzkzOSAzMzkuOTE2NyBMNDEyLjAxMjkgMzM5LjkxNjcgTDQxMi4yMzE4IDMzOS45MTY3IEw0MTIuNDUwNyAzMzkuOTE2NyBMNDEyLjY2OTYgMzM5LjkxNjcgTDQxMi44ODg1IDMzOS45MTY3IEw0MTMuMTA3NSAzMzkuOTE2NyBMNDEzLjMyNjQgMzM5LjkxNjcgTDQxMy41NDUzIDMzOS45MTY3IEw0MTMuNzY0MyAzMzkuOTE2NyBMNDEzLjk4MzIgMzM5LjkxNjcgTDQxNC4yMDIxIDMzOS45MTY3IEw0MTQuNDIxIDMzOS45MTY3IEw0MTQuNjM5OSAzMzkuOTE2NyBMNDE0Ljg1ODggMzM5LjkxNjcgTDQxNS4wNzc4IDMzOS45MTY3IEw0MTUuMjk2NyAzMzkuOTE2NyBMNDE1LjUxNTYgMzM5LjkxNjcgTDQxNS43MzQ1IDMzOS45MTY3IEw0MTUuOTUzNSAzMzkuOTE2NyBMNDE2LjE3MjQgMzM5LjkxNjcgTDQxNi4zOTEzIDMzOS45MTY3IEw0MTYuNjEwMiAzMzkuOTE2NyBMNDE2LjgyOTEgMzM5LjkxNjcgTDQxNy4wNDggMzM5LjkxNjcgTDQxNy4yNjcgMzM5LjkxNjcgTDQxNy40ODU5IDMzOS45MTY3IEw0MTcuNzA0OCAzMzkuOTE2NyBMNDE3LjkyMzcgMzM5LjkxNjcgTDQxOC4xNDI2IDMzOS45MTY3IEw0MTguMzYxNiAzMzkuOTE2NyBMNDE4LjU4MDUgMzM5LjkxNjcgTDQxOC43OTk0IDMzOS45MTY3IEw0MTkuMDE4MyAzMzkuOTE2NyBMNDE5LjIzNzIgMzM5LjkxNjcgTDQxOS40NTYxIDMzOS45MTY3IEw0MTkuNjc1MSAzMzkuOTE2NyBMNDE5Ljg5NCAzMzkuOTE2NyBMNDIwLjExMjkgMzM5LjkxNjcgTDQyMC4zMzE4IDMzOS45MTY3IEw0MjAuNTUwOCAzMzkuOTE2NyBMNDIwLjc2OTcgMzM5LjkxNjcgTDQyMC45ODg2IDMzOS45MTY3IEw0MjEuMjA3NiAzMzkuOTE2NyBMNDIxLjQyNjUgMzM5LjkxNjcgTDQyMS42NDU0IDMzOS45MTY3IEw0MjEuODY0MyAzMzkuOTE2NyBMNDIyLjA4MzIgMzM5LjkxNjcgTDQyMi4zMDIxIDMzOS45MTY3IEw0MjIuNTIxMSAzMzkuOTE2NyBMNDIyLjc0IDMzOS45MTY3IEw0MjIuOTU4OSAzMzkuOTE2NyBMNDIzLjE3NzggMzM5LjkxNjcgTDQyMy4zOTY3IDMzOS45MTY3IEw0MjMuNjE1NyAzMzkuOTE2NyBMNDIzLjgzNDYgMzM5LjkxNjcgTDQyNC4wNTM1IDMzOS45MTY3IEw0MjQuMjcyNCAzMzkuOTE2NyBMNDI0LjQ5MTMgMzM5LjkxNjcgTDQyNC43MTAyIDMzOS45MTY3IEw0MjQuOTI5MiAzMzkuOTE2NyBMNDI1LjE0ODEgMzM5LjkxNjcgTDQyNS4zNjcgMzM5LjkxNjcgTDQyNS41ODU5IDMzOS45MTY3IEw0MjUuODA0OSAzMzkuOTE2NyBMNDI2LjAyMzggMzM5LjkxNjcgTDQyNi4yNDI3IDMzOS45MTY3IEw0MjYuNDYxNiAzMzkuOTE2NyBMNDI2LjY4MDUgMzM5LjkxNjcgTDQyNi44OTk0IDMzOS45MTY3IEw0MjcuMTE4NCAzMzkuOTE2NyBMNDI3LjMzNzMgMzM5LjkxNjcgTDQyNy41NTYyIDMzOS45MTY3IEw0MjcuNzc1MSAzMzkuOTE2NyBMNDI3Ljk5NCAzMzkuOTE2NyBMNDI4LjIxMyAzMzkuOTE2NyBMNDI4LjQzMTkgMzM5LjkxNjcgTDQyOC42NTA4IDMzOS45MTY3IEw0MjguODY5OCAzMzkuOTE2NyBMNDI5LjA4ODcgMzM5LjkxNjcgTDQyOS4zMDc2IDMzOS45MTY3IEw0MjkuNTI2NSAzMzkuOTE2NyBMNDI5Ljc0NTQgMzM5LjkxNjcgTDQyOS45NjQzIDMzOS45MTY3IEw0MzAuMTgzMyAzMzkuOTE2NyBMNDMwLjQwMjIgMzM5LjkxNjcgTDQzMC42MjExIDMzOS45MTY3IEw0MzAuODQgMzM5LjkxNjcgTDQzMS4wNTkgMzM5LjkxNjcgTDQzMS4yNzc5IDMzOS45MTY3IEw0MzEuNDk2OCAzMzkuOTE2NyBMNDMxLjcxNTcgMzM5LjkxNjcgTDQzMS45MzQ2IDMzOS45MTY3IEw0MzIuMTUzNSAzMzkuOTE2NyBMNDMyLjM3MjUgMzM5LjkxNjcgTDQzMi41OTE0IDMzOS45MTY3IEw0MzIuODEwMyAzMzkuOTE2NyBMNDMzLjAyOTIgMzM5LjkxNjcgTDQzMy4yNDgxIDMzOS45MTY3IEw0MzMuNDY3MSAzMzkuOTE2NyBMNDMzLjY4NiAzMzkuOTE2NyBMNDMzLjkwNDkgMzM5LjkxNjcgTDQzNC4xMjM4IDMzOS45MTY3IEw0MzQuMzQyNyAzMzkuOTE2NyBMNDM0LjU2MTYgMzM5LjkxNjcgTDQzNC43ODA2IDMzOS45MTY3IEw0MzQuOTk5NSAzMzkuOTE2NyBMNDM1LjIxODQgMzM5LjkxNjcgTDQzNS40MzczIDMzOS45MTY3IEw0MzUuNjU2MyAzMzkuOTE2NyBMNDM1Ljg3NTIgMzM5LjkxNjcgTDQzNi4wOTQxIDMzOS45MTY3IEw0MzYuMzEzIDMzOS45MTY3IEw0MzYuNTMyIDMzOS45MTY3IEw0MzYuNzUwOSAzMzkuOTE2NyBMNDM2Ljk2OTggMzM5LjkxNjcgTDQzNy4xODg3IDMzOS45MTY3IEw0MzcuNDA3NiAzMzkuOTE2NyBMNDM3LjYyNjYgMzM5LjkxNjcgTDQzNy44NDU1IDMzOS45MTY3IEw0MzguMDY0NCAzMzkuOTE2NyBMNDM4LjI4MzMgMzM5LjkxNjcgTDQzOC41MDIyIDMzOS45MTY3IEw0MzguNzIxMiAzMzkuOTE2NyBMNDM4Ljk0MDEgMzM5LjkxNjcgTDQzOS4xNTkgMzM5LjkxNjcgTDQzOS4zNzc5IDMzOS45MTY3IEw0MzkuNTk2OCAzMzkuOTE2NyBMNDM5LjgxNTcgMzM5LjkxNjcgTDQ0MC4wMzQ3IDMzOS45MTY3IEw0NDAuMjUzNiAzMzkuOTE2NyBMNDQwLjQ3MjUgMzM5LjkxNjcgTDQ0MC42OTE0IDMzOS45MTY3IEw0NDAuOTEwNCAzMzkuOTE2NyBMNDQxLjEyOTMgMzM5LjkxNjcgTDQ0MS4zNDgyIDMzOS45MTY3IEw0NDEuNTY3MSAzMzkuOTE2NyBMNDQxLjc4NiAzMzkuOTE2NyBMNDQyLjAwNDkgMzM5LjkxNjcgTDQ0Mi4yMjM5IDMzOS45MTY3IEw0NDIuNDQyOCAzMzkuOTE2NyBMNDQyLjY2MTcgMzM5LjkxNjcgTDQ0Mi44ODA2IDMzOS45MTY3IEw0NDMuMDk5NSAzMzkuOTE2NyBMNDQzLjMxODUgMzM5LjkxNjcgTDQ0My41Mzc0IDMzOS45MTY3IEw0NDMuNzU2MyAzMzkuOTE2NyBMNDQzLjk3NTMgMzM5LjkxNjcgTDQ0NC4xOTQyIDMzOS45MTY3IEw0NDQuNDEzMSAzMzkuOTE2NyBMNDQ0LjYzMiAzMzkuOTE2NyBMNDQ0Ljg1MDkgMzM5LjkxNjcgTDQ0NS4wNjk4IDMzOS45MTY3IEw0NDUuMjg4OCAzMzkuOTE2NyBMNDQ1LjUwNzcgMzM5LjkxNjcgTDQ0NS43MjY2IDMzOS45MTY3IEw0NDUuOTQ1NSAzMzkuOTE2NyBMNDQ2LjE2NDQgMzM5LjkxNjcgTDQ0Ni4zODM0IDMzOS45MTY3IEw0NDYuNjAyMyAzMzkuOTE2NyBMNDQ2LjgyMTIgMzM5LjkxNjcgTDQ0Ny4wNDAxIDMzOS45MTY3IEw0NDcuMjU5IDMzOS45MTY3IEw0NDcuNDc3OSAzMzkuOTE2NyBMNDQ3LjY5NjkgMzM5LjkxNjcgTDQ0Ny45MTU4IDMzOS45MTY3IEw0NDguMTM0NyAzMzkuOTE2NyBMNDQ4LjM1MzYgMzM5LjkxNjcgTDQ0OC41NzI2IDMzOS45MTY3IEw0NDguNzkxNSAzMzkuOTE2NyBMNDQ5LjAxMDQgMzM5LjkxNjcgTDQ0OS4yMjkzIDMzOS45MTY3IEw0NDkuNDQ4MiAzMzkuOTE2NyBMNDQ5LjY2NzEgMzM5LjkxNjcgTDQ0OS44ODYxIDMzOS45MTY3IEw0NTAuMTA1IDMzOS45MTY3IEw0NTAuMzIzOSAzMzkuOTE2NyBMNDUwLjU0MjggMzM5LjkxNjcgTDQ1MC43NjE3IDMzOS45MTY3IEw0NTAuOTgwNyAzMzkuOTE2NyBMNDUxLjE5OTYgMzM5LjkxNjcgTDQ1MS40MTg1IDMzOS45MTY3IEw0NTEuNjM3NSAzMzkuOTE2NyBMNDUxLjg1NjQgMzM5LjkxNjcgTDQ1Mi4wNzUzIDMzOS45MTY3IEw0NTIuMjk0MiAzMzkuOTE2NyBMNDUyLjUxMzEgMzM5LjkxNjcgTDQ1Mi43MzIgMzM5LjkxNjcgTDQ1Mi45NTEgMzM5LjkxNjcgTDQ1My4xNjk5IDMzOS45MTY3IEw0NTMuMzg4OCAzMzkuOTE2NyBMNDUzLjYwNzcgMzM5LjkxNjcgTDQ1My44MjY3IDMzOS45MTY3IEw0NTQuMDQ1NiAzMzkuOTE2NyBMNDU0LjI2NDUgMzM5LjkxNjcgTDQ1NC40ODM0IDMzOS45MTY3IEw0NTQuNzAyMyAzMzkuOTE2NyBMNDU0LjkyMTIgMzM5LjkxNjcgTDQ1NS4xNDAyIDMzOS45MTY3IEw0NTUuMzU5MSAzMzkuOTE2NyBMNDU1LjU3OCAzMzkuOTE2NyBMNDU1Ljc5NjkgMzM5LjkxNjcgTDQ1Ni4wMTU4IDMzOS45MTY3IEw0NTYuMjM0OCAzMzkuOTE2NyBMNDU2LjQ1MzcgMzM5LjkxNjcgTDQ1Ni42NzI2IDMzOS45MTY3IEw0NTYuODkxNSAzMzkuOTE2NyBMNDU3LjExMDQgMzM5LjkxNjcgTDQ1Ny4zMjkzIDMzOS45MTY3IEw0NTcuNTQ4MyAzMzkuOTE2NyBMNDU3Ljc2NzIgMzM5LjkxNjcgTDQ1Ny45ODYxIDMzOS45MTY3IEw0NTguMjA1IDMzOS45MTY3IEw0NTguNDI0IDMzOS45MTY3IEw0NTguNjQyOSAzMzkuOTE2NyBMNDU4Ljg2MTggMzM5LjkxNjcgTDQ1OS4wODA3IDMzOS45MTY3IEw0NTkuMjk5NyAzMzkuOTE2NyBMNDU5LjUxODYgMzM5LjkxNjcgTDQ1OS43Mzc1IDMzOS45MTY3IEw0NTkuOTU2NCAzMzkuOTE2NyBMNDYwLjE3NTMgMzM5LjkxNjcgTDQ2MC4zOTQzIDMzOS45MTY3IEw0NjAuNjEzMiAzMzkuOTE2NyBMNDYwLjgzMjEgMzM5LjkxNjcgTDQ2MS4wNTEgMzM5LjkxNjcgTDQ2MS4yNjk5IDMzOS45MTY3IEw0NjEuNDg4OSAzMzkuOTE2NyBMNDYxLjcwNzggMzM5LjkxNjcgTDQ2MS45MjY3IDMzOS45MTY3IEw0NjIuMTQ1NiAzMzkuOTE2NyBMNDYyLjM2NDUgMzM5LjkxNjcgTDQ2Mi41ODM0IDMzOS45MTY3IEw0NjIuODAyNCAzMzkuOTE2NyBMNDYzLjAyMTMgMzM5LjkxNjcgTDQ2My4yNDAyIDMzOS45MTY3IEw0NjMuNDU5MSAzMzkuOTE2NyBMNDYzLjY3ODEgMzM5LjkxNjcgTDQ2My44OTcgMzM5LjkxNjcgTDQ2NC4xMTU5IDMzOS45MTY3IEw0NjQuMzM0OCAzMzkuOTE2NyBMNDY0LjU1MzcgMzM5LjkxNjcgTDQ2NC43NzI2IDMzOS45MTY3IEw0NjQuOTkxNiAzMzkuOTE2NyBMNDY1LjIxMDUgMzM5LjkxNjcgTDQ2NS40Mjk0IDMzOS45MTY3IEw0NjUuNjQ4MyAzMzkuOTE2NyBMNDY1Ljg2NzIgMzM5LjkxNjcgTDQ2Ni4wODYyIDMzOS45MTY3IEw0NjYuMzA1MSAzMzkuOTE2NyBMNDY2LjUyNCAzMzkuOTE2NyBMNDY2Ljc0MyAzMzkuOTE2NyBMNDY2Ljk2MTkgMzM5LjkxNjcgTDQ2Ny4xODA4IDMzOS45MTY3IEw0NjcuMzk5NyAzMzkuOTE2NyBMNDY3LjYxODYgMzM5LjkxNjcgTDQ2Ny44Mzc1IDMzOS45MTY3IEw0NjguMDU2NSAzMzkuOTE2NyBMNDY4LjI3NTQgMzM5LjkxNjcgTDQ2OC40OTQzIDMzOS45MTY3IEw0NjguNzEzMiAzMzkuOTE2NyBMNDY4LjkzMjIgMzM5LjkxNjcgTDQ2OS4xNTExIDMzOS45MTY3IEw0NjkuMzcgMzM5LjkxNjcgTDQ2OS41ODg5IDMzOS45MTY3IEw0NjkuODA3OCAzMzkuOTE2NyBMNDcwLjAyNjcgMzM5LjkxNjcgTDQ3MC4yNDU3IDMzOS45MTY3IEw0NzAuNDY0NiAzMzkuOTE2NyBMNDcwLjY4MzUgMzM5LjkxNjcgTDQ3MC45MDI0IDMzOS45MTY3IEw0NzEuMTIxMyAzMzkuOTE2NyBMNDcxLjM0MDMgMzM5LjkxNjcgTDQ3MS41NTkyIDMzOS45MTY3IEw0NzEuNzc4MSAzMzkuOTE2NyBMNDcxLjk5NyAzMzkuOTE2NyBMNDcyLjIxNTkgMzM5LjkxNjcgTDQ3Mi40MzQ4IDMzOS45MTY3IEw0NzIuNjUzOCAzMzkuOTE2NyBMNDcyLjg3MjcgMzM5LjkxNjcgTDQ3My4wOTE2IDMzOS45MTY3IEw0NzMuMzEwNSAzMzkuOTE2NyBMNDczLjUyOTUgMzM5LjkxNjcgTDQ3My43NDg0IDMzOS45MTY3IEw0NzMuOTY3MyAzMzkuOTE2NyBMNDc0LjE4NjIgMzM5LjkxNjcgTDQ3NC40MDUyIDMzOS45MTY3IEw0NzQuNjI0MSAzMzkuOTE2NyBMNDc0Ljg0MyAzMzkuOTE2NyBMNDc1LjA2MTkgMzM5LjkxNjcgTDQ3NS4yODA4IDMzOS45MTY3IEw0NzUuNDk5OCAzMzkuOTE2NyBMNDc1LjcxODcgMzM5LjkxNjcgTDQ3NS45Mzc2IDMzOS45MTY3IEw0NzYuMTU2NSAzMzkuOTE2NyBMNDc2LjM3NTQgMzM5LjkxNjcgTDQ3Ni41OTQ0IDMzOS45MTY3IEw0NzYuODEzMyAzMzkuOTE2NyBMNDc3LjAzMjIgMzM5LjkxNjcgTDQ3Ny4yNTExIDMzOS45MTY3IEw0NzcuNDcgMzM5LjkxNjcgTDQ3Ny42ODg5IDMzOS45MTY3IEw0NzcuOTA3OSAzMzkuOTE2NyBMNDc4LjEyNjggMzM5LjkxNjcgTDQ3OC4zNDU3IDMzOS45MTY3IEw0NzguNTY0NiAzMzkuOTE2NyBMNDc4Ljc4MzYgMzM5LjkxNjcgTDQ3OS4wMDI1IDMzOS45MTY3IEw0NzkuMjIxNCAzMzkuOTE2NyBMNDc5LjQ0MDMgMzM5LjkxNjcgTDQ3OS42NTkyIDMzOS45MTY3IEw0NzkuODc4MSAzMzkuOTE2NyBMNDgwLjA5NzEgMzM5LjkxNjcgTDQ4MC4zMTYgMzM5LjkxNjcgTDQ4MC41MzQ5IDMzOS45MTY3IEw0ODAuNzUzOCAzMzkuOTE2NyBMNDgwLjk3MjcgMzM5LjkxNjcgTDQ4MS4xOTE3IDMzOS45MTY3IEw0ODEuNDEwNiAzMzkuOTE2NyBMNDgxLjYyOTUgMzM5LjkxNjcgTDQ4MS44NDg0IDMzOS45MTY3IEw0ODIuMDY3NCAzMzkuOTE2NyBMNDgyLjI4NjMgMzM5LjkxNjcgTDQ4Mi41MDUyIDMzOS45MTY3IEw0ODIuNzI0MSAzMzkuOTE2NyBMNDgyLjk0MyAzMzkuOTE2NyBMNDgzLjE2MiAzMzkuOTE2NyBMNDgzLjM4MDkgMzM5LjkxNjcgTDQ4My41OTk4IDMzOS45MTY3IEw0ODMuODE4NyAzMzkuOTE2NyBMNDg0LjAzNzcgMzM5LjkxNjcgTDQ4NC4yNTY2IDMzOS45MTY3IEw0ODQuNDc1NSAzMzkuOTE2NyBMNDg0LjY5NDQgMzM5LjkxNjcgTDQ4NC45MTMzIDMzOS45MTY3IEw0ODUuMTMyMiAzMzkuOTE2NyBMNDg1LjM1MTIgMzM5LjkxNjcgTDQ4NS41NzAxIDMzOS45MTY3IEw0ODUuNzg5IDMzOS45MTY3IEw0ODYuMDA3OSAzMzkuOTE2NyBMNDg2LjIyNjggMzM5LjkxNjcgTDQ4Ni40NDU4IDMzOS45MTY3IEw0ODYuNjY0NyAzMzkuOTE2NyBMNDg2Ljg4MzYgMzM5LjkxNjcgTDQ4Ny4xMDI1IDMzOS45MTY3IEw0ODcuMzIxNCAzMzkuOTE2NyBMNDg3LjU0MDMgMzM5LjkxNjcgTDQ4Ny43NTkzIDMzOS45MTY3IEw0ODcuOTc4MiAzMzkuOTE2NyBMNDg4LjE5NzEgMzM5LjkxNjcgTDQ4OC40MTYgMzM5LjkxNjcgTDQ4OC42MzUgMzM5LjkxNjcgTDQ4OC44NTM5IDMzOS45MTY3IEw0ODkuMDcyOCAzMzkuOTE2NyBMNDg5LjI5MTcgMzM5LjkxNjcgTDQ4OS41MTA3IDMzOS45MTY3IEw0ODkuNzI5NiAzMzkuOTE2NyBMNDg5Ljk0ODUgMzM5LjkxNjcgTDQ5MC4xNjc0IDMzOS45MTY3IEw0OTAuMzg2MyAzMzkuOTE2NyBMNDkwLjYwNTMgMzM5LjkxNjcgTDQ5MC44MjQyIDMzOS45MTY3IEw0OTEuMDQzMSAzMzkuOTE2NyBMNDkxLjI2MiAzMzkuOTE2NyBMNDkxLjQ4MDkgMzM5LjkxNjcgTDQ5MS42OTk5IDMzOS45MTY3IEw0OTEuOTE4OCAzMzkuOTE2NyBMNDkyLjEzNzcgMzM5LjkxNjcgTDQ5Mi4zNTY2IDMzOS45MTY3IEw0OTIuNTc1NSAzMzkuOTE2NyBMNDkyLjc5NDQgMzM5LjkxNjcgTDQ5My4wMTM0IDMzOS45MTY3IEw0OTMuMjMyMyAzMzkuOTE2NyBMNDkzLjQ1MTIgMzM5LjkxNjcgTDQ5My42NzAxIDMzOS45MTY3IEw0OTMuODg5MSAzMzkuOTE2NyBMNDk0LjEwOCAzMzkuOTE2NyBMNDk0LjMyNjkgMzM5LjkxNjcgTDQ5NC41NDU4IDMzOS45MTY3IEw0OTQuNzY0NyAzMzkuOTE2NyBMNDk0Ljk4MzYgMzM5LjkxNjcgTDQ5NS4yMDI2IDMzOS45MTY3IEw0OTUuNDIxNSAzMzkuOTE2NyBMNDk1LjY0MDQgMzM5LjkxNjcgTDQ5NS44NTkzIDMzOS45MTY3IEw0OTYuMDc4MiAzMzkuOTE2NyBMNDk2LjI5NzIgMzM5LjkxNjcgTDQ5Ni41MTYxIDMzOS45MTY3IEw0OTYuNzM1IDMzOS45MTY3IEw0OTYuOTUzOSAzMzkuOTE2NyBMNDk3LjE3MjkgMzM5LjkxNjcgTDQ5Ny4zOTE4IDMzOS45MTY3IEw0OTcuNjEwNyAzMzkuOTE2NyBMNDk3LjgyOTYgMzM5LjkxNjcgTDQ5OC4wNDg1IDMzOS45MTY3IEw0OTguMjY3NSAzMzkuOTE2NyBMNDk4LjQ4NjQgMzM5LjkxNjcgTDQ5OC43MDUzIDMzOS45MTY3IEw0OTguOTI0MiAzMzkuOTE2NyBMNDk5LjE0MzIgMzM5LjkxNjcgTDQ5OS4zNjIxIDMzOS45MTY3IEw0OTkuNTgxIDMzOS45MTY3IEw0OTkuNzk5OSAzMzkuOTE2NyBMNTAwLjAxODggMzM5LjkxNjcgTDUwMC4yMzc3IDMzOS45MTY3IEw1MDAuNDU2NyAzMzkuOTE2NyBMNTAwLjY3NTYgMzM5LjkxNjcgTDUwMC44OTQ1IDMzOS45MTY3IEw1MDEuMTEzNCAzMzkuOTE2NyBMNTAxLjMzMjMgMzM5LjkxNjcgTDUwMS41NTEzIDMzOS45MTY3IEw1MDEuNzcwMiAzMzkuOTE2NyBMNTAxLjk4OTEgMzM5LjkxNjcgTDUwMi4yMDggMzM5LjkxNjcgTDUwMi40MjY5IDMzOS45MTY3IEw1MDIuNjQ1OCAzMzkuOTE2NyBMNTAyLjg2NDggMzM5LjkxNjcgTDUwMy4wODM3IDMzOS45MTY3IEw1MDMuMzAyNiAzMzkuOTE2NyBMNTAzLjUyMTUgMzM5LjkxNjcgTDUwMy43NDA1IDMzOS45MTY3IEw1MDMuOTU5NCAzMzkuOTE2NyBMNTA0LjE3ODMgMzM5LjkxNjcgTDUwNC4zOTcyIDMzOS45MTY3IEw1MDQuNjE2MSAzMzkuOTE2NyBMNTA0LjgzNTEgMzM5LjkxNjcgTDUwNS4wNTQgMzM5LjkxNjcgTDUwNS4yNzI5IDMzOS45MTY3IEw1MDUuNDkxOCAzMzkuOTE2NyBMNTA1LjcxMDggMzM5LjkxNjcgTDUwNS45Mjk3IDMzOS45MTY3IEw1MDYuMTQ4NiAzMzkuOTE2NyBMNTA2LjM2NzUgMzM5LjkxNjcgTDUwNi41ODY0IDMzOS45MTY3IEw1MDYuODA1NCAzMzkuOTE2NyBMNTA3LjAyNDMgMzM5LjkxNjcgTDUwNy4yNDMyIDMzOS45MTY3IEw1MDcuNDYyMSAzMzkuOTE2NyBMNTA3LjY4MSAzMzkuOTE2NyBMNTA3Ljg5OTkgMzM5LjkxNjcgTDUwOC4xMTg5IDMzOS45MTY3IEw1MDguMzM3OCAzMzkuOTE2NyBMNTA4LjU1NjcgMzM5LjkxNjcgTDUwOC43NzU2IDMzOS45MTY3IEw1MDguOTk0NiAzMzkuOTE2NyBMNTA5LjIxMzUgMzM5LjkxNjcgTDUwOS40MzI0IDMzOS45MTY3IEw1MDkuNjUxMyAzMzkuOTE2NyBMNTA5Ljg3MDIgMzM5LjkxNjcgTDUxMC4wODkxIDMzOS45MTY3IEw1MTAuMzA4MSAzMzkuOTE2NyBMNTEwLjUyNyAzMzkuOTE2NyBMNTEwLjc0NTkgMzM5LjkxNjcgTDUxMC45NjQ4IDMzOS45MTY3IEw1MTEuMTgzNyAzMzkuOTE2NyBMNTExLjQwMjcgMzM5LjkxNjcgTDUxMS42MjE2IDMzOS45MTY3IEw1MTEuODQwNSAzMzkuOTE2NyBMNTEyLjA1OTQgMzM5LjkxNjcgTDUxMi4yNzg0IDMzOS45MTY3IEw1MTIuNDk3MyAzMzkuOTE2NyBMNTEyLjcxNjIgMzM5LjkxNjcgTDUxMi45MzUxIDMzOS45MTY3IEw1MTMuMTU0MSAzMzkuOTE2NyBMNTEzLjM3MyAzMzkuOTE2NyBMNTEzLjU5MTkgMzM5LjkxNjcgTDUxMy44MTA4IDMzOS45MTY3IEw1MTQuMDI5NyAzMzkuOTE2NyBMNTE0LjI0ODcgMzM5LjkxNjcgTDUxNC40Njc1IDMzOS45MTY3IEw1MTQuNjg2NSAzMzkuOTE2NyBMNTE0LjkwNTQgMzM5LjkxNjcgTDUxNS4xMjQzIDMzOS45MTY3IEw1MTUuMzQzMyAzMzkuOTE2NyBMNTE1LjU2MjIgMzM5LjkxNjcgTDUxNS43ODExIDMzOS45MTY3IEw1MTYgMzM5LjkxNjciLz48cGF0aCBzdHlsZT0iZmlsbDpub25lOyBmaWxsLXJ1bGU6ZXZlbm9kZDsgc3Ryb2tlOnJnYigyMTcsODMsMjUpOyIgZD0iTTc0IDMzOS45MTY3IEw3NC4yMTg5IDMzOS45MTY3IEw3NC40Mzc4IDMzOS45MTY3IEw3NC42NTY4IDMzOS45MTY3IEw3NC44NzU3IDMzOS45MTY3IEw3NS4wOTQ2IDMzOS45MTY3IEw3NS4zMTM1IDMzOS45MTY3IEw3NS41MzI0IDMzOS45MTY3IEw3NS43NTE0IDMzOS45MTY3IEw3NS45NzAzIDMzOS45MTY3IEw3Ni4xODkyIDMzOS45MTY3IEw3Ni40MDgxIDMzOS45MTY3IEw3Ni42MjcgMzM5LjkxNjcgTDc2Ljg0NiAzMzkuOTE2NyBMNzcuMDY0OSAzMzkuOTE2NyBMNzcuMjgzOCAzMzkuOTE2NyBMNzcuNTAyNyAzMzkuOTE2NyBMNzcuNzIxNiAzMzkuOTE2NyBMNzcuOTQwNiAzMzkuOTE2NyBMNzguMTU5NSAzMzkuOTE2NyBMNzguMzc4NCAzMzkuOTE2NyBMNzguNTk3MyAzMzkuOTE2NyBMNzguODE2MiAzMzkuOTE2NyBMNzkuMDM1MiAzMzkuOTE2NyBMNzkuMjU0MSAzMzkuOTE2NyBMNzkuNDczIDMzOS45MTY3IEw3OS42OTE5IDMzOS45MTY3IEw3OS45MTA5IDMzOS45MTY3IEw4MC4xMjk4IDMzOS45MTY3IEw4MC4zNDg3IDMzOS45MTY3IEw4MC41Njc2IDMzOS45MTY3IEw4MC43ODY1IDMzOS45MTY3IEw4MS4wMDU0IDMzOS45MTY3IEw4MS4yMjQ0IDMzOS45MTY3IEw4MS40NDMzIDMzOS45MTY3IEw4MS42NjIyIDMzOS45MTY3IEw4MS44ODExIDMzOS45MTY3IEw4Mi4xMDAxIDMzOS45MTY3IEw4Mi4zMTkgMzM5LjkxNjcgTDgyLjUzNzkgMzM5LjkxNjcgTDgyLjc1NjggMzM5LjkxNjcgTDgyLjk3NTcgMzM5LjkxNjcgTDgzLjE5NDYgMzM5LjkxNjcgTDgzLjQxMzYgMzM5LjkxNjcgTDgzLjYzMjUgMzM5LjkxNjcgTDgzLjg1MTQgMzM5LjkxNjcgTDg0LjA3MDMgMzM5LjkxNjcgTDg0LjI4OTMgMzM5LjkxNjcgTDg0LjUwODIgMzM5LjkxNjcgTDg0LjcyNzEgMzM5LjkxNjcgTDg0Ljk0NiAzMzkuOTE2NyBMODUuMTY0OSAzMzkuOTE2NyBMODUuMzgzOSAzMzkuOTE2NyBMODUuNjAyOCAzMzkuOTE2NyBMODUuODIxNyAzMzkuOTE2NyBMODYuMDQwNiAzMzkuOTE2NyBMODYuMjU5NSAzMzkuOTE2NyBMODYuNDc4NSAzMzkuOTE2NyBMODYuNjk3NCAzMzkuOTE2NyBMODYuOTE2MyAzMzkuOTE2NyBMODcuMTM1MiAzMzkuOTE2NyBMODcuMzU0MSAzMzkuOTE2NyBMODcuNTczMSAzMzkuOTE2NyBMODcuNzkyIDMzOS45MTY3IEw4OC4wMTA5IDMzOS45MTY3IEw4OC4yMjk4IDMzOS45MTY3IEw4OC40NDg3IDMzOS45MTY3IEw4OC42Njc3IDMzOS45MTY3IEw4OC44ODY2IDMzOS45MTY3IEw4OS4xMDU1IDMzOS45MTY3IEw4OS4zMjQ0IDMzOS45MTY3IEw4OS41NDMzIDMzOS45MTY3IEw4OS43NjIzIDMzOS45MTY3IEw4OS45ODEyIDMzOS45MTY3IEw5MC4yMDAxIDMzOS45MTY3IEw5MC40MTkgMzM5LjkxNjcgTDkwLjYzNzkgMzM5LjkxNjcgTDkwLjg1NjkgMzM5LjkxNjcgTDkxLjA3NTggMzM5LjkxNjcgTDkxLjI5NDcgMzM5LjkxNjcgTDkxLjUxMzYgMzM5LjkxNjcgTDkxLjczMjUgMzM5LjkxNjcgTDkxLjk1MTUgMzM5LjkxNjcgTDkyLjE3MDQgMzM5LjkxNjcgTDkyLjM4OTMgMzM5LjkxNjcgTDkyLjYwODIgMzM5LjkxNjcgTDkyLjgyNzEgMzM5LjkxNjcgTDkzLjA0NjEgMzM5LjkxNjcgTDkzLjI2NSAzMzkuOTE2NyBMOTMuNDgzOSAzMzkuOTE2NyBMOTMuNzAyOCAzMzkuOTE2NyBMOTMuOTIxNyAzMzkuOTE2NyBMOTQuMTQwNyAzMzkuOTE2NyBMOTQuMzU5NiAzMzkuOTE2NyBMOTQuNTc4NSAzMzkuOTE2NyBMOTQuNzk3NCAzMzkuOTE2NyBMOTUuMDE2MyAzMzkuOTE2NyBMOTUuMjM1MyAzMzkuOTE2NyBMOTUuNDU0MiAzMzkuOTE2NyBMOTUuNjczMSAzMzkuOTE2NyBMOTUuODkyIDMzOS45MTY3IEw5Ni4xMTA5IDMzOS45MTY3IEw5Ni4zMjk5IDMzOS45MTY3IEw5Ni41NDg4IDMzOS45MTY3IEw5Ni43Njc3IDMzOS45MTY3IEw5Ni45ODY2IDMzOS45MTY3IEw5Ny4yMDU2IDMzOS45MTY3IEw5Ny40MjQ1IDMzOS45MTY3IEw5Ny42NDM0IDMzOS45MTY3IEw5Ny44NjIzIDMzOS45MTY3IEw5OC4wODEyIDMzOS45MTY3IEw5OC4zMDAxIDMzOS45MTY3IEw5OC41MTkxIDMzOS45MTY3IEw5OC43MzggMzM5LjkxNjcgTDk4Ljk1NjkgMzM5LjkxNjcgTDk5LjE3NTggMzM5LjkxNjcgTDk5LjM5NDggMzM5LjkxNjcgTDk5LjYxMzcgMzM5LjkxNjcgTDk5LjgzMjYgMzM5LjkxNjcgTDEwMC4wNTE1IDMzOS45MTY3IEwxMDAuMjcwNCAzMzkuOTE2NyBMMTAwLjQ4OTMgMzM5LjkxNjcgTDEwMC43MDgzIDMzOS45MTY3IEwxMDAuOTI3MiAzMzkuOTE2NyBMMTAxLjE0NjEgMzM5LjkxNjcgTDEwMS4zNjUgMzM5LjkxNjcgTDEwMS41ODQgMzM5LjkxNjcgTDEwMS44MDI5IDMzOS45MTY3IEwxMDIuMDIxOCAzMzkuOTE2NyBMMTAyLjI0MDcgMzM5LjkxNjcgTDEwMi40NTk2IDMzOS45MTY3IEwxMDIuNjc4NiAzMzkuOTE2NyBMMTAyLjg5NzUgMzM5LjkxNjcgTDEwMy4xMTY0IDMzOS45MTY3IEwxMDMuMzM1MyAzMzkuOTE2NyBMMTAzLjU1NDIgMzM5LjkxNjcgTDEwMy43NzMyIDMzOS45MTY3IEwxMDMuOTkyMSAzMzkuOTE2NyBMMTA0LjIxMSAzMzkuOTE2NyBMMTA0LjQyOTkgMzM5LjkxNjcgTDEwNC42NDg4IDMzOS45MTY3IEwxMDQuODY3OCAzMzkuOTE2NyBMMTA1LjA4NjcgMzM5LjkxNjcgTDEwNS4zMDU2IDMzOS45MTY3IEwxMDUuNTI0NSAzMzkuOTE2NyBMMTA1Ljc0MzQgMzM5LjkxNjcgTDEwNS45NjI0IDMzOS45MTY3IEwxMDYuMTgxMyAzMzkuOTE2NyBMMTA2LjQwMDIgMzM5LjkxNjcgTDEwNi42MTkxIDMzOS45MTY3IEwxMDYuODM4IDMzOS45MTY3IEwxMDcuMDU3IDMzOS45MTY3IEwxMDcuMjc1OSAzMzkuOTE2NyBMMTA3LjQ5NDggMzM5LjkxNjcgTDEwNy43MTM3IDMzOS45MTY3IEwxMDcuOTMyNiAzMzkuOTE2NyBMMTA4LjE1MTYgMzM5LjkxNjcgTDEwOC4zNzA1IDMzOS45MTY3IEwxMDguNTg5NCAzMzkuOTE2NyBMMTA4LjgwODMgMzM5LjkxNjcgTDEwOS4wMjcyIDMzOS45MTY3IEwxMDkuMjQ2MiAzMzkuOTE2NyBMMTA5LjQ2NTEgMzM5LjkxNjcgTDEwOS42ODQgMzM5LjkxNjcgTDEwOS45MDI5IDMzOS45MTY3IEwxMTAuMTIxOCAzMzkuOTE2NyBMMTEwLjM0MDggMzM5LjkxNjcgTDExMC41NTk3IDMzOS45MTY3IEwxMTAuNzc4NiAzMzkuOTE2NyBMMTEwLjk5NzUgMzM5LjkxNjcgTDExMS4yMTY0IDMzOS45MTY3IEwxMTEuNDM1NCAzMzkuOTE2NyBMMTExLjY1NDMgMzM5LjkxNjcgTDExMS44NzMyIDMzOS45MTY3IEwxMTIuMDkyMSAzMzkuOTE2NyBMMTEyLjMxMSAzMzkuOTE2NyBMMTEyLjUzIDMzOS45MTY3IEwxMTIuNzQ4OSAzMzkuOTE2NyBMMTEyLjk2NzggMzM5LjkxNjcgTDExMy4xODY3IDMzOS45MTY3IEwxMTMuNDA1NiAzMzkuOTE2NyBMMTEzLjYyNDYgMzM5LjkxNjcgTDExMy44NDM1IDMzOS45MTY3IEwxMTQuMDYyNCAzMzkuOTE2NyBMMTE0LjI4MTMgMzM5LjkxNjcgTDExNC41MDAyIDMzOS45MTY3IEwxMTQuNzE5MiAzMzkuOTE2NyBMMTE0LjkzODEgMzM5LjkxNjcgTDExNS4xNTcgMzM5LjkxNjcgTDExNS4zNzU5IDMzOS45MTY3IEwxMTUuNTk0OCAzMzkuOTE2NyBMMTE1LjgxMzggMzM5LjkxNjcgTDExNi4wMzI3IDMzOS45MTY3IEwxMTYuMjUxNiAzMzkuOTE2NyBMMTE2LjQ3MDUgMzM5LjkxNjcgTDExNi42ODk1IDMzOS45MTY3IEwxMTYuOTA4NCAzMzkuOTE2NyBMMTE3LjEyNzMgMzM5LjkxNjcgTDExNy4zNDYyIDMzOS45MTY3IEwxMTcuNTY1MSAzMzkuOTE2NyBMMTE3Ljc4NCAzMzkuOTE2NyBMMTE4LjAwMyAzMzkuOTE2NyBMMTE4LjIyMTkgMzM5Ljg0NzEgTDExOC40NDA4IDMzOS4xNTE2IEwxMTguNjU5NyAzMzguNDU2MiBMMTE4Ljg3ODcgMzM3Ljc2MDcgTDExOS4wOTc2IDMzNy4wNjUyIEwxMTkuMzE2NSAzMzYuMzY5OCBMMTE5LjUzNTQgMzM1LjY3NDMgTDExOS43NTQzIDMzNC45Nzg4IEwxMTkuOTczMyAzMzQuMjgzMyBMMTIwLjE5MjIgMzMzLjU4NzggTDEyMC40MTExIDMzMi44OTI0IEwxMjAuNjMgMzMyLjE5NjkgTDEyMC44NDg5IDMzMS41MDE0IEwxMjEuMDY3OSAzMzAuODA1OSBMMTIxLjI4NjggMzMwLjExMDQgTDEyMS41MDU3IDMyOS40MTUgTDEyMS43MjQ2IDMyOC43MTk1IEwxMjEuOTQzNSAzMjguMDI0IEwxMjIuMTYyNSAzMjcuMzI4NiBMMTIyLjM4MTQgMzI2LjYzMzEgTDEyMi42MDAzIDMyNS45Mzc2IEwxMjIuODE5MiAzMjUuMjQyMSBMMTIzLjAzODEgMzI0LjU0NjYgTDEyMy4yNTcxIDMyMy44NTEyIEwxMjMuNDc2IDMyMy4xNTU3IEwxMjMuNjk0OSAzMjIuNDYwMiBMMTIzLjkxMzggMzIxLjc2NDcgTDEyNC4xMzI3IDMyMS4wNjkyIEwxMjQuMzUxNyAzMjAuMzczOCBMMTI0LjU3MDYgMzE5LjY3ODMgTDEyNC43ODk1IDMxOC45ODI4IEwxMjUuMDA4NCAzMTguMjg3NCBMMTI1LjIyNzMgMzE3LjU5MTkgTDEyNS40NDYzIDMxNi44OTY0IEwxMjUuNjY1MiAzMTYuMjAwOSBMMTI1Ljg4NDEgMzE1LjUwNTUgTDEyNi4xMDMgMzE0LjgxIEwxMjYuMzIxOSAzMTQuMTE0NSBMMTI2LjU0MDkgMzEzLjQxOSBMMTI2Ljc1OTggMzEyLjcyMzUgTDEyNi45Nzg3IDMxMi4wMjgxIEwxMjcuMTk3NiAzMTEuMzMyNiBMMTI3LjQxNjUgMzEwLjYzNzEgTDEyNy42MzU1IDMwOS45NDE3IEwxMjcuODU0NCAzMDkuMjQ2MiBMMTI4LjA3MzMgMzA4LjU1MDcgTDEyOC4yOTIyIDMwNy44NTUyIEwxMjguNTExMSAzMDcuMTU5NyBMMTI4LjczMDEgMzA2LjQ2NDMgTDEyOC45NDkgMzA1Ljc2ODggTDEyOS4xNjc5IDMwNS4wNzMzIEwxMjkuMzg2OCAzMDQuMzc3OCBMMTI5LjYwNTcgMzAzLjY4MjMgTDEyOS44MjQ3IDMwMi45ODY5IEwxMzAuMDQzNiAzMDIuMjkxNCBMMTMwLjI2MjUgMzAxLjU5NTkgTDEzMC40ODE0IDMwMC45MDA1IEwxMzAuNzAwMyAzMDAuMjA1IEwxMzAuOTE5MyAyOTkuNTA5NSBMMTMxLjEzODIgMjk4LjgxNCBMMTMxLjM1NzEgMjk4LjExODUgTDEzMS41NzYgMjk3LjQyMzEgTDEzMS43OTUgMjk2LjcyNzYgTDEzMi4wMTM5IDI5Ni4wMzIxIEwxMzIuMjMyOCAyOTUuMzM2NiBMMTMyLjQ1MTcgMjk0LjY0MTIgTDEzMi42NzA2IDI5My45NDU3IEwxMzIuODg5NiAyOTMuMjUwMiBMMTMzLjEwODUgMjkyLjU1NDcgTDEzMy4zMjc0IDI5MS44NTkzIEwxMzMuNTQ2MyAyOTEuMTYzOCBMMTMzLjc2NTIgMjkwLjQ2ODMgTDEzMy45ODQxIDI4OS43NzI4IEwxMzQuMjAzMSAyODkuMDc3NCBMMTM0LjQyMiAyODguMzgxOSBMMTM0LjY0MDkgMjg3LjY4NjQgTDEzNC44NTk4IDI4Ni45OTA5IEwxMzUuMDc4OCAyODYuMjk1NCBMMTM1LjI5NzcgMjg1LjYgTDEzNS41MTY2IDI4NC45MDQ1IEwxMzUuNzM1NSAyODQuMjA5IEwxMzUuOTU0NCAyODMuNTEzNSBMMTM2LjE3MzQgMjgyLjgxODEgTDEzNi4zOTIzIDI4Mi4xMjI2IEwxMzYuNjExMiAyODEuNDI3MSBMMTM2LjgzMDEgMjgwLjczMTYgTDEzNy4wNDkgMjgwLjAzNjIgTDEzNy4yNjggMjc5LjM0MDcgTDEzNy40ODY5IDI3OC42NDUyIEwxMzcuNzA1OCAyNzcuOTQ5NyBMMTM3LjkyNDcgMjc3LjI1NDIgTDEzOC4xNDM2IDI3Ni41NTg4IEwxMzguMzYyNSAyNzUuODYzMyBMMTM4LjU4MTUgMjc1LjE2NzggTDEzOC44MDA0IDI3NC40NzI0IEwxMzkuMDE5MyAyNzMuNzc2OSBMMTM5LjIzODIgMjczLjA4MTQgTDEzOS40NTcyIDI3Mi4zODU5IEwxMzkuNjc2MSAyNzEuNjkwNCBMMTM5Ljg5NSAyNzAuOTk1IEwxNDAuMTEzOSAyNzAuMjk5NSBMMTQwLjMzMjggMjY5LjYwNCBMMTQwLjU1MTggMjY4LjkwODUgTDE0MC43NzA3IDI2OC4yMTMgTDE0MC45ODk2IDI2Ny41MTc2IEwxNDEuMjA4NSAyNjYuODIyMSBMMTQxLjQyNzQgMjY2LjEyNjYgTDE0MS42NDY0IDI2NS40MzEyIEwxNDEuODY1MyAyNjQuNzM1NyBMMTQyLjA4NDIgMjY0LjA0MDIgTDE0Mi4zMDMxIDI2My4zNDQ3IEwxNDIuNTIyIDI2Mi42NDkzIEwxNDIuNzQxIDI2MS45NTM4IEwxNDIuOTU5OSAyNjEuMjU4MyBMMTQzLjE3ODggMjYwLjU2MjggTDE0My4zOTc3IDI1OS44NjczIEwxNDMuNjE2NiAyNTkuMTcxOSBMMTQzLjgzNTYgMjU4LjQ3NjQgTDE0NC4wNTQ1IDI1Ny43ODA5IEwxNDQuMjczNCAyNTcuMDg1NCBMMTQ0LjQ5MjMgMjU2LjM5IEwxNDQuNzExMiAyNTUuNjk0NSBMMTQ0LjkzMDIgMjU0Ljk5OSBMMTQ1LjE0OTEgMjU0LjMwMzUgTDE0NS4zNjggMjUzLjYwOCBMMTQ1LjU4NjkgMjUyLjkxMjYgTDE0NS44MDU4IDI1Mi4yMTcxIEwxNDYuMDI0OCAyNTEuNTIxNiBMMTQ2LjI0MzcgMjUwLjgyNjIgTDE0Ni40NjI2IDI1MC4xMzA3IEwxNDYuNjgxNSAyNDkuNDM1MiBMMTQ2LjkwMDQgMjQ4LjczOTcgTDE0Ny4xMTk0IDI0OC4wNDQzIEwxNDcuMzM4MyAyNDcuMzQ4OCBMMTQ3LjU1NzIgMjQ2LjY1MzMgTDE0Ny43NzYxIDI0NS45NTc4IEwxNDcuOTk1MSAyNDUuMjYyMyBMMTQ4LjIxNCAyNDQuNTY2OSBMMTQ4LjQzMjkgMjQzLjg3MTQgTDE0OC42NTE4IDI0My4xNzU5IEwxNDguODcwNyAyNDIuNDgwNCBMMTQ5LjA4OTYgMjQxLjc4NSBMMTQ5LjMwODYgMjQxLjA4OTUgTDE0OS41Mjc1IDI0MC4zOTQgTDE0OS43NDY0IDIzOS42OTg1IEwxNDkuOTY1MyAyMzkuMDAzMSBMMTUwLjE4NDIgMjM4LjMwNzYgTDE1MC40MDMyIDIzNy42MTIxIEwxNTAuNjIyMSAyMzYuOTE2NiBMMTUwLjg0MSAyMzYuMjIxMSBMMTUxLjA1OTkgMjM1LjUyNTcgTDE1MS4yNzg5IDIzNC44MzAyIEwxNTEuNDk3OCAyMzQuMTM0NyBMMTUxLjcxNjcgMjMzLjQzOTIgTDE1MS45MzU2IDIzMi43NDM4IEwxNTIuMTU0NSAyMzIuMDQ4MyBMMTUyLjM3MzUgMjMxLjM1MjggTDE1Mi41OTI0IDIzMC42NTczIEwxNTIuODExMyAyMjkuOTYxOSBMMTUzLjAzMDIgMjI5LjI2NjQgTDE1My4yNDkxIDIyOC41NzA5IEwxNTMuNDY4IDIyNy44NzU0IEwxNTMuNjg3IDIyNy4xOCBMMTUzLjkwNTkgMjI2LjQ4NDUgTDE1NC4xMjQ4IDIyNS43ODkgTDE1NC4zNDM3IDIyNS4wOTM1IEwxNTQuNTYyNyAyMjQuMzk4IEwxNTQuNzgxNiAyMjMuNzAyNiBMMTU1LjAwMDUgMjIzLjAwNzEgTDE1NS4yMTk0IDIyMi4zMTE2IEwxNTUuNDM4MyAyMjEuNjE2MSBMMTU1LjY1NzMgMjIwLjkyMDcgTDE1NS44NzYyIDIyMC4yMjUyIEwxNTYuMDk1MSAyMTkuNTI5NyBMMTU2LjMxNCAyMTguODM0MiBMMTU2LjUzMjkgMjE4LjEzODggTDE1Ni43NTE5IDIxNy40NDMzIEwxNTYuOTcwOCAyMTYuNzQ3OCBMMTU3LjE4OTcgMjE2LjA1MjMgTDE1Ny40MDg2IDIxNS4zNTY5IEwxNTcuNjI3NSAyMTQuNjYxNCBMMTU3Ljg0NjUgMjEzLjk2NTkgTDE1OC4wNjU0IDIxMy4yNzA0IEwxNTguMjg0MyAyMTIuNTc1IEwxNTguNTAzMiAyMTEuODc5NSBMMTU4LjcyMjEgMjExLjE4NCBMMTU4Ljk0MTEgMjEwLjQ4ODUgTDE1OS4xNiAyMDkuNzkzMSBMMTU5LjM3ODkgMjA5LjA5NzYgTDE1OS41OTc4IDIwOC40MDIxIEwxNTkuODE2NyAyMDcuNzA2NiBMMTYwLjAzNTcgMjA3LjAxMTEgTDE2MC4yNTQ2IDIwNi4zMTU3IEwxNjAuNDczNSAyMDUuNjIwMiBMMTYwLjY5MjQgMjA0LjkyNDcgTDE2MC45MTEzIDIwNC4yMjkyIEwxNjEuMTMwMyAyMDMuNTMzOCBMMTYxLjM0OTIgMjAyLjgzODMgTDE2MS41NjgxIDIwMi4xNDI4IEwxNjEuNzg3IDIwMS40NDczIEwxNjIuMDA1OSAyMDAuNzUxOSBMMTYyLjIyNDkgMjAwLjA1NjQgTDE2Mi40NDM4IDE5OS4zNjA5IEwxNjIuNjYyNyAxOTguNjY1NCBMMTYyLjg4MTYgMTk3Ljk3IEwxNjMuMTAwNiAxOTcuMjc0NSBMMTYzLjMxOTUgMTk2LjU3OSBMMTYzLjUzODQgMTk1Ljg4MzUgTDE2My43NTczIDE5NS4xODggTDE2My45NzYyIDE5NC40OTI2IEwxNjQuMTk1MSAxOTMuNzk3MSBMMTY0LjQxNDEgMTkzLjEwMTYgTDE2NC42MzMgMTkyLjQwNjEgTDE2NC44NTE5IDE5MS43MTA3IEwxNjUuMDcwOCAxOTEuMDE1MiBMMTY1LjI4OTcgMTkwLjMxOTcgTDE2NS41MDg3IDE4OS42MjQyIEwxNjUuNzI3NiAxODguOTI4OCBMMTY1Ljk0NjUgMTg4LjIzMzMgTDE2Ni4xNjU0IDE4Ny41Mzc4IEwxNjYuMzg0MyAxODYuODQyMyBMMTY2LjYwMzMgMTg2LjE0NjkgTDE2Ni44MjIyIDE4NS40NTE0IEwxNjcuMDQxMSAxODQuNzU1OSBMMTY3LjI2IDE4NC4wNjA0IEwxNjcuNDc5IDE4My4zNjUgTDE2Ny42OTc5IDE4Mi42Njk1IEwxNjcuOTE2OCAxODEuOTc0IEwxNjguMTM1NyAxODEuMjc4NSBMMTY4LjM1NDYgMTgwLjU4MyBMMTY4LjU3MzUgMTc5Ljg4NzYgTDE2OC43OTI1IDE3OS4xOTIxIEwxNjkuMDExNCAxNzguNDk2NiBMMTY5LjIzMDMgMTc3LjgwMTEgTDE2OS40NDkyIDE3Ny4xMDU3IEwxNjkuNjY4MiAxNzYuNDEwMiBMMTY5Ljg4NzEgMTc1LjcxNDcgTDE3MC4xMDYgMTc1LjAxOTIgTDE3MC4zMjQ5IDE3NC4zMjM3IEwxNzAuNTQzOCAxNzMuNjI4MyBMMTcwLjc2MjggMTcyLjkzMjggTDE3MC45ODE3IDE3Mi4yMzczIEwxNzEuMjAwNiAxNzEuNTQxOSBMMTcxLjQxOTUgMTcwLjg0NjQgTDE3MS42Mzg0IDE3MC4xNTA5IEwxNzEuODU3NCAxNjkuNDU1NCBMMTcyLjA3NjMgMTY4Ljc1OTkgTDE3Mi4yOTUyIDE2OC4wNjQ1IEwxNzIuNTE0MSAxNjcuMzY5IEwxNzIuNzMzIDE2Ni42NzM1IEwxNzIuOTUyIDE2NS45NzggTDE3My4xNzA5IDE2NS4yODI2IEwxNzMuMzg5OCAxNjQuNTg3MSBMMTczLjYwODcgMTYzLjg5MTYgTDE3My44Mjc2IDE2My4xOTYxIEwxNzQuMDQ2NiAxNjIuNTAwNyBMMTc0LjI2NTUgMTYxLjgwNTIgTDE3NC40ODQ0IDE2MS4xMDk3IEwxNzQuNzAzMyAxNjAuNDE0MiBMMTc0LjkyMjIgMTU5LjcxODggTDE3NS4xNDEyIDE1OS4wMjMzIEwxNzUuMzYwMSAxNTguMzI3OCBMMTc1LjU3OSAxNTcuNjMyMyBMMTc1Ljc5NzkgMTU2LjkzNjggTDE3Ni4wMTY4IDE1Ni4yNDE0IEwxNzYuMjM1OCAxNTUuNTQ1OSBMMTc2LjQ1NDcgMTU0Ljg1MDQgTDE3Ni42NzM2IDE1NC4xNTUgTDE3Ni44OTI1IDE1My40NTk1IEwxNzcuMTExNCAxNTIuNzY0IEwxNzcuMzMwNCAxNTIuMDY4NSBMMTc3LjU0OTMgMTUxLjM3MyBMMTc3Ljc2ODIgMTUwLjY3NzYgTDE3Ny45ODcxIDE0OS45ODIxIEwxNzguMjA2IDE0OS4yODY2IEwxNzguNDI1IDE0OC41OTExIEwxNzguNjQzOSAxNDcuODk1NyBMMTc4Ljg2MjggMTQ3LjIwMDIgTDE3OS4wODE3IDE0Ni41MDQ3IEwxNzkuMzAwNiAxNDUuODA5MiBMMTc5LjUxOTYgMTQ1LjExMzggTDE3OS43Mzg1IDE0NC40MTgzIEwxNzkuOTU3NCAxNDMuNzIyOCBMMTgwLjE3NjMgMTQzLjAyNzMgTDE4MC4zOTUyIDE0Mi4zMzE4IEwxODAuNjE0MiAxNDEuNjM2NCBMMTgwLjgzMzEgMTQwLjk0MDkgTDE4MS4wNTIgMTQwLjI0NTQgTDE4MS4yNzA5IDEzOS41NDk5IEwxODEuNDg5OCAxMzguODU0NSBMMTgxLjcwODggMTM4LjE1OSBMMTgxLjkyNzcgMTM3LjQ2MzUgTDE4Mi4xNDY2IDEzNi43NjgxIEwxODIuMzY1NSAxMzYuMDcyNiBMMTgyLjU4NDUgMTM1LjM3NzEgTDE4Mi44MDM0IDEzNC42ODE2IEwxODMuMDIyMyAxMzMuOTg2MSBMMTgzLjI0MTIgMTMzLjI5MDcgTDE4My40NjAxIDEzMi41OTUyIEwxODMuNjc5IDEzMS44OTk3IEwxODMuODk4IDEzMS4yMDQyIEwxODQuMTE2OSAxMzAuNTA4OCBMMTg0LjMzNTggMTI5LjgxMzMgTDE4NC41NTQ3IDEyOS4xMTc4IEwxODQuNzczNyAxMjguNDIyMyBMMTg0Ljk5MjYgMTI3LjcyNjggTDE4NS4yMTE1IDEyNy4wMzE0IEwxODUuNDMwNCAxMjYuMzM1OSBMMTg1LjY0OTMgMTI1LjY0MDQgTDE4NS44NjgzIDEyNC45NDQ5IEwxODYuMDg3MiAxMjQuMjQ5NSBMMTg2LjMwNjEgMTIzLjU1NCBMMTg2LjUyNSAxMjIuODU4NSBMMTg2Ljc0MzkgMTIyLjE2MyBMMTg2Ljk2MjggMTIxLjQ2NzYgTDE4Ny4xODE4IDEyMC43NzIxIEwxODcuNDAwNyAxMjAuMDc2NiBMMTg3LjYxOTYgMTE5LjM4MTEgTDE4Ny44Mzg1IDExOC42ODU3IEwxODguMDU3NCAxMTcuOTkwMiBMMTg4LjI3NjQgMTE3LjI5NDcgTDE4OC40OTUzIDExNi41OTkyIEwxODguNzE0MiAxMTUuOTAzOCBMMTg4LjkzMzEgMTE1LjIwODMgTDE4OS4xNTIxIDExNC41MTI4IEwxODkuMzcxIDExMy44MTczIEwxODkuNTg5OSAxMTMuMTIxOCBMMTg5LjgwODggMTEyLjQyNjQgTDE5MC4wMjc3IDExMS43MzA5IEwxOTAuMjQ2NiAxMTEuMDM1NCBMMTkwLjQ2NTYgMTEwLjMzOTkgTDE5MC42ODQ1IDEwOS42NDQ1IEwxOTAuOTAzNCAxMDguOTQ5IEwxOTEuMTIyMyAxMDguMjUzNSBMMTkxLjM0MTMgMTA3LjU1OCBMMTkxLjU2MDIgMTA2Ljg2MjUgTDE5MS43NzkxIDEwNi4xNjcxIEwxOTEuOTk4IDEwNS40NzE2IEwxOTIuMjE2OSAxMDQuNzc2MSBMMTkyLjQzNTkgMTA0LjA4MDcgTDE5Mi42NTQ4IDEwMy4zODUyIEwxOTIuODczNyAxMDIuNjg5NyBMMTkzLjA5MjYgMTAxLjk5NDIgTDE5My4zMTE1IDEwMS4yOTg4IEwxOTMuNTMwNSAxMDAuNjAzMyBMMTkzLjc0OTQgOTkuOTA3OCBMMTkzLjk2ODMgOTkuMjEyMyBMMTk0LjE4NzIgOTguNTE2OCBMMTk0LjQwNjEgOTcuODIxNCBMMTk0LjYyNTEgOTcuMTI1OSBMMTk0Ljg0NCA5Ni40MzA0IEwxOTUuMDYyOSA5NS43MzQ5IEwxOTUuMjgxOCA5NS4wMzk1IEwxOTUuNTAwNyA5NC4zNDQgTDE5NS43MTk3IDkzLjY0ODUgTDE5NS45Mzg2IDkyLjk1MyBMMTk2LjE1NzUgOTIuMjU3NSBMMTk2LjM3NjQgOTEuNTYyMSBMMTk2LjU5NTMgOTAuODY2NiBMMTk2LjgxNDMgOTAuMTcxMSBMMTk3LjAzMzIgODkuNDc1NiBMMTk3LjI1MjEgODguNzgwMiBMMTk3LjQ3MSA4OC4wODQ3IEwxOTcuNjg5OSA4Ny4zODkyIEwxOTcuOTA4OSA4Ni42OTM3IEwxOTguMTI3OCA4NS45OTgzIEwxOTguMzQ2NyA4NS4zMDI4IEwxOTguNTY1NiA4NC42MDczIEwxOTguNzg0NSA4My45MTE4IEwxOTkuMDAzNSA4My4yMTY0IEwxOTkuMjIyNCA4Mi41MjA5IEwxOTkuNDQxMyA4MS44MjU0IEwxOTkuNjYwMiA4MS4xMjk5IEwxOTkuODc5MiA4MC40MzQ1IEwyMDAuMDk4MSA3OS43MzkgTDIwMC4zMTcgNzkuMDQzNSBMMjAwLjUzNTkgNzguMzQ4IEwyMDAuNzU0OCA3Ny42NTI1IEwyMDAuOTczOCA3Ni45NTcxIEwyMDEuMTkyNyA3Ni4yNjE2IEwyMDEuNDExNiA3NS41NjYxIEwyMDEuNjMwNSA3NC44NzA2IEwyMDEuODQ5NCA3NC4xNzUyIEwyMDIuMDY4MyA3My40Nzk3IEwyMDIuMjg3MyA3Mi43ODQyIEwyMDIuNTA2MiA3Mi4wODg3IEwyMDIuNzI1MSA3MS4zOTMzIEwyMDIuOTQ0IDcwLjY5NzggTDIwMy4xNjI5IDcwLjAwMjMgTDIwMy4zODE5IDY5LjMwNjggTDIwMy42MDA4IDY4LjYxMTQgTDIwMy44MTk3IDY3LjkxNTkgTDIwNC4wMzg2IDY3LjIyMDQgTDIwNC4yNTc2IDY2LjUyNDkgTDIwNC40NzY1IDY1LjgyOTUgTDIwNC42OTU0IDY1LjEzNCBMMjA0LjkxNDMgNjQuNDM4NSBMMjA1LjEzMzIgNjMuNzQzIEwyMDUuMzUyMSA2My4wNDc1IEwyMDUuNTcxMSA2Mi4zNTIxIEwyMDUuNzkgNjEuNjU2NiBMMjA2LjAwODkgNjAuOTYxMSBMMjA2LjIyNzggNjAuMjY1NiBMMjA2LjQ0NjggNTkuNTcwMiBMMjA2LjY2NTcgNTkuMDgzMyBMMjA2Ljg4NDYgNTkuMDgzMyBMMjA3LjEwMzUgNTkuMDgzMyBMMjA3LjMyMjQgNTkuMDgzMyBMMjA3LjU0MTQgNTkuMDgzMyBMMjA3Ljc2MDMgNTkuMDgzMyBMMjA3Ljk3OTIgNTkuMDgzMyBMMjA4LjE5ODEgNTkuMDgzMyBMMjA4LjQxNyA1OS4wODMzIEwyMDguNjM2IDU5LjA4MzMgTDIwOC44NTQ5IDU5LjA4MzMgTDIwOS4wNzM4IDU5LjA4MzMgTDIwOS4yOTI3IDU5LjA4MzMgTDIwOS41MTE2IDU5LjA4MzMgTDIwOS43MzA2IDU5LjA4MzMgTDIwOS45NDk1IDU5LjA4MzMgTDIxMC4xNjg0IDU5LjA4MzMgTDIxMC4zODczIDU5LjA4MzMgTDIxMC42MDYyIDU5LjA4MzMgTDIxMC44MjUyIDU5LjA4MzMgTDIxMS4wNDQxIDU5LjA4MzMgTDIxMS4yNjMgNTkuMDgzMyBMMjExLjQ4MTkgNTkuMDgzMyBMMjExLjcwMDggNTkuMDgzMyBMMjExLjkxOTggNTkuMDgzMyBMMjEyLjEzODcgNTkuMDgzMyBMMjEyLjM1NzYgNTkuMDgzMyBMMjEyLjU3NjUgNTkuMDgzMyBMMjEyLjc5NTQgNTkuMDgzMyBMMjEzLjAxNDQgNTkuMDgzMyBMMjEzLjIzMzMgNTkuMDgzMyBMMjEzLjQ1MjIgNTkuMDgzMyBMMjEzLjY3MTEgNTkuMDgzMyBMMjEzLjg5IDU5LjA4MzMgTDIxNC4xMDkgNTkuMDgzMyBMMjE0LjMyNzkgNTkuMDgzMyBMMjE0LjU0NjggNTkuMDgzMyBMMjE0Ljc2NTcgNTkuMDgzMyBMMjE0Ljk4NDYgNTkuMDgzMyBMMjE1LjIwMzYgNTkuMDgzMyBMMjE1LjQyMjUgNTkuMDgzMyBMMjE1LjY0MTQgNTkuMDgzMyBMMjE1Ljg2MDMgNTkuMDgzMyBMMjE2LjA3OTMgNTkuMDgzMyBMMjE2LjI5ODIgNTkuMDgzMyBMMjE2LjUxNzEgNTkuMDgzMyBMMjE2LjczNiA1OS4wODMzIEwyMTYuOTU0OSA1OS4wODMzIEwyMTcuMTczOCA1OS4wODMzIEwyMTcuMzkyOCA1OS4wODMzIEwyMTcuNjExNyA1OS4wODMzIEwyMTcuODMwNiA1OS4wODMzIEwyMTguMDQ5NSA1OS4wODMzIEwyMTguMjY4NCA1OS4wODMzIEwyMTguNDg3NCA1OS4wODMzIEwyMTguNzA2MyA1OS4wODMzIEwyMTguOTI1MiA1OS4wODMzIEwyMTkuMTQ0MSA1OS4wODMzIEwyMTkuMzYzMSA1OS4wODMzIEwyMTkuNTgyIDU5LjA4MzMgTDIxOS44MDA5IDU5LjA4MzMgTDIyMC4wMTk4IDU5LjA4MzMgTDIyMC4yMzg3IDU5LjA4MzMgTDIyMC40NTc2IDU5LjA4MzMgTDIyMC42NzY2IDU5LjA4MzMgTDIyMC44OTU1IDU5LjA4MzMgTDIyMS4xMTQ0IDU5LjA4MzMgTDIyMS4zMzMzIDU5LjA4MzMgTDIyMS41NTIyIDU5LjA4MzMgTDIyMS43NzEyIDU5LjA4MzMgTDIyMS45OTAxIDU5LjA4MzMgTDIyMi4yMDkgNTkuMDgzMyBMMjIyLjQyNzkgNTkuMDgzMyBMMjIyLjY0NjkgNTkuMDgzMyBMMjIyLjg2NTggNTkuMDgzMyBMMjIzLjA4NDcgNTkuMDgzMyBMMjIzLjMwMzYgNTkuMDgzMyBMMjIzLjUyMjUgNTkuMDgzMyBMMjIzLjc0MTUgNTkuMDgzMyBMMjIzLjk2MDQgNTkuMDgzMyBMMjI0LjE3OTMgNTkuMDgzMyBMMjI0LjM5ODIgNTkuMDgzMyBMMjI0LjYxNzEgNTkuMDgzMyBMMjI0LjgzNjEgNTkuMDgzMyBMMjI1LjA1NSA1OS4wODMzIEwyMjUuMjczOSA1OS4wODMzIEwyMjUuNDkyOCA1OS4wODMzIEwyMjUuNzExNyA1OS4wODMzIEwyMjUuOTMwNyA1OS4wODMzIEwyMjYuMTQ5NiA1OS4wODMzIEwyMjYuMzY4NSA1OS4wODMzIEwyMjYuNTg3NCA1OS4wODMzIEwyMjYuODA2MyA1OS4wODMzIEwyMjcuMDI1MyA1OS4wODMzIEwyMjcuMjQ0MiA1OS4wODMzIEwyMjcuNDYzMSA1OS4wODMzIEwyMjcuNjgyIDU5LjA4MzMgTDIyNy45MDA5IDU5LjA4MzMgTDIyOC4xMTk5IDU5LjA4MzMgTDIyOC4zMzg4IDU5LjA4MzMgTDIyOC41NTc3IDU5LjA4MzMgTDIyOC43NzY2IDU5LjA4MzMgTDIyOC45OTU1IDU5LjA4MzMgTDIyOS4yMTQ1IDU5LjA4MzMgTDIyOS40MzM0IDU5LjA4MzMgTDIyOS42NTIzIDU5LjA4MzMgTDIyOS44NzEyIDU5LjA4MzMgTDIzMC4wOTAxIDU5LjA4MzMgTDIzMC4zMDkxIDU5LjA4MzMgTDIzMC41MjggNTkuMDgzMyBMMjMwLjc0NjkgNTkuMDgzMyBMMjMwLjk2NTggNTkuMDgzMyBMMjMxLjE4NDggNTkuMDgzMyBMMjMxLjQwMzcgNTkuMDgzMyBMMjMxLjYyMjYgNTkuMDgzMyBMMjMxLjg0MTUgNTkuMDgzMyBMMjMyLjA2MDQgNTkuMDgzMyBMMjMyLjI3OTMgNTkuMDgzMyBMMjMyLjQ5ODMgNTkuMDgzMyBMMjMyLjcxNzIgNTkuMDgzMyBMMjMyLjkzNjEgNTkuMDgzMyBMMjMzLjE1NSA1OS4wODMzIEwyMzMuMzczOSA1OS4wODMzIEwyMzMuNTkyOSA1OS4wODMzIEwyMzMuODExOCA1OS4wODMzIEwyMzQuMDMwNyA1OS4wODMzIEwyMzQuMjQ5NiA1OS4wODMzIEwyMzQuNDY4NiA1OS4wODMzIEwyMzQuNjg3NSA1OS4wODMzIEwyMzQuOTA2NCA1OS4wODMzIEwyMzUuMTI1MyA1OS4wODMzIEwyMzUuMzQ0MiA1OS4wODMzIEwyMzUuNTYzMSA1OS4wODMzIEwyMzUuNzgyMSA1OS4wODMzIEwyMzYuMDAxIDU5LjA4MzMgTDIzNi4yMTk5IDU5LjA4MzMgTDIzNi40Mzg4IDU5LjA4MzMgTDIzNi42NTc3IDU5LjA4MzMgTDIzNi44NzY3IDU5LjA4MzMgTDIzNy4wOTU2IDU5LjA4MzMgTDIzNy4zMTQ1IDU5LjA4MzMgTDIzNy41MzM0IDU5LjA4MzMgTDIzNy43NTI0IDU5LjA4MzMgTDIzNy45NzEzIDU5LjA4MzMgTDIzOC4xOTAyIDU5LjA4MzMgTDIzOC40MDkxIDU5LjA4MzMgTDIzOC42MjggNTkuMDgzMyBMMjM4Ljg0NyA1OS4wODMzIEwyMzkuMDY1OSA1OS4wODMzIEwyMzkuMjg0OCA1OS4wODMzIEwyMzkuNTAzNyA1OS4wODMzIEwyMzkuNzIyNiA1OS4wODMzIEwyMzkuOTQxNiA1OS4wODMzIEwyNDAuMTYwNSA1OS4wODMzIEwyNDAuMzc5NCA1OS4wODMzIEwyNDAuNTk4MyA1OS4wODMzIEwyNDAuODE3MiA1OS4wODMzIEwyNDEuMDM2MiA1OS4wODMzIEwyNDEuMjU1MSA1OS4wODMzIEwyNDEuNDc0IDU5LjA4MzMgTDI0MS42OTI5IDU5LjA4MzMgTDI0MS45MTE4IDU5LjA4MzMgTDI0Mi4xMzA4IDU5LjA4MzMgTDI0Mi4zNDk3IDU5LjA4MzMgTDI0Mi41Njg2IDU5LjA4MzMgTDI0Mi43ODc1IDU5LjA4MzMgTDI0My4wMDY0IDU5LjA4MzMgTDI0My4yMjU0IDU5LjA4MzMgTDI0My40NDQzIDU5LjA4MzMgTDI0My42NjMyIDU5LjA4MzMgTDI0My44ODIxIDU5LjA4MzMgTDI0NC4xMDEgNTkuMDgzMyBMMjQ0LjMyIDU5LjA4MzMgTDI0NC41Mzg5IDU5LjA4MzMgTDI0NC43NTc4IDU5LjA4MzMgTDI0NC45NzY3IDU5LjA4MzMgTDI0NS4xOTU2IDU5LjA4MzMgTDI0NS40MTQ2IDU5LjA4MzMgTDI0NS42MzM1IDU5LjA4MzMgTDI0NS44NTI0IDU5LjA4MzMgTDI0Ni4wNzEzIDU5LjA4MzMgTDI0Ni4yOTAzIDU5LjA4MzMgTDI0Ni41MDkyIDU5LjA4MzMgTDI0Ni43MjgxIDU5LjA4MzMgTDI0Ni45NDcgNTkuMDgzMyBMMjQ3LjE2NTkgNTkuMDgzMyBMMjQ3LjM4NDggNTkuMDgzMyBMMjQ3LjYwMzggNTkuMDgzMyBMMjQ3LjgyMjcgNTkuMDgzMyBMMjQ4LjA0MTYgNTkuMDgzMyBMMjQ4LjI2MDUgNTkuMDgzMyBMMjQ4LjQ3OTQgNTkuMDgzMyBMMjQ4LjY5ODQgNTkuMDgzMyBMMjQ4LjkxNzMgNTkuMDgzMyBMMjQ5LjEzNjIgNTkuMDgzMyBMMjQ5LjM1NTEgNTkuMDgzMyBMMjQ5LjU3NDEgNTkuMDgzMyBMMjQ5Ljc5MyA1OS4wODMzIEwyNTAuMDExOSA1OS4wODMzIEwyNTAuMjMwOCA1OS4wODMzIEwyNTAuNDQ5NyA1OS4wODMzIEwyNTAuNjY4NiA1OS4wODMzIEwyNTAuODg3NiA1OS4wODMzIEwyNTEuMTA2NSA1OS4wODMzIEwyNTEuMzI1NCA1OS4wODMzIEwyNTEuNTQ0MyA1OS4wODMzIEwyNTEuNzYzMiA1OS4wODMzIEwyNTEuOTgyMiA1OS4wODMzIEwyNTIuMjAxMSA1OS4wODMzIEwyNTIuNDIgNTkuMDgzMyBMMjUyLjYzODkgNTkuMDgzMyBMMjUyLjg1NzggNTkuMDgzMyBMMjUzLjA3NjggNTkuMDgzMyBMMjUzLjI5NTcgNTkuMDgzMyBMMjUzLjUxNDYgNTkuMDgzMyBMMjUzLjczMzUgNTkuMDgzMyBMMjUzLjk1MjUgNTkuMDgzMyBMMjU0LjE3MTQgNTkuMDgzMyBMMjU0LjM5MDMgNTkuMDgzMyBMMjU0LjYwOTIgNTkuMDgzMyBMMjU0LjgyODEgNTkuMDgzMyBMMjU1LjA0NzEgNTkuMDgzMyBMMjU1LjI2NiA1OS4wODMzIEwyNTUuNDg0OSA1OS4wODMzIEwyNTUuNzAzOCA1OS4wODMzIEwyNTUuOTIyNyA1OS4wODMzIEwyNTYuMTQxNyA1OS4wODMzIEwyNTYuMzYwNiA1OS4wODMzIEwyNTYuNTc5NSA1OS4wODMzIEwyNTYuNzk4NCA1OS4wODMzIEwyNTcuMDE3MyA1OS4wODMzIEwyNTcuMjM2MyA1OS4wODMzIEwyNTcuNDU1MiA1OS4wODMzIEwyNTcuNjc0MSA1OS4wODMzIEwyNTcuODkzIDU5LjA4MzMgTDI1OC4xMTE5IDU5LjA4MzMgTDI1OC4zMzA5IDU5LjA4MzMgTDI1OC41NDk4IDU5LjA4MzMgTDI1OC43Njg3IDU5LjA4MzMgTDI1OC45ODc2IDU5LjA4MzMgTDI1OS4yMDY1IDU5LjA4MzMgTDI1OS40MjU0IDU5LjA4MzMgTDI1OS42NDQ0IDU5LjA4MzMgTDI1OS44NjMzIDU5LjA4MzMgTDI2MC4wODIyIDU5LjA4MzMgTDI2MC4zMDExIDU5LjA4MzMgTDI2MC41MjAxIDU5LjA4MzMgTDI2MC43MzkgNTkuMDgzMyBMMjYwLjk1NzkgNTkuMDgzMyBMMjYxLjE3NjggNTkuMDgzMyBMMjYxLjM5NTcgNTkuMDgzMyBMMjYxLjYxNDcgNTkuMDgzMyBMMjYxLjgzMzYgNTkuMDgzMyBMMjYyLjA1MjUgNTkuMDgzMyBMMjYyLjI3MTQgNTkuMDgzMyBMMjYyLjQ5MDMgNTkuMDgzMyBMMjYyLjcwOTMgNTkuMDgzMyBMMjYyLjkyODIgNTkuMDgzMyBMMjYzLjE0NzEgNTkuMDgzMyBMMjYzLjM2NiA1OS4wODMzIEwyNjMuNTg0OSA1OS4wODMzIEwyNjMuODAzOSA1OS4wODMzIEwyNjQuMDIyOCA1OS4wODMzIEwyNjQuMjQxNyA1OS4wODMzIEwyNjQuNDYwNiA1OS4wODMzIEwyNjQuNjc5NSA1OS4wODMzIEwyNjQuODk4NSA1OS4wODMzIEwyNjUuMTE3NCA1OS4wODMzIEwyNjUuMzM2MyA1OS4wODMzIEwyNjUuNTU1MiA1OS4wODMzIEwyNjUuNzc0MSA1OS4wODMzIEwyNjUuOTkzMSA1OS4wODMzIEwyNjYuMjEyIDU5LjA4MzMgTDI2Ni40MzA5IDU5LjA4MzMgTDI2Ni42NDk4IDU5LjA4MzMgTDI2Ni44Njg3IDU5LjA4MzMgTDI2Ny4wODc3IDU5LjA4MzMgTDI2Ny4zMDY2IDU5LjA4MzMgTDI2Ny41MjU1IDU5LjA4MzMgTDI2Ny43NDQ0IDU5LjA4MzMgTDI2Ny45NjMzIDU5LjA4MzMgTDI2OC4xODIzIDU5LjA4MzMgTDI2OC40MDEyIDU5LjA4MzMgTDI2OC42MjAxIDU5LjA4MzMgTDI2OC44MzkgNTkuMDgzMyBMMjY5LjA1OCA1OS4wODMzIEwyNjkuMjc2OSA1OS4wODMzIEwyNjkuNDk1OCA1OS4wODMzIEwyNjkuNzE0NyA1OS4wODMzIEwyNjkuOTMzNiA1OS4wODMzIEwyNzAuMTUyNiA1OS4wODMzIEwyNzAuMzcxNSA1OS4wODMzIEwyNzAuNTkwNCA1OS4wODMzIEwyNzAuODA5MyA1OS4wODMzIEwyNzEuMDI4MiA1OS4wODMzIEwyNzEuMjQ3MSA1OS4wODMzIEwyNzEuNDY2MSA1OS4wODMzIEwyNzEuNjg1IDU5LjA4MzMgTDI3MS45MDM5IDU5LjA4MzMgTDI3Mi4xMjI4IDU5LjA4MzMgTDI3Mi4zNDE4IDU5LjA4MzMgTDI3Mi41NjA3IDU5LjA4MzMgTDI3Mi43Nzk2IDU5LjA4MzMgTDI3Mi45OTg1IDU5LjA4MzMgTDI3My4yMTc0IDU5LjA4MzMgTDI3My40MzY0IDU5LjA4MzMgTDI3My42NTUzIDU5LjA4MzMgTDI3My44NzQyIDU5LjA4MzMgTDI3NC4wOTMxIDU5LjA4MzMgTDI3NC4zMTIgNTkuMDgzMyBMMjc0LjUzMDkgNTkuMDgzMyBMMjc0Ljc0OTkgNTkuMDgzMyBMMjc0Ljk2ODggNTkuMDgzMyBMMjc1LjE4NzcgNTkuMDgzMyBMMjc1LjQwNjYgNTkuMDgzMyBMMjc1LjYyNTUgNTkuMDgzMyBMMjc1Ljg0NDUgNTkuMDgzMyBMMjc2LjA2MzQgNTkuMDgzMyBMMjc2LjI4MjMgNTkuMDgzMyBMMjc2LjUwMTIgNTkuMDgzMyBMMjc2LjcyMDIgNTkuMDgzMyBMMjc2LjkzOTEgNTkuMDgzMyBMMjc3LjE1OCA1OS4wODMzIEwyNzcuMzc2OSA1OS4wODMzIEwyNzcuNTk1OCA1OS4wODMzIEwyNzcuODE0OCA1OS4wODMzIEwyNzguMDMzNyA1OS4wODMzIEwyNzguMjUyNiA1OS4wODMzIEwyNzguNDcxNSA1OS4wODMzIEwyNzguNjkwNCA1OS4wODMzIEwyNzguOTA5NCA1OS4wODMzIEwyNzkuMTI4MyA1OS4wODMzIEwyNzkuMzQ3MiA1OS4wODMzIEwyNzkuNTY2MSA1OS4wODMzIEwyNzkuNzg1IDU5LjA4MzMgTDI4MC4wMDQgNTkuMDgzMyBMMjgwLjIyMjkgNTkuMDgzMyBMMjgwLjQ0MTggNTkuMDgzMyBMMjgwLjY2MDcgNTkuMDgzMyBMMjgwLjg3OTYgNTkuMDgzMyBMMjgxLjA5ODYgNTkuMDgzMyBMMjgxLjMxNzUgNTkuMDgzMyBMMjgxLjUzNjQgNTkuMDgzMyBMMjgxLjc1NTMgNTkuMDgzMyBMMjgxLjk3NDIgNTkuMDgzMyBMMjgyLjE5MzIgNTkuMDgzMyBMMjgyLjQxMjEgNTkuMDgzMyBMMjgyLjYzMSA1OS4wODMzIEwyODIuODQ5OSA1OS4wODMzIEwyODMuMDY4OCA1OS4wODMzIEwyODMuMjg3OCA1OS4wODMzIEwyODMuNTA2NyA1OS4wODMzIEwyODMuNzI1NiA1OS4wODMzIEwyODMuOTQ0NSA1OS4wODMzIEwyODQuMTYzNSA1OS4wODMzIEwyODQuMzgyNCA1OS4wODMzIEwyODQuNjAxMyA1OS4wODMzIEwyODQuODIwMiA1OS4wODMzIEwyODUuMDM5MSA1OS4wODMzIEwyODUuMjU4MSA1OS4wODMzIEwyODUuNDc3IDU5LjA4MzMgTDI4NS42OTU5IDU5LjA4MzMgTDI4NS45MTQ4IDU5LjA4MzMgTDI4Ni4xMzM3IDU5LjA4MzMgTDI4Ni4zNTI2IDU5LjA4MzMgTDI4Ni41NzE2IDU5LjA4MzMgTDI4Ni43OTA1IDU5LjA4MzMgTDI4Ny4wMDk0IDU5LjA4MzMgTDI4Ny4yMjgzIDU5LjA4MzMgTDI4Ny40NDczIDU5LjA4MzMgTDI4Ny42NjYyIDU5LjA4MzMgTDI4Ny44ODUxIDU5LjA4MzMgTDI4OC4xMDQgNTkuMDgzMyBMMjg4LjMyMjkgNTkuMDgzMyBMMjg4LjU0MTkgNTkuMDgzMyBMMjg4Ljc2MDggNTkuMDgzMyBMMjg4Ljk3OTcgNTkuMDgzMyBMMjg5LjE5ODYgNTkuMDgzMyBMMjg5LjQxNzUgNTkuMDgzMyBMMjg5LjYzNjQgNTkuMDgzMyBMMjg5Ljg1NTQgNTkuMDgzMyBMMjkwLjA3NDMgNTkuMDgzMyBMMjkwLjI5MzIgNTkuMDgzMyBMMjkwLjUxMjEgNTkuMDgzMyBMMjkwLjczMSA1OS4wODMzIEwyOTAuOTUgNTkuMDgzMyBMMjkxLjE2ODkgNTkuMDgzMyBMMjkxLjM4NzggNTkuMDgzMyBMMjkxLjYwNjcgNTkuMDgzMyBMMjkxLjgyNTcgNTkuMDgzMyBMMjkyLjA0NDYgNTkuMDgzMyBMMjkyLjI2MzUgNTkuMDgzMyBMMjkyLjQ4MjQgNTkuMDgzMyBMMjkyLjcwMTMgNTkuMDgzMyBMMjkyLjkyMDMgNTkuMDgzMyBMMjkzLjEzOTIgNTkuMDgzMyBMMjkzLjM1ODEgNTkuMDgzMyBMMjkzLjU3NyA1OS4wODMzIEwyOTMuNzk1OSA1OS4wODMzIEwyOTQuMDE0OSA1OS4wODMzIEwyOTQuMjMzOCA1OS4wODMzIEwyOTQuNDUyNyA1OS4wODMzIEwyOTQuNjcxNiA1OS4wODMzIEwyOTQuODkwNSA1OS4wODMzIEwyOTUuMTA5NSA1OS4wODMzIEwyOTUuMzI4NCA1OS4wODMzIEwyOTUuNTQ3MyA1OS4wODMzIEwyOTUuNzY2MiA1OS4wODMzIEwyOTUuOTg1MSA1OS4wODMzIEwyOTYuMjA0MSA1OS4wODMzIEwyOTYuNDIzIDU5LjA4MzMgTDI5Ni42NDE5IDU5LjA4MzMgTDI5Ni44NjA4IDU5LjA4MzMgTDI5Ny4wNzk3IDU5LjA4MzMgTDI5Ny4yOTg2IDU5LjA4MzMgTDI5Ny41MTc2IDU5LjA4MzMgTDI5Ny43MzY1IDU5LjA4MzMgTDI5Ny45NTU0IDU5LjA4MzMgTDI5OC4xNzQzIDU5LjA4MzMgTDI5OC4zOTMzIDU5LjA4MzMgTDI5OC42MTIyIDU5LjA4MzMgTDI5OC44MzExIDU5LjA4MzMgTDI5OS4wNSA1OS4wODMzIEwyOTkuMjY4OSA1OS4wODMzIEwyOTkuNDg3OSA1OS4wODMzIEwyOTkuNzA2OCA1OS4wODMzIEwyOTkuOTI1NyA1OS4wODMzIEwzMDAuMTQ0NiA1OS4wODMzIEwzMDAuMzYzNiA1OS4wODMzIEwzMDAuNTgyNSA1OS4wODMzIEwzMDAuODAxNCA1OS4wODMzIEwzMDEuMDIwMyA1OS4wODMzIEwzMDEuMjM5MiA1OS4wODMzIEwzMDEuNDU4MSA1OS4wODMzIEwzMDEuNjc3MSA1OS4wODMzIEwzMDEuODk2IDU5LjA4MzMgTDMwMi4xMTQ5IDU5LjA4MzMgTDMwMi4zMzM4IDU5LjA4MzMgTDMwMi41NTI3IDU5LjA4MzMgTDMwMi43NzE3IDU5LjA4MzMgTDMwMi45OTA2IDU5LjA4MzMgTDMwMy4yMDk1IDU5LjA4MzMgTDMwMy40Mjg0IDU5LjA4MzMgTDMwMy42NDc0IDU5LjA4MzMgTDMwMy44NjYzIDU5LjA4MzMgTDMwNC4wODUyIDU5LjA4MzMgTDMwNC4zMDQxIDU5LjA4MzMgTDMwNC41MjMgNTkuMDgzMyBMMzA0Ljc0MTkgNTkuMDgzMyBMMzA0Ljk2MDkgNTkuMDgzMyBMMzA1LjE3OTggNTkuMDgzMyBMMzA1LjM5ODcgNTkuMDgzMyBMMzA1LjYxNzYgNTkuMDgzMyBMMzA1LjgzNjUgNTkuMDgzMyBMMzA2LjA1NTUgNTkuMDgzMyBMMzA2LjI3NDQgNTkuMDgzMyBMMzA2LjQ5MzMgNTkuMDgzMyBMMzA2LjcxMjIgNTkuMDgzMyBMMzA2LjkzMTIgNTkuMDgzMyBMMzA3LjE1MDEgNTkuMDgzMyBMMzA3LjM2OSA1OS4wODMzIEwzMDcuNTg3OSA1OS4wODMzIEwzMDcuODA2OCA1OS4wODMzIEwzMDguMDI1OCA1OS4wODMzIEwzMDguMjQ0NyA1OS4wODMzIEwzMDguNDYzNiA1OS4wODMzIEwzMDguNjgyNSA1OS4wODMzIEwzMDguOTAxNCA1OS4wODMzIEwzMDkuMTIwMyA1OS4wODMzIEwzMDkuMzM5MyA1OS4wODMzIEwzMDkuNTU4MiA1OS4wODMzIEwzMDkuNzc3MSA1OS4wODMzIEwzMDkuOTk2IDU5LjA4MzMgTDMxMC4yMTUgNTkuMDgzMyBMMzEwLjQzMzkgNTkuMDgzMyBMMzEwLjY1MjggNTkuMDgzMyBMMzEwLjg3MTcgNTkuMDgzMyBMMzExLjA5MDYgNTkuMDgzMyBMMzExLjMwOTYgNTkuMDgzMyBMMzExLjUyODUgNTkuMDgzMyBMMzExLjc0NzQgNTkuMDgzMyBMMzExLjk2NjMgNTkuMDgzMyBMMzEyLjE4NTIgNTkuMDgzMyBMMzEyLjQwNDEgNTkuMDgzMyBMMzEyLjYyMzEgNTkuMDgzMyBMMzEyLjg0MiA1OS4wODMzIEwzMTMuMDYwOSA1OS4wODMzIEwzMTMuMjc5OCA1OS4wODMzIEwzMTMuNDk4OCA1OS4wODMzIEwzMTMuNzE3NyA1OS4wODMzIEwzMTMuOTM2NiA1OS4wODMzIEwzMTQuMTU1NSA1OS4wODMzIEwzMTQuMzc0NCA1OS4wODMzIEwzMTQuNTkzNCA1OS4wODMzIEwzMTQuODEyMyA1OS4wODMzIEwzMTUuMDMxMiA1OS4wODMzIEwzMTUuMjUwMSA1OS4wODMzIEwzMTUuNDY5MSA1OS4wODMzIEwzMTUuNjg4IDU5LjA4MzMgTDMxNS45MDY5IDU5LjA4MzMgTDMxNi4xMjU4IDU5LjA4MzMgTDMxNi4zNDQ3IDU5LjA4MzMgTDMxNi41NjM2IDU5LjA4MzMgTDMxNi43ODI2IDU5LjA4MzMgTDMxNy4wMDE1IDU5LjA4MzMgTDMxNy4yMjA0IDU5LjA4MzMgTDMxNy40MzkzIDU5LjA4MzMgTDMxNy42NTgyIDU5LjA4MzMgTDMxNy44NzcyIDU5LjA4MzMgTDMxOC4wOTYxIDU5LjA4MzMgTDMxOC4zMTUgNTkuMDgzMyBMMzE4LjUzMzkgNTkuMDgzMyBMMzE4Ljc1MjkgNTkuMDgzMyBMMzE4Ljk3MTggNTkuMDgzMyBMMzE5LjE5MDcgNTkuMDgzMyBMMzE5LjQwOTYgNTkuMDgzMyBMMzE5LjYyODUgNTkuMDgzMyBMMzE5Ljg0NzQgNTkuMDgzMyBMMzIwLjA2NjQgNTkuMDgzMyBMMzIwLjI4NTMgNTkuMDgzMyBMMzIwLjUwNDIgNTkuMDgzMyBMMzIwLjcyMzEgNTkuMDgzMyBMMzIwLjk0MiA1OS4wODMzIEwzMjEuMTYxIDU5LjA4MzMgTDMyMS4zNzk5IDU5LjA4MzMgTDMyMS41OTg4IDU5LjA4MzMgTDMyMS44MTc3IDU5LjA4MzMgTDMyMi4wMzY3IDU5LjA4MzMgTDMyMi4yNTU2IDU5LjA4MzMgTDMyMi40NzQ1IDU5LjA4MzMgTDMyMi42OTM0IDU5LjA4MzMgTDMyMi45MTIzIDU5LjA4MzMgTDMyMy4xMzEzIDU5LjA4MzMgTDMyMy4zNTAyIDU5LjA4MzMgTDMyMy41NjkxIDU5LjA4MzMgTDMyMy43ODggNTkuMDgzMyBMMzI0LjAwNjkgNTkuMDgzMyBMMzI0LjIyNTggNTkuMDgzMyBMMzI0LjQ0NDggNTkuMDgzMyBMMzI0LjY2MzcgNTkuMDgzMyBMMzI0Ljg4MjYgNTkuMDgzMyBMMzI1LjEwMTUgNTkuMDgzMyBMMzI1LjMyMDUgNTkuMDgzMyBMMzI1LjUzOTQgNTkuMDgzMyBMMzI1Ljc1ODMgNTkuMDgzMyBMMzI1Ljk3NzIgNTkuMDgzMyBMMzI2LjE5NjEgNTkuMDgzMyBMMzI2LjQxNTEgNTkuMDgzMyBMMzI2LjYzNCA1OS4wODMzIEwzMjYuODUyOSA1OS4wODMzIEwzMjcuMDcxOCA1OS4wODMzIEwzMjcuMjkwNyA1OS4wODMzIEwzMjcuNTA5NiA1OS4wODMzIEwzMjcuNzI4NiA1OS4wODMzIEwzMjcuOTQ3NSA1OS4wODMzIEwzMjguMTY2NCA1OS4wODMzIEwzMjguMzg1MyA1OS4wODMzIEwzMjguNjA0MyA1OS4wODMzIEwzMjguODIzMiA1OS4wODMzIEwzMjkuMDQyMSA1OS4wODMzIEwzMjkuMjYxIDU5LjA4MzMgTDMyOS40Nzk5IDU5LjA4MzMgTDMyOS42OTg5IDU5LjA4MzMgTDMyOS45MTc4IDU5LjA4MzMgTDMzMC4xMzY3IDU5LjA4MzMgTDMzMC4zNTU2IDU5LjA4MzMgTDMzMC41NzQ2IDU5LjA4MzMgTDMzMC43OTM1IDU5LjA4MzMgTDMzMS4wMTI0IDU5LjA4MzMgTDMzMS4yMzEzIDU5LjA4MzMgTDMzMS40NTAyIDU5LjA4MzMgTDMzMS42NjkxIDU5LjA4MzMgTDMzMS44ODgxIDU5LjA4MzMgTDMzMi4xMDcgNTkuMDgzMyBMMzMyLjMyNTkgNTkuMDgzMyBMMzMyLjU0NDggNTkuMDgzMyBMMzMyLjc2MzcgNTkuMDgzMyBMMzMyLjk4MjcgNTkuMDgzMyBMMzMzLjIwMTYgNTkuMDgzMyBMMzMzLjQyMDUgNTkuMDgzMyBMMzMzLjYzOTQgNTkuMDgzMyBMMzMzLjg1ODMgNTkuMDgzMyBMMzM0LjA3NzIgNTkuMDgzMyBMMzM0LjI5NjIgNTkuMDgzMyBMMzM0LjUxNTEgNTkuMDgzMyBMMzM0LjczNCA1OS4wODMzIEwzMzQuOTUyOSA1OS4wODMzIEwzMzUuMTcxOSA1OS4wODMzIEwzMzUuMzkwOCA1OS4wODMzIEwzMzUuNjA5NyA1OS4wODMzIEwzMzUuODI4NiA1OS4wODMzIEwzMzYuMDQ3NSA1OS4wODMzIEwzMzYuMjY2NSA1OS4wODMzIEwzMzYuNDg1NCA1OS4wODMzIEwzMzYuNzA0MyA1OS4wODMzIEwzMzYuOTIzMiA1OS4wODMzIEwzMzcuMTQyMiA1OS4wODMzIEwzMzcuMzYxMSA1OS4wODMzIEwzMzcuNTggNTkuMDgzMyBMMzM3Ljc5ODkgNTkuMDgzMyBMMzM4LjAxNzggNTkuMDgzMyBMMzM4LjIzNjggNTkuMDgzMyBMMzM4LjQ1NTcgNTkuMDgzMyBMMzM4LjY3NDYgNTkuMDgzMyBMMzM4Ljg5MzUgNTkuMDgzMyBMMzM5LjExMjQgNTkuMDgzMyBMMzM5LjMzMTMgNTkuMzYxNSBMMzM5LjU1MDMgNTkuODI1MiBMMzM5Ljc2OTIgNjAuMjg4OCBMMzM5Ljk4ODEgNjAuNzUyNSBMMzQwLjIwNyA2MS4yMTYxIEwzNDAuNDI2IDYxLjY3OTggTDM0MC42NDQ5IDYyLjE0MzQgTDM0MC44NjM4IDYyLjYwNzEgTDM0MS4wODI3IDYzLjA3MDcgTDM0MS4zMDE2IDYzLjUzNDQgTDM0MS41MjA1IDYzLjk5OCBMMzQxLjczOTUgNjQuNDYxNyBMMzQxLjk1ODQgNjQuOTI1MyBMMzQyLjE3NzMgNjUuMzg5IEwzNDIuMzk2MiA2NS44NTI2IEwzNDIuNjE1MSA2Ni4zMTYzIEwzNDIuODM0MSA2Ni43Nzk5IEwzNDMuMDUzIDY3LjI0MzYgTDM0My4yNzE5IDY3LjcwNzIgTDM0My40OTA4IDY4LjE3MDkgTDM0My43MDk4IDY4LjYzNDUgTDM0My45Mjg3IDY5LjA5ODIgTDM0NC4xNDc2IDY5LjU2MTggTDM0NC4zNjY1IDcwLjAyNTUgTDM0NC41ODU0IDcwLjQ4OTIgTDM0NC44MDQ0IDcwLjk1MjggTDM0NS4wMjMzIDcxLjQxNjQgTDM0NS4yNDIyIDcxLjg4MDEgTDM0NS40NjExIDcyLjM0MzcgTDM0NS42ODAxIDcyLjgwNzQgTDM0NS44OTkgNzMuMjcxIEwzNDYuMTE3OSA3My43MzQ3IEwzNDYuMzM2OCA3NC4xOTg0IEwzNDYuNTU1NyA3NC42NjIgTDM0Ni43NzQ2IDc1LjEyNTYgTDM0Ni45OTM2IDc1LjU4OTMgTDM0Ny4yMTI1IDc2LjA1MjkgTDM0Ny40MzE0IDc2LjUxNjYgTDM0Ny42NTAzIDc2Ljk4MDMgTDM0Ny44NjkyIDc3LjQ0MzkgTDM0OC4wODgyIDc3LjkwNzYgTDM0OC4zMDcxIDc4LjM3MTIgTDM0OC41MjYgNzguODM0OSBMMzQ4Ljc0NDkgNzkuMjk4NSBMMzQ4Ljk2MzggNzkuNzYyMiBMMzQ5LjE4MjcgODAuMjI1OCBMMzQ5LjQwMTcgODAuNjg5NSBMMzQ5LjYyMDYgODEuMTUzMSBMMzQ5LjgzOTUgODEuNjE2OCBMMzUwLjA1ODQgODIuMDgwNCBMMzUwLjI3NzQgODIuNTQ0MSBMMzUwLjQ5NjMgODMuMDA3NyBMMzUwLjcxNTIgODMuNDcxNCBMMzUwLjkzNDEgODMuOTM1IEwzNTEuMTUzIDg0LjM5ODcgTDM1MS4zNzIgODQuODYyMyBMMzUxLjU5MDkgODUuMzI2IEwzNTEuODA5OCA4NS43ODk2IEwzNTIuMDI4NyA4Ni4yNTMzIEwzNTIuMjQ3NyA4Ni43MTY5IEwzNTIuNDY2NiA4Ny4xODA2IEwzNTIuNjg1NSA4Ny42NDQyIEwzNTIuOTA0NCA4OC4xMDc5IEwzNTMuMTIzMyA4OC41NzE1IEwzNTMuMzQyMyA4OS4wMzUyIEwzNTMuNTYxMiA4OS40OTg4IEwzNTMuNzgwMSA4OS45NjI1IEwzNTMuOTk5IDkwLjQyNjEgTDM1NC4yMTc5IDkwLjg4OTggTDM1NC40MzY4IDkxLjM1MzQgTDM1NC42NTU4IDkxLjgxNzEgTDM1NC44NzQ3IDkyLjI4MDcgTDM1NS4wOTM2IDkyLjc0NDQgTDM1NS4zMTI1IDkzLjIwOCBMMzU1LjUzMTUgOTMuNjcxNyBMMzU1Ljc1MDQgOTQuMTM1MyBMMzU1Ljk2OTMgOTQuNTk5IEwzNTYuMTg4MiA5NS4wNjI2IEwzNTYuNDA3MSA5NS41MjYzIEwzNTYuNjI2IDk1Ljk4OTkgTDM1Ni44NDUgOTYuNDUzNiBMMzU3LjA2MzkgOTYuOTE3MiBMMzU3LjI4MjggOTcuMzgwOSBMMzU3LjUwMTcgOTcuODQ0NSBMMzU3LjcyMDYgOTguMzA4MiBMMzU3LjkzOTYgOTguNzcxOSBMMzU4LjE1ODUgOTkuMjM1NSBMMzU4LjM3NzQgOTkuNjk5MiBMMzU4LjU5NjMgMTAwLjE2MjggTDM1OC44MTUzIDEwMC42MjY0IEwzNTkuMDM0MiAxMDEuMDkwMSBMMzU5LjI1MzEgMTAxLjU1MzcgTDM1OS40NzIgMTAyLjAxNzQgTDM1OS42OTA5IDEwMi40ODExIEwzNTkuOTA5OSAxMDIuOTQ0NyBMMzYwLjEyODggMTAzLjQwODQgTDM2MC4zNDc3IDEwMy44NzIgTDM2MC41NjY2IDEwNC4zMzU3IEwzNjAuNzg1NiAxMDQuNzk5MyBMMzYxLjAwNDUgMTA1LjI2MyBMMzYxLjIyMzQgMTA1LjcyNjYgTDM2MS40NDIzIDEwNi4xOTAzIEwzNjEuNjYxMiAxMDYuNjUzOSBMMzYxLjg4MDEgMTA3LjExNzYgTDM2Mi4wOTkxIDEwNy41ODEyIEwzNjIuMzE4IDEwOC4wNDQ5IEwzNjIuNTM2OSAxMDguNTA4NSBMMzYyLjc1NTggMTA4Ljk3MjIgTDM2Mi45NzQ3IDEwOS40MzU4IEwzNjMuMTkzNyAxMDkuODk5NSBMMzYzLjQxMjYgMTEwLjM2MzEgTDM2My42MzE1IDExMC44MjY4IEwzNjMuODUwNCAxMTEuMjkwNCBMMzY0LjA2OTMgMTExLjc1NDEgTDM2NC4yODgyIDExMi4yMTc3IEwzNjQuNTA3MiAxMTIuNjgxNCBMMzY0LjcyNjEgMTEzLjE0NSBMMzY0Ljk0NSAxMTMuNjA4NyBMMzY1LjE2MzkgMTE0LjA3MjMgTDM2NS4zODI5IDExNC41MzYgTDM2NS42MDE4IDExNC45OTk2IEwzNjUuODIwNyAxMTUuNDYzMyBMMzY2LjAzOTYgMTE1LjkyNjkgTDM2Ni4yNTg1IDExNi4zOTA2IEwzNjYuNDc3NSAxMTYuODU0MiBMMzY2LjY5NjQgMTE3LjMxNzkgTDM2Ni45MTUzIDExNy43ODE1IEwzNjcuMTM0MiAxMTguMjQ1MiBMMzY3LjM1MzEgMTE4LjcwODggTDM2Ny41NzIxIDExOS4xNzI1IEwzNjcuNzkxIDExOS42MzYxIEwzNjguMDA5OSAxMjAuMDk5OCBMMzY4LjIyODggMTIwLjU2MzQgTDM2OC40NDc4IDEyMS4wMjcxIEwzNjguNjY2NyAxMjEuNDkwNyBMMzY4Ljg4NTYgMTIxLjk1NDQgTDM2OS4xMDQ1IDEyMi40MTggTDM2OS4zMjM0IDEyMi44ODE3IEwzNjkuNTQyMyAxMjMuMzQ1MyBMMzY5Ljc2MTMgMTIzLjgwOSBMMzY5Ljk4MDIgMTI0LjI3MjcgTDM3MC4xOTkxIDEyNC43MzYzIEwzNzAuNDE4IDEyNS4xOTk5IEwzNzAuNjM3IDEyNS42NjM2IEwzNzAuODU1OSAxMjYuMTI3MyBMMzcxLjA3NDggMTI2LjU5MDkgTDM3MS4yOTM3IDEyNy4wNTQ2IEwzNzEuNTEyNiAxMjcuNTE4MiBMMzcxLjczMTUgMTI3Ljk4MTkgTDM3MS45NTA1IDEyOC40NDU1IEwzNzIuMTY5NCAxMjguOTA5MSBMMzcyLjM4ODMgMTI5LjM3MjggTDM3Mi42MDcyIDEyOS44MzY1IEwzNzIuODI2MSAxMzAuMzAwMSBMMzczLjA0NTEgMTMwLjc2MzggTDM3My4yNjQgMTMxLjIyNzQgTDM3My40ODI5IDEzMS42OTExIEwzNzMuNzAxOCAxMzIuMTU0NyBMMzczLjkyMDggMTMyLjYxODQgTDM3NC4xMzk3IDEzMy4wODIgTDM3NC4zNTg2IDEzMy41NDU3IEwzNzQuNTc3NSAxMzQuMDA5MyBMMzc0Ljc5NjQgMTM0LjQ3MyBMMzc1LjAxNTQgMTM0LjkzNjYgTDM3NS4yMzQzIDEzNS40MDAzIEwzNzUuNDUzMiAxMzUuODYzOSBMMzc1LjY3MjEgMTM2LjMyNzYgTDM3NS44OTExIDEzNi43OTEyIEwzNzYuMTEgMTM3LjI1NDkgTDM3Ni4zMjg5IDEzNy43MTg1IEwzNzYuNTQ3OCAxMzguMTgyMiBMMzc2Ljc2NjcgMTM4LjY0NTggTDM3Ni45ODU2IDEzOS4xMDk1IEwzNzcuMjA0NiAxMzkuNTczMSBMMzc3LjQyMzUgMTQwLjAzNjggTDM3Ny42NDI0IDE0MC41MDA0IEwzNzcuODYxMyAxNDAuOTY0MSBMMzc4LjA4MDIgMTQxLjQyNzcgTDM3OC4yOTkyIDE0MS44OTE0IEwzNzguNTE4MSAxNDIuMzU1IEwzNzguNzM3IDE0Mi44MTg3IEwzNzguOTU1OSAxNDMuMjgyMyBMMzc5LjE3NDggMTQzLjc0NiBMMzc5LjM5MzcgMTQ0LjIwOTYgTDM3OS42MTI3IDE0NC42NzMzIEwzNzkuODMxNiAxNDUuMTM2OSBMMzgwLjA1MDUgMTQ1LjYwMDYgTDM4MC4yNjk0IDE0Ni4wNjQyIEwzODAuNDg4NCAxNDYuNTI3OSBMMzgwLjcwNzMgMTQ2Ljk5MTUgTDM4MC45MjYyIDE0Ny40NTUyIEwzODEuMTQ1MSAxNDcuOTE4OCBMMzgxLjM2NCAxNDguMzgyNSBMMzgxLjU4MyAxNDguODQ2MSBMMzgxLjgwMTkgMTQ5LjMwOTggTDM4Mi4wMjA4IDE0OS43NzM0IEwzODIuMjM5NyAxNTAuMjM3MSBMMzgyLjQ1ODYgMTUwLjcwMDcgTDM4Mi42Nzc2IDE1MS4xNjQ0IEwzODIuODk2NSAxNTEuNjI4MSBMMzgzLjExNTQgMTUyLjA5MTcgTDM4My4zMzQzIDE1Mi41NTU0IEwzODMuNTUzMyAxNTMuMDE5IEwzODMuNzcyMiAxNTMuNDgyNyBMMzgzLjk5MTEgMTUzLjk0NjMgTDM4NC4yMSAxNTQuNDA5OSBMMzg0LjQyODkgMTU0Ljg3MzYgTDM4NC42NDc4IDE1NS4zMzcyIEwzODQuODY2OCAxNTUuODAwOSBMMzg1LjA4NTcgMTU2LjI2NDYgTDM4NS4zMDQ2IDE1Ni43MjgyIEwzODUuNTIzNSAxNTcuMTkxOSBMMzg1Ljc0MjUgMTU3LjY1NTUgTDM4NS45NjE0IDE1OC4xMTkyIEwzODYuMTgwMyAxNTguNTgyOCBMMzg2LjM5OTIgMTU5LjA0NjUgTDM4Ni42MTgxIDE1OS41MTAxIEwzODYuODM3IDE1OS45NzM4IEwzODcuMDU2IDE2MC40Mzc0IEwzODcuMjc0OSAxNjAuOTAxMSBMMzg3LjQ5MzggMTYxLjM2NDcgTDM4Ny43MTI3IDE2MS44Mjg0IEwzODcuOTMxNiAxNjIuMjkyIEwzODguMTUwNiAxNjIuNzU1NyBMMzg4LjM2OTUgMTYzLjIxOTMgTDM4OC41ODg0IDE2My42ODMgTDM4OC44MDczIDE2NC4xNDY2IEwzODkuMDI2MyAxNjQuNjEwMyBMMzg5LjI0NTIgMTY1LjA3MzkgTDM4OS40NjQxIDE2NS41Mzc2IEwzODkuNjgzIDE2Ni4wMDEyIEwzODkuOTAxOSAxNjYuNDY0OSBMMzkwLjEyMDggMTY2LjkyODUgTDM5MC4zMzk4IDE2Ny4zOTIyIEwzOTAuNTU4NyAxNjcuODU1OCBMMzkwLjc3NzYgMTY4LjMxOTUgTDM5MC45OTY2IDE2OC43ODMxIEwzOTEuMjE1NSAxNjkuMjQ2OCBMMzkxLjQzNDQgMTY5LjcxMDQgTDM5MS42NTMzIDE3MC4xNzQxIEwzOTEuODcyMiAxNzAuNjM3NyBMMzkyLjA5MTEgMTcxLjEwMTQgTDM5Mi4zMTAxIDE3MS41NjUgTDM5Mi41MjkgMTcyLjAyODcgTDM5Mi43NDc5IDE3Mi40OTIzIEwzOTIuOTY2OCAxNzIuOTU2IEwzOTMuMTg1NyAxNzMuNDE5NiBMMzkzLjQwNDcgMTczLjg4MzMgTDM5My42MjM2IDE3NC4zNDY5IEwzOTMuODQyNSAxNzQuODEwNiBMMzk0LjA2MTQgMTc1LjI3NDIgTDM5NC4yODAzIDE3NS43Mzc5IEwzOTQuNDk5MiAxNzYuMjAxNSBMMzk0LjcxODIgMTc2LjY2NTIgTDM5NC45MzcxIDE3Ny4xMjg4IEwzOTUuMTU2IDE3Ny41OTI1IEwzOTUuMzc0OSAxNzguMDU2MSBMMzk1LjU5MzkgMTc4LjUxOTggTDM5NS44MTI4IDE3OC45ODM0IEwzOTYuMDMxNyAxNzkuNDQ3MSBMMzk2LjI1MDYgMTc5LjkxMDggTDM5Ni40Njk1IDE4MC4zNzQ0IEwzOTYuNjg4NSAxODAuODM4MSBMMzk2LjkwNzQgMTgxLjMwMTcgTDM5Ny4xMjYzIDE4MS43NjU0IEwzOTcuMzQ1MiAxODIuMjI5IEwzOTcuNTY0MSAxODIuNjkyNyBMMzk3Ljc4MzEgMTgzLjE1NjMgTDM5OC4wMDIgMTgzLjYxOTkgTDM5OC4yMjA5IDE4NC4wODM2IEwzOTguNDM5OCAxODQuNTQ3MyBMMzk4LjY1ODggMTg1LjAxMDkgTDM5OC44Nzc3IDE4NS40NzQ2IEwzOTkuMDk2NiAxODUuOTM4MiBMMzk5LjMxNTUgMTg2LjQwMTkgTDM5OS41MzQ0IDE4Ni44NjU1IEwzOTkuNzUzMyAxODcuMzI5MiBMMzk5Ljk3MjMgMTg3Ljc5MjggTDQwMC4xOTEyIDE4OC4yNTY1IEw0MDAuNDEwMSAxODguNzIwMSBMNDAwLjYyOSAxODkuMTgzOCBMNDAwLjg0OCAxODkuNjQ3NCBMNDAxLjA2NjkgMTkwLjExMTEgTDQwMS4yODU4IDE5MC41NzQ3IEw0MDEuNTA0NyAxOTEuMDM4NCBMNDAxLjcyMzYgMTkxLjUwMiBMNDAxLjk0MjUgMTkxLjk2NTcgTDQwMi4xNjE1IDE5Mi40MjkzIEw0MDIuMzgwNCAxOTIuODkzIEw0MDIuNTk5MyAxOTMuMzU2NiBMNDAyLjgxODIgMTkzLjgyMDMgTDQwMy4wMzcxIDE5NC4yODM5IEw0MDMuMjU2MSAxOTQuNzQ3NiBMNDAzLjQ3NSAxOTUuMjExMiBMNDAzLjY5MzkgMTk1LjY3NDkgTDQwMy45MTI4IDE5Ni4xMzg1IEw0MDQuMTMxNyAxOTYuNjAyMiBMNDA0LjM1MDYgMTk3LjA2NTggTDQwNC41Njk2IDE5Ny41Mjk1IEw0MDQuNzg4NSAxOTcuOTkzMSBMNDA1LjAwNzQgMTk4LjQ1NjggTDQwNS4yMjYzIDE5OC45MjA0IEw0MDUuNDQ1MyAxOTkuMzg0MSBMNDA1LjY2NDIgMTk5Ljg0NzcgTDQwNS44ODMxIDIwMC4zMTE0IEw0MDYuMTAyMSAyMDAuNzc1IEw0MDYuMzIxIDIwMS4yMzg3IEw0MDYuNTM5OSAyMDEuNzAyMyBMNDA2Ljc1ODggMjAyLjE2NiBMNDA2Ljk3NzcgMjAyLjYyOTYgTDQwNy4xOTY2IDIwMy4wOTMzIEw0MDcuNDE1NiAyMDMuNTU2OSBMNDA3LjYzNDUgMjA0LjAyMDYgTDQwNy44NTM0IDIwNC40ODQzIEw0MDguMDcyMyAyMDQuOTQ3OSBMNDA4LjI5MTIgMjA1LjQxMTUgTDQwOC41MTAyIDIwNS44NzUyIEw0MDguNzI5MSAyMDYuMzM4OSBMNDA4Ljk0OCAyMDYuODAyNSBMNDA5LjE2NjkgMjA3LjI2NjIgTDQwOS4zODU4IDIwNy43Mjk4IEw0MDkuNjA0NyAyMDguMTkzNSBMNDA5LjgyMzcgMjA4LjY1NzEgTDQxMC4wNDI2IDIwOS4xMjA4IEw0MTAuMjYxNSAyMDkuNTg0NCBMNDEwLjQ4MDQgMjEwLjA0OCBMNDEwLjY5OTQgMjEwLjUxMTcgTDQxMC45MTgzIDIxMC45NzU0IEw0MTEuMTM3MiAyMTEuNDM5IEw0MTEuMzU2MSAyMTEuOTAyNyBMNDExLjU3NSAyMTIuMzY2MyBMNDExLjc5MzkgMjEyLjgzIEw0MTIuMDEyOSAyMTMuMjkzNiBMNDEyLjIzMTggMjEzLjc1NzMgTDQxMi40NTA3IDIxNC4yMjA5IEw0MTIuNjY5NiAyMTQuNjg0NiBMNDEyLjg4ODUgMjE1LjE0ODIgTDQxMy4xMDc1IDIxNS42MTE5IEw0MTMuMzI2NCAyMTYuMDc1NSBMNDEzLjU0NTMgMjE2LjUzOTIgTDQxMy43NjQzIDIxNy4wMDI4IEw0MTMuOTgzMiAyMTcuNDY2NSBMNDE0LjIwMjEgMjE3LjkzMDEgTDQxNC40MjEgMjE4LjM5MzggTDQxNC42Mzk5IDIxOC44NTc0IEw0MTQuODU4OCAyMTkuMzIxMSBMNDE1LjA3NzggMjE5Ljc4NDcgTDQxNS4yOTY3IDIyMC4yNDg0IEw0MTUuNTE1NiAyMjAuNzEyIEw0MTUuNzM0NSAyMjEuMTc1NyBMNDE1Ljk1MzUgMjIxLjYzOTMgTDQxNi4xNzI0IDIyMi4xMDMgTDQxNi4zOTEzIDIyMi41NjY2IEw0MTYuNjEwMiAyMjMuMDMwMyBMNDE2LjgyOTEgMjIzLjQ5MzkgTDQxNy4wNDggMjIzLjk1NzYgTDQxNy4yNjcgMjI0LjQyMTIgTDQxNy40ODU5IDIyNC44ODQ5IEw0MTcuNzA0OCAyMjUuMzQ4NSBMNDE3LjkyMzcgMjI1LjgxMjIgTDQxOC4xNDI2IDIyNi4yNzU4IEw0MTguMzYxNiAyMjYuNzM5NSBMNDE4LjU4MDUgMjI3LjIwMzEgTDQxOC43OTk0IDIyNy42NjY4IEw0MTkuMDE4MyAyMjguMTMwNCBMNDE5LjIzNzIgMjI4LjU5NDEgTDQxOS40NTYxIDIyOS4wNTc3IEw0MTkuNjc1MSAyMjkuNTIxNCBMNDE5Ljg5NCAyMjkuOTg1IEw0MjAuMTEyOSAyMzAuNDQ4NyBMNDIwLjMzMTggMjMwLjkxMjMgTDQyMC41NTA4IDIzMS4zNzYgTDQyMC43Njk3IDIzMS44Mzk2IEw0MjAuOTg4NiAyMzIuMzAzMyBMNDIxLjIwNzYgMjMyLjc2NyBMNDIxLjQyNjUgMjMzLjIzMDYgTDQyMS42NDU0IDIzMy42OTQzIEw0MjEuODY0MyAyMzQuMTU3OSBMNDIyLjA4MzIgMjM0LjYyMTYgTDQyMi4zMDIxIDIzNS4wODUyIEw0MjIuNTIxMSAyMzUuNTQ4OSBMNDIyLjc0IDIzNi4wMTI1IEw0MjIuOTU4OSAyMzYuNDc2MiBMNDIzLjE3NzggMjM2LjkzOTggTDQyMy4zOTY3IDIzNy40MDM1IEw0MjMuNjE1NyAyMzcuODY3MSBMNDIzLjgzNDYgMjM4LjMzMDggTDQyNC4wNTM1IDIzOC43OTQ0IEw0MjQuMjcyNCAyMzkuMjU4MSBMNDI0LjQ5MTMgMjM5LjcyMTcgTDQyNC43MTAyIDI0MC4xODU0IEw0MjQuOTI5MiAyNDAuNjQ5IEw0MjUuMTQ4MSAyNDEuMTEyNyBMNDI1LjM2NyAyNDEuNTc2MyBMNDI1LjU4NTkgMjQyLjA0IEw0MjUuODA0OSAyNDIuNTAzNiBMNDI2LjAyMzggMjQyLjk2NzMgTDQyNi4yNDI3IDI0My40MzA5IEw0MjYuNDYxNiAyNDMuODk0NiBMNDI2LjY4MDUgMjQ0LjM1ODIgTDQyNi44OTk0IDI0NC44MjE5IEw0MjcuMTE4NCAyNDUuMjg1NSBMNDI3LjMzNzMgMjQ1Ljc0OTIgTDQyNy41NTYyIDI0Ni4yMTI4IEw0MjcuNzc1MSAyNDYuNjc2NSBMNDI3Ljk5NCAyNDcuMTQwMSBMNDI4LjIxMyAyNDcuNjAzOCBMNDI4LjQzMTkgMjQ4LjA2NzQgTDQyOC42NTA4IDI0OC41MzExIEw0MjguODY5OCAyNDguOTk0NyBMNDI5LjA4ODcgMjQ5LjQ1ODQgTDQyOS4zMDc2IDI0OS45MjIgTDQyOS41MjY1IDI1MC4zODU3IEw0MjkuNzQ1NCAyNTAuODQ5MyBMNDI5Ljk2NDMgMjUxLjMxMyBMNDMwLjE4MzMgMjUxLjc3NjYgTDQzMC40MDIyIDI1Mi4yNDAzIEw0MzAuNjIxMSAyNTIuNzAzOSBMNDMwLjg0IDI1My4xNjc2IEw0MzEuMDU5IDI1My42MzEyIEw0MzEuMjc3OSAyNTQuMDk0OSBMNDMxLjQ5NjggMjU0LjU1ODUgTDQzMS43MTU3IDI1NS4wMjIyIEw0MzEuOTM0NiAyNTUuNDg1OCBMNDMyLjE1MzUgMjU1Ljk0OTUgTDQzMi4zNzI1IDI1Ni40MTMxIEw0MzIuNTkxNCAyNTYuODc2OCBMNDMyLjgxMDMgMjU3LjM0MDUgTDQzMy4wMjkyIDI1Ny44MDQxIEw0MzMuMjQ4MSAyNTguMjY3OCBMNDMzLjQ2NzEgMjU4LjczMTQgTDQzMy42ODYgMjU5LjE5NSBMNDMzLjkwNDkgMjU5LjY1ODcgTDQzNC4xMjM4IDI2MC4xMjIzIEw0MzQuMzQyNyAyNjAuNTg2IEw0MzQuNTYxNiAyNjEuMDQ5NyBMNDM0Ljc4MDYgMjYxLjUxMzMgTDQzNC45OTk1IDI2MS45NzcgTDQzNS4yMTg0IDI2Mi40NDA2IEw0MzUuNDM3MyAyNjIuOTA0MyBMNDM1LjY1NjMgMjYzLjM2NzkgTDQzNS44NzUyIDI2My44MzE1IEw0MzYuMDk0MSAyNjQuMjk1MiBMNDM2LjMxMyAyNjQuNzU4OSBMNDM2LjUzMiAyNjUuMjIyNSBMNDM2Ljc1MDkgMjY1LjY4NjIgTDQzNi45Njk4IDI2Ni4xNDk4IEw0MzcuMTg4NyAyNjYuNjEzNSBMNDM3LjQwNzYgMjY3LjA3NzEgTDQzNy42MjY2IDI2Ny41NDA4IEw0MzcuODQ1NSAyNjguMDA0NCBMNDM4LjA2NDQgMjY4LjQ2ODEgTDQzOC4yODMzIDI2OC45MzE3IEw0MzguNTAyMiAyNjkuMzk1NCBMNDM4LjcyMTIgMjY5Ljg1OSBMNDM4Ljk0MDEgMjcwLjMyMjcgTDQzOS4xNTkgMjcwLjc4NjMgTDQzOS4zNzc5IDI3MS4yNSBMNDM5LjU5NjggMjcxLjcxMzYgTDQzOS44MTU3IDI3Mi4xNzczIEw0NDAuMDM0NyAyNzIuNjQwOSBMNDQwLjI1MzYgMjczLjEwNDYgTDQ0MC40NzI1IDI3My41NjgyIEw0NDAuNjkxNCAyNzQuMDMxOSBMNDQwLjkxMDQgMjc0LjQ5NTUgTDQ0MS4xMjkzIDI3NC45NTkyIEw0NDEuMzQ4MiAyNzUuNDIyOCBMNDQxLjU2NzEgMjc1Ljg4NjUgTDQ0MS43ODYgMjc2LjM1MDEgTDQ0Mi4wMDQ5IDI3Ni44MTM4IEw0NDIuMjIzOSAyNzcuMjc3NCBMNDQyLjQ0MjggMjc3Ljc0MTEgTDQ0Mi42NjE3IDI3OC4yMDQ3IEw0NDIuODgwNiAyNzguNjY4NCBMNDQzLjA5OTUgMjc5LjEzMiBMNDQzLjMxODUgMjc5LjU5NTcgTDQ0My41Mzc0IDI4MC4wNTkzIEw0NDMuNzU2MyAyODAuNTIzIEw0NDMuOTc1MyAyODAuOTg2NiBMNDQ0LjE5NDIgMjgxLjQ1MDMgTDQ0NC40MTMxIDI4MS45MTM5IEw0NDQuNjMyIDI4Mi4zNzc2IEw0NDQuODUwOSAyODIuODQxMiBMNDQ1LjA2OTggMjgzLjMwNDkgTDQ0NS4yODg4IDI4My43Njg2IEw0NDUuNTA3NyAyODQuMjMyMiBMNDQ1LjcyNjYgMjg0LjY5NTkgTDQ0NS45NDU1IDI4NS4xNTk1IEw0NDYuMTY0NCAyODUuNjIzMSBMNDQ2LjM4MzQgMjg2LjA4NjggTDQ0Ni42MDIzIDI4Ni41NTA0IEw0NDYuODIxMiAyODcuMDE0MSBMNDQ3LjA0MDEgMjg3LjQ3NzggTDQ0Ny4yNTkgMjg3Ljk0MTQgTDQ0Ny40Nzc5IDI4OC40MDUxIEw0NDcuNjk2OSAyODguODY4NyBMNDQ3LjkxNTggMjg5LjMzMjQgTDQ0OC4xMzQ3IDI4OS43OTYgTDQ0OC4zNTM2IDI5MC4yNTk3IEw0NDguNTcyNiAyOTAuNzIzMyBMNDQ4Ljc5MTUgMjkxLjE4NyBMNDQ5LjAxMDQgMjkxLjY1MDYgTDQ0OS4yMjkzIDI5Mi4xMTQzIEw0NDkuNDQ4MiAyOTIuNTc3OSBMNDQ5LjY2NzEgMjkzLjA0MTYgTDQ0OS44ODYxIDI5My41MDUyIEw0NTAuMTA1IDI5My45Njg5IEw0NTAuMzIzOSAyOTQuNDMyNSBMNDUwLjU0MjggMjk0Ljg5NjIgTDQ1MC43NjE3IDI5NS4zNTk4IEw0NTAuOTgwNyAyOTUuODIzNSBMNDUxLjE5OTYgMjk2LjI4NzEgTDQ1MS40MTg1IDI5Ni43NTA4IEw0NTEuNjM3NSAyOTcuMjE0NCBMNDUxLjg1NjQgMjk3LjY3ODEgTDQ1Mi4wNzUzIDI5OC4xNDE3IEw0NTIuMjk0MiAyOTguNjA1NCBMNDUyLjUxMzEgMjk5LjA2OSBMNDUyLjczMiAyOTkuNTMyNyBMNDUyLjk1MSAyOTkuOTk2MyBMNDUzLjE2OTkgMzAwLjQ2IEw0NTMuMzg4OCAzMDAuOTIzNiBMNDUzLjYwNzcgMzAxLjM4NzMgTDQ1My44MjY3IDMwMS44NTA5IEw0NTQuMDQ1NiAzMDIuMzE0NiBMNDU0LjI2NDUgMzAyLjc3ODIgTDQ1NC40ODM0IDMwMy4yNDE5IEw0NTQuNzAyMyAzMDMuNzA1NSBMNDU0LjkyMTIgMzA0LjE2OTIgTDQ1NS4xNDAyIDMwNC42MzI4IEw0NTUuMzU5MSAzMDUuMDk2NSBMNDU1LjU3OCAzMDUuNTYwMiBMNDU1Ljc5NjkgMzA2LjAyMzggTDQ1Ni4wMTU4IDMwNi40ODc0IEw0NTYuMjM0OCAzMDYuOTUxMSBMNDU2LjQ1MzcgMzA3LjQxNDcgTDQ1Ni42NzI2IDMwNy44Nzg0IEw0NTYuODkxNSAzMDguMzQyIEw0NTcuMTEwNCAzMDguODA1NyBMNDU3LjMyOTMgMzA5LjI2OTMgTDQ1Ny41NDgzIDMwOS43MzMgTDQ1Ny43NjcyIDMxMC4xOTY3IEw0NTcuOTg2MSAzMTAuNjYwMyBMNDU4LjIwNSAzMTEuMTI0IEw0NTguNDI0IDMxMS41ODc2IEw0NTguNjQyOSAzMTIuMDUxMiBMNDU4Ljg2MTggMzEyLjUxNDkgTDQ1OS4wODA3IDMxMi45Nzg1IEw0NTkuMjk5NyAzMTMuNDQyMiBMNDU5LjUxODYgMzEzLjkwNTkgTDQ1OS43Mzc1IDMxNC4zNjk1IEw0NTkuOTU2NCAzMTQuODMzMiBMNDYwLjE3NTMgMzE1LjI5NjggTDQ2MC4zOTQzIDMxNS43NjA1IEw0NjAuNjEzMiAzMTYuMjI0MSBMNDYwLjgzMjEgMzE2LjY4NzcgTDQ2MS4wNTEgMzE3LjE1MTQgTDQ2MS4yNjk5IDMxNy42MTUxIEw0NjEuNDg4OSAzMTguMDc4NyBMNDYxLjcwNzggMzE4LjU0MjQgTDQ2MS45MjY3IDMxOS4wMDYgTDQ2Mi4xNDU2IDMxOS40Njk3IEw0NjIuMzY0NSAzMTkuOTMzMyBMNDYyLjU4MzQgMzIwLjM5NyBMNDYyLjgwMjQgMzIwLjg2MDYgTDQ2My4wMjEzIDMyMS4zMjQzIEw0NjMuMjQwMiAzMjEuNzg3OSBMNDYzLjQ1OTEgMzIyLjI1MTYgTDQ2My42NzgxIDMyMi43MTUyIEw0NjMuODk3IDMyMy4xNzg5IEw0NjQuMTE1OSAzMjMuNjQyNSBMNDY0LjMzNDggMzI0LjEwNjIgTDQ2NC41NTM3IDMyNC41Njk4IEw0NjQuNzcyNiAzMjUuMDMzNSBMNDY0Ljk5MTYgMzI1LjQ5NzEgTDQ2NS4yMTA1IDMyNS45NjA4IEw0NjUuNDI5NCAzMjYuNDI0NCBMNDY1LjY0ODMgMzI2Ljg4ODEgTDQ2NS44NjcyIDMyNy4zNTE3IEw0NjYuMDg2MiAzMjcuODE1NCBMNDY2LjMwNTEgMzI4LjI3OSBMNDY2LjUyNCAzMjguNzQyNyBMNDY2Ljc0MyAzMjkuMjA2MyBMNDY2Ljk2MTkgMzI5LjY3IEw0NjcuMTgwOCAzMzAuMTMzNiBMNDY3LjM5OTcgMzMwLjU5NzMgTDQ2Ny42MTg2IDMzMS4wNjA5IEw0NjcuODM3NSAzMzEuNTI0NiBMNDY4LjA1NjUgMzMxLjk4ODMgTDQ2OC4yNzU0IDMzMi40NTE5IEw0NjguNDk0MyAzMzIuOTE1NSBMNDY4LjcxMzIgMzMzLjM3OTIgTDQ2OC45MzIyIDMzMy44NDI4IEw0NjkuMTUxMSAzMzQuMzA2NSBMNDY5LjM3IDMzNC43NzAxIEw0NjkuNTg4OSAzMzUuMjMzOCBMNDY5LjgwNzggMzM1LjY5NzQgTDQ3MC4wMjY3IDMzNi4xNjExIEw0NzAuMjQ1NyAzMzYuNjI0OCBMNDcwLjQ2NDYgMzM3LjA4ODQgTDQ3MC42ODM1IDMzNy41NTIgTDQ3MC45MDI0IDMzOC4wMTU3IEw0NzEuMTIxMyAzMzguNDc5MyBMNDcxLjM0MDMgMzM4Ljk0MyBMNDcxLjU1OTIgMzM5LjQwNjYgTDQ3MS43NzgxIDMzOS44NzAzIEw0NzEuOTk3IDMzOS45MTY3IEw0NzIuMjE1OSAzMzkuOTE2NyBMNDcyLjQzNDggMzM5LjkxNjcgTDQ3Mi42NTM4IDMzOS45MTY3IEw0NzIuODcyNyAzMzkuOTE2NyBMNDczLjA5MTYgMzM5LjkxNjcgTDQ3My4zMTA1IDMzOS45MTY3IEw0NzMuNTI5NSAzMzkuOTE2NyBMNDczLjc0ODQgMzM5LjkxNjcgTDQ3My45NjczIDMzOS45MTY3IEw0NzQuMTg2MiAzMzkuOTE2NyBMNDc0LjQwNTIgMzM5LjkxNjcgTDQ3NC42MjQxIDMzOS45MTY3IEw0NzQuODQzIDMzOS45MTY3IEw0NzUuMDYxOSAzMzkuOTE2NyBMNDc1LjI4MDggMzM5LjkxNjcgTDQ3NS40OTk4IDMzOS45MTY3IEw0NzUuNzE4NyAzMzkuOTE2NyBMNDc1LjkzNzYgMzM5LjkxNjcgTDQ3Ni4xNTY1IDMzOS45MTY3IEw0NzYuMzc1NCAzMzkuOTE2NyBMNDc2LjU5NDQgMzM5LjkxNjcgTDQ3Ni44MTMzIDMzOS45MTY3IEw0NzcuMDMyMiAzMzkuOTE2NyBMNDc3LjI1MTEgMzM5LjkxNjcgTDQ3Ny40NyAzMzkuOTE2NyBMNDc3LjY4ODkgMzM5LjkxNjcgTDQ3Ny45MDc5IDMzOS45MTY3IEw0NzguMTI2OCAzMzkuOTE2NyBMNDc4LjM0NTcgMzM5LjkxNjcgTDQ3OC41NjQ2IDMzOS45MTY3IEw0NzguNzgzNiAzMzkuOTE2NyBMNDc5LjAwMjUgMzM5LjkxNjcgTDQ3OS4yMjE0IDMzOS45MTY3IEw0NzkuNDQwMyAzMzkuOTE2NyBMNDc5LjY1OTIgMzM5LjkxNjcgTDQ3OS44NzgxIDMzOS45MTY3IEw0ODAuMDk3MSAzMzkuOTE2NyBMNDgwLjMxNiAzMzkuOTE2NyBMNDgwLjUzNDkgMzM5LjkxNjcgTDQ4MC43NTM4IDMzOS45MTY3IEw0ODAuOTcyNyAzMzkuOTE2NyBMNDgxLjE5MTcgMzM5LjkxNjcgTDQ4MS40MTA2IDMzOS45MTY3IEw0ODEuNjI5NSAzMzkuOTE2NyBMNDgxLjg0ODQgMzM5LjkxNjcgTDQ4Mi4wNjc0IDMzOS45MTY3IEw0ODIuMjg2MyAzMzkuOTE2NyBMNDgyLjUwNTIgMzM5LjkxNjcgTDQ4Mi43MjQxIDMzOS45MTY3IEw0ODIuOTQzIDMzOS45MTY3IEw0ODMuMTYyIDMzOS45MTY3IEw0ODMuMzgwOSAzMzkuOTE2NyBMNDgzLjU5OTggMzM5LjkxNjcgTDQ4My44MTg3IDMzOS45MTY3IEw0ODQuMDM3NyAzMzkuOTE2NyBMNDg0LjI1NjYgMzM5LjkxNjcgTDQ4NC40NzU1IDMzOS45MTY3IEw0ODQuNjk0NCAzMzkuOTE2NyBMNDg0LjkxMzMgMzM5LjkxNjcgTDQ4NS4xMzIyIDMzOS45MTY3IEw0ODUuMzUxMiAzMzkuOTE2NyBMNDg1LjU3MDEgMzM5LjkxNjcgTDQ4NS43ODkgMzM5LjkxNjcgTDQ4Ni4wMDc5IDMzOS45MTY3IEw0ODYuMjI2OCAzMzkuOTE2NyBMNDg2LjQ0NTggMzM5LjkxNjcgTDQ4Ni42NjQ3IDMzOS45MTY3IEw0ODYuODgzNiAzMzkuOTE2NyBMNDg3LjEwMjUgMzM5LjkxNjcgTDQ4Ny4zMjE0IDMzOS45MTY3IEw0ODcuNTQwMyAzMzkuOTE2NyBMNDg3Ljc1OTMgMzM5LjkxNjcgTDQ4Ny45NzgyIDMzOS45MTY3IEw0ODguMTk3MSAzMzkuOTE2NyBMNDg4LjQxNiAzMzkuOTE2NyBMNDg4LjYzNSAzMzkuOTE2NyBMNDg4Ljg1MzkgMzM5LjkxNjcgTDQ4OS4wNzI4IDMzOS45MTY3IEw0ODkuMjkxNyAzMzkuOTE2NyBMNDg5LjUxMDcgMzM5LjkxNjcgTDQ4OS43Mjk2IDMzOS45MTY3IEw0ODkuOTQ4NSAzMzkuOTE2NyBMNDkwLjE2NzQgMzM5LjkxNjcgTDQ5MC4zODYzIDMzOS45MTY3IEw0OTAuNjA1MyAzMzkuOTE2NyBMNDkwLjgyNDIgMzM5LjkxNjcgTDQ5MS4wNDMxIDMzOS45MTY3IEw0OTEuMjYyIDMzOS45MTY3IEw0OTEuNDgwOSAzMzkuOTE2NyBMNDkxLjY5OTkgMzM5LjkxNjcgTDQ5MS45MTg4IDMzOS45MTY3IEw0OTIuMTM3NyAzMzkuOTE2NyBMNDkyLjM1NjYgMzM5LjkxNjcgTDQ5Mi41NzU1IDMzOS45MTY3IEw0OTIuNzk0NCAzMzkuOTE2NyBMNDkzLjAxMzQgMzM5LjkxNjcgTDQ5My4yMzIzIDMzOS45MTY3IEw0OTMuNDUxMiAzMzkuOTE2NyBMNDkzLjY3MDEgMzM5LjkxNjcgTDQ5My44ODkxIDMzOS45MTY3IEw0OTQuMTA4IDMzOS45MTY3IEw0OTQuMzI2OSAzMzkuOTE2NyBMNDk0LjU0NTggMzM5LjkxNjcgTDQ5NC43NjQ3IDMzOS45MTY3IEw0OTQuOTgzNiAzMzkuOTE2NyBMNDk1LjIwMjYgMzM5LjkxNjcgTDQ5NS40MjE1IDMzOS45MTY3IEw0OTUuNjQwNCAzMzkuOTE2NyBMNDk1Ljg1OTMgMzM5LjkxNjcgTDQ5Ni4wNzgyIDMzOS45MTY3IEw0OTYuMjk3MiAzMzkuOTE2NyBMNDk2LjUxNjEgMzM5LjkxNjcgTDQ5Ni43MzUgMzM5LjkxNjcgTDQ5Ni45NTM5IDMzOS45MTY3IEw0OTcuMTcyOSAzMzkuOTE2NyBMNDk3LjM5MTggMzM5LjkxNjcgTDQ5Ny42MTA3IDMzOS45MTY3IEw0OTcuODI5NiAzMzkuOTE2NyBMNDk4LjA0ODUgMzM5LjkxNjcgTDQ5OC4yNjc1IDMzOS45MTY3IEw0OTguNDg2NCAzMzkuOTE2NyBMNDk4LjcwNTMgMzM5LjkxNjcgTDQ5OC45MjQyIDMzOS45MTY3IEw0OTkuMTQzMiAzMzkuOTE2NyBMNDk5LjM2MjEgMzM5LjkxNjcgTDQ5OS41ODEgMzM5LjkxNjcgTDQ5OS43OTk5IDMzOS45MTY3IEw1MDAuMDE4OCAzMzkuOTE2NyBMNTAwLjIzNzcgMzM5LjkxNjcgTDUwMC40NTY3IDMzOS45MTY3IEw1MDAuNjc1NiAzMzkuOTE2NyBMNTAwLjg5NDUgMzM5LjkxNjcgTDUwMS4xMTM0IDMzOS45MTY3IEw1MDEuMzMyMyAzMzkuOTE2NyBMNTAxLjU1MTMgMzM5LjkxNjcgTDUwMS43NzAyIDMzOS45MTY3IEw1MDEuOTg5MSAzMzkuOTE2NyBMNTAyLjIwOCAzMzkuOTE2NyBMNTAyLjQyNjkgMzM5LjkxNjcgTDUwMi42NDU4IDMzOS45MTY3IEw1MDIuODY0OCAzMzkuOTE2NyBMNTAzLjA4MzcgMzM5LjkxNjcgTDUwMy4zMDI2IDMzOS45MTY3IEw1MDMuNTIxNSAzMzkuOTE2NyBMNTAzLjc0MDUgMzM5LjkxNjcgTDUwMy45NTk0IDMzOS45MTY3IEw1MDQuMTc4MyAzMzkuOTE2NyBMNTA0LjM5NzIgMzM5LjkxNjcgTDUwNC42MTYxIDMzOS45MTY3IEw1MDQuODM1MSAzMzkuOTE2NyBMNTA1LjA1NCAzMzkuOTE2NyBMNTA1LjI3MjkgMzM5LjkxNjcgTDUwNS40OTE4IDMzOS45MTY3IEw1MDUuNzEwOCAzMzkuOTE2NyBMNTA1LjkyOTcgMzM5LjkxNjcgTDUwNi4xNDg2IDMzOS45MTY3IEw1MDYuMzY3NSAzMzkuOTE2NyBMNTA2LjU4NjQgMzM5LjkxNjcgTDUwNi44MDU0IDMzOS45MTY3IEw1MDcuMDI0MyAzMzkuOTE2NyBMNTA3LjI0MzIgMzM5LjkxNjcgTDUwNy40NjIxIDMzOS45MTY3IEw1MDcuNjgxIDMzOS45MTY3IEw1MDcuODk5OSAzMzkuOTE2NyBMNTA4LjExODkgMzM5LjkxNjcgTDUwOC4zMzc4IDMzOS45MTY3IEw1MDguNTU2NyAzMzkuOTE2NyBMNTA4Ljc3NTYgMzM5LjkxNjcgTDUwOC45OTQ2IDMzOS45MTY3IEw1MDkuMjEzNSAzMzkuOTE2NyBMNTA5LjQzMjQgMzM5LjkxNjcgTDUwOS42NTEzIDMzOS45MTY3IEw1MDkuODcwMiAzMzkuOTE2NyBMNTEwLjA4OTEgMzM5LjkxNjcgTDUxMC4zMDgxIDMzOS45MTY3IEw1MTAuNTI3IDMzOS45MTY3IEw1MTAuNzQ1OSAzMzkuOTE2NyBMNTEwLjk2NDggMzM5LjkxNjcgTDUxMS4xODM3IDMzOS45MTY3IEw1MTEuNDAyNyAzMzkuOTE2NyBMNTExLjYyMTYgMzM5LjkxNjcgTDUxMS44NDA1IDMzOS45MTY3IEw1MTIuMDU5NCAzMzkuOTE2NyBMNTEyLjI3ODQgMzM5LjkxNjcgTDUxMi40OTczIDMzOS45MTY3IEw1MTIuNzE2MiAzMzkuOTE2NyBMNTEyLjkzNTEgMzM5LjkxNjcgTDUxMy4xNTQxIDMzOS45MTY3IEw1MTMuMzczIDMzOS45MTY3IEw1MTMuNTkxOSAzMzkuOTE2NyBMNTEzLjgxMDggMzM5LjkxNjcgTDUxNC4wMjk3IDMzOS45MTY3IEw1MTQuMjQ4NyAzMzkuOTE2NyBMNTE0LjQ2NzUgMzM5LjkxNjcgTDUxNC42ODY1IDMzOS45MTY3IEw1MTQuOTA1NCAzMzkuOTE2NyBMNTE1LjEyNDMgMzM5LjkxNjcgTDUxNS4zNDMzIDMzOS45MTY3IEw1MTUuNTYyMiAzMzkuOTE2NyBMNTE1Ljc4MTEgMzM5LjkxNjcgTDUxNiAzMzkuOTE2NyIvPjxwYXRoIHN0eWxlPSJmaWxsOm5vbmU7IGZpbGwtcnVsZTpldmVub2RkOyBzdHJva2U6cmdiKDIzNywxNzcsMzIpOyIgZD0iTTc0IDMzOS45MTY3IEw3NC4yMTg5IDMzOS45MTY3IEw3NC40Mzc4IDMzOS45MTY3IEw3NC42NTY4IDMzOS45MTY3IEw3NC44NzU3IDMzOS45MTY3IEw3NS4wOTQ2IDMzOS45MTY3IEw3NS4zMTM1IDMzOS45MTY3IEw3NS41MzI0IDMzOS45MTY3IEw3NS43NTE0IDMzOS45MTY3IEw3NS45NzAzIDMzOS45MTY3IEw3Ni4xODkyIDMzOS45MTY3IEw3Ni40MDgxIDMzOS45MTY3IEw3Ni42MjcgMzM5LjkxNjcgTDc2Ljg0NiAzMzkuOTE2NyBMNzcuMDY0OSAzMzkuOTE2NyBMNzcuMjgzOCAzMzkuOTE2NyBMNzcuNTAyNyAzMzkuOTE2NyBMNzcuNzIxNiAzMzkuOTE2NyBMNzcuOTQwNiAzMzkuOTE2NyBMNzguMTU5NSAzMzkuOTE2NyBMNzguMzc4NCAzMzkuOTE2NyBMNzguNTk3MyAzMzkuOTE2NyBMNzguODE2MiAzMzkuOTE2NyBMNzkuMDM1MiAzMzkuOTE2NyBMNzkuMjU0MSAzMzkuOTE2NyBMNzkuNDczIDMzOS45MTY3IEw3OS42OTE5IDMzOS45MTY3IEw3OS45MTA5IDMzOS45MTY3IEw4MC4xMjk4IDMzOS45MTY3IEw4MC4zNDg3IDMzOS45MTY3IEw4MC41Njc2IDMzOS45MTY3IEw4MC43ODY1IDMzOS45MTY3IEw4MS4wMDU0IDMzOS45MTY3IEw4MS4yMjQ0IDMzOS45MTY3IEw4MS40NDMzIDMzOS45MTY3IEw4MS42NjIyIDMzOS45MTY3IEw4MS44ODExIDMzOS45MTY3IEw4Mi4xMDAxIDMzOS45MTY3IEw4Mi4zMTkgMzM5LjkxNjcgTDgyLjUzNzkgMzM5LjkxNjcgTDgyLjc1NjggMzM5LjkxNjcgTDgyLjk3NTcgMzM5LjkxNjcgTDgzLjE5NDYgMzM5LjkxNjcgTDgzLjQxMzYgMzM5LjkxNjcgTDgzLjYzMjUgMzM5LjkxNjcgTDgzLjg1MTQgMzM5LjkxNjcgTDg0LjA3MDMgMzM5LjkxNjcgTDg0LjI4OTMgMzM5LjkxNjcgTDg0LjUwODIgMzM5LjkxNjcgTDg0LjcyNzEgMzM5LjkxNjcgTDg0Ljk0NiAzMzkuOTE2NyBMODUuMTY0OSAzMzkuOTE2NyBMODUuMzgzOSAzMzkuOTE2NyBMODUuNjAyOCAzMzkuOTE2NyBMODUuODIxNyAzMzkuOTE2NyBMODYuMDQwNiAzMzkuOTE2NyBMODYuMjU5NSAzMzkuOTE2NyBMODYuNDc4NSAzMzkuOTE2NyBMODYuNjk3NCAzMzkuOTE2NyBMODYuOTE2MyAzMzkuOTE2NyBMODcuMTM1MiAzMzkuOTE2NyBMODcuMzU0MSAzMzkuOTE2NyBMODcuNTczMSAzMzkuOTE2NyBMODcuNzkyIDMzOS45MTY3IEw4OC4wMTA5IDMzOS45MTY3IEw4OC4yMjk4IDMzOS45MTY3IEw4OC40NDg3IDMzOS45MTY3IEw4OC42Njc3IDMzOS45MTY3IEw4OC44ODY2IDMzOS45MTY3IEw4OS4xMDU1IDMzOS45MTY3IEw4OS4zMjQ0IDMzOS45MTY3IEw4OS41NDMzIDMzOS45MTY3IEw4OS43NjIzIDMzOS45MTY3IEw4OS45ODEyIDMzOS45MTY3IEw5MC4yMDAxIDMzOS45MTY3IEw5MC40MTkgMzM5LjkxNjcgTDkwLjYzNzkgMzM5LjkxNjcgTDkwLjg1NjkgMzM5LjkxNjcgTDkxLjA3NTggMzM5LjkxNjcgTDkxLjI5NDcgMzM5LjkxNjcgTDkxLjUxMzYgMzM5LjkxNjcgTDkxLjczMjUgMzM5LjkxNjcgTDkxLjk1MTUgMzM5LjkxNjcgTDkyLjE3MDQgMzM5LjkxNjcgTDkyLjM4OTMgMzM5LjkxNjcgTDkyLjYwODIgMzM5LjkxNjcgTDkyLjgyNzEgMzM5LjkxNjcgTDkzLjA0NjEgMzM5LjkxNjcgTDkzLjI2NSAzMzkuOTE2NyBMOTMuNDgzOSAzMzkuOTE2NyBMOTMuNzAyOCAzMzkuOTE2NyBMOTMuOTIxNyAzMzkuOTE2NyBMOTQuMTQwNyAzMzkuOTE2NyBMOTQuMzU5NiAzMzkuOTE2NyBMOTQuNTc4NSAzMzkuOTE2NyBMOTQuNzk3NCAzMzkuOTE2NyBMOTUuMDE2MyAzMzkuOTE2NyBMOTUuMjM1MyAzMzkuOTE2NyBMOTUuNDU0MiAzMzkuOTE2NyBMOTUuNjczMSAzMzkuOTE2NyBMOTUuODkyIDMzOS45MTY3IEw5Ni4xMTA5IDMzOS45MTY3IEw5Ni4zMjk5IDMzOS45MTY3IEw5Ni41NDg4IDMzOS45MTY3IEw5Ni43Njc3IDMzOS45MTY3IEw5Ni45ODY2IDMzOS45MTY3IEw5Ny4yMDU2IDMzOS45MTY3IEw5Ny40MjQ1IDMzOS45MTY3IEw5Ny42NDM0IDMzOS45MTY3IEw5Ny44NjIzIDMzOS45MTY3IEw5OC4wODEyIDMzOS45MTY3IEw5OC4zMDAxIDMzOS45MTY3IEw5OC41MTkxIDMzOS45MTY3IEw5OC43MzggMzM5LjkxNjcgTDk4Ljk1NjkgMzM5LjkxNjcgTDk5LjE3NTggMzM5LjkxNjcgTDk5LjM5NDggMzM5LjkxNjcgTDk5LjYxMzcgMzM5LjkxNjcgTDk5LjgzMjYgMzM5LjkxNjcgTDEwMC4wNTE1IDMzOS45MTY3IEwxMDAuMjcwNCAzMzkuOTE2NyBMMTAwLjQ4OTMgMzM5LjkxNjcgTDEwMC43MDgzIDMzOS45MTY3IEwxMDAuOTI3MiAzMzkuOTE2NyBMMTAxLjE0NjEgMzM5LjkxNjcgTDEwMS4zNjUgMzM5LjkxNjcgTDEwMS41ODQgMzM5LjkxNjcgTDEwMS44MDI5IDMzOS45MTY3IEwxMDIuMDIxOCAzMzkuOTE2NyBMMTAyLjI0MDcgMzM5LjkxNjcgTDEwMi40NTk2IDMzOS45MTY3IEwxMDIuNjc4NiAzMzkuOTE2NyBMMTAyLjg5NzUgMzM5LjkxNjcgTDEwMy4xMTY0IDMzOS45MTY3IEwxMDMuMzM1MyAzMzkuOTE2NyBMMTAzLjU1NDIgMzM5LjkxNjcgTDEwMy43NzMyIDMzOS45MTY3IEwxMDMuOTkyMSAzMzkuOTE2NyBMMTA0LjIxMSAzMzkuOTE2NyBMMTA0LjQyOTkgMzM5LjkxNjcgTDEwNC42NDg4IDMzOS45MTY3IEwxMDQuODY3OCAzMzkuOTE2NyBMMTA1LjA4NjcgMzM5LjkxNjcgTDEwNS4zMDU2IDMzOS45MTY3IEwxMDUuNTI0NSAzMzkuOTE2NyBMMTA1Ljc0MzQgMzM5LjkxNjcgTDEwNS45NjI0IDMzOS45MTY3IEwxMDYuMTgxMyAzMzkuOTE2NyBMMTA2LjQwMDIgMzM5LjkxNjcgTDEwNi42MTkxIDMzOS45MTY3IEwxMDYuODM4IDMzOS45MTY3IEwxMDcuMDU3IDMzOS45MTY3IEwxMDcuMjc1OSAzMzkuOTE2NyBMMTA3LjQ5NDggMzM5LjkxNjcgTDEwNy43MTM3IDMzOS45MTY3IEwxMDcuOTMyNiAzMzkuOTE2NyBMMTA4LjE1MTYgMzM5LjkxNjcgTDEwOC4zNzA1IDMzOS45MTY3IEwxMDguNTg5NCAzMzkuOTE2NyBMMTA4LjgwODMgMzM5LjkxNjcgTDEwOS4wMjcyIDMzOS45MTY3IEwxMDkuMjQ2MiAzMzkuOTE2NyBMMTA5LjQ2NTEgMzM5LjkxNjcgTDEwOS42ODQgMzM5LjkxNjcgTDEwOS45MDI5IDMzOS45MTY3IEwxMTAuMTIxOCAzMzkuOTE2NyBMMTEwLjM0MDggMzM5LjkxNjcgTDExMC41NTk3IDMzOS45MTY3IEwxMTAuNzc4NiAzMzkuOTE2NyBMMTEwLjk5NzUgMzM5LjkxNjcgTDExMS4yMTY0IDMzOS45MTY3IEwxMTEuNDM1NCAzMzkuOTE2NyBMMTExLjY1NDMgMzM5LjkxNjcgTDExMS44NzMyIDMzOS45MTY3IEwxMTIuMDkyMSAzMzkuOTE2NyBMMTEyLjMxMSAzMzkuOTE2NyBMMTEyLjUzIDMzOS45MTY3IEwxMTIuNzQ4OSAzMzkuOTE2NyBMMTEyLjk2NzggMzM5LjkxNjcgTDExMy4xODY3IDMzOS45MTY3IEwxMTMuNDA1NiAzMzkuOTE2NyBMMTEzLjYyNDYgMzM5LjkxNjcgTDExMy44NDM1IDMzOS45MTY3IEwxMTQuMDYyNCAzMzkuOTE2NyBMMTE0LjI4MTMgMzM5LjkxNjcgTDExNC41MDAyIDMzOS45MTY3IEwxMTQuNzE5MiAzMzkuOTE2NyBMMTE0LjkzODEgMzM5LjkxNjcgTDExNS4xNTcgMzM5LjkxNjcgTDExNS4zNzU5IDMzOS45MTY3IEwxMTUuNTk0OCAzMzkuOTE2NyBMMTE1LjgxMzggMzM5LjkxNjcgTDExNi4wMzI3IDMzOS45MTY3IEwxMTYuMjUxNiAzMzkuOTE2NyBMMTE2LjQ3MDUgMzM5LjkxNjcgTDExNi42ODk1IDMzOS45MTY3IEwxMTYuOTA4NCAzMzkuOTE2NyBMMTE3LjEyNzMgMzM5LjkxNjcgTDExNy4zNDYyIDMzOS45MTY3IEwxMTcuNTY1MSAzMzkuOTE2NyBMMTE3Ljc4NCAzMzkuOTE2NyBMMTE4LjAwMyAzMzkuOTE2NyBMMTE4LjIyMTkgMzM5LjkxNjcgTDExOC40NDA4IDMzOS45MTY3IEwxMTguNjU5NyAzMzkuOTE2NyBMMTE4Ljg3ODcgMzM5LjkxNjcgTDExOS4wOTc2IDMzOS45MTY3IEwxMTkuMzE2NSAzMzkuOTE2NyBMMTE5LjUzNTQgMzM5LjkxNjcgTDExOS43NTQzIDMzOS45MTY3IEwxMTkuOTczMyAzMzkuOTE2NyBMMTIwLjE5MjIgMzM5LjkxNjcgTDEyMC40MTExIDMzOS45MTY3IEwxMjAuNjMgMzM5LjkxNjcgTDEyMC44NDg5IDMzOS45MTY3IEwxMjEuMDY3OSAzMzkuOTE2NyBMMTIxLjI4NjggMzM5LjkxNjcgTDEyMS41MDU3IDMzOS45MTY3IEwxMjEuNzI0NiAzMzkuOTE2NyBMMTIxLjk0MzUgMzM5LjkxNjcgTDEyMi4xNjI1IDMzOS45MTY3IEwxMjIuMzgxNCAzMzkuOTE2NyBMMTIyLjYwMDMgMzM5LjkxNjcgTDEyMi44MTkyIDMzOS45MTY3IEwxMjMuMDM4MSAzMzkuOTE2NyBMMTIzLjI1NzEgMzM5LjkxNjcgTDEyMy40NzYgMzM5LjkxNjcgTDEyMy42OTQ5IDMzOS45MTY3IEwxMjMuOTEzOCAzMzkuOTE2NyBMMTI0LjEzMjcgMzM5LjkxNjcgTDEyNC4zNTE3IDMzOS45MTY3IEwxMjQuNTcwNiAzMzkuOTE2NyBMMTI0Ljc4OTUgMzM5LjkxNjcgTDEyNS4wMDg0IDMzOS45MTY3IEwxMjUuMjI3MyAzMzkuOTE2NyBMMTI1LjQ0NjMgMzM5LjkxNjcgTDEyNS42NjUyIDMzOS45MTY3IEwxMjUuODg0MSAzMzkuOTE2NyBMMTI2LjEwMyAzMzkuOTE2NyBMMTI2LjMyMTkgMzM5LjkxNjcgTDEyNi41NDA5IDMzOS45MTY3IEwxMjYuNzU5OCAzMzkuOTE2NyBMMTI2Ljk3ODcgMzM5LjkxNjcgTDEyNy4xOTc2IDMzOS45MTY3IEwxMjcuNDE2NSAzMzkuOTE2NyBMMTI3LjYzNTUgMzM5LjkxNjcgTDEyNy44NTQ0IDMzOS45MTY3IEwxMjguMDczMyAzMzkuOTE2NyBMMTI4LjI5MjIgMzM5LjkxNjcgTDEyOC41MTExIDMzOS45MTY3IEwxMjguNzMwMSAzMzkuOTE2NyBMMTI4Ljk0OSAzMzkuOTE2NyBMMTI5LjE2NzkgMzM5LjkxNjcgTDEyOS4zODY4IDMzOS45MTY3IEwxMjkuNjA1NyAzMzkuOTE2NyBMMTI5LjgyNDcgMzM5LjkxNjcgTDEzMC4wNDM2IDMzOS45MTY3IEwxMzAuMjYyNSAzMzkuOTE2NyBMMTMwLjQ4MTQgMzM5LjkxNjcgTDEzMC43MDAzIDMzOS45MTY3IEwxMzAuOTE5MyAzMzkuOTE2NyBMMTMxLjEzODIgMzM5LjkxNjcgTDEzMS4zNTcxIDMzOS45MTY3IEwxMzEuNTc2IDMzOS45MTY3IEwxMzEuNzk1IDMzOS45MTY3IEwxMzIuMDEzOSAzMzkuOTE2NyBMMTMyLjIzMjggMzM5LjkxNjcgTDEzMi40NTE3IDMzOS45MTY3IEwxMzIuNjcwNiAzMzkuOTE2NyBMMTMyLjg4OTYgMzM5LjkxNjcgTDEzMy4xMDg1IDMzOS45MTY3IEwxMzMuMzI3NCAzMzkuOTE2NyBMMTMzLjU0NjMgMzM5LjkxNjcgTDEzMy43NjUyIDMzOS45MTY3IEwxMzMuOTg0MSAzMzkuOTE2NyBMMTM0LjIwMzEgMzM5LjkxNjcgTDEzNC40MjIgMzM5LjkxNjcgTDEzNC42NDA5IDMzOS45MTY3IEwxMzQuODU5OCAzMzkuOTE2NyBMMTM1LjA3ODggMzM5LjkxNjcgTDEzNS4yOTc3IDMzOS45MTY3IEwxMzUuNTE2NiAzMzkuOTE2NyBMMTM1LjczNTUgMzM5LjkxNjcgTDEzNS45NTQ0IDMzOS45MTY3IEwxMzYuMTczNCAzMzkuOTE2NyBMMTM2LjM5MjMgMzM5LjkxNjcgTDEzNi42MTEyIDMzOS45MTY3IEwxMzYuODMwMSAzMzkuOTE2NyBMMTM3LjA0OSAzMzkuOTE2NyBMMTM3LjI2OCAzMzkuOTE2NyBMMTM3LjQ4NjkgMzM5LjkxNjcgTDEzNy43MDU4IDMzOS45MTY3IEwxMzcuOTI0NyAzMzkuOTE2NyBMMTM4LjE0MzYgMzM5LjkxNjcgTDEzOC4zNjI1IDMzOS45MTY3IEwxMzguNTgxNSAzMzkuOTE2NyBMMTM4LjgwMDQgMzM5LjkxNjcgTDEzOS4wMTkzIDMzOS45MTY3IEwxMzkuMjM4MiAzMzkuOTE2NyBMMTM5LjQ1NzIgMzM5LjkxNjcgTDEzOS42NzYxIDMzOS45MTY3IEwxMzkuODk1IDMzOS45MTY3IEwxNDAuMTEzOSAzMzkuOTE2NyBMMTQwLjMzMjggMzM5LjkxNjcgTDE0MC41NTE4IDMzOS45MTY3IEwxNDAuNzcwNyAzMzkuOTE2NyBMMTQwLjk4OTYgMzM5LjkxNjcgTDE0MS4yMDg1IDMzOS45MTY3IEwxNDEuNDI3NCAzMzkuOTE2NyBMMTQxLjY0NjQgMzM5LjkxNjcgTDE0MS44NjUzIDMzOS45MTY3IEwxNDIuMDg0MiAzMzkuOTE2NyBMMTQyLjMwMzEgMzM5LjkxNjcgTDE0Mi41MjIgMzM5LjkxNjcgTDE0Mi43NDEgMzM5LjkxNjcgTDE0Mi45NTk5IDMzOS45MTY3IEwxNDMuMTc4OCAzMzkuOTE2NyBMMTQzLjM5NzcgMzM5LjkxNjcgTDE0My42MTY2IDMzOS45MTY3IEwxNDMuODM1NiAzMzkuOTE2NyBMMTQ0LjA1NDUgMzM5LjkxNjcgTDE0NC4yNzM0IDMzOS45MTY3IEwxNDQuNDkyMyAzMzkuOTE2NyBMMTQ0LjcxMTIgMzM5LjkxNjcgTDE0NC45MzAyIDMzOS45MTY3IEwxNDUuMTQ5MSAzMzkuOTE2NyBMMTQ1LjM2OCAzMzkuOTE2NyBMMTQ1LjU4NjkgMzM5LjkxNjcgTDE0NS44MDU4IDMzOS45MTY3IEwxNDYuMDI0OCAzMzkuOTE2NyBMMTQ2LjI0MzcgMzM5LjkxNjcgTDE0Ni40NjI2IDMzOS45MTY3IEwxNDYuNjgxNSAzMzkuOTE2NyBMMTQ2LjkwMDQgMzM5LjkxNjcgTDE0Ny4xMTk0IDMzOS45MTY3IEwxNDcuMzM4MyAzMzkuOTE2NyBMMTQ3LjU1NzIgMzM5LjkxNjcgTDE0Ny43NzYxIDMzOS45MTY3IEwxNDcuOTk1MSAzMzkuOTE2NyBMMTQ4LjIxNCAzMzkuOTE2NyBMMTQ4LjQzMjkgMzM5LjkxNjcgTDE0OC42NTE4IDMzOS45MTY3IEwxNDguODcwNyAzMzkuOTE2NyBMMTQ5LjA4OTYgMzM5LjkxNjcgTDE0OS4zMDg2IDMzOS45MTY3IEwxNDkuNTI3NSAzMzkuOTE2NyBMMTQ5Ljc0NjQgMzM5LjkxNjcgTDE0OS45NjUzIDMzOS45MTY3IEwxNTAuMTg0MiAzMzkuOTE2NyBMMTUwLjQwMzIgMzM5LjkxNjcgTDE1MC42MjIxIDMzOS45MTY3IEwxNTAuODQxIDMzOS45MTY3IEwxNTEuMDU5OSAzMzkuOTE2NyBMMTUxLjI3ODkgMzM5LjkxNjcgTDE1MS40OTc4IDMzOS45MTY3IEwxNTEuNzE2NyAzMzkuOTE2NyBMMTUxLjkzNTYgMzM5LjkxNjcgTDE1Mi4xNTQ1IDMzOS45MTY3IEwxNTIuMzczNSAzMzkuOTE2NyBMMTUyLjU5MjQgMzM5LjkxNjcgTDE1Mi44MTEzIDMzOS45MTY3IEwxNTMuMDMwMiAzMzkuOTE2NyBMMTUzLjI0OTEgMzM5LjkxNjcgTDE1My40NjggMzM5LjkxNjcgTDE1My42ODcgMzM5LjkxNjcgTDE1My45MDU5IDMzOS45MTY3IEwxNTQuMTI0OCAzMzkuOTE2NyBMMTU0LjM0MzcgMzM5LjkxNjcgTDE1NC41NjI3IDMzOS45MTY3IEwxNTQuNzgxNiAzMzkuOTE2NyBMMTU1LjAwMDUgMzM5LjkxNjcgTDE1NS4yMTk0IDMzOS45MTY3IEwxNTUuNDM4MyAzMzkuOTE2NyBMMTU1LjY1NzMgMzM5LjkxNjcgTDE1NS44NzYyIDMzOS45MTY3IEwxNTYuMDk1MSAzMzkuOTE2NyBMMTU2LjMxNCAzMzkuOTE2NyBMMTU2LjUzMjkgMzM5LjkxNjcgTDE1Ni43NTE5IDMzOS45MTY3IEwxNTYuOTcwOCAzMzkuOTE2NyBMMTU3LjE4OTcgMzM5LjkxNjcgTDE1Ny40MDg2IDMzOS45MTY3IEwxNTcuNjI3NSAzMzkuOTE2NyBMMTU3Ljg0NjUgMzM5LjkxNjcgTDE1OC4wNjU0IDMzOS45MTY3IEwxNTguMjg0MyAzMzkuOTE2NyBMMTU4LjUwMzIgMzM5LjkxNjcgTDE1OC43MjIxIDMzOS45MTY3IEwxNTguOTQxMSAzMzkuOTE2NyBMMTU5LjE2IDMzOS45MTY3IEwxNTkuMzc4OSAzMzkuOTE2NyBMMTU5LjU5NzggMzM5LjkxNjcgTDE1OS44MTY3IDMzOS45MTY3IEwxNjAuMDM1NyAzMzkuOTE2NyBMMTYwLjI1NDYgMzM5LjkxNjcgTDE2MC40NzM1IDMzOS45MTY3IEwxNjAuNjkyNCAzMzkuOTE2NyBMMTYwLjkxMTMgMzM5LjkxNjcgTDE2MS4xMzAzIDMzOS45MTY3IEwxNjEuMzQ5MiAzMzkuOTE2NyBMMTYxLjU2ODEgMzM5LjkxNjcgTDE2MS43ODcgMzM5LjkxNjcgTDE2Mi4wMDU5IDMzOS45MTY3IEwxNjIuMjI0OSAzMzkuOTE2NyBMMTYyLjQ0MzggMzM5LjkxNjcgTDE2Mi42NjI3IDMzOS45MTY3IEwxNjIuODgxNiAzMzkuOTE2NyBMMTYzLjEwMDYgMzM5LjkxNjcgTDE2My4zMTk1IDMzOS45MTY3IEwxNjMuNTM4NCAzMzkuOTE2NyBMMTYzLjc1NzMgMzM5LjkxNjcgTDE2My45NzYyIDMzOS45MTY3IEwxNjQuMTk1MSAzMzkuOTE2NyBMMTY0LjQxNDEgMzM5LjkxNjcgTDE2NC42MzMgMzM5LjkxNjcgTDE2NC44NTE5IDMzOS45MTY3IEwxNjUuMDcwOCAzMzkuOTE2NyBMMTY1LjI4OTcgMzM5LjkxNjcgTDE2NS41MDg3IDMzOS45MTY3IEwxNjUuNzI3NiAzMzkuOTE2NyBMMTY1Ljk0NjUgMzM5LjkxNjcgTDE2Ni4xNjU0IDMzOS45MTY3IEwxNjYuMzg0MyAzMzkuOTE2NyBMMTY2LjYwMzMgMzM5LjkxNjcgTDE2Ni44MjIyIDMzOS45MTY3IEwxNjcuMDQxMSAzMzkuOTE2NyBMMTY3LjI2IDMzOS45MTY3IEwxNjcuNDc5IDMzOS45MTY3IEwxNjcuNjk3OSAzMzkuOTE2NyBMMTY3LjkxNjggMzM5LjkxNjcgTDE2OC4xMzU3IDMzOS45MTY3IEwxNjguMzU0NiAzMzkuOTE2NyBMMTY4LjU3MzUgMzM5LjkxNjcgTDE2OC43OTI1IDMzOS45MTY3IEwxNjkuMDExNCAzMzkuOTE2NyBMMTY5LjIzMDMgMzM5LjkxNjcgTDE2OS40NDkyIDMzOS45MTY3IEwxNjkuNjY4MiAzMzkuOTE2NyBMMTY5Ljg4NzEgMzM5LjkxNjcgTDE3MC4xMDYgMzM5LjkxNjcgTDE3MC4zMjQ5IDMzOS45MTY3IEwxNzAuNTQzOCAzMzkuOTE2NyBMMTcwLjc2MjggMzM5LjkxNjcgTDE3MC45ODE3IDMzOS45MTY3IEwxNzEuMjAwNiAzMzkuOTE2NyBMMTcxLjQxOTUgMzM5LjkxNjcgTDE3MS42Mzg0IDMzOS45MTY3IEwxNzEuODU3NCAzMzkuOTE2NyBMMTcyLjA3NjMgMzM5LjkxNjcgTDE3Mi4yOTUyIDMzOS45MTY3IEwxNzIuNTE0MSAzMzkuOTE2NyBMMTcyLjczMyAzMzkuOTE2NyBMMTcyLjk1MiAzMzkuOTE2NyBMMTczLjE3MDkgMzM5LjkxNjcgTDE3My4zODk4IDMzOS45MTY3IEwxNzMuNjA4NyAzMzkuOTE2NyBMMTczLjgyNzYgMzM5LjkxNjcgTDE3NC4wNDY2IDMzOS45MTY3IEwxNzQuMjY1NSAzMzkuOTE2NyBMMTc0LjQ4NDQgMzM5LjkxNjcgTDE3NC43MDMzIDMzOS45MTY3IEwxNzQuOTIyMiAzMzkuOTE2NyBMMTc1LjE0MTIgMzM5LjkxNjcgTDE3NS4zNjAxIDMzOS45MTY3IEwxNzUuNTc5IDMzOS45MTY3IEwxNzUuNzk3OSAzMzkuOTE2NyBMMTc2LjAxNjggMzM5LjkxNjcgTDE3Ni4yMzU4IDMzOS45MTY3IEwxNzYuNDU0NyAzMzkuOTE2NyBMMTc2LjY3MzYgMzM5LjkxNjcgTDE3Ni44OTI1IDMzOS45MTY3IEwxNzcuMTExNCAzMzkuOTE2NyBMMTc3LjMzMDQgMzM5LjkxNjcgTDE3Ny41NDkzIDMzOS45MTY3IEwxNzcuNzY4MiAzMzkuOTE2NyBMMTc3Ljk4NzEgMzM5LjkxNjcgTDE3OC4yMDYgMzM5LjkxNjcgTDE3OC40MjUgMzM5LjkxNjcgTDE3OC42NDM5IDMzOS45MTY3IEwxNzguODYyOCAzMzkuOTE2NyBMMTc5LjA4MTcgMzM5LjkxNjcgTDE3OS4zMDA2IDMzOS45MTY3IEwxNzkuNTE5NiAzMzkuOTE2NyBMMTc5LjczODUgMzM5LjkxNjcgTDE3OS45NTc0IDMzOS45MTY3IEwxODAuMTc2MyAzMzkuOTE2NyBMMTgwLjM5NTIgMzM5LjkxNjcgTDE4MC42MTQyIDMzOS45MTY3IEwxODAuODMzMSAzMzkuOTE2NyBMMTgxLjA1MiAzMzkuOTE2NyBMMTgxLjI3MDkgMzM5LjkxNjcgTDE4MS40ODk4IDMzOS45MTY3IEwxODEuNzA4OCAzMzkuOTE2NyBMMTgxLjkyNzcgMzM5LjkxNjcgTDE4Mi4xNDY2IDMzOS45MTY3IEwxODIuMzY1NSAzMzkuOTE2NyBMMTgyLjU4NDUgMzM5LjkxNjcgTDE4Mi44MDM0IDMzOS45MTY3IEwxODMuMDIyMyAzMzkuOTE2NyBMMTgzLjI0MTIgMzM5LjkxNjcgTDE4My40NjAxIDMzOS45MTY3IEwxODMuNjc5IDMzOS45MTY3IEwxODMuODk4IDMzOS45MTY3IEwxODQuMTE2OSAzMzkuOTE2NyBMMTg0LjMzNTggMzM5LjkxNjcgTDE4NC41NTQ3IDMzOS45MTY3IEwxODQuNzczNyAzMzkuOTE2NyBMMTg0Ljk5MjYgMzM5LjkxNjcgTDE4NS4yMTE1IDMzOS45MTY3IEwxODUuNDMwNCAzMzkuOTE2NyBMMTg1LjY0OTMgMzM5LjkxNjcgTDE4NS44NjgzIDMzOS45MTY3IEwxODYuMDg3MiAzMzkuOTE2NyBMMTg2LjMwNjEgMzM5LjkxNjcgTDE4Ni41MjUgMzM5LjkxNjcgTDE4Ni43NDM5IDMzOS45MTY3IEwxODYuOTYyOCAzMzkuOTE2NyBMMTg3LjE4MTggMzM5LjkxNjcgTDE4Ny40MDA3IDMzOS45MTY3IEwxODcuNjE5NiAzMzkuOTE2NyBMMTg3LjgzODUgMzM5LjkxNjcgTDE4OC4wNTc0IDMzOS45MTY3IEwxODguMjc2NCAzMzkuOTE2NyBMMTg4LjQ5NTMgMzM5LjkxNjcgTDE4OC43MTQyIDMzOS45MTY3IEwxODguOTMzMSAzMzkuOTE2NyBMMTg5LjE1MjEgMzM5LjkxNjcgTDE4OS4zNzEgMzM5LjkxNjcgTDE4OS41ODk5IDMzOS45MTY3IEwxODkuODA4OCAzMzkuOTE2NyBMMTkwLjAyNzcgMzM5LjkxNjcgTDE5MC4yNDY2IDMzOS45MTY3IEwxOTAuNDY1NiAzMzkuOTE2NyBMMTkwLjY4NDUgMzM5LjkxNjcgTDE5MC45MDM0IDMzOS45MTY3IEwxOTEuMTIyMyAzMzkuOTE2NyBMMTkxLjM0MTMgMzM5LjkxNjcgTDE5MS41NjAyIDMzOS45MTY3IEwxOTEuNzc5MSAzMzkuOTE2NyBMMTkxLjk5OCAzMzkuOTE2NyBMMTkyLjIxNjkgMzM5LjkxNjcgTDE5Mi40MzU5IDMzOS45MTY3IEwxOTIuNjU0OCAzMzkuOTE2NyBMMTkyLjg3MzcgMzM5LjkxNjcgTDE5My4wOTI2IDMzOS45MTY3IEwxOTMuMzExNSAzMzkuOTE2NyBMMTkzLjUzMDUgMzM5LjkxNjcgTDE5My43NDk0IDMzOS45MTY3IEwxOTMuOTY4MyAzMzkuOTE2NyBMMTk0LjE4NzIgMzM5LjkxNjcgTDE5NC40MDYxIDMzOS45MTY3IEwxOTQuNjI1MSAzMzkuOTE2NyBMMTk0Ljg0NCAzMzkuOTE2NyBMMTk1LjA2MjkgMzM5LjkxNjcgTDE5NS4yODE4IDMzOS45MTY3IEwxOTUuNTAwNyAzMzkuOTE2NyBMMTk1LjcxOTcgMzM5LjkxNjcgTDE5NS45Mzg2IDMzOS45MTY3IEwxOTYuMTU3NSAzMzkuOTE2NyBMMTk2LjM3NjQgMzM5LjkxNjcgTDE5Ni41OTUzIDMzOS45MTY3IEwxOTYuODE0MyAzMzkuOTE2NyBMMTk3LjAzMzIgMzM5LjkxNjcgTDE5Ny4yNTIxIDMzOS45MTY3IEwxOTcuNDcxIDMzOS45MTY3IEwxOTcuNjg5OSAzMzkuOTE2NyBMMTk3LjkwODkgMzM5LjkxNjcgTDE5OC4xMjc4IDMzOS45MTY3IEwxOTguMzQ2NyAzMzkuOTE2NyBMMTk4LjU2NTYgMzM5LjkxNjcgTDE5OC43ODQ1IDMzOS45MTY3IEwxOTkuMDAzNSAzMzkuOTE2NyBMMTk5LjIyMjQgMzM5LjkxNjcgTDE5OS40NDEzIDMzOS45MTY3IEwxOTkuNjYwMiAzMzkuOTE2NyBMMTk5Ljg3OTIgMzM5LjkxNjcgTDIwMC4wOTgxIDMzOS45MTY3IEwyMDAuMzE3IDMzOS45MTY3IEwyMDAuNTM1OSAzMzkuOTE2NyBMMjAwLjc1NDggMzM5LjkxNjcgTDIwMC45NzM4IDMzOS45MTY3IEwyMDEuMTkyNyAzMzkuOTE2NyBMMjAxLjQxMTYgMzM5LjkxNjcgTDIwMS42MzA1IDMzOS45MTY3IEwyMDEuODQ5NCAzMzkuOTE2NyBMMjAyLjA2ODMgMzM5LjkxNjcgTDIwMi4yODczIDMzOS45MTY3IEwyMDIuNTA2MiAzMzkuOTE2NyBMMjAyLjcyNTEgMzM5LjkxNjcgTDIwMi45NDQgMzM5LjkxNjcgTDIwMy4xNjI5IDMzOS45MTY3IEwyMDMuMzgxOSAzMzkuOTE2NyBMMjAzLjYwMDggMzM5LjkxNjcgTDIwMy44MTk3IDMzOS45MTY3IEwyMDQuMDM4NiAzMzkuOTE2NyBMMjA0LjI1NzYgMzM5LjkxNjcgTDIwNC40NzY1IDMzOS45MTY3IEwyMDQuNjk1NCAzMzkuOTE2NyBMMjA0LjkxNDMgMzM5LjkxNjcgTDIwNS4xMzMyIDMzOS45MTY3IEwyMDUuMzUyMSAzMzkuOTE2NyBMMjA1LjU3MTEgMzM5LjkxNjcgTDIwNS43OSAzMzkuOTE2NyBMMjA2LjAwODkgMzM5LjkxNjcgTDIwNi4yMjc4IDMzOS45MTY3IEwyMDYuNDQ2OCAzMzkuOTE2NyBMMjA2LjY2NTcgMzM5LjkxNjcgTDIwNi44ODQ2IDMzOS45MTY3IEwyMDcuMTAzNSAzMzkuOTE2NyBMMjA3LjMyMjQgMzM5LjkxNjcgTDIwNy41NDE0IDMzOS45MTY3IEwyMDcuNzYwMyAzMzkuOTE2NyBMMjA3Ljk3OTIgMzM5LjkxNjcgTDIwOC4xOTgxIDMzOS45MTY3IEwyMDguNDE3IDMzOS45MTY3IEwyMDguNjM2IDMzOS45MTY3IEwyMDguODU0OSAzMzkuOTE2NyBMMjA5LjA3MzggMzM5LjkxNjcgTDIwOS4yOTI3IDMzOS45MTY3IEwyMDkuNTExNiAzMzkuOTE2NyBMMjA5LjczMDYgMzM5LjkxNjcgTDIwOS45NDk1IDMzOS45MTY3IEwyMTAuMTY4NCAzMzkuOTE2NyBMMjEwLjM4NzMgMzM5LjkxNjcgTDIxMC42MDYyIDMzOS45MTY3IEwyMTAuODI1MiAzMzkuOTE2NyBMMjExLjA0NDEgMzM5LjkxNjcgTDIxMS4yNjMgMzM5LjkxNjcgTDIxMS40ODE5IDMzOS45MTY3IEwyMTEuNzAwOCAzMzkuOTE2NyBMMjExLjkxOTggMzM5LjkxNjcgTDIxMi4xMzg3IDMzOS45MTY3IEwyMTIuMzU3NiAzMzkuOTE2NyBMMjEyLjU3NjUgMzM5LjkxNjcgTDIxMi43OTU0IDMzOS45MTY3IEwyMTMuMDE0NCAzMzkuOTE2NyBMMjEzLjIzMzMgMzM5LjkxNjcgTDIxMy40NTIyIDMzOS45MTY3IEwyMTMuNjcxMSAzMzkuOTE2NyBMMjEzLjg5IDMzOS45MTY3IEwyMTQuMTA5IDMzOS45MTY3IEwyMTQuMzI3OSAzMzkuOTE2NyBMMjE0LjU0NjggMzM5LjkxNjcgTDIxNC43NjU3IDMzOS45MTY3IEwyMTQuOTg0NiAzMzkuOTE2NyBMMjE1LjIwMzYgMzM5LjkxNjcgTDIxNS40MjI1IDMzOS45MTY3IEwyMTUuNjQxNCAzMzkuOTE2NyBMMjE1Ljg2MDMgMzM5LjkxNjcgTDIxNi4wNzkzIDMzOS45MTY3IEwyMTYuMjk4MiAzMzkuOTE2NyBMMjE2LjUxNzEgMzM5LjkxNjcgTDIxNi43MzYgMzM5LjkxNjcgTDIxNi45NTQ5IDMzOS45MTY3IEwyMTcuMTczOCAzMzkuOTE2NyBMMjE3LjM5MjggMzM5LjkxNjcgTDIxNy42MTE3IDMzOS45MTY3IEwyMTcuODMwNiAzMzkuOTE2NyBMMjE4LjA0OTUgMzM5LjkxNjcgTDIxOC4yNjg0IDMzOS45MTY3IEwyMTguNDg3NCAzMzkuOTE2NyBMMjE4LjcwNjMgMzM5LjkxNjcgTDIxOC45MjUyIDMzOS45MTY3IEwyMTkuMTQ0MSAzMzkuOTE2NyBMMjE5LjM2MzEgMzM5LjkxNjcgTDIxOS41ODIgMzM5LjkxNjcgTDIxOS44MDA5IDMzOS45MTY3IEwyMjAuMDE5OCAzMzkuOTE2NyBMMjIwLjIzODcgMzM5LjkxNjcgTDIyMC40NTc2IDMzOS45MTY3IEwyMjAuNjc2NiAzMzkuOTE2NyBMMjIwLjg5NTUgMzM5LjkxNjcgTDIyMS4xMTQ0IDMzOS45MTY3IEwyMjEuMzMzMyAzMzkuOTE2NyBMMjIxLjU1MjIgMzM5LjkxNjcgTDIyMS43NzEyIDMzOS45MTY3IEwyMjEuOTkwMSAzMzkuOTE2NyBMMjIyLjIwOSAzMzkuOTE2NyBMMjIyLjQyNzkgMzM5LjkxNjcgTDIyMi42NDY5IDMzOS45MTY3IEwyMjIuODY1OCAzMzkuOTE2NyBMMjIzLjA4NDcgMzM5LjkxNjcgTDIyMy4zMDM2IDMzOS45MTY3IEwyMjMuNTIyNSAzMzkuOTE2NyBMMjIzLjc0MTUgMzM5LjkxNjcgTDIyMy45NjA0IDMzOS45MTY3IEwyMjQuMTc5MyAzMzkuOTE2NyBMMjI0LjM5ODIgMzM5LjkxNjcgTDIyNC42MTcxIDMzOS45MTY3IEwyMjQuODM2MSAzMzkuOTE2NyBMMjI1LjA1NSAzMzkuOTE2NyBMMjI1LjI3MzkgMzM5LjkxNjcgTDIyNS40OTI4IDMzOS45MTY3IEwyMjUuNzExNyAzMzkuOTE2NyBMMjI1LjkzMDcgMzM5LjkxNjcgTDIyNi4xNDk2IDMzOS45MTY3IEwyMjYuMzY4NSAzMzkuOTE2NyBMMjI2LjU4NzQgMzM5LjkxNjcgTDIyNi44MDYzIDMzOS45MTY3IEwyMjcuMDI1MyAzMzkuOTE2NyBMMjI3LjI0NDIgMzM5LjkxNjcgTDIyNy40NjMxIDMzOS45MTY3IEwyMjcuNjgyIDMzOS45MTY3IEwyMjcuOTAwOSAzMzkuOTE2NyBMMjI4LjExOTkgMzM5LjkxNjcgTDIyOC4zMzg4IDMzOS45MTY3IEwyMjguNTU3NyAzMzkuOTE2NyBMMjI4Ljc3NjYgMzM5LjkxNjcgTDIyOC45OTU1IDMzOS45MTY3IEwyMjkuMjE0NSAzMzkuOTE2NyBMMjI5LjQzMzQgMzM5LjkxNjcgTDIyOS42NTIzIDMzOS45MTY3IEwyMjkuODcxMiAzMzkuOTE2NyBMMjMwLjA5MDEgMzM5LjkxNjcgTDIzMC4zMDkxIDMzOS45MTY3IEwyMzAuNTI4IDMzOS45MTY3IEwyMzAuNzQ2OSAzMzkuOTE2NyBMMjMwLjk2NTggMzM5LjkxNjcgTDIzMS4xODQ4IDMzOS45MTY3IEwyMzEuNDAzNyAzMzkuOTE2NyBMMjMxLjYyMjYgMzM5LjkxNjcgTDIzMS44NDE1IDMzOS45MTY3IEwyMzIuMDYwNCAzMzkuOTE2NyBMMjMyLjI3OTMgMzM5LjkxNjcgTDIzMi40OTgzIDMzOS45MTY3IEwyMzIuNzE3MiAzMzkuOTE2NyBMMjMyLjkzNjEgMzM5LjkxNjcgTDIzMy4xNTUgMzM5LjkxNjcgTDIzMy4zNzM5IDMzOS45MTY3IEwyMzMuNTkyOSAzMzkuOTE2NyBMMjMzLjgxMTggMzM5LjkxNjcgTDIzNC4wMzA3IDMzOS45MTY3IEwyMzQuMjQ5NiAzMzkuOTE2NyBMMjM0LjQ2ODYgMzM5LjkxNjcgTDIzNC42ODc1IDMzOS45MTY3IEwyMzQuOTA2NCAzMzkuOTE2NyBMMjM1LjEyNTMgMzM5LjkxNjcgTDIzNS4zNDQyIDMzOS45MTY3IEwyMzUuNTYzMSAzMzkuOTE2NyBMMjM1Ljc4MjEgMzM5LjkxNjcgTDIzNi4wMDEgMzM5LjkxNjcgTDIzNi4yMTk5IDMzOS45MTY3IEwyMzYuNDM4OCAzMzkuOTE2NyBMMjM2LjY1NzcgMzM5LjkxNjcgTDIzNi44NzY3IDMzOS45MTY3IEwyMzcuMDk1NiAzMzkuOTE2NyBMMjM3LjMxNDUgMzM5LjkxNjcgTDIzNy41MzM0IDMzOS45MTY3IEwyMzcuNzUyNCAzMzkuOTE2NyBMMjM3Ljk3MTMgMzM5LjkxNjcgTDIzOC4xOTAyIDMzOS45MTY3IEwyMzguNDA5MSAzMzkuOTE2NyBMMjM4LjYyOCAzMzkuOTE2NyBMMjM4Ljg0NyAzMzkuOTE2NyBMMjM5LjA2NTkgMzM5LjkxNjcgTDIzOS4yODQ4IDMzOS45MTY3IEwyMzkuNTAzNyAzMzkuOTE2NyBMMjM5LjcyMjYgMzM5LjkxNjcgTDIzOS45NDE2IDMzOS45MTY3IEwyNDAuMTYwNSAzMzkuOTE2NyBMMjQwLjM3OTQgMzM5LjkxNjcgTDI0MC41OTgzIDMzOS45MTY3IEwyNDAuODE3MiAzMzkuOTE2NyBMMjQxLjAzNjIgMzM5LjkxNjcgTDI0MS4yNTUxIDMzOS45MTY3IEwyNDEuNDc0IDMzOS45MTY3IEwyNDEuNjkyOSAzMzkuOTE2NyBMMjQxLjkxMTggMzM5LjkxNjcgTDI0Mi4xMzA4IDMzOS45MTY3IEwyNDIuMzQ5NyAzMzkuOTE2NyBMMjQyLjU2ODYgMzM5LjkxNjcgTDI0Mi43ODc1IDMzOS45MTY3IEwyNDMuMDA2NCAzMzkuOTE2NyBMMjQzLjIyNTQgMzM5LjkxNjcgTDI0My40NDQzIDMzOS45MTY3IEwyNDMuNjYzMiAzMzkuOTE2NyBMMjQzLjg4MjEgMzM5LjkxNjcgTDI0NC4xMDEgMzM5LjkxNjcgTDI0NC4zMiAzMzkuOTE2NyBMMjQ0LjUzODkgMzM5LjkxNjcgTDI0NC43NTc4IDMzOS45MTY3IEwyNDQuOTc2NyAzMzkuOTE2NyBMMjQ1LjE5NTYgMzM5LjkxNjcgTDI0NS40MTQ2IDMzOS45MTY3IEwyNDUuNjMzNSAzMzkuOTE2NyBMMjQ1Ljg1MjQgMzM5LjkxNjcgTDI0Ni4wNzEzIDMzOS45MTY3IEwyNDYuMjkwMyAzMzkuOTE2NyBMMjQ2LjUwOTIgMzM5LjkxNjcgTDI0Ni43MjgxIDMzOS45MTY3IEwyNDYuOTQ3IDMzOS45MTY3IEwyNDcuMTY1OSAzMzkuOTE2NyBMMjQ3LjM4NDggMzM5LjkxNjcgTDI0Ny42MDM4IDMzOS45MTY3IEwyNDcuODIyNyAzMzkuOTE2NyBMMjQ4LjA0MTYgMzM5LjkxNjcgTDI0OC4yNjA1IDMzOS45MTY3IEwyNDguNDc5NCAzMzkuOTE2NyBMMjQ4LjY5ODQgMzM5LjkxNjcgTDI0OC45MTczIDMzOS45MTY3IEwyNDkuMTM2MiAzMzkuOTE2NyBMMjQ5LjM1NTEgMzM5LjkxNjcgTDI0OS41NzQxIDMzOS45MTY3IEwyNDkuNzkzIDMzOS45MTY3IEwyNTAuMDExOSAzMzkuOTE2NyBMMjUwLjIzMDggMzM5LjkxNjcgTDI1MC40NDk3IDMzOS45MTY3IEwyNTAuNjY4NiAzMzkuOTE2NyBMMjUwLjg4NzYgMzM5LjkxNjcgTDI1MS4xMDY1IDMzOS45MTY3IEwyNTEuMzI1NCAzMzkuOTE2NyBMMjUxLjU0NDMgMzM5LjkxNjcgTDI1MS43NjMyIDMzOS45MTY3IEwyNTEuOTgyMiAzMzkuOTE2NyBMMjUyLjIwMTEgMzM5LjkxNjcgTDI1Mi40MiAzMzkuOTE2NyBMMjUyLjYzODkgMzM5LjkxNjcgTDI1Mi44NTc4IDMzOS45MTY3IEwyNTMuMDc2OCAzMzkuOTE2NyBMMjUzLjI5NTcgMzM5LjkxNjcgTDI1My41MTQ2IDMzOS45MTY3IEwyNTMuNzMzNSAzMzkuOTE2NyBMMjUzLjk1MjUgMzM5LjkxNjcgTDI1NC4xNzE0IDMzOS45MTY3IEwyNTQuMzkwMyAzMzkuOTE2NyBMMjU0LjYwOTIgMzM5LjkxNjcgTDI1NC44MjgxIDMzOS45MTY3IEwyNTUuMDQ3MSAzMzkuOTE2NyBMMjU1LjI2NiAzMzkuOTE2NyBMMjU1LjQ4NDkgMzM5LjkxNjcgTDI1NS43MDM4IDMzOS45MTY3IEwyNTUuOTIyNyAzMzkuOTE2NyBMMjU2LjE0MTcgMzM5LjkxNjcgTDI1Ni4zNjA2IDMzOS45MTY3IEwyNTYuNTc5NSAzMzkuOTE2NyBMMjU2Ljc5ODQgMzM5LjkxNjcgTDI1Ny4wMTczIDMzOS45MTY3IEwyNTcuMjM2MyAzMzkuOTE2NyBMMjU3LjQ1NTIgMzM5LjkxNjcgTDI1Ny42NzQxIDMzOS45MTY3IEwyNTcuODkzIDMzOS45MTY3IEwyNTguMTExOSAzMzkuOTE2NyBMMjU4LjMzMDkgMzM5LjkxNjcgTDI1OC41NDk4IDMzOS45MTY3IEwyNTguNzY4NyAzMzkuOTE2NyBMMjU4Ljk4NzYgMzM5LjkxNjcgTDI1OS4yMDY1IDMzOS45MTY3IEwyNTkuNDI1NCAzMzkuOTE2NyBMMjU5LjY0NDQgMzM5LjkxNjcgTDI1OS44NjMzIDMzOS45MTY3IEwyNjAuMDgyMiAzMzkuOTE2NyBMMjYwLjMwMTEgMzM5LjkxNjcgTDI2MC41MjAxIDMzOS45MTY3IEwyNjAuNzM5IDMzOS45MTY3IEwyNjAuOTU3OSAzMzkuOTE2NyBMMjYxLjE3NjggMzM5LjkxNjcgTDI2MS4zOTU3IDMzOS45MTY3IEwyNjEuNjE0NyAzMzkuOTE2NyBMMjYxLjgzMzYgMzM5LjkxNjcgTDI2Mi4wNTI1IDMzOS45MTY3IEwyNjIuMjcxNCAzMzkuOTE2NyBMMjYyLjQ5MDMgMzM5LjkxNjcgTDI2Mi43MDkzIDMzOS45MTY3IEwyNjIuOTI4MiAzMzkuOTE2NyBMMjYzLjE0NzEgMzM5LjkxNjcgTDI2My4zNjYgMzM5LjkxNjcgTDI2My41ODQ5IDMzOS45MTY3IEwyNjMuODAzOSAzMzkuOTE2NyBMMjY0LjAyMjggMzM5LjkxNjcgTDI2NC4yNDE3IDMzOS45MTY3IEwyNjQuNDYwNiAzMzkuOTE2NyBMMjY0LjY3OTUgMzM5LjkxNjcgTDI2NC44OTg1IDMzOS45MTY3IEwyNjUuMTE3NCAzMzkuOTE2NyBMMjY1LjMzNjMgMzM5LjkxNjcgTDI2NS41NTUyIDMzOS45MTY3IEwyNjUuNzc0MSAzMzkuOTE2NyBMMjY1Ljk5MzEgMzM5LjkxNjcgTDI2Ni4yMTIgMzM5LjkxNjcgTDI2Ni40MzA5IDMzOS45MTY3IEwyNjYuNjQ5OCAzMzkuOTE2NyBMMjY2Ljg2ODcgMzM5LjkxNjcgTDI2Ny4wODc3IDMzOS45MTY3IEwyNjcuMzA2NiAzMzkuOTE2NyBMMjY3LjUyNTUgMzM5LjkxNjcgTDI2Ny43NDQ0IDMzOS45MTY3IEwyNjcuOTYzMyAzMzkuOTE2NyBMMjY4LjE4MjMgMzM5LjkxNjcgTDI2OC40MDEyIDMzOS45MTY3IEwyNjguNjIwMSAzMzkuOTE2NyBMMjY4LjgzOSAzMzkuOTE2NyBMMjY5LjA1OCAzMzkuOTE2NyBMMjY5LjI3NjkgMzM5LjkxNjcgTDI2OS40OTU4IDMzOS45MTY3IEwyNjkuNzE0NyAzMzkuOTE2NyBMMjY5LjkzMzYgMzM5LjkxNjcgTDI3MC4xNTI2IDMzOS45MTY3IEwyNzAuMzcxNSAzMzkuOTE2NyBMMjcwLjU5MDQgMzM5LjkxNjcgTDI3MC44MDkzIDMzOS45MTY3IEwyNzEuMDI4MiAzMzkuOTE2NyBMMjcxLjI0NzEgMzM5LjkxNjcgTDI3MS40NjYxIDMzOS45MTY3IEwyNzEuNjg1IDMzOS45MTY3IEwyNzEuOTAzOSAzMzkuOTE2NyBMMjcyLjEyMjggMzM5LjkxNjcgTDI3Mi4zNDE4IDMzOS45MTY3IEwyNzIuNTYwNyAzMzkuOTE2NyBMMjcyLjc3OTYgMzM5LjkxNjcgTDI3Mi45OTg1IDMzOS45MTY3IEwyNzMuMjE3NCAzMzkuOTE2NyBMMjczLjQzNjQgMzM5LjkxNjcgTDI3My42NTUzIDMzOS45MTY3IEwyNzMuODc0MiAzMzkuOTE2NyBMMjc0LjA5MzEgMzM5LjkxNjcgTDI3NC4zMTIgMzM5LjkxNjcgTDI3NC41MzA5IDMzOS45MTY3IEwyNzQuNzQ5OSAzMzkuOTE2NyBMMjc0Ljk2ODggMzM5LjkxNjcgTDI3NS4xODc3IDMzOS45MTY3IEwyNzUuNDA2NiAzMzkuOTE2NyBMMjc1LjYyNTUgMzM5LjkxNjcgTDI3NS44NDQ1IDMzOS45MTY3IEwyNzYuMDYzNCAzMzkuOTE2NyBMMjc2LjI4MjMgMzM5LjkxNjcgTDI3Ni41MDEyIDMzOS45MTY3IEwyNzYuNzIwMiAzMzkuOTE2NyBMMjc2LjkzOTEgMzM5LjkxNjcgTDI3Ny4xNTggMzM5LjkxNjcgTDI3Ny4zNzY5IDMzOS45MTY3IEwyNzcuNTk1OCAzMzkuOTE2NyBMMjc3LjgxNDggMzM5LjkxNjcgTDI3OC4wMzM3IDMzOS45MTY3IEwyNzguMjUyNiAzMzkuOTE2NyBMMjc4LjQ3MTUgMzM5LjkxNjcgTDI3OC42OTA0IDMzOS45MTY3IEwyNzguOTA5NCAzMzkuOTE2NyBMMjc5LjEyODMgMzM5LjkxNjcgTDI3OS4zNDcyIDMzOS45MTY3IEwyNzkuNTY2MSAzMzkuOTE2NyBMMjc5Ljc4NSAzMzkuOTE2NyBMMjgwLjAwNCAzMzkuOTE2NyBMMjgwLjIyMjkgMzM5LjkxNjcgTDI4MC40NDE4IDMzOS45MTY3IEwyODAuNjYwNyAzMzkuOTE2NyBMMjgwLjg3OTYgMzM5LjkxNjcgTDI4MS4wOTg2IDMzOS45MTY3IEwyODEuMzE3NSAzMzkuOTE2NyBMMjgxLjUzNjQgMzM5LjkxNjcgTDI4MS43NTUzIDMzOS45MTY3IEwyODEuOTc0MiAzMzkuOTE2NyBMMjgyLjE5MzIgMzM5LjkxNjcgTDI4Mi40MTIxIDMzOS45MTY3IEwyODIuNjMxIDMzOS45MTY3IEwyODIuODQ5OSAzMzkuOTE2NyBMMjgzLjA2ODggMzM5LjkxNjcgTDI4My4yODc4IDMzOS45MTY3IEwyODMuNTA2NyAzMzkuOTE2NyBMMjgzLjcyNTYgMzM5LjkxNjcgTDI4My45NDQ1IDMzOS45MTY3IEwyODQuMTYzNSAzMzkuOTE2NyBMMjg0LjM4MjQgMzM5LjkxNjcgTDI4NC42MDEzIDMzOS45MTY3IEwyODQuODIwMiAzMzkuOTE2NyBMMjg1LjAzOTEgMzM5LjkxNjcgTDI4NS4yNTgxIDMzOS45MTY3IEwyODUuNDc3IDMzOS45MTY3IEwyODUuNjk1OSAzMzkuOTE2NyBMMjg1LjkxNDggMzM5LjkxNjcgTDI4Ni4xMzM3IDMzOS45MTY3IEwyODYuMzUyNiAzMzkuOTE2NyBMMjg2LjU3MTYgMzM5LjkxNjcgTDI4Ni43OTA1IDMzOS45MTY3IEwyODcuMDA5NCAzMzkuOTE2NyBMMjg3LjIyODMgMzM5LjkxNjcgTDI4Ny40NDczIDMzOS45MTY3IEwyODcuNjY2MiAzMzkuOTE2NyBMMjg3Ljg4NTEgMzM5LjkxNjcgTDI4OC4xMDQgMzM5LjkxNjcgTDI4OC4zMjI5IDMzOS45MTY3IEwyODguNTQxOSAzMzkuOTE2NyBMMjg4Ljc2MDggMzM5LjkxNjcgTDI4OC45Nzk3IDMzOS45MTY3IEwyODkuMTk4NiAzMzkuOTE2NyBMMjg5LjQxNzUgMzM5LjkxNjcgTDI4OS42MzY0IDMzOS45MTY3IEwyODkuODU1NCAzMzkuOTE2NyBMMjkwLjA3NDMgMzM5LjkxNjcgTDI5MC4yOTMyIDMzOS45MTY3IEwyOTAuNTEyMSAzMzkuOTE2NyBMMjkwLjczMSAzMzkuOTE2NyBMMjkwLjk1IDMzOS45MTY3IEwyOTEuMTY4OSAzMzkuOTE2NyBMMjkxLjM4NzggMzM5LjkxNjcgTDI5MS42MDY3IDMzOS45MTY3IEwyOTEuODI1NyAzMzkuOTE2NyBMMjkyLjA0NDYgMzM5LjkxNjcgTDI5Mi4yNjM1IDMzOS45MTY3IEwyOTIuNDgyNCAzMzkuOTE2NyBMMjkyLjcwMTMgMzM5LjkxNjcgTDI5Mi45MjAzIDMzOS45MTY3IEwyOTMuMTM5MiAzMzkuOTE2NyBMMjkzLjM1ODEgMzM5LjkxNjcgTDI5My41NzcgMzM5LjkxNjcgTDI5My43OTU5IDMzOS45MTY3IEwyOTQuMDE0OSAzMzkuOTE2NyBMMjk0LjIzMzggMzM5LjkxNjcgTDI5NC40NTI3IDMzOS45MTY3IEwyOTQuNjcxNiAzMzkuOTE2NyBMMjk0Ljg5MDUgMzM5LjkxNjcgTDI5NS4xMDk1IDMzOS45MTY3IEwyOTUuMzI4NCAzMzkuOTE2NyBMMjk1LjU0NzMgMzM5LjkxNjcgTDI5NS43NjYyIDMzOS45MTY3IEwyOTUuOTg1MSAzMzkuOTE2NyBMMjk2LjIwNDEgMzM5LjkxNjcgTDI5Ni40MjMgMzM5LjkxNjcgTDI5Ni42NDE5IDMzOS45MTY3IEwyOTYuODYwOCAzMzkuOTE2NyBMMjk3LjA3OTcgMzM5LjkxNjcgTDI5Ny4yOTg2IDMzOS45MTY3IEwyOTcuNTE3NiAzMzkuOTE2NyBMMjk3LjczNjUgMzM5LjkxNjcgTDI5Ny45NTU0IDMzOS45MTY3IEwyOTguMTc0MyAzMzkuOTE2NyBMMjk4LjM5MzMgMzM5LjkxNjcgTDI5OC42MTIyIDMzOS45MTY3IEwyOTguODMxMSAzMzkuOTE2NyBMMjk5LjA1IDMzOS45MTY3IEwyOTkuMjY4OSAzMzkuOTE2NyBMMjk5LjQ4NzkgMzM5LjkxNjcgTDI5OS43MDY4IDMzOS45MTY3IEwyOTkuOTI1NyAzMzkuOTE2NyBMMzAwLjE0NDYgMzM5LjkxNjcgTDMwMC4zNjM2IDMzOS45MTY3IEwzMDAuNTgyNSAzMzkuOTE2NyBMMzAwLjgwMTQgMzM5LjkxNjcgTDMwMS4wMjAzIDMzOS45MTY3IEwzMDEuMjM5MiAzMzkuOTE2NyBMMzAxLjQ1ODEgMzM5LjkxNjcgTDMwMS42NzcxIDMzOS45MTY3IEwzMDEuODk2IDMzOS45MTY3IEwzMDIuMTE0OSAzMzkuOTE2NyBMMzAyLjMzMzggMzM5LjkxNjcgTDMwMi41NTI3IDMzOS45MTY3IEwzMDIuNzcxNyAzMzkuOTE2NyBMMzAyLjk5MDYgMzM5LjkxNjcgTDMwMy4yMDk1IDMzOS45MTY3IEwzMDMuNDI4NCAzMzkuOTE2NyBMMzAzLjY0NzQgMzM5LjkxNjcgTDMwMy44NjYzIDMzOS45MTY3IEwzMDQuMDg1MiAzMzkuOTE2NyBMMzA0LjMwNDEgMzM5LjkxNjcgTDMwNC41MjMgMzM5LjkxNjcgTDMwNC43NDE5IDMzOS45MTY3IEwzMDQuOTYwOSAzMzkuOTE2NyBMMzA1LjE3OTggMzM5LjkxNjcgTDMwNS4zOTg3IDMzOS45MTY3IEwzMDUuNjE3NiAzMzkuOTE2NyBMMzA1LjgzNjUgMzM5LjkxNjcgTDMwNi4wNTU1IDMzOS45MTY3IEwzMDYuMjc0NCAzMzkuOTE2NyBMMzA2LjQ5MzMgMzM5LjkxNjcgTDMwNi43MTIyIDMzOS45MTY3IEwzMDYuOTMxMiAzMzkuOTE2NyBMMzA3LjE1MDEgMzM5LjkxNjcgTDMwNy4zNjkgMzM5LjkxNjcgTDMwNy41ODc5IDMzOS45MTY3IEwzMDcuODA2OCAzMzkuOTE2NyBMMzA4LjAyNTggMzM5LjkxNjcgTDMwOC4yNDQ3IDMzOS45MTY3IEwzMDguNDYzNiAzMzkuOTE2NyBMMzA4LjY4MjUgMzM5LjkxNjcgTDMwOC45MDE0IDMzOS45MTY3IEwzMDkuMTIwMyAzMzkuOTE2NyBMMzA5LjMzOTMgMzM5LjkxNjcgTDMwOS41NTgyIDMzOS45MTY3IEwzMDkuNzc3MSAzMzkuOTE2NyBMMzA5Ljk5NiAzMzkuOTE2NyBMMzEwLjIxNSAzMzkuOTE2NyBMMzEwLjQzMzkgMzM5LjkxNjcgTDMxMC42NTI4IDMzOS45MTY3IEwzMTAuODcxNyAzMzkuOTE2NyBMMzExLjA5MDYgMzM5LjkxNjcgTDMxMS4zMDk2IDMzOS45MTY3IEwzMTEuNTI4NSAzMzkuOTE2NyBMMzExLjc0NzQgMzM5LjkxNjcgTDMxMS45NjYzIDMzOS45MTY3IEwzMTIuMTg1MiAzMzkuOTE2NyBMMzEyLjQwNDEgMzM5LjkxNjcgTDMxMi42MjMxIDMzOS45MTY3IEwzMTIuODQyIDMzOS45MTY3IEwzMTMuMDYwOSAzMzkuOTE2NyBMMzEzLjI3OTggMzM5LjkxNjcgTDMxMy40OTg4IDMzOS45MTY3IEwzMTMuNzE3NyAzMzkuOTE2NyBMMzEzLjkzNjYgMzM5LjkxNjcgTDMxNC4xNTU1IDMzOS45MTY3IEwzMTQuMzc0NCAzMzkuOTE2NyBMMzE0LjU5MzQgMzM5LjkxNjcgTDMxNC44MTIzIDMzOS45MTY3IEwzMTUuMDMxMiAzMzkuOTE2NyBMMzE1LjI1MDEgMzM5LjkxNjcgTDMxNS40NjkxIDMzOS45MTY3IEwzMTUuNjg4IDMzOS45MTY3IEwzMTUuOTA2OSAzMzkuOTE2NyBMMzE2LjEyNTggMzM5LjkxNjcgTDMxNi4zNDQ3IDMzOS45MTY3IEwzMTYuNTYzNiAzMzkuOTE2NyBMMzE2Ljc4MjYgMzM5LjkxNjcgTDMxNy4wMDE1IDMzOS45MTY3IEwzMTcuMjIwNCAzMzkuOTE2NyBMMzE3LjQzOTMgMzM5LjkxNjcgTDMxNy42NTgyIDMzOS45MTY3IEwzMTcuODc3MiAzMzkuOTE2NyBMMzE4LjA5NjEgMzM5LjkxNjcgTDMxOC4zMTUgMzM5LjkxNjcgTDMxOC41MzM5IDMzOS45MTY3IEwzMTguNzUyOSAzMzkuOTE2NyBMMzE4Ljk3MTggMzM5LjkxNjcgTDMxOS4xOTA3IDMzOS45MTY3IEwzMTkuNDA5NiAzMzkuOTE2NyBMMzE5LjYyODUgMzM5LjkxNjcgTDMxOS44NDc0IDMzOS45MTY3IEwzMjAuMDY2NCAzMzkuOTE2NyBMMzIwLjI4NTMgMzM5LjkxNjcgTDMyMC41MDQyIDMzOS45MTY3IEwzMjAuNzIzMSAzMzkuOTE2NyBMMzIwLjk0MiAzMzkuOTE2NyBMMzIxLjE2MSAzMzkuOTE2NyBMMzIxLjM3OTkgMzM5LjkxNjcgTDMyMS41OTg4IDMzOS45MTY3IEwzMjEuODE3NyAzMzkuOTE2NyBMMzIyLjAzNjcgMzM5LjkxNjcgTDMyMi4yNTU2IDMzOS45MTY3IEwzMjIuNDc0NSAzMzkuOTE2NyBMMzIyLjY5MzQgMzM5LjkxNjcgTDMyMi45MTIzIDMzOS45MTY3IEwzMjMuMTMxMyAzMzkuOTE2NyBMMzIzLjM1MDIgMzM5LjkxNjcgTDMyMy41NjkxIDMzOS45MTY3IEwzMjMuNzg4IDMzOS45MTY3IEwzMjQuMDA2OSAzMzkuOTE2NyBMMzI0LjIyNTggMzM5LjkxNjcgTDMyNC40NDQ4IDMzOS45MTY3IEwzMjQuNjYzNyAzMzkuOTE2NyBMMzI0Ljg4MjYgMzM5LjkxNjcgTDMyNS4xMDE1IDMzOS45MTY3IEwzMjUuMzIwNSAzMzkuOTE2NyBMMzI1LjUzOTQgMzM5LjkxNjcgTDMyNS43NTgzIDMzOS45MTY3IEwzMjUuOTc3MiAzMzkuOTE2NyBMMzI2LjE5NjEgMzM5LjkxNjcgTDMyNi40MTUxIDMzOS45MTY3IEwzMjYuNjM0IDMzOS45MTY3IEwzMjYuODUyOSAzMzkuOTE2NyBMMzI3LjA3MTggMzM5LjkxNjcgTDMyNy4yOTA3IDMzOS45MTY3IEwzMjcuNTA5NiAzMzkuOTE2NyBMMzI3LjcyODYgMzM5LjkxNjcgTDMyNy45NDc1IDMzOS45MTY3IEwzMjguMTY2NCAzMzkuOTE2NyBMMzI4LjM4NTMgMzM5LjkxNjcgTDMyOC42MDQzIDMzOS45MTY3IEwzMjguODIzMiAzMzkuOTE2NyBMMzI5LjA0MjEgMzM5LjkxNjcgTDMyOS4yNjEgMzM5LjkxNjcgTDMyOS40Nzk5IDMzOS45MTY3IEwzMjkuNjk4OSAzMzkuOTE2NyBMMzI5LjkxNzggMzM5LjkxNjcgTDMzMC4xMzY3IDMzOS45MTY3IEwzMzAuMzU1NiAzMzkuOTE2NyBMMzMwLjU3NDYgMzM5LjkxNjcgTDMzMC43OTM1IDMzOS45MTY3IEwzMzEuMDEyNCAzMzkuOTE2NyBMMzMxLjIzMTMgMzM5LjkxNjcgTDMzMS40NTAyIDMzOS45MTY3IEwzMzEuNjY5MSAzMzkuOTE2NyBMMzMxLjg4ODEgMzM5LjkxNjcgTDMzMi4xMDcgMzM5LjkxNjcgTDMzMi4zMjU5IDMzOS45MTY3IEwzMzIuNTQ0OCAzMzkuOTE2NyBMMzMyLjc2MzcgMzM5LjkxNjcgTDMzMi45ODI3IDMzOS45MTY3IEwzMzMuMjAxNiAzMzkuOTE2NyBMMzMzLjQyMDUgMzM5LjkxNjcgTDMzMy42Mzk0IDMzOS45MTY3IEwzMzMuODU4MyAzMzkuOTE2NyBMMzM0LjA3NzIgMzM5LjkxNjcgTDMzNC4yOTYyIDMzOS45MTY3IEwzMzQuNTE1MSAzMzkuOTE2NyBMMzM0LjczNCAzMzkuOTE2NyBMMzM0Ljk1MjkgMzM5LjkxNjcgTDMzNS4xNzE5IDMzOS45MTY3IEwzMzUuMzkwOCAzMzkuOTE2NyBMMzM1LjYwOTcgMzM5LjkxNjcgTDMzNS44Mjg2IDMzOS45MTY3IEwzMzYuMDQ3NSAzMzkuOTE2NyBMMzM2LjI2NjUgMzM5LjkxNjcgTDMzNi40ODU0IDMzOS45MTY3IEwzMzYuNzA0MyAzMzkuOTE2NyBMMzM2LjkyMzIgMzM5LjkxNjcgTDMzNy4xNDIyIDMzOS45MTY3IEwzMzcuMzYxMSAzMzkuOTE2NyBMMzM3LjU4IDMzOS45MTY3IEwzMzcuNzk4OSAzMzkuOTE2NyBMMzM4LjAxNzggMzM5LjkxNjcgTDMzOC4yMzY4IDMzOS45MTY3IEwzMzguNDU1NyAzMzkuOTE2NyBMMzM4LjY3NDYgMzM5LjkxNjcgTDMzOC44OTM1IDMzOS45MTY3IEwzMzkuMTEyNCAzMzkuOTE2NyBMMzM5LjMzMTMgMzM5LjU2ODkgTDMzOS41NTAzIDMzOC45ODk0IEwzMzkuNzY5MiAzMzguNDA5OCBMMzM5Ljk4ODEgMzM3LjgzMDIgTDM0MC4yMDcgMzM3LjI1MDcgTDM0MC40MjYgMzM2LjY3MTEgTDM0MC42NDQ5IDMzNi4wOTE2IEwzNDAuODYzOCAzMzUuNTEyIEwzNDEuMDgyNyAzMzQuOTMyNCBMMzQxLjMwMTYgMzM0LjM1MjggTDM0MS41MjA1IDMzMy43NzMzIEwzNDEuNzM5NSAzMzMuMTkzNyBMMzQxLjk1ODQgMzMyLjYxNDIgTDM0Mi4xNzczIDMzMi4wMzQ2IEwzNDIuMzk2MiAzMzEuNDU1IEwzNDIuNjE1MSAzMzAuODc1NSBMMzQyLjgzNDEgMzMwLjI5NTkgTDM0My4wNTMgMzI5LjcxNjMgTDM0My4yNzE5IDMyOS4xMzY4IEwzNDMuNDkwOCAzMjguNTU3MiBMMzQzLjcwOTggMzI3Ljk3NzcgTDM0My45Mjg3IDMyNy4zOTgxIEwzNDQuMTQ3NiAzMjYuODE4NSBMMzQ0LjM2NjUgMzI2LjIzOSBMMzQ0LjU4NTQgMzI1LjY1OTQgTDM0NC44MDQ0IDMyNS4wNzk4IEwzNDUuMDIzMyAzMjQuNTAwMyBMMzQ1LjI0MjIgMzIzLjkyMDcgTDM0NS40NjExIDMyMy4zNDEyIEwzNDUuNjgwMSAzMjIuNzYxNiBMMzQ1Ljg5OSAzMjIuMTgyIEwzNDYuMTE3OSAzMjEuNjAyNCBMMzQ2LjMzNjggMzIxLjAyMjkgTDM0Ni41NTU3IDMyMC40NDMzIEwzNDYuNzc0NiAzMTkuODYzOCBMMzQ2Ljk5MzYgMzE5LjI4NDIgTDM0Ny4yMTI1IDMxOC43MDQ3IEwzNDcuNDMxNCAzMTguMTI1MSBMMzQ3LjY1MDMgMzE3LjU0NTUgTDM0Ny44NjkyIDMxNi45NjU5IEwzNDguMDg4MiAzMTYuMzg2NCBMMzQ4LjMwNzEgMzE1LjgwNjggTDM0OC41MjYgMzE1LjIyNzMgTDM0OC43NDQ5IDMxNC42NDc3IEwzNDguOTYzOCAzMTQuMDY4MSBMMzQ5LjE4MjcgMzEzLjQ4ODYgTDM0OS40MDE3IDMxMi45MDkgTDM0OS42MjA2IDMxMi4zMjk0IEwzNDkuODM5NSAzMTEuNzQ5OSBMMzUwLjA1ODQgMzExLjE3MDMgTDM1MC4yNzc0IDMxMC41OTA4IEwzNTAuNDk2MyAzMTAuMDExMiBMMzUwLjcxNTIgMzA5LjQzMTYgTDM1MC45MzQxIDMwOC44NTIxIEwzNTEuMTUzIDMwOC4yNzI1IEwzNTEuMzcyIDMwNy42OTI5IEwzNTEuNTkwOSAzMDcuMTEzNCBMMzUxLjgwOTggMzA2LjUzMzggTDM1Mi4wMjg3IDMwNS45NTQzIEwzNTIuMjQ3NyAzMDUuMzc0NyBMMzUyLjQ2NjYgMzA0Ljc5NTEgTDM1Mi42ODU1IDMwNC4yMTU1IEwzNTIuOTA0NCAzMDMuNjM2IEwzNTMuMTIzMyAzMDMuMDU2NCBMMzUzLjM0MjMgMzAyLjQ3NjkgTDM1My41NjEyIDMwMS44OTczIEwzNTMuNzgwMSAzMDEuMzE3NyBMMzUzLjk5OSAzMDAuNzM4MiBMMzU0LjIxNzkgMzAwLjE1ODYgTDM1NC40MzY4IDI5OS41NzkgTDM1NC42NTU4IDI5OC45OTk1IEwzNTQuODc0NyAyOTguNDE5OSBMMzU1LjA5MzYgMjk3Ljg0MDQgTDM1NS4zMTI1IDI5Ny4yNjA4IEwzNTUuNTMxNSAyOTYuNjgxMiBMMzU1Ljc1MDQgMjk2LjEwMTcgTDM1NS45NjkzIDI5NS41MjIxIEwzNTYuMTg4MiAyOTQuOTQyNSBMMzU2LjQwNzEgMjk0LjM2MyBMMzU2LjYyNiAyOTMuNzgzNCBMMzU2Ljg0NSAyOTMuMjAzOCBMMzU3LjA2MzkgMjkyLjYyNDMgTDM1Ny4yODI4IDI5Mi4wNDQ3IEwzNTcuNTAxNyAyOTEuNDY1MSBMMzU3LjcyMDYgMjkwLjg4NTYgTDM1Ny45Mzk2IDI5MC4zMDYgTDM1OC4xNTg1IDI4OS43MjY1IEwzNTguMzc3NCAyODkuMTQ2OSBMMzU4LjU5NjMgMjg4LjU2NzMgTDM1OC44MTUzIDI4Ny45ODc4IEwzNTkuMDM0MiAyODcuNDA4MiBMMzU5LjI1MzEgMjg2LjgyODYgTDM1OS40NzIgMjg2LjI0OTEgTDM1OS42OTA5IDI4NS42Njk1IEwzNTkuOTA5OSAyODUuMDg5OSBMMzYwLjEyODggMjg0LjUxMDQgTDM2MC4zNDc3IDI4My45MzA4IEwzNjAuNTY2NiAyODMuMzUxMyBMMzYwLjc4NTYgMjgyLjc3MTcgTDM2MS4wMDQ1IDI4Mi4xOTIxIEwzNjEuMjIzNCAyODEuNjEyNiBMMzYxLjQ0MjMgMjgxLjAzMyBMMzYxLjY2MTIgMjgwLjQ1MzQgTDM2MS44ODAxIDI3OS44NzM5IEwzNjIuMDk5MSAyNzkuMjk0MyBMMzYyLjMxOCAyNzguNzE0OCBMMzYyLjUzNjkgMjc4LjEzNTIgTDM2Mi43NTU4IDI3Ny41NTU2IEwzNjIuOTc0NyAyNzYuOTc2MSBMMzYzLjE5MzcgMjc2LjM5NjUgTDM2My40MTI2IDI3NS44MTY5IEwzNjMuNjMxNSAyNzUuMjM3NCBMMzYzLjg1MDQgMjc0LjY1NzggTDM2NC4wNjkzIDI3NC4wNzgyIEwzNjQuMjg4MiAyNzMuNDk4NyBMMzY0LjUwNzIgMjcyLjkxOTEgTDM2NC43MjYxIDI3Mi4zMzk1IEwzNjQuOTQ1IDI3MS43NiBMMzY1LjE2MzkgMjcxLjE4MDQgTDM2NS4zODI5IDI3MC42MDA5IEwzNjUuNjAxOCAyNzAuMDIxMyBMMzY1LjgyMDcgMjY5LjQ0MTcgTDM2Ni4wMzk2IDI2OC44NjIyIEwzNjYuMjU4NSAyNjguMjgyNiBMMzY2LjQ3NzUgMjY3LjcwMyBMMzY2LjY5NjQgMjY3LjEyMzUgTDM2Ni45MTUzIDI2Ni41NDM5IEwzNjcuMTM0MiAyNjUuOTY0NCBMMzY3LjM1MzEgMjY1LjM4NDggTDM2Ny41NzIxIDI2NC44MDUyIEwzNjcuNzkxIDI2NC4yMjU2IEwzNjguMDA5OSAyNjMuNjQ2MSBMMzY4LjIyODggMjYzLjA2NjUgTDM2OC40NDc4IDI2Mi40ODcgTDM2OC42NjY3IDI2MS45MDc0IEwzNjguODg1NiAyNjEuMzI3OSBMMzY5LjEwNDUgMjYwLjc0ODMgTDM2OS4zMjM0IDI2MC4xNjg3IEwzNjkuNTQyMyAyNTkuNTg5MSBMMzY5Ljc2MTMgMjU5LjAwOTYgTDM2OS45ODAyIDI1OC40MyBMMzcwLjE5OTEgMjU3Ljg1MDUgTDM3MC40MTggMjU3LjI3MDkgTDM3MC42MzcgMjU2LjY5MTMgTDM3MC44NTU5IDI1Ni4xMTE4IEwzNzEuMDc0OCAyNTUuNTMyMiBMMzcxLjI5MzcgMjU0Ljk1MjcgTDM3MS41MTI2IDI1NC4zNzMxIEwzNzEuNzMxNSAyNTMuNzkzNSBMMzcxLjk1MDUgMjUzLjIxNCBMMzcyLjE2OTQgMjUyLjYzNDQgTDM3Mi4zODgzIDI1Mi4wNTQ4IEwzNzIuNjA3MiAyNTEuNDc1MyBMMzcyLjgyNjEgMjUwLjg5NTcgTDM3My4wNDUxIDI1MC4zMTYxIEwzNzMuMjY0IDI0OS43MzY2IEwzNzMuNDgyOSAyNDkuMTU3IEwzNzMuNzAxOCAyNDguNTc3NCBMMzczLjkyMDggMjQ3Ljk5NzkgTDM3NC4xMzk3IDI0Ny40MTgzIEwzNzQuMzU4NiAyNDYuODM4OCBMMzc0LjU3NzUgMjQ2LjI1OTIgTDM3NC43OTY0IDI0NS42Nzk2IEwzNzUuMDE1NCAyNDUuMTAwMSBMMzc1LjIzNDMgMjQ0LjUyMDUgTDM3NS40NTMyIDI0My45NDA5IEwzNzUuNjcyMSAyNDMuMzYxNCBMMzc1Ljg5MTEgMjQyLjc4MTggTDM3Ni4xMSAyNDIuMjAyMiBMMzc2LjMyODkgMjQxLjYyMjcgTDM3Ni41NDc4IDI0MS4wNDMxIEwzNzYuNzY2NyAyNDAuNDYzNSBMMzc2Ljk4NTYgMjM5Ljg4NCBMMzc3LjIwNDYgMjM5LjMwNDQgTDM3Ny40MjM1IDIzOC43MjQ5IEwzNzcuNjQyNCAyMzguMTQ1MyBMMzc3Ljg2MTMgMjM3LjU2NTcgTDM3OC4wODAyIDIzNi45ODYyIEwzNzguMjk5MiAyMzYuNDA2NiBMMzc4LjUxODEgMjM1LjgyNyBMMzc4LjczNyAyMzUuMjQ3NSBMMzc4Ljk1NTkgMjM0LjY2NzkgTDM3OS4xNzQ4IDIzNC4wODgzIEwzNzkuMzkzNyAyMzMuNTA4OCBMMzc5LjYxMjcgMjMyLjkyOTIgTDM3OS44MzE2IDIzMi4zNDk3IEwzODAuMDUwNSAyMzEuNzcwMSBMMzgwLjI2OTQgMjMxLjE5MDUgTDM4MC40ODg0IDIzMC42MTEgTDM4MC43MDczIDIzMC4wMzE0IEwzODAuOTI2MiAyMjkuNDUxOCBMMzgxLjE0NTEgMjI4Ljg3MjMgTDM4MS4zNjQgMjI4LjI5MjcgTDM4MS41ODMgMjI3LjcxMzIgTDM4MS44MDE5IDIyNy4xMzM2IEwzODIuMDIwOCAyMjYuNTU0IEwzODIuMjM5NyAyMjUuOTc0NSBMMzgyLjQ1ODYgMjI1LjM5NDkgTDM4Mi42Nzc2IDIyNC44MTUzIEwzODIuODk2NSAyMjQuMjM1OCBMMzgzLjExNTQgMjIzLjY1NjIgTDM4My4zMzQzIDIyMy4wNzY2IEwzODMuNTUzMyAyMjIuNDk3MSBMMzgzLjc3MjIgMjIxLjkxNzUgTDM4My45OTExIDIyMS4zMzggTDM4NC4yMSAyMjAuNzU4NCBMMzg0LjQyODkgMjIwLjE3ODggTDM4NC42NDc4IDIxOS41OTkzIEwzODQuODY2OCAyMTkuMDE5NyBMMzg1LjA4NTcgMjE4LjQ0MDEgTDM4NS4zMDQ2IDIxNy44NjA2IEwzODUuNTIzNSAyMTcuMjgxIEwzODUuNzQyNSAyMTYuNzAxNCBMMzg1Ljk2MTQgMjE2LjEyMTkgTDM4Ni4xODAzIDIxNS41NDIzIEwzODYuMzk5MiAyMTQuOTYyOCBMMzg2LjYxODEgMjE0LjM4MzIgTDM4Ni44MzcgMjEzLjgwMzYgTDM4Ny4wNTYgMjEzLjIyNDEgTDM4Ny4yNzQ5IDIxMi42NDQ1IEwzODcuNDkzOCAyMTIuMDY0OSBMMzg3LjcxMjcgMjExLjQ4NTQgTDM4Ny45MzE2IDIxMC45MDU4IEwzODguMTUwNiAyMTAuMzI2MiBMMzg4LjM2OTUgMjA5Ljc0NjcgTDM4OC41ODg0IDIwOS4xNjcxIEwzODguODA3MyAyMDguNTg3NiBMMzg5LjAyNjMgMjA4LjAwOCBMMzg5LjI0NTIgMjA3LjQyODQgTDM4OS40NjQxIDIwNi44NDg5IEwzODkuNjgzIDIwNi4yNjkzIEwzODkuOTAxOSAyMDUuNjg5NyBMMzkwLjEyMDggMjA1LjExMDIgTDM5MC4zMzk4IDIwNC41MzA2IEwzOTAuNTU4NyAyMDMuOTUxIEwzOTAuNzc3NiAyMDMuMzcxNSBMMzkwLjk5NjYgMjAyLjc5MTkgTDM5MS4yMTU1IDIwMi4yMTI0IEwzOTEuNDM0NCAyMDEuNjMyOCBMMzkxLjY1MzMgMjAxLjA1MzIgTDM5MS44NzIyIDIwMC40NzM3IEwzOTIuMDkxMSAxOTkuODk0MSBMMzkyLjMxMDEgMTk5LjMxNDUgTDM5Mi41MjkgMTk4LjczNSBMMzkyLjc0NzkgMTk4LjE1NTQgTDM5Mi45NjY4IDE5Ny41NzU5IEwzOTMuMTg1NyAxOTYuOTk2MyBMMzkzLjQwNDcgMTk2LjQxNjcgTDM5My42MjM2IDE5NS44MzcyIEwzOTMuODQyNSAxOTUuMjU3NiBMMzk0LjA2MTQgMTk0LjY3OCBMMzk0LjI4MDMgMTk0LjA5ODUgTDM5NC40OTkyIDE5My41MTg5IEwzOTQuNzE4MiAxOTIuOTM5MyBMMzk0LjkzNzEgMTkyLjM1OTggTDM5NS4xNTYgMTkxLjc4MDIgTDM5NS4zNzQ5IDE5MS4yMDA3IEwzOTUuNTkzOSAxOTAuNjIxMSBMMzk1LjgxMjggMTkwLjA0MTUgTDM5Ni4wMzE3IDE4OS40NjIgTDM5Ni4yNTA2IDE4OC44ODI0IEwzOTYuNDY5NSAxODguMzAyOCBMMzk2LjY4ODUgMTg3LjcyMzMgTDM5Ni45MDc0IDE4Ny4xNDM3IEwzOTcuMTI2MyAxODYuNTY0MSBMMzk3LjM0NTIgMTg1Ljk4NDYgTDM5Ny41NjQxIDE4NS40MDUgTDM5Ny43ODMxIDE4NC44MjU0IEwzOTguMDAyIDE4NC4yNDU5IEwzOTguMjIwOSAxODMuNjY2MyBMMzk4LjQzOTggMTgzLjA4NjcgTDM5OC42NTg4IDE4Mi41MDcyIEwzOTguODc3NyAxODEuOTI3NiBMMzk5LjA5NjYgMTgxLjM0ODEgTDM5OS4zMTU1IDE4MC43Njg1IEwzOTkuNTM0NCAxODAuMTg4OSBMMzk5Ljc1MzMgMTc5LjYwOTQgTDM5OS45NzIzIDE3OS4wMjk4IEw0MDAuMTkxMiAxNzguNDUwMyBMNDAwLjQxMDEgMTc3Ljg3MDcgTDQwMC42MjkgMTc3LjI5MTEgTDQwMC44NDggMTc2LjcxMTYgTDQwMS4wNjY5IDE3Ni4xMzIgTDQwMS4yODU4IDE3NS41NTI0IEw0MDEuNTA0NyAxNzQuOTcyOSBMNDAxLjcyMzYgMTc0LjM5MzMgTDQwMS45NDI1IDE3My44MTM4IEw0MDIuMTYxNSAxNzMuMjM0MiBMNDAyLjM4MDQgMTcyLjY1NDYgTDQwMi41OTkzIDE3Mi4wNzUxIEw0MDIuODE4MiAxNzEuNDk1NSBMNDAzLjAzNzEgMTcwLjkxNTkgTDQwMy4yNTYxIDE3MC4zMzY0IEw0MDMuNDc1IDE2OS43NTY4IEw0MDMuNjkzOSAxNjkuMTc3MiBMNDAzLjkxMjggMTY4LjU5NzcgTDQwNC4xMzE3IDE2OC4wMTgxIEw0MDQuMzUwNiAxNjcuNDM4NSBMNDA0LjU2OTYgMTY2Ljg1OSBMNDA0Ljc4ODUgMTY2LjI3OTQgTDQwNS4wMDc0IDE2NS42OTk4IEw0MDUuMjI2MyAxNjUuMTIwMyBMNDA1LjQ0NTMgMTY0LjU0MDcgTDQwNS42NjQyIDE2My45NjEyIEw0MDUuODgzMSAxNjMuMzgxNiBMNDA2LjEwMjEgMTYyLjgwMiBMNDA2LjMyMSAxNjIuMjIyNSBMNDA2LjUzOTkgMTYxLjY0MjkgTDQwNi43NTg4IDE2MS4wNjMzIEw0MDYuOTc3NyAxNjAuNDgzOCBMNDA3LjE5NjYgMTU5LjkwNDIgTDQwNy40MTU2IDE1OS4zMjQ2IEw0MDcuNjM0NSAxNTguNzQ1MSBMNDA3Ljg1MzQgMTU4LjE2NTUgTDQwOC4wNzIzIDE1Ny41ODYgTDQwOC4yOTEyIDE1Ny4wMDY0IEw0MDguNTEwMiAxNTYuNDI2OCBMNDA4LjcyOTEgMTU1Ljg0NzMgTDQwOC45NDggMTU1LjI2NzcgTDQwOS4xNjY5IDE1NC42ODgyIEw0MDkuMzg1OCAxNTQuMTA4NiBMNDA5LjYwNDcgMTUzLjUyOSBMNDA5LjgyMzcgMTUyLjk0OTUgTDQxMC4wNDI2IDE1Mi4zNjk5IEw0MTAuMjYxNSAxNTEuNzkwMyBMNDEwLjQ4MDQgMTUxLjIxMDggTDQxMC42OTk0IDE1MC42MzEyIEw0MTAuOTE4MyAxNTAuMDUxNiBMNDExLjEzNzIgMTQ5LjQ3MjEgTDQxMS4zNTYxIDE0OC44OTI1IEw0MTEuNTc1IDE0OC4zMTI5IEw0MTEuNzkzOSAxNDcuNzMzNCBMNDEyLjAxMjkgMTQ3LjE1MzggTDQxMi4yMzE4IDE0Ni41NzQyIEw0MTIuNDUwNyAxNDUuOTk0NyBMNDEyLjY2OTYgMTQ1LjQxNTEgTDQxMi44ODg1IDE0NC44MzU2IEw0MTMuMTA3NSAxNDQuMjU2IEw0MTMuMzI2NCAxNDMuNjc2NCBMNDEzLjU0NTMgMTQzLjA5NjkgTDQxMy43NjQzIDE0Mi41MTczIEw0MTMuOTgzMiAxNDEuOTM3NyBMNDE0LjIwMjEgMTQxLjM1ODIgTDQxNC40MjEgMTQwLjc3ODYgTDQxNC42Mzk5IDE0MC4xOTkxIEw0MTQuODU4OCAxMzkuNjE5NSBMNDE1LjA3NzggMTM5LjAzOTkgTDQxNS4yOTY3IDEzOC40NjA0IEw0MTUuNTE1NiAxMzcuODgwOCBMNDE1LjczNDUgMTM3LjMwMTIgTDQxNS45NTM1IDEzNi43MjE3IEw0MTYuMTcyNCAxMzYuMTQyMSBMNDE2LjM5MTMgMTM1LjU2MjUgTDQxNi42MTAyIDEzNC45ODMgTDQxNi44MjkxIDEzNC40MDM0IEw0MTcuMDQ4IDEzMy44MjM5IEw0MTcuMjY3IDEzMy4yNDQzIEw0MTcuNDg1OSAxMzIuNjY0NyBMNDE3LjcwNDggMTMyLjA4NTIgTDQxNy45MjM3IDEzMS41MDU2IEw0MTguMTQyNiAxMzAuOTI2IEw0MTguMzYxNiAxMzAuMzQ2NSBMNDE4LjU4MDUgMTI5Ljc2NjkgTDQxOC43OTk0IDEyOS4xODczIEw0MTkuMDE4MyAxMjguNjA3OCBMNDE5LjIzNzIgMTI4LjAyODIgTDQxOS40NTYxIDEyNy40NDg3IEw0MTkuNjc1MSAxMjYuODY5MSBMNDE5Ljg5NCAxMjYuMjg5NSBMNDIwLjExMjkgMTI1LjcxIEw0MjAuMzMxOCAxMjUuMTMwNCBMNDIwLjU1MDggMTI0LjU1MDggTDQyMC43Njk3IDEyMy45NzEzIEw0MjAuOTg4NiAxMjMuMzkxNyBMNDIxLjIwNzYgMTIyLjgxMjEgTDQyMS40MjY1IDEyMi4yMzI2IEw0MjEuNjQ1NCAxMjEuNjUzIEw0MjEuODY0MyAxMjEuMDczNCBMNDIyLjA4MzIgMTIwLjQ5MzkgTDQyMi4zMDIxIDExOS45MTQzIEw0MjIuNTIxMSAxMTkuMzM0OCBMNDIyLjc0IDExOC43NTUyIEw0MjIuOTU4OSAxMTguMTc1NiBMNDIzLjE3NzggMTE3LjU5NjEgTDQyMy4zOTY3IDExNy4wMTY1IEw0MjMuNjE1NyAxMTYuNDM2OSBMNDIzLjgzNDYgMTE1Ljg1NzQgTDQyNC4wNTM1IDExNS4yNzc4IEw0MjQuMjcyNCAxMTQuNjk4MyBMNDI0LjQ5MTMgMTE0LjExODcgTDQyNC43MTAyIDExMy41MzkxIEw0MjQuOTI5MiAxMTIuOTU5NiBMNDI1LjE0ODEgMTEyLjM4IEw0MjUuMzY3IDExMS44MDA0IEw0MjUuNTg1OSAxMTEuMjIwOSBMNDI1LjgwNDkgMTEwLjY0MTMgTDQyNi4wMjM4IDExMC4wNjE4IEw0MjYuMjQyNyAxMDkuNDgyMiBMNDI2LjQ2MTYgMTA4LjkwMjYgTDQyNi42ODA1IDEwOC4zMjMxIEw0MjYuODk5NCAxMDcuNzQzNSBMNDI3LjExODQgMTA3LjE2MzkgTDQyNy4zMzczIDEwNi41ODQ0IEw0MjcuNTU2MiAxMDYuMDA0OCBMNDI3Ljc3NTEgMTA1LjQyNTIgTDQyNy45OTQgMTA0Ljg0NTcgTDQyOC4yMTMgMTA0LjI2NjEgTDQyOC40MzE5IDEwMy42ODY1IEw0MjguNjUwOCAxMDMuMTA3IEw0MjguODY5OCAxMDIuNTI3NCBMNDI5LjA4ODcgMTAxLjk0NzkgTDQyOS4zMDc2IDEwMS4zNjgzIEw0MjkuNTI2NSAxMDAuNzg4NyBMNDI5Ljc0NTQgMTAwLjIwOTIgTDQyOS45NjQzIDk5LjYyOTYgTDQzMC4xODMzIDk5LjA1IEw0MzAuNDAyMiA5OC40NzA1IEw0MzAuNjIxMSA5Ny44OTA5IEw0MzAuODQgOTcuMzExMyBMNDMxLjA1OSA5Ni43MzE4IEw0MzEuMjc3OSA5Ni4xNTIyIEw0MzEuNDk2OCA5NS41NzI2IEw0MzEuNzE1NyA5NC45OTMxIEw0MzEuOTM0NiA5NC40MTM1IEw0MzIuMTUzNSA5My44MzQgTDQzMi4zNzI1IDkzLjI1NDQgTDQzMi41OTE0IDkyLjY3NDggTDQzMi44MTAzIDkyLjA5NTMgTDQzMy4wMjkyIDkxLjUxNTcgTDQzMy4yNDgxIDkwLjkzNjIgTDQzMy40NjcxIDkwLjM1NjYgTDQzMy42ODYgODkuNzc3IEw0MzMuOTA0OSA4OS4xOTc1IEw0MzQuMTIzOCA4OC42MTc5IEw0MzQuMzQyNyA4OC4wMzgzIEw0MzQuNTYxNiA4Ny40NTg4IEw0MzQuNzgwNiA4Ni44NzkyIEw0MzQuOTk5NSA4Ni4yOTk2IEw0MzUuMjE4NCA4NS43MjAxIEw0MzUuNDM3MyA4NS4xNDA1IEw0MzUuNjU2MyA4NC41NjEgTDQzNS44NzUyIDgzLjk4MTQgTDQzNi4wOTQxIDgzLjQwMTggTDQzNi4zMTMgODIuODIyMyBMNDM2LjUzMiA4Mi4yNDI3IEw0MzYuNzUwOSA4MS42NjMxIEw0MzYuOTY5OCA4MS4wODM2IEw0MzcuMTg4NyA4MC41MDQgTDQzNy40MDc2IDc5LjkyNDQgTDQzNy42MjY2IDc5LjM0NDkgTDQzNy44NDU1IDc4Ljc2NTMgTDQzOC4wNjQ0IDc4LjE4NTcgTDQzOC4yODMzIDc3LjYwNjIgTDQzOC41MDIyIDc3LjAyNjYgTDQzOC43MjEyIDc2LjQ0NzEgTDQzOC45NDAxIDc1Ljg2NzUgTDQzOS4xNTkgNzUuMjg3OSBMNDM5LjM3NzkgNzQuNzA4NCBMNDM5LjU5NjggNzQuMTI4OCBMNDM5LjgxNTcgNzMuNTQ5MiBMNDQwLjAzNDcgNzIuOTY5NyBMNDQwLjI1MzYgNzIuMzkwMSBMNDQwLjQ3MjUgNzEuODEwNSBMNDQwLjY5MTQgNzEuMjMxIEw0NDAuOTEwNCA3MC42NTE0IEw0NDEuMTI5MyA3MC4wNzE5IEw0NDEuMzQ4MiA2OS40OTIzIEw0NDEuNTY3MSA2OC45MTI3IEw0NDEuNzg2IDY4LjMzMzIgTDQ0Mi4wMDQ5IDY3Ljc1MzYgTDQ0Mi4yMjM5IDY3LjE3NCBMNDQyLjQ0MjggNjYuNTk0NSBMNDQyLjY2MTcgNjYuMDE0OSBMNDQyLjg4MDYgNjUuNDM1NCBMNDQzLjA5OTUgNjQuODU1OCBMNDQzLjMxODUgNjQuMjc2MiBMNDQzLjUzNzQgNjMuNjk2NyBMNDQzLjc1NjMgNjMuMTE3MSBMNDQzLjk3NTMgNjIuNTM3NSBMNDQ0LjE5NDIgNjEuOTU4IEw0NDQuNDEzMSA2MS4zNzg0IEw0NDQuNjMyIDYwLjc5ODggTDQ0NC44NTA5IDYwLjIxOTMgTDQ0NS4wNjk4IDU5LjYzOTcgTDQ0NS4yODg4IDU5LjA4MzMgTDQ0NS41MDc3IDU5LjA4MzMgTDQ0NS43MjY2IDU5LjA4MzMgTDQ0NS45NDU1IDU5LjA4MzMgTDQ0Ni4xNjQ0IDU5LjA4MzMgTDQ0Ni4zODM0IDU5LjA4MzMgTDQ0Ni42MDIzIDU5LjA4MzMgTDQ0Ni44MjEyIDU5LjA4MzMgTDQ0Ny4wNDAxIDU5LjA4MzMgTDQ0Ny4yNTkgNTkuMDgzMyBMNDQ3LjQ3NzkgNTkuMDgzMyBMNDQ3LjY5NjkgNTkuMDgzMyBMNDQ3LjkxNTggNTkuMDgzMyBMNDQ4LjEzNDcgNTkuMDgzMyBMNDQ4LjM1MzYgNTkuMDgzMyBMNDQ4LjU3MjYgNTkuMDgzMyBMNDQ4Ljc5MTUgNTkuMDgzMyBMNDQ5LjAxMDQgNTkuMDgzMyBMNDQ5LjIyOTMgNTkuMDgzMyBMNDQ5LjQ0ODIgNTkuMDgzMyBMNDQ5LjY2NzEgNTkuMDgzMyBMNDQ5Ljg4NjEgNTkuMDgzMyBMNDUwLjEwNSA1OS4wODMzIEw0NTAuMzIzOSA1OS4wODMzIEw0NTAuNTQyOCA1OS4wODMzIEw0NTAuNzYxNyA1OS4wODMzIEw0NTAuOTgwNyA1OS4wODMzIEw0NTEuMTk5NiA1OS4wODMzIEw0NTEuNDE4NSA1OS4wODMzIEw0NTEuNjM3NSA1OS4wODMzIEw0NTEuODU2NCA1OS4wODMzIEw0NTIuMDc1MyA1OS4wODMzIEw0NTIuMjk0MiA1OS4wODMzIEw0NTIuNTEzMSA1OS4wODMzIEw0NTIuNzMyIDU5LjA4MzMgTDQ1Mi45NTEgNTkuMDgzMyBMNDUzLjE2OTkgNTkuMDgzMyBMNDUzLjM4ODggNTkuMDgzMyBMNDUzLjYwNzcgNTkuMDgzMyBMNDUzLjgyNjcgNTkuMDgzMyBMNDU0LjA0NTYgNTkuMDgzMyBMNDU0LjI2NDUgNTkuMDgzMyBMNDU0LjQ4MzQgNTkuMDgzMyBMNDU0LjcwMjMgNTkuMDgzMyBMNDU0LjkyMTIgNTkuMDgzMyBMNDU1LjE0MDIgNTkuMDgzMyBMNDU1LjM1OTEgNTkuMDgzMyBMNDU1LjU3OCA1OS4wODMzIEw0NTUuNzk2OSA1OS4wODMzIEw0NTYuMDE1OCA1OS4wODMzIEw0NTYuMjM0OCA1OS4wODMzIEw0NTYuNDUzNyA1OS4wODMzIEw0NTYuNjcyNiA1OS4wODMzIEw0NTYuODkxNSA1OS4wODMzIEw0NTcuMTEwNCA1OS4wODMzIEw0NTcuMzI5MyA1OS4wODMzIEw0NTcuNTQ4MyA1OS4wODMzIEw0NTcuNzY3MiA1OS4wODMzIEw0NTcuOTg2MSA1OS4wODMzIEw0NTguMjA1IDU5LjA4MzMgTDQ1OC40MjQgNTkuMDgzMyBMNDU4LjY0MjkgNTkuMDgzMyBMNDU4Ljg2MTggNTkuMDgzMyBMNDU5LjA4MDcgNTkuMDgzMyBMNDU5LjI5OTcgNTkuMDgzMyBMNDU5LjUxODYgNTkuMDgzMyBMNDU5LjczNzUgNTkuMDgzMyBMNDU5Ljk1NjQgNTkuMDgzMyBMNDYwLjE3NTMgNTkuMDgzMyBMNDYwLjM5NDMgNTkuMDgzMyBMNDYwLjYxMzIgNTkuMDgzMyBMNDYwLjgzMjEgNTkuMDgzMyBMNDYxLjA1MSA1OS4wODMzIEw0NjEuMjY5OSA1OS4wODMzIEw0NjEuNDg4OSA1OS4wODMzIEw0NjEuNzA3OCA1OS4wODMzIEw0NjEuOTI2NyA1OS4wODMzIEw0NjIuMTQ1NiA1OS4wODMzIEw0NjIuMzY0NSA1OS4wODMzIEw0NjIuNTgzNCA1OS4wODMzIEw0NjIuODAyNCA1OS4wODMzIEw0NjMuMDIxMyA1OS4wODMzIEw0NjMuMjQwMiA1OS4wODMzIEw0NjMuNDU5MSA1OS4wODMzIEw0NjMuNjc4MSA1OS4wODMzIEw0NjMuODk3IDU5LjA4MzMgTDQ2NC4xMTU5IDU5LjA4MzMgTDQ2NC4zMzQ4IDU5LjA4MzMgTDQ2NC41NTM3IDU5LjA4MzMgTDQ2NC43NzI2IDU5LjA4MzMgTDQ2NC45OTE2IDU5LjA4MzMgTDQ2NS4yMTA1IDU5LjA4MzMgTDQ2NS40Mjk0IDU5LjA4MzMgTDQ2NS42NDgzIDU5LjA4MzMgTDQ2NS44NjcyIDU5LjA4MzMgTDQ2Ni4wODYyIDU5LjA4MzMgTDQ2Ni4zMDUxIDU5LjA4MzMgTDQ2Ni41MjQgNTkuMDgzMyBMNDY2Ljc0MyA1OS4wODMzIEw0NjYuOTYxOSA1OS4wODMzIEw0NjcuMTgwOCA1OS4wODMzIEw0NjcuMzk5NyA1OS4wODMzIEw0NjcuNjE4NiA1OS4wODMzIEw0NjcuODM3NSA1OS4wODMzIEw0NjguMDU2NSA1OS4wODMzIEw0NjguMjc1NCA1OS4wODMzIEw0NjguNDk0MyA1OS4wODMzIEw0NjguNzEzMiA1OS4wODMzIEw0NjguOTMyMiA1OS4wODMzIEw0NjkuMTUxMSA1OS4wODMzIEw0NjkuMzcgNTkuMDgzMyBMNDY5LjU4ODkgNTkuMDgzMyBMNDY5LjgwNzggNTkuMDgzMyBMNDcwLjAyNjcgNTkuMDgzMyBMNDcwLjI0NTcgNTkuMDgzMyBMNDcwLjQ2NDYgNTkuMDgzMyBMNDcwLjY4MzUgNTkuMDgzMyBMNDcwLjkwMjQgNTkuMDgzMyBMNDcxLjEyMTMgNTkuMDgzMyBMNDcxLjM0MDMgNTkuMDgzMyBMNDcxLjU1OTIgNTkuMDgzMyBMNDcxLjc3ODEgNTkuMDgzMyBMNDcxLjk5NyA1OS4wODMzIEw0NzIuMjE1OSA1OS4wODMzIEw0NzIuNDM0OCA1OS4wODMzIEw0NzIuNjUzOCA1OS4wODMzIEw0NzIuODcyNyA1OS4wODMzIEw0NzMuMDkxNiA1OS4wODMzIEw0NzMuMzEwNSA1OS4wODMzIEw0NzMuNTI5NSA1OS4wODMzIEw0NzMuNzQ4NCA1OS4wODMzIEw0NzMuOTY3MyA1OS4wODMzIEw0NzQuMTg2MiA1OS4wODMzIEw0NzQuNDA1MiA1OS4wODMzIEw0NzQuNjI0MSA1OS4wODMzIEw0NzQuODQzIDU5LjA4MzMgTDQ3NS4wNjE5IDU5LjA4MzMgTDQ3NS4yODA4IDU5LjA4MzMgTDQ3NS40OTk4IDU5LjA4MzMgTDQ3NS43MTg3IDU5LjA4MzMgTDQ3NS45Mzc2IDU5LjA4MzMgTDQ3Ni4xNTY1IDU5LjA4MzMgTDQ3Ni4zNzU0IDU5LjA4MzMgTDQ3Ni41OTQ0IDU5LjA4MzMgTDQ3Ni44MTMzIDU5LjA4MzMgTDQ3Ny4wMzIyIDU5LjA4MzMgTDQ3Ny4yNTExIDU5LjA4MzMgTDQ3Ny40NyA1OS4wODMzIEw0NzcuNjg4OSA1OS4wODMzIEw0NzcuOTA3OSA1OS4wODMzIEw0NzguMTI2OCA1OS4wODMzIEw0NzguMzQ1NyA1OS4wODMzIEw0NzguNTY0NiA1OS4wODMzIEw0NzguNzgzNiA1OS4wODMzIEw0NzkuMDAyNSA1OS4wODMzIEw0NzkuMjIxNCA1OS4wODMzIEw0NzkuNDQwMyA1OS4wODMzIEw0NzkuNjU5MiA1OS4wODMzIEw0NzkuODc4MSA1OS4wODMzIEw0ODAuMDk3MSA1OS4wODMzIEw0ODAuMzE2IDU5LjA4MzMgTDQ4MC41MzQ5IDU5LjA4MzMgTDQ4MC43NTM4IDU5LjA4MzMgTDQ4MC45NzI3IDU5LjA4MzMgTDQ4MS4xOTE3IDU5LjA4MzMgTDQ4MS40MTA2IDU5LjA4MzMgTDQ4MS42Mjk1IDU5LjA4MzMgTDQ4MS44NDg0IDU5LjA4MzMgTDQ4Mi4wNjc0IDU5LjA4MzMgTDQ4Mi4yODYzIDU5LjA4MzMgTDQ4Mi41MDUyIDU5LjA4MzMgTDQ4Mi43MjQxIDU5LjA4MzMgTDQ4Mi45NDMgNTkuMDgzMyBMNDgzLjE2MiA1OS4wODMzIEw0ODMuMzgwOSA1OS4wODMzIEw0ODMuNTk5OCA1OS4wODMzIEw0ODMuODE4NyA1OS4wODMzIEw0ODQuMDM3NyA1OS4wODMzIEw0ODQuMjU2NiA1OS4wODMzIEw0ODQuNDc1NSA1OS4wODMzIEw0ODQuNjk0NCA1OS4wODMzIEw0ODQuOTEzMyA1OS4wODMzIEw0ODUuMTMyMiA1OS4wODMzIEw0ODUuMzUxMiA1OS4wODMzIEw0ODUuNTcwMSA1OS4wODMzIEw0ODUuNzg5IDU5LjA4MzMgTDQ4Ni4wMDc5IDU5LjA4MzMgTDQ4Ni4yMjY4IDU5LjA4MzMgTDQ4Ni40NDU4IDU5LjA4MzMgTDQ4Ni42NjQ3IDU5LjA4MzMgTDQ4Ni44ODM2IDU5LjA4MzMgTDQ4Ny4xMDI1IDU5LjA4MzMgTDQ4Ny4zMjE0IDU5LjA4MzMgTDQ4Ny41NDAzIDU5LjA4MzMgTDQ4Ny43NTkzIDU5LjA4MzMgTDQ4Ny45NzgyIDU5LjA4MzMgTDQ4OC4xOTcxIDU5LjA4MzMgTDQ4OC40MTYgNTkuMDgzMyBMNDg4LjYzNSA1OS4wODMzIEw0ODguODUzOSA1OS4wODMzIEw0ODkuMDcyOCA1OS4wODMzIEw0ODkuMjkxNyA1OS4wODMzIEw0ODkuNTEwNyA1OS4wODMzIEw0ODkuNzI5NiA1OS4wODMzIEw0ODkuOTQ4NSA1OS4wODMzIEw0OTAuMTY3NCA1OS4wODMzIEw0OTAuMzg2MyA1OS4wODMzIEw0OTAuNjA1MyA1OS4wODMzIEw0OTAuODI0MiA1OS4wODMzIEw0OTEuMDQzMSA1OS4wODMzIEw0OTEuMjYyIDU5LjA4MzMgTDQ5MS40ODA5IDU5LjA4MzMgTDQ5MS42OTk5IDU5LjA4MzMgTDQ5MS45MTg4IDU5LjA4MzMgTDQ5Mi4xMzc3IDU5LjA4MzMgTDQ5Mi4zNTY2IDU5LjA4MzMgTDQ5Mi41NzU1IDU5LjA4MzMgTDQ5Mi43OTQ0IDU5LjA4MzMgTDQ5My4wMTM0IDU5LjA4MzMgTDQ5My4yMzIzIDU5LjA4MzMgTDQ5My40NTEyIDU5LjA4MzMgTDQ5My42NzAxIDU5LjA4MzMgTDQ5My44ODkxIDU5LjA4MzMgTDQ5NC4xMDggNTkuMDgzMyBMNDk0LjMyNjkgNTkuMDgzMyBMNDk0LjU0NTggNTkuMDgzMyBMNDk0Ljc2NDcgNTkuMDgzMyBMNDk0Ljk4MzYgNTkuMDgzMyBMNDk1LjIwMjYgNTkuMDgzMyBMNDk1LjQyMTUgNTkuMDgzMyBMNDk1LjY0MDQgNTkuMDgzMyBMNDk1Ljg1OTMgNTkuMDgzMyBMNDk2LjA3ODIgNTkuMDgzMyBMNDk2LjI5NzIgNTkuMDgzMyBMNDk2LjUxNjEgNTkuMDgzMyBMNDk2LjczNSA1OS4wODMzIEw0OTYuOTUzOSA1OS4wODMzIEw0OTcuMTcyOSA1OS4wODMzIEw0OTcuMzkxOCA1OS4wODMzIEw0OTcuNjEwNyA1OS4wODMzIEw0OTcuODI5NiA1OS4wODMzIEw0OTguMDQ4NSA1OS4wODMzIEw0OTguMjY3NSA1OS4wODMzIEw0OTguNDg2NCA1OS4wODMzIEw0OTguNzA1MyA1OS4wODMzIEw0OTguOTI0MiA1OS4wODMzIEw0OTkuMTQzMiA1OS4wODMzIEw0OTkuMzYyMSA1OS4wODMzIEw0OTkuNTgxIDU5LjA4MzMgTDQ5OS43OTk5IDU5LjA4MzMgTDUwMC4wMTg4IDU5LjA4MzMgTDUwMC4yMzc3IDU5LjA4MzMgTDUwMC40NTY3IDU5LjA4MzMgTDUwMC42NzU2IDU5LjA4MzMgTDUwMC44OTQ1IDU5LjA4MzMgTDUwMS4xMTM0IDU5LjA4MzMgTDUwMS4zMzIzIDU5LjA4MzMgTDUwMS41NTEzIDU5LjA4MzMgTDUwMS43NzAyIDU5LjA4MzMgTDUwMS45ODkxIDU5LjA4MzMgTDUwMi4yMDggNTkuMDgzMyBMNTAyLjQyNjkgNTkuMDgzMyBMNTAyLjY0NTggNTkuMDgzMyBMNTAyLjg2NDggNTkuMDgzMyBMNTAzLjA4MzcgNTkuMDgzMyBMNTAzLjMwMjYgNTkuMDgzMyBMNTAzLjUyMTUgNTkuMDgzMyBMNTAzLjc0MDUgNTkuMDgzMyBMNTAzLjk1OTQgNTkuMDgzMyBMNTA0LjE3ODMgNTkuMDgzMyBMNTA0LjM5NzIgNTkuMDgzMyBMNTA0LjYxNjEgNTkuMDgzMyBMNTA0LjgzNTEgNTkuMDgzMyBMNTA1LjA1NCA1OS4wODMzIEw1MDUuMjcyOSA1OS4wODMzIEw1MDUuNDkxOCA1OS4wODMzIEw1MDUuNzEwOCA1OS4wODMzIEw1MDUuOTI5NyA1OS4wODMzIEw1MDYuMTQ4NiA1OS4wODMzIEw1MDYuMzY3NSA1OS4wODMzIEw1MDYuNTg2NCA1OS4wODMzIEw1MDYuODA1NCA1OS4wODMzIEw1MDcuMDI0MyA1OS4wODMzIEw1MDcuMjQzMiA1OS4wODMzIEw1MDcuNDYyMSA1OS4wODMzIEw1MDcuNjgxIDU5LjA4MzMgTDUwNy44OTk5IDU5LjA4MzMgTDUwOC4xMTg5IDU5LjA4MzMgTDUwOC4zMzc4IDU5LjA4MzMgTDUwOC41NTY3IDU5LjA4MzMgTDUwOC43NzU2IDU5LjA4MzMgTDUwOC45OTQ2IDU5LjA4MzMgTDUwOS4yMTM1IDU5LjA4MzMgTDUwOS40MzI0IDU5LjA4MzMgTDUwOS42NTEzIDU5LjA4MzMgTDUwOS44NzAyIDU5LjA4MzMgTDUxMC4wODkxIDU5LjA4MzMgTDUxMC4zMDgxIDU5LjA4MzMgTDUxMC41MjcgNTkuMDgzMyBMNTEwLjc0NTkgNTkuMDgzMyBMNTEwLjk2NDggNTkuMDgzMyBMNTExLjE4MzcgNTkuMDgzMyBMNTExLjQwMjcgNTkuMDgzMyBMNTExLjYyMTYgNTkuMDgzMyBMNTExLjg0MDUgNTkuMDgzMyBMNTEyLjA1OTQgNTkuMDgzMyBMNTEyLjI3ODQgNTkuMDgzMyBMNTEyLjQ5NzMgNTkuMDgzMyBMNTEyLjcxNjIgNTkuMDgzMyBMNTEyLjkzNTEgNTkuMDgzMyBMNTEzLjE1NDEgNTkuMDgzMyBMNTEzLjM3MyA1OS4wODMzIEw1MTMuNTkxOSA1OS4wODMzIEw1MTMuODEwOCA1OS4wODMzIEw1MTQuMDI5NyA1OS4wODMzIEw1MTQuMjQ4NyA1OS4wODMzIEw1MTQuNDY3NSA1OS4wODMzIEw1MTQuNjg2NSA1OS4wODMzIEw1MTQuOTA1NCA1OS4wODMzIEw1MTUuMTI0MyA1OS4wODMzIEw1MTUuMzQzMyA1OS4wODMzIEw1MTUuNTYyMiA1OS4wODMzIEw1MTUuNzgxMSA1OS4wODMzIEw1MTYgNTkuMDgzMyIvPjwvZz48ZyBzdHlsZT0iZm9udC1zaXplOjEzLjMzMzNweDsgdGV4dC1yZW5kZXJpbmc6Z2VvbWV0cmljUHJlY2lzaW9uOyBjb2xvci1yZW5kZXJpbmc6b3B0aW1pemVRdWFsaXR5OyBpbWFnZS1yZW5kZXJpbmc6b3B0aW1pemVRdWFsaXR5OyBmb250LWZhbWlseTonU2Fuc1NlcmlmJzsgY29sb3ItaW50ZXJwb2xhdGlvbjpsaW5lYXJSR0I7IiB0cmFuc2Zvcm09InRyYW5zbGF0ZSg3OC40Miw0NS4wNDE3KSI+PHRleHQgc3R5bGU9InN0cm9rZTpub25lOyIgeT0iNC41IiB4bWw6c3BhY2U9InByZXNlcnZlIiB4PSIwIj5oZWFkPC90ZXh0PjwvZz48ZyBzdHlsZT0iZm9udC1zaXplOjEzLjMzMzNweDsgdGV4dC1yZW5kZXJpbmc6Z2VvbWV0cmljUHJlY2lzaW9uOyBjb2xvci1yZW5kZXJpbmc6b3B0aW1pemVRdWFsaXR5OyBpbWFnZS1yZW5kZXJpbmc6b3B0aW1pemVRdWFsaXR5OyBmb250LWZhbWlseTonU2Fuc1NlcmlmJzsgY29sb3ItaW50ZXJwb2xhdGlvbjpsaW5lYXJSR0I7IiB0cmFuc2Zvcm09InRyYW5zbGF0ZSgyNzIuOTk4NSw0NS4wNDE3KSI+PHRleHQgc3R5bGU9InN0cm9rZTpub25lOyIgeT0iNC41IiB4bWw6c3BhY2U9InByZXNlcnZlIiB4PSItMTYuNSI+Ym9keTwvdGV4dD48L2c+PGcgc3R5bGU9ImZvbnQtc2l6ZToxMy4zMzMzcHg7IHRleHQtcmVuZGVyaW5nOmdlb21ldHJpY1ByZWNpc2lvbjsgY29sb3ItcmVuZGVyaW5nOm9wdGltaXplUXVhbGl0eTsgaW1hZ2UtcmVuZGVyaW5nOm9wdGltaXplUXVhbGl0eTsgZm9udC1mYW1pbHk6J1NhbnNTZXJpZic7IGNvbG9yLWludGVycG9sYXRpb246bGluZWFyUkdCOyIgdHJhbnNmb3JtPSJ0cmFuc2xhdGUoNDgwLjY0NDQsNDUuMDQxNykiPjx0ZXh0IHN0eWxlPSJzdHJva2U6bm9uZTsiIHk9IjQuNSIgeG1sOnNwYWNlPSJwcmVzZXJ2ZSIgeD0iLTIyIj50aG9yYXg8L3RleHQ+PC9nPjwvZz48L3N2Zz4=;" vertex="1" parent="1">
          <mxGeometry x="140" y="170" width="570" height="413" as="geometry" />
        </mxCell>
      </root>
    </mxGraphModel>
  </diagram>
</mxfile>
